<svg
    xmlns="http://www.w3.org/2000/svg"
    viewBox="0 0 960 960"
    id="vector">
    <path
        id="path"
        d="M 360 760 Q 340 760 322.5 751 Q 305 742 294 726 L 120 480 L 294 234 Q 305 218 322.5 209 Q 340 200 360 200 L 760 200 Q 793 200 816.5 223.5 Q 840 247 840 280 L 840 680 Q 840 713 816.5 736.5 Q 793 760 760 760 L 360 760 Z M 760 680 Q 760 680 760 680 Q 760 680 760 680 L 760 480 L 760 280 Q 760 280 760 280 Q 760 280 760 280 L 760 280 Q 760 280 760 280 Q 760 280 760 280 L 760 680 Q 760 680 760 680 Q 760 680 760 680 L 760 680 Z M 360 680 L 760 680 Q 760 680 760 680 Q 760 680 760 680 L 760 280 Q 760 280 760 280 Q 760 280 760 280 L 360 280 Q 360 280 360 280 Q 360 280 360 280 L 218 480 L 360 680 Q 360 680 360 680 Q 360 680 360 680 Z M 456 640 L 560 536 L 664 640 L 720 584 L 616 480 L 720 376 L 664 320 L 560 424 L 456 320 L 400 376 L 504 480 L 400 584 L 456 640 Z"
        fill="#000000"/>
</svg>
