<svg
    xmlns="http://www.w3.org/2000/svg"
    viewBox="0 0 960 960"
    id="vector">
    <path
        id="path"
        d="M 424 664 L 688 400 L 632 344 L 424 552 L 328 456 L 272 512 L 424 664 Z M 480 880 C 424.67 880 372.67 869.5 324 848.5 C 275.33 827.5 233 799 197 763 C 161 727 132.5 684.67 111.5 636 C 90.5 587.33 80 535.33 80 480 C 80 424.67 90.5 372.67 111.5 324 C 132.5 275.33 161 233 197 197 C 233 161 275.33 132.5 324 111.5 C 372.67 90.5 424.67 80 480 80 C 535.33 80 587.33 90.5 636 111.5 C 684.67 132.5 727 161 763 197 C 799 233 827.5 275.33 848.5 324 C 869.5 372.67 880 424.67 880 480 C 880 535.33 869.5 587.33 848.5 636 C 827.5 684.67 799 727 763 763 C 727 799 684.67 827.5 636 848.5 C 587.33 869.5 535.33 880 480 880 Z"
        fill="#000000"/>
</svg>
