<?xml version="1.0" encoding="UTF-8" standalone="no"?>
<!-- Created with Inkscape (http://www.inkscape.org/) -->

<svg
   width="210mm"
   height="210mm"
   viewBox="0 0 210 210"
   version="1.1"
   id="svg1"
   xml:space="preserve"
   inkscape:version="1.3.2 (091e20e, 2023-11-25)"
   sodipodi:docname="delay_of_game.svg"
   xmlns:inkscape="http://www.inkscape.org/namespaces/inkscape"
   xmlns:sodipodi="http://sodipodi.sourceforge.net/DTD/sodipodi-0.dtd"
   xmlns="http://www.w3.org/2000/svg"
   xmlns:svg="http://www.w3.org/2000/svg"><sodipodi:namedview
     id="namedview1"
     pagecolor="#ffffff"
     bordercolor="#111111"
     borderopacity="1"
     inkscape:showpageshadow="0"
     inkscape:pageopacity="0"
     inkscape:pagecheckerboard="1"
     inkscape:deskcolor="#d1d1d1"
     inkscape:document-units="mm"
     inkscape:zoom="0.40476458"
     inkscape:cx="358.23292"
     inkscape:cy="381.70336"
     inkscape:window-width="1312"
     inkscape:window-height="600"
     inkscape:window-x="0"
     inkscape:window-y="25"
     inkscape:window-maximized="0"
     inkscape:current-layer="layer1" /><defs
     id="defs1" /><g
     inkscape:label="Layer 1"
     inkscape:groupmode="layer"
     id="layer1"><path
       style="fill:#000000"
       d="m -3.4435261,105.94112 c 0.1406511,-59.758582 0.3827183,-91.181376 0.5379273,-69.828435 0.7409824,101.940945 0.7474866,178.480705 0.015167,178.480555 -0.4448529,-9e-5 -0.6937454,-48.89355 -0.5530943,-108.65212 z m 42.2472131,97.46949 c -0.311641,-0.81213 -0.417733,-4.08786 -0.235761,-7.27941 0.302127,-5.29892 0.56498,-5.82564 3.026936,-6.06546 1.482844,-0.14445 3.655638,0.47499 4.828432,1.37654 2.926263,2.24946 2.966487,9.8094 0.06349,11.93212 -2.641911,1.93182 -6.947894,1.95211 -7.683094,0.0362 z m 7.794961,-4.67186 c 0.752185,-2.99694 -2.816647,-7.60524 -4.895008,-6.32074 -1.643197,1.01555 -1.509354,8.94178 0.16083,9.52438 2.270977,0.79216 4.030064,-0.39822 4.734178,-3.20364 z m 5.146216,4.67186 c -0.311641,-0.81213 -0.417734,-4.08786 -0.235762,-7.27941 0.309792,-5.43336 0.519687,-5.82456 3.296545,-6.14407 1.631127,-0.18768 2.965686,0.17629 2.965686,0.80883 0,0.63253 -0.67602,1.15006 -1.502267,1.15006 -2.663297,0 -2.977992,3.24319 -0.406981,4.19427 l 2.368555,0.87619 -2.386516,1.27722 c -2.96393,1.58625 -3.047417,3.00309 -0.229654,3.89742 1.186275,0.37651 2.156863,1.13715 2.156863,1.69032 0,1.59082 -5.397147,1.16915 -6.026469,-0.47083 z m 9.916359,-0.22926 c -1.065092,-2.77559 -0.745961,-11.23533 0.423836,-11.23533 0.593137,0 1.078431,2.1319 1.078431,4.73756 0,3.21632 0.519429,4.93688 1.617647,5.35831 2.479706,0.95155 4.690753,-0.31912 5.059492,-2.90764 0.26397,-1.85306 0.945074,-2.26368 3.298351,-1.9885 1.631128,0.19073 2.965686,-0.17324 2.965686,-0.80883 0,-0.63558 -0.970588,-1.15561 -2.156862,-1.15561 -1.463335,0 -2.156863,-0.71895 -2.156863,-2.23594 0,-4.24367 3.428039,-1.68179 5.618931,4.19921 2.293474,6.15636 2.014348,7.98094 -0.791667,5.17492 -2.314676,-2.31467 -4.080212,-2.20213 -6.444911,0.41083 -2.341767,2.58763 -7.585558,2.86547 -8.512071,0.45102 z m 34.287,-1.00283 c -3.112949,-4.75096 -0.03864,-12.25335 5.062827,-12.35507 2.77119,-0.0553 5.28969,3.61185 5.28969,7.70211 0,6.85759 -6.881452,9.95047 -10.352517,4.65296 z m 8.195657,-4.74624 c 0,-4.1917 -2.3511,-6.05673 -5.307648,-4.21033 -2.768281,1.72882 -3.002916,6.81816 -0.381963,8.28492 2.824291,1.58055 5.689611,-0.47144 5.689611,-4.07459 z m 20.82727,6.60763 c -2.23275,-1.41971 -3.60053,-6.48725 -2.51886,-9.33224 1.14608,-3.01444 4.86295,-5.36192 7.119,-4.49619 2.40415,0.92256 1.7938,2.81602 -0.81575,2.53065 -1.58667,-0.17352 -2.89693,0.69828 -4.03693,2.68602 -1.5897,2.77185 -1.54788,3.08285 0.71949,5.35022 1.99467,1.99466 2.64043,2.16031 3.76733,0.9664 1.08518,-1.14972 1.0876,-1.5408 0.012,-1.93519 -2.10301,-0.7711 -1.62194,-3.75993 0.53922,-3.35008 2.33268,0.44237 3.22536,6.17905 1.16478,7.48534 -1.77929,1.12797 -4.26341,1.16766 -5.95026,0.0951 z m 27.78271,-1.64939 c -0.63745,-1.66974 -1.159,-3.48959 -1.159,-4.04412 0,-0.55452 -0.48529,-1.00822 -1.07843,-1.00822 -0.59314,0 -1.07843,1.45588 -1.07843,3.23529 0,1.77941 -0.48529,3.23529 -1.07843,3.23529 -1.27321,0 -1.47859,-12.56657 -0.21812,-13.34558 1.51927,-0.93897 3.1067,0.83885 4.46248,4.99767 1.54106,4.72719 2.75074,4.38378 5.08204,-1.4427 0.92758,-2.31825 2.12037,-3.94687 2.65064,-3.61914 0.53027,0.32773 0.96413,3.50763 0.96413,7.06646 0,4.03911 -0.40524,6.22013 -1.07843,5.80408 -0.59313,-0.36658 -1.07843,-1.8511 -1.07843,-3.29894 0,-1.44784 -0.48529,-2.63243 -1.07843,-2.63243 -0.59314,0 -1.07843,0.87783 -1.07843,1.95074 0,1.07291 -0.69169,2.89276 -1.53708,4.04412 -1.48252,2.01906 -1.57823,1.9856 -2.69608,-0.94252 z m 12.50113,1.77772 c -0.89885,-0.89885 -0.94696,-10.3732 -0.0644,-12.67324 0.722,-1.8815 5.30077,-2.33354 6.35521,-0.62741 0.36658,0.59313 0.007,1.07843 -0.7991,1.07843 -0.80608,0 -2.05264,0.58703 -2.77013,1.30452 -1.02041,1.02042 -0.7931,1.57824 1.04373,2.56128 l 2.34826,1.25675 -2.33785,1.25118 c -2.91859,1.56198 -2.98559,2.91121 -0.18099,3.64463 1.18628,0.31021 2.15687,1.09475 2.15687,1.74342 0,1.27429 -4.5718,1.64028 -5.75164,0.46044 z m -81.601304,-2.92385 c 0,-1.41041 -0.734454,-4.32217 -1.63212,-6.47059 -1.001191,-2.39619 -1.196202,-3.90621 -0.504464,-3.90621 0.620211,0 1.512764,1.04104 1.983452,2.31344 l 0.855797,2.31343 2.344746,-2.51678 c 2.71447,-2.91365 3.056904,-1.56528 0.733743,2.88918 -0.886052,1.69893 -1.613993,4.18087 -1.617647,5.51543 -0.0037,1.33456 -0.491938,2.42647 -1.085076,2.42647 -0.593137,0 -1.078431,-1.15397 -1.078431,-2.56437 z m 25.612744,1.9478 c -0.96903,-0.98402 -1.07852,-9.28851 -0.15423,-11.69719 0.69673,-1.81565 5.28575,-2.35783 6.28411,-0.74245 0.32748,0.52986 -0.61447,1.26705 -2.09321,1.63819 -3.22295,0.80891 -3.55142,3.39182 -0.53177,4.18148 2.75912,0.72152 2.81561,2.92282 0.075,2.92282 -1.28469,0 -2.21382,0.86509 -2.42647,2.25924 -0.18954,1.24258 -0.70859,1.88964 -1.15344,1.43791 z m 25.6484,-1.66581 c 3.98806,-12.63012 5.61374,-13.52129 8.31529,-4.55831 2.03222,6.74234 1.83548,8.01451 -0.8276,5.35143 -2.17226,-2.17226 -2.66229,-2.17093 -5.78414,0.0157 -2.45141,1.71704 -2.49463,1.69651 -1.70355,-0.80882 z m 6.97415,-5.26664 c 0,-0.59313 -0.97059,-1.07843 -2.15686,-1.07843 -1.18628,0 -2.15687,0.4853 -2.15687,1.07843 0,0.59314 0.97059,1.07844 2.15687,1.07844 1.18627,0 2.15686,-0.4853 2.15686,-1.07844 z m -66.427598,-51.8568 -3.131225,-0.63131 3.235294,-0.44712 3.235294,-0.44712 v -11.32353 -11.32353 h -6.470588 -6.470589 v 11.59454 c 0,6.377 -0.36397,11.59391 -0.808823,11.59314 -0.444853,-7.7e-4 -0.808824,-5.33964 -0.808824,-11.86415 V 119.69112 H 48.604666 c -13.180828,0 -15.637255,-0.25412 -15.637255,-1.61765 0,-1.35939 2.539547,-1.63674 15.906863,-1.73726 8.748775,-0.0658 19.182598,-0.0222 23.186275,0.0968 l 7.279411,0.21641 v -9.85414 -9.854142 l -6.740196,0.321067 -6.740196,0.321068 -0.611061,8.627447 c -0.594975,8.40033 -0.615781,8.30097 -0.790342,-3.77451 -0.131623,-9.105221 0.356787,-14.465638 1.837346,-20.165305 3.271782,-12.595291 7.365162,-16.117006 19.299335,-16.604068 5.094896,-0.207935 7.045011,0.211272 9.666554,2.077976 2.413142,1.718308 4.85897,2.33846 9.2227,2.33846 5.27624,0 6.24267,-0.361322 8.66441,-3.23939 1.50859,-1.792867 3.02452,-2.755996 3.3948,-2.156862 0.36797,0.59539 3.10076,1.082527 6.07285,1.082527 4.2589,0 6.41576,0.69624 10.18005,3.286138 5.8758,4.042658 8.01434,7.97951 8.01434,14.753683 0,4.76977 -1.12999,7.554146 -4.80881,11.849224 -0.61741,0.720837 -1.74831,2.055396 -2.51312,2.965686 -2.23815,2.663891 -3.2467,1.933281 -3.2467,-2.351956 0,-2.999462 -0.72017,-4.62649 -2.86406,-6.470588 -4.10081,-3.527366 -7.37705,-3.073064 -14.60674,2.025454 l -6.36542,4.489014 -5.83354,-4.758622 c -3.208453,-2.617242 -7.534421,-6.094845 -9.613265,-7.728008 -2.265827,-1.78006 -4.562608,-5.019366 -5.734362,-8.087559 -2.543286,-6.6595 -4.35785,-8.567911 -5.175099,-5.442749 -0.504392,1.9288 -0.865287,2.075654 -2.258802,0.919139 -2.112786,-1.753456 -4.319158,-0.899738 -6.575854,2.544416 -1.68071,2.565087 -1.655634,2.892067 0.448397,5.846906 1.225767,1.721429 3.818464,3.780087 5.761549,4.574795 4.275301,1.748565 3.417657,0.879814 15.889047,16.094829 5.591076,6.82108 10.636819,12.72211 11.212759,13.11341 0.57594,0.39129 2.89964,-0.45797 5.16377,-1.88726 2.26413,-1.42928 4.3101,-2.5987 4.54659,-2.5987 0.2365,0 3.25068,-1.69853 6.69819,-3.77451 3.4475,-2.07598 7.02468,-3.73619 7.94928,-3.68937 1.11158,0.0563 1.22441,0.26942 0.33305,0.62909 -0.88125,0.35559 -1.34804,2.9327 -1.34804,7.44243 v 6.89849 l 22.82753,0.29105 c 16.88948,0.21535 22.94234,0.63608 23.26891,1.61741 0.33808,1.01592 -4.94164,1.39453 -22.55792,1.61765 l -22.9993,0.29129 -0.53922,11.86275 -0.53921,11.86274 -24.36878,0.53922 c -13.402823,0.29657 -25.777823,0.25512 -27.499998,-0.0921 z m 48.289868,-13.39071 0.34361,-10.24752 -20.7598,0.002 -20.759805,0.002 v 10.2451 10.24509 h 20.416195 20.41619 z M 99.694641,113.49014 c -0.812924,-1.03799 -2.328228,-2.67212 -3.367342,-3.6314 -1.039115,-0.95928 -1.889299,-2.08585 -1.889299,-2.5035 0,-0.41765 -0.606618,-1.3668 -1.34804,-2.10922 -0.741421,-0.74243 -2.803921,-3.18794 -4.583333,-5.434482 C 81.235784,90.631966 78.992246,88.46912 75.56919,87.339409 73.596053,86.688215 71.711338,85.450952 71.380935,84.589935 70.139946,81.355969 68.555647,83.199432 68.555647,87.877391 v 4.852941 h 5.906511 c 8.153337,0 9.565312,2.190282 9.028752,14.005558 l -0.392431,8.6415 h 9.037103 c 8.450878,0 8.941228,-0.12242 7.559059,-1.88725 z m 24.080619,-1.75935 c -0.34598,-2.96359 -0.8104,-3.546 -2.47953,-3.10951 -1.12959,0.29539 -2.05381,0.96577 -2.05381,1.48973 0,0.52396 -0.47356,0.95266 -1.05236,0.95266 -0.57881,0 -2.64131,0.96877 -4.58334,2.15283 l -3.53097,2.15283 7.06287,0.004 7.06286,0.004 z m 12.45196,-21.919951 c 0.74142,-1.596466 1.34803,-4.941209 1.34803,-7.432763 0,-3.763314 -0.65714,-5.18724 -3.88235,-8.41245 -2.39687,-2.396875 -4.97583,-3.915876 -6.74019,-3.969966 -1.57182,-0.04819 -4.31373,-0.225419 -6.09314,-0.393847 -1.9835,-0.187747 -4.79109,0.68068 -7.25629,2.244476 -3.08097,1.954403 -5.5391,2.55071 -10.51471,2.55071 -3.610183,0 -6.493708,-0.478876 -6.493708,-1.078432 0,-0.593137 -0.727941,-1.078431 -1.617647,-1.078431 -0.889706,0 -1.617647,-0.485294 -1.617647,-1.078431 0,-0.593138 -1.819853,-1.040119 -4.044117,-0.993292 -2.224265,0.04683 -3.4375,0.329914 -2.696079,0.629085 0.741422,0.29917 1.348039,1.474092 1.348039,2.610939 0,1.136846 0.432685,2.066993 0.961521,2.066993 0.528837,0 1.244421,1.091912 1.590188,2.426471 0.345767,1.334559 2.398257,3.621162 4.56109,5.081341 2.162832,1.460179 5.38092,4.007973 7.15131,5.661765 1.77039,1.653791 3.53802,3.006894 3.92806,3.006894 1.92272,0 12.2588,-8.006955 13.30763,-10.308895 1.56073,-3.425425 5.16687,-3.543182 5.16687,-0.168721 0,1.605175 1.15155,3.143797 3.30494,4.415836 1.81771,1.073751 3.83679,3.119561 4.48683,4.546243 1.50692,3.307343 2.13936,3.253185 3.80137,-0.325525 z M 91.990052,61.72543 c -0.298453,-1.03799 -0.924274,-2.819923 -1.390712,-3.959851 -0.565606,-1.382283 0.201819,-0.986516 2.304118,1.188251 1.733704,1.793466 3.88013,3.537086 4.769836,3.874712 0.889706,0.337625 0.09704,0.652177 -1.761476,0.699004 -2.340655,0.05897 -3.545888,-0.49485 -3.921766,-1.802116 z m 14.310688,0.509647 c 0,-0.999742 1.46476,-1.892437 3.83467,-2.337034 2.10906,-0.395662 4.77818,-1.662907 5.93137,-2.816098 1.15319,-1.153191 2.09671,-1.576753 2.09671,-0.941249 0,0.635504 -0.68461,1.840074 -1.52136,2.676821 -0.83675,0.836747 -1.68601,1.974766 -1.88725,2.528931 -0.20125,0.554164 -2.18575,1.34478 -4.41002,1.756924 -3.20886,0.594584 -4.04412,0.41525 -4.04412,-0.868295 z m -6.419008,-7.195146 c -0.86134,-0.544889 -3.870013,-1.30758 -6.685942,-1.694869 -4.793551,-0.659282 -8.500324,-2.996379 -7.051057,-4.445647 0.352847,-0.352846 -0.06329,-1.34637 -0.924754,-2.207832 -2.18635,-2.18635 -2.092583,-8.961251 0.124027,-8.961251 1.174803,0 1.490326,-0.630125 1.034564,-2.066105 -0.360666,-1.136358 -0.150722,-2.378234 0.466542,-2.759724 0.617265,-0.381491 1.122299,-1.910118 1.122299,-3.39695 0,-3.156368 1.793023,-6.864635 4.220272,-8.728217 1.054516,-0.809632 5.56683,-1.326903 11.759367,-1.348039 l 10.04826,-0.0343 -0.34238,-4.441878 c -0.3962,-5.1401301 2.01548,-7.7642161 5.25673,-5.7196923 1.87303,1.1814773 2.87701,12.2139333 2.98567,32.8086293 l 0.0427,8.088235 h -3.14091 c -1.85606,0 -3.34056,0.661731 -3.62896,1.617647 -0.26843,0.889706 -1.25292,2.224265 -2.18776,2.965686 -1.96906,1.56166 -10.79716,1.780232 -13.098638,0.324305 z M 112.94493,50.13843 c 0.2932,-0.293193 0.31966,-1.987309 0.0588,-3.764697 -0.28439,-1.937717 -0.56954,-3.795866 -1.46303,-3.894123 -0.39619,-0.04357 -0.912,1.139557 -1.60039,1.312333 -1.43727,0.360732 -3.30847,0.05282 -4.20606,-0.692113 -2.52437,-2.095036 0.56692,-5.743643 4.08441,-3.857096 0.82358,0.441713 1.25312,1.525235 1.68819,1.540101 1.01121,0.03455 1.28013,-1.843422 1.06829,-3.334392 -0.32106,-2.25972 -0.94165,-2.434052 -9.69924,-2.724616 -8.500436,-0.282033 -9.560839,-0.09081 -11.593135,2.090605 -2.913559,3.127339 -2.865399,8.196119 0.107946,11.3611 2.100909,2.236315 3.316318,2.495977 11.683009,2.495977 5.13598,0 9.57804,-0.239886 9.87123,-0.533079 z M 91.71616,43.080806 c -0.422765,-0.684048 0.0258,-2.038193 0.996823,-3.009211 1.357431,-1.35743 2.197011,-1.493289 3.632507,-0.587801 1.026861,0.647727 1.867019,1.852736 1.867019,2.677798 0,1.856354 -5.441322,2.626284 -6.496349,0.919214 z m 27.49273,-9.124984 c 0,-9.816681 -0.89614,-13.288004 -3.08169,-11.937263 -1.68411,1.040836 -1.60558,21.34441 0.0891,23.039097 2.20544,2.205439 2.99259,-0.714713 2.99259,-11.101834 z m -7.7856,-3.270851 c 0.78201,-0.252908 1.34804,-2.25284 1.34804,-4.762991 0,-3.732673 -0.37572,-4.421327 -2.73538,-5.013563 -1.50446,-0.377595 -5.70448,-0.471771 -9.33338,-0.20928 -5.711938,0.413164 -6.936948,0.900868 -9.122004,3.631676 -1.388205,1.734932 -2.52642,4.147439 -2.529366,5.361127 -0.0051,2.099313 0.506357,2.187781 10.509349,1.817851 5.783091,-0.21387 11.121321,-0.585039 11.862741,-0.82482 z"
       id="path1"
       sodipodi:nodetypes="ssssssssssssssssssssscsssssssssssssssssscsssssssssssssssssssssssssssssssssscssssscsssccsssscsscsssssssssssssssssssssscccccccssscsssccccccsssssssssssssssscsssssssssssssssscssscccsscccccccccsssssssscsscssssssscccsssssssssssssssssssssssssssssssssssssssssssssssscssscssssscsssssssssssccsssssssssssssssss" /></g></svg>
