<svg
    xmlns="http://www.w3.org/2000/svg"
    viewBox="0 0 960 960"
    id="vector">
    <path
        id="path"
        d="M 440 560 L 520 560 L 520 240 L 440 240 L 440 560 Z M 480 720 C 491.33 720 500.83 716.17 508.5 708.5 C 516.17 700.83 520 691.33 520 680 C 520 668.67 516.17 659.17 508.5 651.5 C 500.83 643.83 491.33 640 480 640 C 468.67 640 459.17 643.83 451.5 651.5 C 443.83 659.17 440 668.67 440 680 C 440 691.33 443.83 700.83 451.5 708.5 C 459.17 716.17 468.67 720 480 720 Z"
        fill="#000000"/>
</svg>
