<?xml version="1.0" encoding="UTF-8" standalone="no"?>
<!-- Created with Inkscape (http://www.inkscape.org/) -->

<svg
   width="210mm"
   height="210mm"
   viewBox="0 0 210 210"
   version="1.1"
   id="svg1"
   xml:space="preserve"
   inkscape:version="1.3.2 (091e20e, 2023-11-25)"
   sodipodi:docname="false_start.svg"
   xmlns:inkscape="http://www.inkscape.org/namespaces/inkscape"
   xmlns:sodipodi="http://sodipodi.sourceforge.net/DTD/sodipodi-0.dtd"
   xmlns="http://www.w3.org/2000/svg"
   xmlns:svg="http://www.w3.org/2000/svg"><sodipodi:namedview
     id="namedview1"
     pagecolor="#ffffff"
     bordercolor="#111111"
     borderopacity="1"
     inkscape:showpageshadow="0"
     inkscape:pageopacity="0"
     inkscape:pagecheckerboard="1"
     inkscape:deskcolor="#d1d1d1"
     inkscape:document-units="mm"
     inkscape:zoom="0.18464282"
     inkscape:cx="-287.04067"
     inkscape:cy="297.87239"
     inkscape:window-width="1312"
     inkscape:window-height="641"
     inkscape:window-x="0"
     inkscape:window-y="25"
     inkscape:window-maximized="0"
     inkscape:current-layer="layer1" /><defs
     id="defs1" /><g
     inkscape:label="Layer 1"
     inkscape:groupmode="layer"
     id="layer1"><path
       style="fill:#000000"
       d="m -4.8698572,213.27225 c -0.283406,-0.73423 -0.389824,-49.6335 -0.236483,-108.66505 l 0.2788,-107.330098 108.0559102,-0.272171 c 78.94494,-0.198845 108.45176,0.05217 109.52524,0.931738 2.0376,1.669534 2.20593,213.380201 0.17125,215.388981 -1.93314,1.90853 -217.0577822,1.85579 -217.7947172,-0.0534 z M 211.79435,211.58769 c 1.0769,-0.67503 1.30048,-22.68906 1.08173,-106.51278 L 212.60034,-0.586976 104.69769,-0.859124 -3.2049442,-1.131272 V 105.67 212.47128 l 106.8209042,-0.0164 c 58.75151,-0.009 107.43178,-0.39925 108.17839,-0.86723 z M 33.14877,202.2383 c -1.160315,-2.98524 -0.700751,-10.6584 0.756172,-12.62549 0.853825,-1.15282 2.425201,-1.76173 3.971761,-1.53907 3.42415,0.49297 3.96958,2.60742 0.87965,3.41016 l -2.47812,0.6438 2.45199,1.70117 c 2.7675,1.92007 2.29568,3.69095 -0.98338,3.69095 -2.899357,0 -2.004055,2.5675 1.05001,3.01117 1.29204,0.1877 2.34917,1.02872 2.34917,1.86893 0,2.20251 -7.134396,2.05833 -7.997253,-0.16162 z m 16.867443,0.40773 c -0.71394,-0.70485 -1.29808,-1.84746 -1.29808,-2.53913 0,-0.69167 -0.73017,-1.85586 -1.6226,-2.58708 -1.38338,-1.1335 -1.62259,-0.83789 -1.62259,2.00516 0,1.83405 -0.48678,3.33465 -1.08173,3.33465 -0.61021,0 -1.08173,-3.02589 -1.08173,-6.94175 0,-5.90808 0.28283,-6.94175 1.8994,-6.94175 1.09022,0 2.58793,1.47865 3.51562,3.47087 l 1.61623,3.47088 0.33897,-3.47088 c 0.39269,-4.02093 2.01913,-4.5358 3.3736,-1.06796 0.84363,2.15995 1.01704,2.21094 1.715,0.50432 1.05377,-2.57664 4.47082,-4.23759 7.05319,-3.42841 3.05256,0.95651 2.67438,3.72506 -0.50883,3.72506 -2.95869,0 -4.43827,2.9233 -3.28899,6.49827 0.55352,1.7218 1.30558,2.08028 3.31809,1.5816 1.88232,-0.46642 2.60233,-0.20161 2.60233,0.95711 0,2.83065 -5.22491,3.25334 -8.032,0.64978 -2.49923,-2.31801 -2.50458,-2.31824 -3.08403,-0.13061 -0.65769,2.48299 -1.91457,2.783 -3.81185,0.90987 z m 24.03465,0.43612 c -0.63338,-0.41608 -1.47773,-1.62798 -1.87635,-2.69313 -0.80499,-2.15101 -2.90349,-1.47763 -2.90349,0.93169 0,0.8464 -0.73017,1.53892 -1.6226,1.53892 -1.27415,0 -1.6226,-1.47529 -1.6226,-6.86978 0,-5.93184 0.29538,-6.96234 2.16346,-7.5477 3.17223,-0.99401 5.94597,0.20408 7.61942,3.29113 1.4312,2.6402 1.50028,2.65541 2.30505,0.50761 2.44604,-6.5281 11.71015,-4.44457 11.71015,2.63365 0,5.13698 1.41292,4.64353 3.12843,-1.09258 2.10723,-7.0459 4.73655,-6.53141 7.470697,1.4618 2.40714,7.0372 1.77995,10.02181 -1.381277,6.57315 -2.34696,-2.56035 -4.41904,-2.77972 -5.28211,-0.55923 -0.67955,1.74835 -3.93574,2.23123 -3.93574,0.58366 0,-0.56006 -1.40939,-0.21971 -3.13197,0.75633 -4.20257,2.38124 -8.2699,0.65609 -9.29272,-3.94148 -0.40039,-1.79976 -1.17608,-3.27229 -1.72376,-3.27229 -1.33227,0 -1.25734,1.79383 0.18616,4.45671 1.27157,2.3457 0.078,4.48231 -1.81075,3.24154 z m 12.08303,-5.02596 c 0.91626,-3.60418 -0.12519,-5.87618 -2.69353,-5.87618 -2.62914,0 -3.87211,3.45287 -2.29217,6.36743 1.61783,2.98447 4.16593,2.7334 4.9857,-0.49125 z m -13.61768,-4.80821 c 0,-0.58738 -0.73017,-1.06797 -1.6226,-1.06797 -0.89243,0 -1.62259,0.48059 -1.62259,1.06797 0,0.58737 0.73016,1.06796 1.62259,1.06796 0.89243,0 1.6226,-0.48059 1.6226,-1.06796 z m 32.451917,8.54368 c -4.59088,-4.53243 -0.8347,-15.11974 4.72575,-13.32016 1.26802,0.41039 3.45884,0.73908 4.86849,0.73044 1.6397,-0.0101 2.7617,0.7345 3.11462,2.06687 0.63312,2.39027 4.05796,2.25797 4.05796,-0.15676 0,-0.86498 0.85187,-1.73465 1.89303,-1.93261 1.64958,-0.31364 1.89303,0.55295 1.89303,6.73844 0,6.18407 -0.24383,7.05248 -1.89303,6.74215 -1.04116,-0.19591 -2.04858,-1.43261 -2.23869,-2.74821 -0.44935,-3.10945 -3.1879,-3.10123 -3.63559,0.0109 -0.23661,1.6448 -1.08272,2.40292 -2.68182,2.40292 -1.28488,0 -2.70466,0.36043 -3.15505,0.80097 -1.49127,1.45862 -4.75401,0.8318 -6.9487,-1.33496 z m 7.72912,-2.13592 c 0.58399,0 0.90926,-1.56189 0.72283,-3.47087 -0.29984,-3.07019 -0.71361,-3.47088 -3.58416,-3.47088 -2.56496,0 -3.31929,0.51601 -3.59867,2.4617 -0.42997,2.9945 1.75523,5.8602 3.86045,5.06263 0.84576,-0.32042 2.01556,-0.58258 2.59955,-0.58258 z m 32.51126,2.99029 c -1.73568,-1.71358 -1.65712,-10.64097 0.1147,-13.03322 0.85382,-1.15282 2.4252,-1.76173 3.97176,-1.53907 3.42691,0.49336 3.96524,2.60047 0.87965,3.44309 l -2.47813,0.67672 2.70433,2.12239 2.70433,2.12238 -2.4339,0.66531 c -3.01448,0.82401 -3.22336,3.62007 -0.27043,3.62007 1.20192,0 2.16346,0.71198 2.16346,1.60195 0,1.96165 -5.45278,2.19915 -7.35577,0.32038 z m 15.2766,-2.1212 -1.94165,-3.53899 -0.36332,3.00036 c -0.25864,2.13592 -0.88623,2.89981 -2.17829,2.65136 -1.4647,-0.28165 -1.8046,-1.58206 -1.76124,-6.73823 0.0481,-5.71625 0.30041,-6.42464 2.39566,-6.72554 1.74899,-0.25117 2.51776,0.35533 3.03642,2.39553 0.76723,3.018 2.62717,2.70405 2.62717,-0.44345 0,-1.62179 1.13081,-2.13553 6.03104,-2.73998 4.12636,-0.509 6.43232,-0.34362 7.30168,0.52364 0.97461,0.97227 0.82961,1.51326 -0.62239,2.3221 -1.4041,0.78216 -1.89302,2.41996 -1.89302,6.34126 0,3.90253 -0.41004,5.28674 -1.56607,5.28674 -1.12655,0 -1.65783,-1.57355 -1.89303,-5.6068 -0.24075,-4.12838 -0.75481,-5.6068 -1.94956,-5.6068 -1.17631,0 -1.77135,1.59273 -2.16346,5.79087 -0.6424,6.87792 -2.39407,7.94691 -5.05994,3.08793 z m -33.66355,-4.33996 c 0.28973,-6.00504 0.56743,-6.70915 2.76763,-7.01754 1.96692,-0.27569 2.57292,0.28578 3.09615,2.86862 0.71671,3.53796 3.63095,5.52441 3.68738,2.51346 0.0482,-2.57132 2.57019,-5.57328 4.68221,-5.57328 1.46195,0 1.77377,1.22033 1.77377,6.94175 0,5.31334 -0.36353,6.94175 -1.5497,6.94175 -0.85233,0 -1.89478,-1.07342 -2.31655,-2.38538 l -0.76685,-2.38537 -0.89378,2.38537 c -1.07319,2.86418 -2.91119,3.05924 -4.86634,0.51644 -1.36858,-1.77993 -1.43865,-1.77993 -1.47141,0 -0.0214,1.16042 -0.87414,1.86894 -2.24948,1.86894 -2.03037,0 -2.18823,-0.55662 -1.89303,-6.67476 z m 27.90618,-17.81448 c 0,-3.1414 5.96148,-18.22921 7.20271,-18.22921 1.9612,0 1.91607,0.32243 -1.45769,10.41262 -1.67079,4.997 -3.55172,8.81068 -4.34547,8.81068 -0.76975,0 -1.39955,-0.44734 -1.39955,-0.99409 z m -85.186287,-1.87408 c -0.88968,-0.338 -1.35217,-2.88801 -1.35217,-7.45545 0,-5.07581 0.36347,-6.82362 1.35217,-6.50228 0.75022,0.24383 1.49722,2.61905 1.67801,5.33553 0.35056,5.26757 1.42599,6.23829 5.96266,5.38209 3.4722,-0.65531 3.62125,-1.4655 0.74274,-4.03735 -2.54836,-2.27688 -2.79079,-5.09824 -0.59283,-6.89917 1.87544,-1.53666 5.10151,-1.10979 5.73156,0.75839 0.27199,0.8065 -0.52202,1.33495 -2.00577,1.33495 -2.44637,0 -2.4446,0.0117 0.45072,2.99533 3.32729,3.42874 3.7808,7.10463 1.01368,8.21622 -2.39359,0.96154 -11.18957,1.55224 -12.98077,0.87174 z m 17.25161,-0.18232 c -0.97794,-0.61241 -1.30847,-2.97326 -1.08173,-7.72637 l 0.32651,-6.8445 h 3.69592 c 2.03275,0 3.89873,0.60073 4.14663,1.33495 0.28303,0.83829 -0.58894,1.33495 -2.34375,1.33495 -3.30322,0 -3.72791,1.64582 -0.63101,2.44537 1.1899,0.3072 2.16346,1.12912 2.16346,1.82648 0,0.69736 -0.97356,1.51927 -2.16346,1.82648 -2.97649,0.76846 -2.71261,2.2686 0.54087,3.07477 3.08113,0.76347 3.50541,2.04247 0.99325,2.9942 -2.29888,0.87093 -3.95536,0.79281 -5.64669,-0.26633 z m 14.118577,0.20728 c -2.170537,-0.86469 -1.556047,-3.56456 0.81129,-3.56456 1.18991,0 2.16347,-0.47651 2.16347,-1.05891 0,-0.5824 -0.97356,-1.65917 -2.16347,-2.39282 -2.755257,-1.69879 -2.940757,-6.88698 -0.27043,-7.56363 1.04117,-0.26383 5.17879,-0.553 9.19471,-0.6426 5.68109,-0.12676 7.30169,0.17541 7.30169,1.36142 0,0.83838 -0.73017,1.80096 -1.6226,2.13906 -1.14481,0.43371 -1.6226,2.19694 -1.6226,5.98804 0,4.06432 -0.39528,5.37333 -1.62259,5.37333 -1.22731,0 -1.6226,-1.30901 -1.6226,-5.37333 0,-5.85389 -0.91385,-6.77643 -6.12857,-6.1869 l -3.06614,0.34663 2.97476,2.59551 c 3.6005,3.14147 3.7894,5.79771 0.57061,8.02355 -2.54448,1.75954 -2.76872,1.80327 -4.89753,0.95521 z m -54.135957,-7.56941 0.31985,-7.20874 3.51563,-0.33465 c 3.98441,-0.37928 5.09685,2.3472 1.35216,3.31399 -1.1899,0.30721 -2.16346,1.02808 -2.16346,1.60195 0,0.57386 0.97356,1.29473 2.16346,1.60194 1.18991,0.3072 2.16346,1.05174 2.16346,1.65453 0,0.60279 -0.97355,1.40104 -2.16346,1.77389 -1.1899,0.37286 -2.16346,1.6067 -2.16346,2.74187 0,1.14977 -0.74059,2.06396 -1.67202,2.06396 -1.37466,0 -1.61513,-1.28204 -1.35216,-7.20874 z m 8.49327,4.80582 c 0.0821,-3.26297 3.67994,-11.82153 5.17661,-12.31407 0.66515,-0.21889 2.00885,1.44099 2.98601,3.68862 0.97715,2.24764 2.204,4.92112 2.72631,5.94106 1.44912,2.82972 1.13543,5.08731 -0.70687,5.08731 -0.9111,0 -1.93674,-0.72088 -2.2792,-1.60194 -0.34245,-0.88107 -1.49204,-1.60195 -2.55464,-1.60195 -1.0626,0 -2.21219,0.72088 -2.55464,1.60195 -0.95289,2.45158 -2.86162,1.90431 -2.79358,-0.80098 z m 63.184597,-1.60194 c 0.40999,-2.20267 1.19433,-4.46141 1.74298,-5.01942 0.54866,-0.558 0.99756,-1.82819 0.99756,-2.82263 0,-2.3465 2.75269,-3.3753 4.25365,-1.58977 1.06758,1.26998 4.36096,10.75256 4.38849,12.63571 0.0217,1.48337 -2.99597,0.81654 -3.62467,-0.80097 -0.34246,-0.88107 -1.61148,-1.60195 -2.82006,-1.60195 -1.2321,0 -2.19741,0.70373 -2.19741,1.60195 0,0.88106 -0.78434,1.60194 -1.74298,1.60194 -1.42548,0 -1.6072,-0.72953 -0.99756,-4.00486 z m 12.47612,-2.97041 c 0,-7.84108 1.24779,-9.1888 6.64522,-7.17743 1.8145,0.67618 3.3315,0.74799 3.69038,0.17469 0.87403,-1.39621 8.86366,-1.20381 9.76445,0.23514 0.41612,0.66472 -0.0419,1.64977 -1.01789,2.18899 -1.27754,0.70584 -1.77447,2.48285 -1.77447,6.34545 0,4.53294 -0.2936,5.30994 -1.89303,5.00974 -1.46306,-0.2746 -1.96729,-1.62651 -2.21999,-5.95209 -0.22223,-3.80388 -0.79108,-5.5968 -1.77576,-5.5968 -1.88395,0 -2.9323,4.24729 -2.08308,8.43938 0.79903,3.94427 -0.86779,4.39451 -3.35147,0.90528 l -1.71043,-2.40291 -0.64053,2.40291 c -0.3523,1.32161 -1.31393,2.40292 -2.13697,2.40292 -1.12135,0 -1.49643,-1.74838 -1.49643,-6.97527 z m 5.40865,-3.23339 c 0,-0.91574 -0.48678,-1.36796 -1.08173,-1.00494 -0.59495,0.36302 -1.08173,1.11226 -1.08173,1.66497 0,0.55272 0.48678,1.00494 1.08173,1.00494 0.59495,0 1.08173,-0.74924 1.08173,-1.66497 z m -66.216607,-31.15627 -0.30983,-10.43119 -13.33004,-0.30049 c -9.89171,-0.22297 -13.21747,-0.63618 -12.89363,-1.60194 0.29667,-0.88473 4.56492,-1.47243 13.33004,-1.83543 l 12.89363,-0.53398 0.57257,-12.81554 c 0.58892,-13.181446 1.39571,-16.337856 5.62655,-22.012716 3.03816,-4.07512 7.19408,-6.2832 11.86615,-6.30461 4.72432,-0.0217 6.72099,-1.38342 6.00297,-4.09417 -0.57726,-2.17936 -0.56114,-2.17879 2.54921,0.0915 3.684797,2.68961 3.799477,2.92388 1.08877,2.22404 -3.11839,-0.8051 -3.70297,1.40299 -1.02383,3.86722 2.88519,2.65375 9.113987,2.9201 12.560087,0.53709 2.93084,-2.02672 3.33019,-5.33535 0.51112,-4.23469 -3.92014,1.53054 -9.2875,2.00161 -8.50157,0.74613 0.41749,-0.66691 0.27257,-2.11004 -0.32205,-3.20695 -0.73017,-1.34697 -0.71364,-2.3572 0.0509,-3.11204 0.78825,-0.77822 -0.51491,-1.34127 -4.290977,-1.85401 -7.40329,-1.00525 -9.27257,-3.22898 -8.59205,-10.221218 0.77072,-7.918907 2.29902,-8.956208 13.850607,-9.400791 l 9.69814,-0.373251 v -3.034595 c 0,-4.079187 -1.20226,-4.593912 -10.17384,-4.355732 -7.476747,0.198496 -7.594787,0.161443 -4.576297,-1.436507 3.483727,-1.844246 11.025277,-2.202544 12.045807,-0.572296 1.42306,2.273244 2.59386,0.878016 2.91257,-3.470874 0.31206,-4.258199 0.53328,-4.538835 3.57782,-4.538835 3.05251,0 3.24961,0.253641 3.31956,4.271845 0.0409,2.349514 0.21659,7.635922 0.39042,11.747573 0.6541,15.472121 0.29478,18.689321 -2.08738,18.689321 -1.18991,0 -3.13702,0.96116 -4.32693,2.13592 -1.32515,1.30828 -3.60577,2.13592 -5.88568,2.13592 -4.45372,0 -5.25919,0.92421 -3.21311,3.68677 0.83967,1.1337 1.52668,1.54233 1.52668,0.90805 0,-0.63427 1.73829,-1.47518 3.86287,-1.86868 2.12458,-0.3935 4.68017,-0.9729 5.67909,-1.28756 1.55772,-0.49068 1.58527,-0.40577 0.19361,0.5966 -1.4423,1.03885 -1.4423,1.28544 0,2.21931 2.54549,1.64815 3.66343,0.75266 5.40866,-4.33249 2.02511,-5.90065 2.74216,-6.41381 6.42651,-4.59921 1.62792,0.80178 4.42968,1.748 6.22615,2.10272 2.76946,0.54684 3.383,0.26373 4.03347,-1.86116 0.42194,-1.37835 1.00577,-1.94264 1.29741,-1.25397 0.4532,1.07021 -0.85638,9.05583 -7.32557,44.670206 -1.93636,10.66009 -3.61189,9.54286 15.21553,10.14563 11.7934,0.37757 16.80754,0.91714 17.11835,1.84209 0.33222,0.9887 -3.87224,1.37986 -17.21882,1.60194 l -17.65837,0.29383 -1.44913,8.54369 c -0.79702,4.69903 -1.82369,9.26456 -2.28149,10.14563 -0.69945,1.34614 -5.08252,1.64754 -27.448607,1.8875 l -26.61625,0.28557 z m 12.13007,-0.28556 c 0,-4.69903 0.1217,-8.90412 0.27044,-9.34466 0.14874,-0.44053 -2.04177,-0.94745 -4.86779,-1.12647 l -5.13822,-0.32551 v 9.67017 9.67016 h 4.86779 4.86778 z m 0.28592,-20.82524 c -0.0933,-3.52427 -0.19574,-6.76821 -0.22774,-7.20874 -0.032,-0.44053 -2.24868,-0.80097 -4.92596,-0.80097 h -4.86779 v 7.53424 7.53425 l 5.09552,-0.32551 5.09552,-0.3255 z M 111.45851,63.675654 c 0,-1.278359 -0.22327,-3.860189 -0.92832,-4.064608 -0.47017,-0.136323 -1.11939,1.876386 -2.18877,2.03134 -3.45806,0.501075 -4.82358,-0.766654 -3.7635,-3.493997 0.4974,-1.279702 1.60139,-1.666367 3.83406,-1.342852 0.81474,0.118056 1.74492,1.369514 2.19018,1.329391 0.87777,-0.0791 0.78628,-1.69956 0.61923,-2.565468 -0.25223,-1.307453 -2.00664,-1.762607 -7.74404,-2.00907 -8.681847,-0.372948 -11.489987,1.25923 -11.489987,6.678349 0,5.058555 1.60851,5.921855 11.033647,5.921855 8.11137,0 8.4375,-0.0961 8.4375,-2.48494 z M 93.480153,60.337952 c -0.81332,-2.092496 0.38737,-3.789006 2.68163,-3.789006 2.49168,0 4.452957,2.029326 3.73829,3.868001 -0.75875,1.952117 -5.65387,1.891887 -6.41992,-0.07899 z m 23.006617,-7.521727 c -0.11423,-6.45843 -0.55007,-9.074009 -1.51263,-9.07767 -0.97609,-0.0037 -1.35217,2.519623 -1.35217,9.072527 0,7.063778 0.33558,9.07767 1.51264,9.07767 1.18958,0 1.47836,-1.937622 1.35216,-9.072527 z m -0.61594,16.993239 c 0.0519,-1.24411 0.30823,-1.49717 0.65355,-0.64523 0.31248,0.77094 0.27405,1.69205 -0.0854,2.04693 -0.35945,0.35487 -0.61512,-0.27589 -0.56815,-1.4017 z m 7.73768,-8.988673 c 0,-2.055825 0.22262,-2.896845 0.4947,-1.868932 0.27209,1.027913 0.27209,2.709951 0,3.737865 -0.27208,1.02791 -0.4947,0.18689 -0.4947,-1.868933 z m 14.02242,-3.737864 c 0.0221,-1.762136 0.26448,-2.353718 0.53875,-1.314626 0.27427,1.039091 0.25623,2.480839 -0.0401,3.203883 -0.29631,0.723045 -0.52071,-0.127121 -0.49867,-1.889257 z M 125.79381,50.67516 c 0.012,-2.349515 0.23352,-3.184931 0.49227,-1.856481 0.25874,1.328451 0.24892,3.250781 -0.0218,4.271845 -0.27075,1.021064 -0.48245,-0.06585 -0.47044,-2.415364 z m 11.62624,-3.140856 c 0,-0.846402 0.48678,-1.83593 1.08173,-2.19895 0.59495,-0.36302 1.08173,0.329491 1.08173,1.538914 0,1.209423 -0.48678,2.19895 -1.08173,2.19895 -0.59495,0 -1.08173,-0.692511 -1.08173,-1.538914 z m -9.46278,-7.538756 c 0.012,-2.349514 0.3403,-5.889844 0.59904,-4.561393 0.25874,1.32845 0.14215,5.955693 -0.12857,6.976757 -0.27075,1.021065 -0.48245,-0.06585 -0.47044,-2.415364 z m 10.54451,0.122076 c 0,-0.226548 0.67643,-1.699128 1.50318,-3.2724 2.01373,-3.832063 1.11406,-6.55061 -2.68153,-8.102779 -2.60795,-1.066498 -3.59211,-0.987187 -5.84652,0.471156 -1.49089,0.964434 -2.71071,2.22302 -2.71071,2.796858 0,0.573838 -0.46961,2.324617 -1.08708,2.324617 -0.61747,0 -1.01814,-2.584369 -0.84689,-4.177038 0.275,-2.557493 -0.13089,-1.856937 -3.47468,-2.424016 -10.03508,-1.701871 -13.53099,-7.578517 -7.73555,-11.652708 4.72457,-3.321366 11.57161,-1.743603 8.67544,1.701649 -0.66264,0.788267 -2.09002,1.433213 -3.17196,1.433213 -1.91511,0 -3.86011,1.817089 -2.92898,2.73636 0.25533,0.252082 2.73797,0.766014 5.51697,1.14207 3.99149,0.54013 4.50923,0.389974 4.75266,-1.186584 0.1287,-0.833553 0.53267,-2.703208 0.64806,-3.69392 0.0811,-0.696477 0.0133,-1.266507 0.0351,-1.788974 0.0157,-0.380479 -0.0787,-5.460384 0.83594,-1.611722 0.22929,0.964806 2.37574,-1.982882 2.61953,-1.316368 0.10981,0.300217 -0.0634,3.348789 -0.0205,3.806924 0.0823,0.883771 -0.27598,2.097486 0.20486,2.713454 0.11636,0.149052 0.27956,0.06189 1.05363,0.111312 0.76602,0.04891 1.54124,0.04008 2.29767,0.384567 1.40921,0.641778 3.11854,1.399157 5.15382,2.425621 2.99779,1.511896 6.26188,-1.062985 6.54218,-1.33972 0.0339,-0.03349 0.86237,-0.973378 0.90089,-1.767005 0.0353,-0.72825 -0.42313,-2.042134 -1.0006,-1.974359 -0.3853,0.04522 -0.8708,0.988919 -1.12436,2.090413 -0.16196,0.703615 -2.14443,0.531712 -3.81655,-0.21271 -5.63248,-2.507564 -4.92607,-3.758476 0.79063,-6.261973 1.73809,-0.761157 3.92615,-1.818119 3.9168,-0.870659 -0.0344,3.486087 0.66284,2.803372 2.0216,2.798152 0.3097,-0.0012 0.59627,0.12986 0.86935,0.228159 0.23186,0.08346 0.42671,0.136954 0.60256,0.414113 1.37563,2.168082 1.15934,2.995284 1.04577,4.23193 -0.17116,1.863483 -0.98334,3.41563 -5.53599,5.190143 -2.77193,1.08043 -3.26352,1.771157 -2.83514,3.983581 0.51287,2.648749 -2.79319,11.044655 -4.35836,11.068293 -0.44621,0.0067 -0.8113,-0.173104 -0.8113,-0.399652 z m -5.40865,-8.665765 c 0.74065,-0.881068 2.38228,-1.584912 3.64807,-1.564098 2.16786,0.03565 2.14448,0.126433 -0.40288,1.564098 -3.54255,1.999324 -4.92588,1.999324 -3.24519,0 z M 129.1433,13.168781 c 0,-0.587379 0.87767,-2.333911 1.47263,-2.333911 0.59495,0 2.15967,1.781369 2.15967,2.368748 0,0.587378 -1.25098,3.133992 -1.84593,3.133992 -0.59496,0 -1.78637,-2.581451 -1.78637,-3.168829 z"
       id="path1"
       sodipodi:nodetypes="sscsssssscccccssssssscssssssssssssscssssssssssssssssssssssssssssssssssssssssscssssssssssssssssssssscccssssscssssssssssssssssssssssscsssssssssssssssssssssssscssssssssssssssssssssscsssscssssssssssssssssssssssssssssssssssssssscssssssssccssscsscsssssssssssscsssssssssssssssssssssssssscsssccssscccccscssccccccsssssssssssssssssssssssssssssssssscscccssssscscccsssssssssssssssssssssssssssssssssssscsssssssssss" /></g></svg>
