<?xml version="1.0" encoding="UTF-8" standalone="no"?>
<!-- Created with Inkscape (http://www.inkscape.org/) -->

<svg
   width="210mm"
   height="210mm"
   viewBox="0 0 210 210"
   version="1.1"
   id="svg1"
   xml:space="preserve"
   inkscape:version="1.3.2 (091e20e, 2023-11-25)"
   sodipodi:docname="free_arm.svg"
   xmlns:inkscape="http://www.inkscape.org/namespaces/inkscape"
   xmlns:sodipodi="http://sodipodi.sourceforge.net/DTD/sodipodi-0.dtd"
   xmlns="http://www.w3.org/2000/svg"
   xmlns:svg="http://www.w3.org/2000/svg"><sodipodi:namedview
     id="namedview1"
     pagecolor="#ffffff"
     bordercolor="#111111"
     borderopacity="1"
     inkscape:showpageshadow="0"
     inkscape:pageopacity="0"
     inkscape:pagecheckerboard="1"
     inkscape:deskcolor="#d1d1d1"
     inkscape:document-units="mm"
     inkscape:zoom="0.289988"
     inkscape:cx="158.62725"
     inkscape:cy="444.84599"
     inkscape:window-width="1312"
     inkscape:window-height="605"
     inkscape:window-x="0"
     inkscape:window-y="25"
     inkscape:window-maximized="0"
     inkscape:current-layer="layer1" /><defs
     id="defs1" /><g
     inkscape:label="Layer 1"
     inkscape:groupmode="layer"
     id="layer1"><path
       style="fill:#000000"
       d="m -3.9051026,104.14155 c -0.141943,-60.652773 0.109496,-110.2778499 0.5587535,-110.2779441 0.7396441,-1.551e-4 0.7329904,77.5645231 -0.015536,181.1112841 -0.1568265,21.69444 -0.4012742,-10.18056 -0.5432175,-70.83334 z m 82.7530506,99.95313 c -2.241438,-2.93711 -2.297496,-2.94921 -2.356563,-0.50868 -0.03519,1.45405 -0.744001,2.5 -1.69417,2.5 -1.205641,0 -1.633663,-1.2862 -1.633663,-4.90913 0,-2.70001 -0.28961,-5.67908 -0.643578,-6.62014 -0.452334,-1.20258 0.245027,-1.93855 2.346787,-2.47671 4.539763,-1.16243 6.456926,0.71162 6.51788,6.37129 0.02902,2.69499 0.404593,5.48075 0.834597,6.19056 1.672958,2.76159 -1.202368,2.2949 -3.37129,-0.54719 z m -0.238852,-7.45313 c 0,-0.91666 -0.490099,-1.66666 -1.089109,-1.66666 -0.599009,0 -1.089108,0.75 -1.089108,1.66666 0,0.91667 0.490099,1.66667 1.089108,1.66667 0.59901,0 1.089109,-0.75 1.089109,-1.66667 z m 5.920755,9.1052 c -0.329408,-0.87577 -0.448563,-4.2827 -0.26479,-7.57097 0.331666,-5.9345 0.360285,-5.97867 3.873738,-5.97867 4.086574,0 4.866738,1.92498 1.153385,2.84587 l -2.514771,0.62365 2.450495,1.35989 c 3.031174,1.68213 3.129489,3.0636 0.272278,3.82587 -2.933662,0.78267 -2.765039,2.7718 0.272277,3.21189 3.689671,0.5346 2.94225,2.52893 -1.096597,2.92602 -2.32268,0.22836 -3.753832,-0.2009 -4.146015,-1.24355 z m 9.80198,0 c -0.329408,-0.87577 -0.448563,-4.2827 -0.264789,-7.57097 0.331665,-5.9345 0.360284,-5.97867 3.873738,-5.97867 4.08657,0 4.86674,1.92498 1.153384,2.84587 l -2.514771,0.62365 2.450495,1.35989 c 3.031172,1.68213 3.129492,3.0636 0.272278,3.82587 -2.933662,0.78267 -2.765039,2.7718 0.272277,3.21189 3.689667,0.5346 2.942247,2.52893 -1.096597,2.92602 -2.32268,0.22836 -3.753832,-0.2009 -4.146015,-1.24355 z m 13.683209,-0.016 c 0,-2.56808 4.15277,-13.46433 5.27725,-13.84673 1.30626,-0.44421 2.70788,2.01532 4.97615,8.73205 1.80938,5.35787 0.66088,8.36799 -1.7131,4.48987 -1.65653,-2.70613 -3.98019,-3.07646 -4.84681,-0.77247 -0.78409,2.08459 -3.69349,3.18524 -3.69349,1.39728 z m 29.76097,-2.06608 -1.95883,-3.68973 -0.35955,3.05555 c -0.70054,5.95334 -2.39309,2.94877 -2.39309,-4.24813 0,-6.21106 0.27071,-7.24995 1.80953,-6.94445 0.99524,0.19759 2.34301,1.94837 2.99505,3.89062 1.78341,5.31233 2.63035,5.53443 4.42205,1.15965 3.21721,-7.85542 5.97656,-6.30919 6.00422,3.36454 0.0127,4.452 -0.37017,5.83333 -1.61699,5.83333 -0.89851,0 -1.63366,-0.97049 -1.63366,-2.15665 0,-1.18615 -0.4901,-2.46566 -1.08911,-2.84335 -0.59901,-0.37769 -1.08911,0.28158 -1.08911,1.46504 0,1.18346 -0.70463,2.74835 -1.56584,3.47753 -1.27869,1.08266 -1.92506,0.64915 -3.52467,-2.36395 z M 63.925827,203.586 c -0.311494,-1.375 -0.354599,-4 -0.09579,-5.83333 0.25881,-1.83334 0.504331,-3.95834 0.545603,-4.72223 0.09244,-1.7109 6.609693,-1.88223 6.609693,-0.17375 0,0.66832 -0.980198,1.47664 -2.178218,1.79625 -1.19802,0.31962 -2.178218,1.27281 -2.178218,2.11821 0,0.84539 0.980198,1.53707 2.178218,1.53707 1.19802,0 2.178218,0.54681 2.178218,1.21513 0,0.66833 -0.980198,1.47664 -2.178218,1.79626 -1.205551,0.32163 -2.178218,1.51557 -2.178218,2.67376 0,2.92466 -2.017094,2.62068 -2.703071,-0.40737 z m 57.378823,-4.44445 c 0.32275,-6.91242 0.34023,-6.94602 3.79149,-7.28711 4.24095,-0.41914 6.60442,2.82551 4.70108,6.45378 -0.80932,1.54277 -0.82104,2.87934 -0.0383,4.3714 1.48893,2.83831 1.42394,3.40638 -0.38972,3.40638 -0.83442,0 -1.79924,-0.75 -2.14403,-1.66667 -0.3448,-0.91666 -1.37743,-1.66666 -2.29474,-1.66666 -0.91732,0 -1.66785,0.75 -1.66785,1.66666 0,0.91667 -0.51348,1.66667 -1.14108,1.66667 -0.70823,0 -1.01808,-2.63422 -0.81683,-6.94445 z m 5.72328,-1.86766 c 0.80544,-1.32956 -1.24335,-2.64692 -2.69402,-1.73224 -1.21802,0.76798 -0.4184,2.76657 1.10687,2.76657 0.52831,0 1.24252,-0.46545 1.58715,-1.03433 z m -78.18781,-18.5953 c -1.154577,-1.1779 -0.840855,-13.50018 0.363036,-14.25926 0.672249,-0.42386 1.089109,1.50462 1.089109,5.03845 0,4.7907 0.355524,5.82 2.178218,6.30628 3.03625,0.81003 2.753665,3.65527 -0.363037,3.65527 -1.39769,0 -2.867987,-0.33333 -3.267326,-0.74074 z m 7.284745,-0.94399 c -0.913804,-2.42944 0.126618,-13.32273 1.246608,-13.05207 0.59901,0.14476 1.235422,2.71611 1.414249,5.71411 0.285366,4.78409 0.65176,5.51462 2.99505,5.97161 2.583553,0.50386 2.669909,0.31395 2.669909,-5.87143 0,-5.92241 0.203762,-6.44431 2.772858,-7.10214 4.681859,-1.19881 7.004196,1.8239 2.400409,3.12433 l -2.450495,0.69219 2.722772,2.20813 2.722772,2.20814 -2.450495,0.69219 c -3.035044,0.8573 -3.245345,3.76634 -0.272277,3.76634 1.19802,0 2.178218,0.67647 2.178218,1.50327 0,2.02106 -15.191979,2.15949 -15.949578,0.14533 z m 20.490716,-0.0861 c -5.800594,-4.14497 0.0899,-17.20266 6.24445,-13.84231 2.426385,1.3248 2.052508,3.96455 -0.424185,2.99495 -1.975688,-0.77345 -6.004967,2.3676 -6.004967,4.68122 0,2.28475 2.029797,4.60366 4.029703,4.60366 0.778712,0 1.415841,-0.75 1.415841,-1.66667 0,-0.91666 -0.490099,-1.66666 -1.089109,-1.66666 -0.59901,0 -1.089109,-0.5 -1.089109,-1.11112 0,-2.25815 5.108873,-1.11961 6.232241,1.38889 1.029392,2.29866 1.249344,2.05257 2.731037,-3.05555 2.294394,-7.9099 4.876677,-7.58392 7.5954,0.95882 2.264578,7.11573 1.958606,8.72672 -1.117956,5.88622 -2.510846,-2.31819 -4.426951,-2.35295 -5.275981,-0.0957 -0.446567,1.18725 -1.46397,1.54295 -3.166399,1.10703 -1.379627,-0.35326 -2.812423,-0.14045 -3.18399,0.4729 -0.998776,1.6487 -4.082422,1.35556 -6.896976,-0.65566 z m 17.24104,-6.49691 c 0,-0.26949 -0.490099,-0.79899 -1.089109,-1.17668 -0.59901,-0.37769 -1.089109,-0.1572 -1.089109,0.48998 0,0.64718 0.490099,1.17668 1.089109,1.17668 0.59901,0 1.089109,-0.22049 1.089109,-0.48998 z m 6.747469,7.33773 c -1.684082,-1.11743 -1.389259,-13.38622 0.33174,-13.80497 0.59901,-0.14575 1.23725,2.36 1.4183,5.56834 0.28285,5.0121 0.64061,5.83333 2.54126,5.83333 2.78052,0 2.10227,2.67094 -0.77754,3.06192 -1.1511,0.15628 -2.73229,-0.1401 -3.51376,-0.65862 z m 13.35918,-1.75699 c -2.00688,-3.12476 -1.78825,-11.89167 0.31414,-12.59699 0.96787,-0.32471 1.36139,1.15694 1.36139,5.12585 0,3.07041 0.51157,5.90512 1.13682,6.29935 2.21532,1.39681 4.30872,-1.92291 4.30872,-6.83279 0,-2.67518 0.4901,-4.86395 1.08911,-4.86395 0.59901,0 1.08911,2.6725 1.08911,5.9389 0,4.34241 -0.53541,6.43323 -1.9917,7.77778 -2.79389,2.57951 -5.29241,2.28952 -7.30759,-0.84815 z m 12.20358,1.94628 c -1.4513,-1.48062 -0.66286,-2.45241 2.26898,-2.79657 l 2.99505,-0.35158 -2.99505,-2.70037 c -3.70066,-3.33656 -3.95884,-7.54953 -0.54456,-8.88601 3.23539,-1.26645 5.14986,0.5464 2.59207,2.45449 -1.81583,1.35459 -1.79795,1.54428 0.33081,3.5097 2.50211,2.31012 2.94363,6.13717 0.94346,8.17775 -1.42394,1.4527 -4.43485,1.77185 -5.59076,0.59259 z m 9.27131,-1.13711 c -1.54499,-2.9869 -0.27915,-13.40716 1.72394,-14.19135 1.95732,-0.76627 5.70442,0.27106 5.70442,1.57918 0,0.50368 -1.34777,1.27664 -2.99505,1.71768 -2.98615,0.79952 -2.98777,0.80533 -0.54455,1.95691 3.0371,1.43151 3.21543,4.14877 0.27228,4.14877 -1.21013,0 -2.17822,0.74074 -2.17822,1.66666 0,1.05138 1.03868,1.66667 2.81353,1.66667 3.68638,0 2.9045,2.65824 -0.91833,3.12215 -1.87348,0.22734 -3.19129,-0.33901 -3.87802,-1.66667 z m 15.67611,0.13349 c -4.04577,-4.1275 -3.04123,-11.85943 1.77704,-13.67783 3.4549,-1.30387 6.16542,-0.28302 7.82417,2.94678 l 1.43869,2.80131 0.70524,-2.86667 c 0.83921,-3.4112 4.4557,-4.90679 6.8871,-2.84814 1.53888,1.30296 1.45343,1.52699 -0.78835,2.06689 -3.33037,0.80208 -4.04165,3.31095 -1.15688,4.08058 2.61546,0.69777 3.11121,2.57478 0.68005,2.57478 -0.8871,0 -1.92043,1.25 -2.29628,2.77777 -0.88749,3.60748 -2.39553,3.54372 -3.30167,-0.13959 -0.65722,-2.67147 -0.80808,-2.74171 -1.78982,-0.83333 -2.48501,4.83056 -6.93691,6.2213 -9.97929,3.11745 z m 6.78498,-6.16981 c 0.37747,-4.6076 -1.93031,-6.40532 -4.65468,-3.62592 -3.00309,3.06377 -1.62858,8.51782 2.01305,7.98773 1.79424,-0.26118 2.38571,-1.23779 2.64163,-4.36181 z m -115.230748,0.20197 c 0,-3.6306 0.490099,-6.91011 1.089109,-7.2878 0.68379,-0.43114 1.089109,2.0255 1.089109,6.60109 0,4.1178 -0.473735,7.2878 -1.089109,7.2878 -0.603858,0 -1.089109,-2.9411 -1.089109,-6.60109 z m 39.933994,-30.80632 c -0.39934,-0.4074 -0.726073,-4.9074 -0.726073,-10 0,-6.61813 -0.388324,-9.28521 -1.361386,-9.35025 -0.748762,-0.05 -4.174875,-0.0149 -7.613584,0.0782 -6.354779,0.17194 -10.628181,-0.63469 -10.629991,-2.00649 -0.002,-1.50975 35.197869,-0.0778 38.298518,1.55804 1.62285,0.85616 3.73045,1.25137 4.68355,0.87825 1.8008,-0.705 3.85062,-3.84549 3.85062,-5.89948 0,-1.81095 -42.681169,-1.61491 -44.571786,0.20473 -1.154456,1.11111 -1.542905,1.11111 -1.942244,0 -0.360985,-1.0044 -4.074329,-1.38889 -13.413447,-1.38889 -7.434705,0 -13.199873,-0.47145 -13.587379,-1.11111 -0.688708,-1.13687 5.58094,-1.27417 50.827895,-1.1131 12.813687,0.0456 22.781021,-0.36549 23.137731,-0.95431 0.34466,-0.56895 -0.30792,-2.21153 -1.45018,-3.65019 -2.01559,-2.53859 -2.48119,-2.60414 -15.786243,-2.22261 l -13.709401,0.39312 0.01668,-2.61534 c 0.01305,-2.04614 0.237197,-2.25961 1.02989,-0.98086 1.515169,2.44423 1.888138,1.17172 1.374649,-4.690046 l -0.462332,-5.277778 h -6.334228 c -4.048333,0 -9.378179,-0.846621 -11.014219,19.088554 -0.275859,3.36135 3.519268,-26.814294 4.871821,-32.133859 2.913584,-11.459071 9.68665,-17.906665 20.008003,-19.04654 5.490871,-0.606404 6.494629,-0.396077 8.657392,1.814067 3.404668,3.479256 15.337228,3.660012 18.337488,0.277778 3.89689,-4.392997 16.72844,-2.362372 22.00126,3.481754 5.5736,6.177485 9.28353,21.659068 8.83688,36.87642 l -0.20146,6.86405 -0.35314,-6.11111 c -0.65213,-11.285056 -0.51872,-11.111114 -8.52211,-11.111114 h -7.05845 V 102.86736 112.982 l 7.89603,-0.26848 c 18.07677,-0.61466 39.36514,0.0455 38.24719,1.186 -0.68696,0.70085 -6.38336,1.02491 -14.64851,0.83334 -10.98365,-0.25459 -13.76767,-3.7e-4 -14.81924,1.35319 -1.14972,1.4799 -1.48446,1.47636 -2.98713,-0.0316 -1.26139,-1.26582 -3.1503,-1.54876 -7.41805,-1.11111 l -5.72574,0.58716 -0.31384,11.01315 c -0.17621,6.18331 0.15472,11.49119 0.75459,12.10318 1.54988,1.58118 10.649,1.33753 12.62809,-0.33815 2.0314,-1.71998 3.0304,-0.99877 2.0878,1.50724 -0.61456,1.63385 -3.917,1.82569 -31.42828,1.82569 -16.907856,0 -31.068292,-0.33333 -31.467632,-0.74074 z M 145.4181,127.75267 c 0.004,-4.88889 0.19543,-6.75068 0.4255,-4.1373 0.23007,2.61338 0.22683,6.61338 -0.007,8.88889 -0.23403,2.27551 -0.42227,0.13729 -0.41831,-4.75159 z m -98.121695,5.64438 c -6.059645,-2.24678 -6.507719,-3.61084 -1.83973,-5.60065 6.197308,-2.64172 10.174376,-5.33442 9.68204,-1.80043 -0.281222,2.01861 1.973758,2.86551 4.632279,2.85218 2.630436,-0.0132 5.467711,-0.54199 5.462383,-2.89398 -0.0016,-0.71543 -0.461396,-1.43253 1.168744,-1.24875 3.301622,0.37222 12.206975,3.6042 12.206975,5.27063 0,1.41704 -7.978882,4.99885 -11.135502,4.99885 -0.992889,0 -2.553574,1.15996 -2.478359,-1.11111 0.116026,-3.50335 -2.604578,-2.57798 -4.965266,-2.57798 -2.360688,0 -4.092822,-0.50056 -4.29216,2.57798 -0.278235,4.29702 -3.918569,1.21023 -8.441404,-0.46673 z M 102.0893,59.525574 c -0.48685,-0.803649 0.71954,-1.217352 3.54989,-1.217352 2.37838,0 4.85981,-0.703709 5.57304,-1.580458 0.70713,-0.869252 2.70124,-2.083889 4.43135,-2.699193 3.02819,-1.076958 3.10243,-1.02194 1.988,1.473362 -0.70798,1.585251 -2.48321,2.869971 -4.57026,3.307477 -8.30627,1.741225 -10.27327,1.869614 -10.97202,0.716164 z m -8.073316,-4.082018 -1.279383,-2.864666 3.282782,2.384771 c 3.81053,2.768151 4.031027,3.344561 1.279383,3.344561 -1.101869,0 -2.579122,-1.2891 -3.282782,-2.864666 z m 8.226236,-0.847205 c -0.30817,-0.819307 -0.12306,-2.194307 0.41136,-3.055556 0.74248,-1.196554 0.9756,-0.993636 0.98834,0.860291 0.0123,1.788145 0.80433,2.547927 3.01173,2.889075 2.88052,0.445177 2.86415,0.469244 -0.42803,0.629358 -1.98557,0.09657 -3.65838,-0.459091 -3.9834,-1.323168 z m 17.839,-4.714055 c 0.0523,-1.294381 0.31033,-1.557666 0.658,-0.671297 0.31461,0.802084 0.27592,1.760417 -0.086,2.12963 -0.3619,0.369213 -0.61931,-0.287037 -0.57202,-1.458333 z M 89.789663,47.512071 C 89.06474,45.94494 88.728503,44.238702 89.04247,43.720431 89.356436,43.20216 88.852714,43.075887 87.923088,43.439825 86.507273,43.9941 86.232859,42.980577 86.232859,37.19711 c 0,-5.572923 0.30435,-6.785269 1.578198,-6.286573 1.00353,0.39287 1.377315,0.08378 1.026517,-0.848854 -0.870278,-2.313724 2.53338,-3.207821 14.821026,-3.893295 l 11.43564,-0.637944 0.34659,-3.683694 c 0.19063,-2.026031 -0.16529,-4.312928 -0.79092,-5.081992 -0.79794,-0.980888 -0.75648,-1.787019 0.1389,-2.700483 0.70201,-0.7162 1.16288,-3.264918 1.02413,-5.6638181 -0.19897,-3.4402441 0.18373,-4.5028075 1.81159,-5.0299076 4.91681,-1.5920606 5.63803,-0.012002 5.63803,12.3518167 0,6.39146 0.4405,12.462966 0.97888,13.492235 0.53838,1.029269 0.63725,5.228869 0.2197,9.332443 -0.73656,7.238753 -2.07883,10.654075 -3.0721,7.816733 -0.65981,-1.884779 -3.57202,-1.76923 -3.57202,0.141728 0,3.195241 -2.65771,3.737493 -14.15842,2.888744 -6.289603,-0.464171 -11.686574,-0.43645 -11.993269,0.0616 -0.306695,0.498051 -1.150746,-0.37665 -1.875668,-1.94378 z m 25.635207,-5.446976 c 0.19257,-2.018286 0.055,-5.049614 -0.82625,-5.372686 -0.58181,-0.21329 -1.39281,2.219933 -2.98563,2.270694 -3.45957,0.110251 -4.14251,-0.465684 -4.14251,-2.321548 0,-1.849691 0.60756,-2.895 4.00705,-2.78951 1.23559,0.03834 2.19723,2.386259 2.81975,2.24687 1.02801,-0.230182 1.34152,-2.442988 1.34152,-3.458197 0,-2.930918 -3.34148,-4.332496 -10.32902,-4.332496 -10.395128,0 -16.115748,5.000266 -13.561602,11.853894 1.893647,5.081289 4.002067,5.924514 14.088642,5.634501 l 9.25742,-0.266173 z M 94.582694,38.678592 c -0.39934,-0.407407 -0.726073,-1.657407 -0.726073,-2.777778 0,-2.673409 6.279779,-2.896403 7.272089,-0.258232 1.0173,2.704579 -4.405585,5.219682 -6.546016,3.03601 z M 121.6289,28.293473 c 0,-9.61652 -0.28538,-11.651918 -1.63366,-11.651918 -1.29585,0 -1.78068,2.297649 -2.34457,11.111111 -0.391,6.111111 -0.46783,11.513795 -0.17074,12.005965 0.2971,0.49217 1.35215,0.735533 2.34457,0.540807 1.54302,-0.302761 1.8044,-2.041907 1.8044,-12.005965 z M 90.761259,22.752666 c 0,-1.527778 0.247199,-2.152778 0.549331,-1.388889 0.302132,0.763889 0.302132,2.013889 0,2.777778 -0.302132,0.763889 -0.549331,0.138889 -0.549331,-1.388889 z m 7.451798,-8.234547 c 4.474033,-1.873694 11.561753,-2.243984 12.524753,-0.654342 0.41008,0.67693 -1.21394,1.111111 -4.15602,1.111111 -2.65602,0 -6.48321,0.256415 -8.504872,0.569811 l -3.675742,0.569811 z"
       id="path1"
       sodipodi:nodetypes="sssssssssssssssssssssscssssssssscsssssssssssscssssssssssssssssssssssssssscsssssssssssssssssssssssscccssssssssssssssssssssssssssssssssssssssssssscssssssssssssssssssscssssssssssssssssssssccsssssssssssscssscsssssssscsscccsssssscssssssscscccssssssssssssssssssssscssssssssssssssssssssscsssssssssssssssssssssssscssssssssssssssssssscs" /></g></svg>
