<?xml version="1.0" encoding="UTF-8" standalone="no"?>
<!-- Created with Inkscape (http://www.inkscape.org/) -->

<svg
   width="210mm"
   height="210mm"
   viewBox="0 0 210 210"
   version="1.1"
   id="svg1"
   xml:space="preserve"
   inkscape:version="1.3.2 (091e20e, 2023-11-25)"
   sodipodi:docname="grabbing_barrier.svg"
   xmlns:inkscape="http://www.inkscape.org/namespaces/inkscape"
   xmlns:sodipodi="http://sodipodi.sourceforge.net/DTD/sodipodi-0.dtd"
   xmlns="http://www.w3.org/2000/svg"
   xmlns:svg="http://www.w3.org/2000/svg"><sodipodi:namedview
     id="namedview1"
     pagecolor="#ffffff"
     bordercolor="#111111"
     borderopacity="1"
     inkscape:showpageshadow="0"
     inkscape:pageopacity="0"
     inkscape:pagecheckerboard="1"
     inkscape:deskcolor="#d1d1d1"
     inkscape:document-units="mm"
     inkscape:zoom="0.23122131"
     inkscape:cx="121.0961"
     inkscape:cy="471.40983"
     inkscape:window-width="1312"
     inkscape:window-height="587"
     inkscape:window-x="0"
     inkscape:window-y="25"
     inkscape:window-maximized="0"
     inkscape:current-layer="layer1" /><defs
     id="defs1" /><g
     inkscape:label="Layer 1"
     inkscape:groupmode="layer"
     id="layer1"><path
       style="fill:#000000"
       d="M -2.0222502,213.87005 C -3.795646,213.40694 -3.8816489,207.57973 -3.6241919,105.32889 L -3.3521288,-2.7228983 H 104.79449 212.94111 V 105.06854 c 0,85.7313 -0.27639,107.96688 -1.3505,108.64869 -1.38886,0.88161 -210.2499077,1.03102 -213.6128602,0.15282 z M 211.3141,210.06836 c 0.31939,-1.3216 0.44869,-49.2597 0.28734,-106.52912 L 211.30807,-0.58697599 104.77894,-0.85912402 -1.7501871,-1.131272 V 104.95803 c 0,58.34911 0.3203884,106.40969 0.7119741,106.80127 0.3915858,0.39159 48.200391,0.71198 106.241793,0.71198 H 210.73339 Z M 30.288648,195.54486 c 0,-6.47418 0.28128,-7.58203 2.069123,-8.14947 2.174723,-0.69023 6.474566,1.37497 6.474566,3.10972 0,0.55835 0.688521,0.0823 1.530046,-1.05787 2.11291,-2.86277 3.596716,-1.06092 4.009328,4.8687 0.237371,3.41124 0.799273,4.80582 1.936354,4.80582 1.156555,0 1.693198,-1.42889 1.930164,-5.13933 0.265327,-4.15452 0.674616,-5.07372 2.135922,-4.79694 2.552837,0.48352 2.98308,7.43058 0.678058,10.94849 -3.558422,5.43084 -11.151911,2.23643 -11.151911,-4.69136 v -2.6699 l -1.662499,2.37355 c -0.914375,1.30545 -2.322697,2.37355 -3.129606,2.37355 -0.806908,0 -1.620677,1.04367 -1.808374,2.31926 -0.187698,1.2756 -0.941996,2.5171 -1.67622,2.7589 -0.982887,0.32369 -1.334951,-1.53641 -1.334951,-7.05312 z m 5.339806,-3.42787 c 0,-0.55272 -0.480583,-1.00494 -1.067961,-1.00494 -0.587379,0 -1.067962,0.74924 -1.067962,1.66497 0,0.91574 0.480583,1.36796 1.067962,1.00494 0.587378,-0.36302 1.067961,-1.11226 1.067961,-1.66497 z m 18.15534,3.90667 c 0,-6.7197 1.244468,-9.84307 2.557996,-6.42007 0.355238,0.92574 0.645887,3.51476 0.645887,5.75339 0,3.59856 1.260286,5.36672 3.82521,5.36672 0.245649,0 0.446635,-2.61484 0.446635,-5.81075 0,-3.19592 0.426129,-6.07413 0.946954,-6.39601 1.852972,-1.1452 3.608528,2.56942 2.996566,6.34051 -0.471128,2.90322 -0.178563,3.95546 1.323255,4.75921 2.688581,1.43888 3.276914,0.45524 3.276914,-5.47872 0,-3.8763 0.398951,-5.16181 1.601942,-5.16181 1.256451,0 1.601941,1.46857 1.601941,6.80933 v 6.80933 l -9.61165,0.17517 -9.61165,0.17518 z m 21.359223,-0.55077 c 0,-8.67615 1.518988,-9.86813 5.216939,-4.09385 l 2.222806,3.47088 0.01799,-2.87387 c 0.02379,-3.8006 1.732735,-4.71444 3.308873,-1.7694 1.092275,2.04093 1.422858,2.1403 2.456496,0.73834 2.280867,-3.09363 5.736911,-4.28731 8.114306,-2.8026 2.26888,1.41694 2.301094,3.72234 0.04471,3.19979 -2.344539,-0.54297 -5.120123,0.86282 -5.641728,2.85744 -0.648677,2.48055 0.988504,5.45612 3.001993,5.45612 2.07819,0 1.953514,-1.06847 -0.320057,-2.74288 -1.779935,-1.31087 -1.779935,-1.41092 0,-2.10093 3.352395,-1.2996 5.237754,0.2614 4.874037,4.0355 -0.304424,3.15885 -0.69361,3.50809 -4.238581,3.80362 -3.081612,0.2569 -4.267501,-0.19276 -5.632952,-2.13592 l -1.729573,-2.46133 -0.645907,2.45463 c -0.80321,3.05243 -3.705171,2.71964 -5.161821,-0.59194 -1.332648,-3.02967 -2.437576,-3.0594 -2.876362,-0.0774 -0.187698,1.2756 -0.941996,2.5171 -1.67622,2.7589 -0.983696,0.32396 -1.334951,-1.55081 -1.334951,-7.12509 z m 30.497453,5.01319 c -3.15941,-4.5107 -1.7088,-9.71401 3.47858,-12.47758 2.52336,-1.34431 3.37346,-1.02735 7.40327,2.76028 1.92961,1.81365 1.64683,7.43523 -0.50014,9.94272 -2.56347,2.9939 -8.21272,2.87124 -10.38171,-0.22542 z m 7.41517,-5.11681 c 0,-3.01126 -0.40844,-3.72324 -2.13592,-3.72324 -1.422,0 -2.2534,0.82913 -2.48737,2.48058 -0.50877,3.59101 0.60142,5.74044 2.75113,5.32645 1.35729,-0.2614 1.87216,-1.38449 1.87216,-4.08379 z m 5.87378,0.10362 c 0,-8.57799 1.65526,-9.99272 5.01244,-4.28406 l 1.92931,3.28067 0.53398,-2.95313 c 0.98754,-5.46144 2.66722,-3.13545 2.98569,4.13452 0.28525,6.51172 0.11707,7.20874 -1.73937,7.20874 -1.30996,0 -2.5796,-1.25852 -3.50153,-3.47088 l -1.44638,-3.47087 -0.55212,3.11578 c -0.30366,1.71368 -1.15284,3.31562 -1.88706,3.55987 -0.98412,0.32738 -1.33496,-1.54398 -1.33496,-7.12064 z m 18.4344,3.91586 c -1.94726,-5.54908 -2.77217,-11.48058 -1.59664,-11.48058 1.41598,0 3.11079,2.18749 3.72342,4.80582 0.41992,1.7947 0.71089,1.58144 1.82134,-1.33495 0.72687,-1.90898 1.65903,-3.47087 2.07147,-3.47087 1.60509,0 3.31521,2.69044 3.3602,5.28641 0.043,2.48186 0.2403,2.35722 2.22521,-1.40586 3.13718,-5.94759 4.38636,-3.51589 2.26365,4.40651 -1.92999,7.20316 -4.76661,9.07833 -6.04257,3.99449 -0.36855,-1.46844 -1.14153,-2.6699 -1.71772,-2.6699 -0.57618,0 -1.04761,1.20146 -1.04761,2.6699 0,4.06117 -3.55181,3.49902 -5.06075,-0.80097 z m 15.50597,2.8805 c -1.08747,-1.08747 4.1316,-13.8271 5.66457,-13.8271 1.80664,0 5.12081,6.44824 5.21449,10.14563 0.12721,5.02055 2.137,-0.17837 2.15451,-5.57328 0.0131,-4.03668 0.33508,-4.91699 1.6183,-4.42457 1.11518,0.42793 1.60194,2.16783 1.60194,5.72601 0,3.39979 0.50144,5.3037 1.49753,5.68594 2.21268,0.84909 2.77431,-0.20343 2.77431,-5.19919 0,-4.23478 2.01773,-7.72469 3.56914,-6.17328 0.38649,0.38649 0.70271,2.96947 0.70271,5.73996 0,4.1391 0.38084,5.13685 2.13592,5.59581 1.17476,0.30721 2.13592,1.07701 2.13592,1.71068 0,1.77912 -20.06313,1.18273 -20.75372,-0.61691 -0.73593,-1.91779 -4.50598,-1.77545 -5.26355,0.19873 -0.62518,1.62921 -1.98405,2.07959 -3.05207,1.01157 z m 0.81222,-23.90178 c -1.0913,-1.76577 4.79085,-18.22629 6.51316,-18.22629 2.0455,0 1.82885,1.8533 -1.18944,10.17469 -2.88002,7.94017 -4.17869,9.90429 -5.32372,8.0516 z M 22.281846,174.02789 c -5.123437,-5.66134 2.464269,-17.9341 7.79321,-12.60516 2.074427,2.07443 1.49189,2.99029 -1.901984,2.99029 -2.532903,0 -3.325125,0.56414 -3.876325,2.76029 -0.710755,2.83188 1.951836,6.97557 3.492363,5.43504 0.415361,-0.41536 0.186512,-1.32389 -0.508553,-2.01895 -1.949402,-1.9494 -1.51026,-2.97249 1.275888,-2.97249 1.40844,0 3.311259,1.0703 4.271988,2.40291 1.698382,2.3558 1.719958,2.3266 1.100465,-1.48949 -1.126529,-6.93942 2.679229,-10.40939 7.452916,-6.79533 1.533198,1.16075 1.875521,2.38846 1.430548,5.1305 -0.851389,5.2465 0.735421,7.05245 2.365709,2.69241 2.948819,-7.8863 3.324303,-8.49402 5.040345,-8.15782 0.963009,0.18867 2.405162,2.26536 3.204785,4.61488 2.564422,7.53498 2.929255,7.64562 3.521505,1.06796 0.513064,-5.69821 0.852787,-6.44684 3.067934,-6.76058 3.342192,-0.47337 6.682979,2.70503 6.332373,6.02458 -0.159455,1.50971 0.358936,2.87064 1.206007,3.16613 1.129809,0.39411 1.315475,-0.15988 0.775124,-2.31281 -0.933515,-3.71942 0.945143,-7.05907 3.970953,-7.05907 3.388316,0 4.981842,1.96731 4.981842,6.15041 0,2.11958 0.436948,3.31725 1.067961,2.92726 0.587379,-0.36302 1.067961,-2.31371 1.067961,-4.33487 0,-2.55455 0.488359,-3.67484 1.601942,-3.67484 1.271383,0 1.601942,1.54261 1.601942,7.47573 0,7.54983 -0.731532,8.85279 -3.259889,5.8063 -1.256446,-1.51392 -1.472521,-1.51392 -2.319756,0 -1.034168,1.84796 -8.30385,2.37452 -8.30385,0.60147 0,-0.58738 -0.720874,-1.06797 -1.601942,-1.06797 -0.881068,0 -1.601942,0.48059 -1.601942,1.06797 0,1.45969 -7.170099,1.35851 -8.080176,-0.11402 -0.509746,-0.82479 -1.019454,-0.74411 -1.686665,0.26699 -0.762763,1.15589 -1.36442,0.96294 -2.974584,-0.95395 -2.490954,-2.96545 -3.931714,-3.0365 -5.413914,-0.26699 -1.695966,3.16895 -6.204611,2.80932 -7.500162,-0.59824 -1.147509,-3.01818 -3.17945,-2.59557 -3.17945,0.66127 0,1.14009 -0.480583,2.0729 -1.067961,2.0729 -0.587379,0 -1.067961,-0.72088 -1.067961,-1.60194 0,-0.88107 -0.421738,-1.60195 -0.937195,-1.60195 -0.515458,0 -1.535467,0.72088 -2.266689,1.60195 -1.885563,2.27196 -6.798365,1.98462 -9.074763,-0.53077 z m 40.908905,-2.21923 c -0.210477,-0.63144 -0.839239,-1.14806 -1.397249,-1.14806 -0.558009,0 -1.186772,0.51662 -1.397249,1.14806 -0.210477,0.63143 0.418285,1.14805 1.397249,1.14805 0.978965,0 1.607727,-0.51662 1.397249,-1.14805 z m 11.044499,-0.45389 c 0,-0.55801 -0.516626,-1.18677 -1.148058,-1.39725 -0.631432,-0.21047 -1.148059,0.41829 -1.148059,1.39725 0,0.97897 0.516627,1.60773 1.148059,1.39725 0.631432,-0.21048 1.148058,-0.83924 1.148058,-1.39725 z m -34.334952,-5.87378 c 0,-0.58738 -0.45222,-1.06797 -1.004933,-1.06797 -0.552713,0 -1.30195,0.48059 -1.66497,1.06797 -0.36302,0.58737 0.0892,1.06796 1.004934,1.06796 0.915733,0 1.664969,-0.48059 1.664969,-1.06796 z m 23.205907,-0.64523 c -0.354875,-0.35488 -1.275992,-0.39282 -2.046926,-0.0843 -0.851948,0.34092 -0.598887,0.59398 0.645226,0.64522 1.12581,0.0464 1.756574,-0.20604 1.4017,-0.56091 z m 22.331402,10.58383 c -0.375617,-0.37562 -0.68294,-3.72663 -0.68294,-7.4467 0,-5.82685 0.269024,-6.76375 1.942166,-6.76375 1.12485,0 2.669102,1.46064 3.669563,3.47087 l 1.727398,3.47088 0.0683,-3.47088 c 0.07627,-3.87566 3.077103,-4.98153 3.994821,-1.47217 0.487732,1.86509 0.691984,1.8294 3.055358,-0.53398 2.768307,-2.7683 5.756747,-3.25037 7.755987,-1.25113 2.05203,2.05203 1.51645,2.83232 -2.18932,3.18962 -3.01895,0.29108 -3.51312,0.76883 -3.79536,3.6692 -0.2293,2.35639 0.20713,3.53856 1.4878,4.03 2.58739,0.99287 3.44863,-0.34629 1.25452,-1.95066 -2.23007,-1.63067 -1.37947,-2.74398 2.09647,-2.74398 2.30099,0 2.52326,0.40009 2.22492,4.00485 -0.29981,3.62248 -0.65106,4.03593 -3.67884,4.3303 -2.57225,0.25008 -3.86066,-0.32708 -5.563967,-2.49249 l -2.216586,-2.81793 -0.692585,2.75948 c -0.932592,3.71574 -3.461902,3.48753 -5.122636,-0.46219 -1.38972,-3.30517 -2.814126,-3.23798 -2.814126,0.13275 0,2.08007 -1.443946,3.42491 -2.520944,2.34791 z m 26.850653,0.15162 c -0.68031,-0.68031 3.19454,-12.09764 4.7881,-14.10825 1.67502,-2.11338 3.64359,0.23664 5.1624,6.1627 1.63994,6.39873 3.09843,5.91602 3.09843,-1.02548 0,-6.57131 2.34337,-7.94091 5.04975,-2.95138 l 1.86272,3.43413 0.35257,-2.9369 c 0.38275,-3.18831 2.78911,-3.9713 3.83429,-1.2476 0.35654,0.92911 0.64824,3.533 0.64824,5.78644 0,2.25343 -0.2917,4.85733 -0.64824,5.78644 -0.97515,2.5412 -3.51334,2.03177 -4.88588,-0.98062 -1.50566,-3.30456 -2.75323,-3.41973 -3.20228,-0.29563 -0.26625,1.85239 -1.10418,2.41178 -3.81214,2.54493 -2.1916,0.10776 -3.47087,-0.33159 -3.47087,-1.19204 0,-2.39352 -3.18306,-2.70793 -5.07264,-0.50107 -1.87563,2.19058 -2.69928,2.5295 -3.70445,1.52433 z m 26.08467,-7.15333 c 0.30596,-7.54992 0.3864,-7.75109 3.23025,-8.07868 3.81853,-0.43986 8.29712,3.91045 8.29712,8.0595 0,5.00346 -2.69489,7.7619 -7.58307,7.7619 h -4.25808 z m 7.04603,-0.12758 c -0.21024,-2.15484 -0.98251,-3.45046 -2.19342,-3.67985 -1.48348,-0.28102 -1.86893,0.39631 -1.86893,3.28414 0,4.17987 0.64183,5.15861 2.83181,4.31824 1.01004,-0.38759 1.4413,-1.76232 1.23054,-3.92253 z m 22.16326,5.49675 c -2.46106,-3.51365 -2.09811,-8.59248 0.80924,-11.32379 3.18573,-2.99283 5.26053,-2.93221 8.31655,0.24299 l 2.46879,2.56506 1.141,-2.28861 c 2.82324,-5.66286 8.98369,-2.18342 8.83461,4.98981 -0.0509,2.44762 0.10752,5.11102 0.35197,5.91867 0.24446,0.80764 -0.18802,1.6993 -0.96105,1.98145 -0.78735,0.28738 -1.65561,-0.44339 -1.97417,-1.66156 -0.87501,-3.34605 -3.56207,-3.86418 -3.56207,-0.68686 0,3.15767 -2.10441,3.52153 -2.89444,0.50046 -0.3072,-1.17475 -0.86748,-2.13592 -1.24506,-2.13592 -0.37758,0 -1.28677,0.96117 -2.02042,2.13592 -1.85768,2.97463 -7.10935,2.83993 -9.26495,-0.23762 z m 6.86968,-2.41841 c 1.90048,-2.28995 0.47547,-6.95562 -2.12442,-6.95562 -2.59989,0 -4.0249,4.66567 -2.12441,6.95562 0.72489,0.87344 1.68088,1.58807 2.12441,1.58807 0.44354,0 1.39952,-0.71463 2.12442,-1.58807 z m 11.75908,-5.88765 c 0,-0.58738 -0.72088,-1.06797 -1.60194,-1.06797 -0.88107,0 -1.60195,0.48059 -1.60195,1.06797 0,0.58737 0.72088,1.06796 1.60195,1.06796 0.88106,0 1.60194,-0.48059 1.60194,-1.06796 z M 95.111566,104.84065 c -2.334424,-2.57951 -2.494483,-7.903573 -0.211268,-7.027421 0.881068,0.338097 1.601942,0.198326 1.601942,-0.310604 0,-0.508929 1.007201,-1.554334 2.238225,-2.323121 1.898575,-1.185681 2.536605,-1.127758 4.204545,0.381705 1.08148,0.978725 2.47719,1.463767 3.10158,1.077872 1.75121,-1.082304 1.32972,0.61977 -1.31202,5.298219 -2.79266,4.94574 -6.706124,6.12646 -9.623004,2.90335 z m 7.263644,-4.50372 c 1.49005,-2.88144 1.44972,-3.110097 -0.66709,-3.781947 -1.5097,-0.479158 -2.916283,-0.05184 -4.263313,1.295194 -1.850944,1.850944 -1.877527,2.199803 -0.335389,4.401513 1.935985,2.76401 3.057122,2.35634 5.265792,-1.91476 z m 5.74807,-6.676333 c -0.0696,-0.734223 -0.0403,-1.971334 0.065,-2.749134 0.10535,-0.7778 -0.38627,-2.110404 -1.09248,-2.961341 -1.0476,-1.262274 -0.96125,-1.423294 0.46897,-0.874471 0.96415,0.369979 1.75299,1.101854 1.75299,1.62639 0,2.037852 1.91794,0.78062 4.63526,-3.038466 4.10601,-5.770828 3.49114,-3.330154 -0.88413,3.509488 -3.82949,5.986464 -4.7264,6.8003 -4.94562,4.487534 z M 94.373355,93.248692 c -0.01184,-2.041293 2.93451,-7.01734 3.557838,-6.008774 0.321946,0.52092 -0.345278,2.358895 -1.482722,4.084389 -1.137444,1.725493 -2.071246,2.591466 -2.075116,1.924385 z m -30.02209,-7.330814 c -1.242452,-2.643204 -2.686662,-4.805825 -3.209355,-4.805825 -0.522692,0 -0.894601,-1.081311 -0.826465,-2.402912 0.09323,-1.808241 0.244755,-1.94039 0.612288,-0.533981 0.624602,2.390114 2.467711,2.43912 2.467711,0.06561 0,-1.568533 0.243328,-1.526182 1.868932,0.325283 1.027913,1.17073 2.366966,3.008166 2.975675,4.08319 1.634841,2.88725 3.07754,2.487562 3.839717,-1.063763 0.608079,-2.833311 0.687078,-2.712 0.800971,1.22998 0.08669,3.000568 -0.486683,4.928107 -1.826669,6.140777 -3.014226,2.727838 -4.257222,2.164391 -6.702805,-3.038363 z m 10.833536,-0.80097 c 0.409213,-5.051825 -0.0826,-7.208738 -1.643726,-7.208738 -0.881068,0 -1.601942,-0.630255 -1.601942,-1.400566 0,-0.770311 -0.888988,-2.354782 -1.975529,-3.521047 -1.929258,-2.070815 -1.916751,-2.14822 0.533981,-3.304781 2.257595,-1.065414 2.509509,-0.932697 2.509509,1.322097 0,3.39602 1.474852,4.065091 3.653686,1.657508 1.703927,-1.88282 1.65298,-2.154652 -0.925232,-4.936588 -3.33908,-3.602928 -3.791618,-8.453333 -0.697051,-7.471156 1.117272,0.354608 5.316989,0.669959 9.332705,0.70078 6.554481,0.05031 7.090481,0.210194 5.240207,1.563147 -1.962129,1.434744 -1.923095,1.50711 0.812926,1.50711 1.782628,0 2.874022,0.581 2.874022,1.529975 0,0.841486 1.039448,1.859882 2.309886,2.263104 2.013951,0.639203 2.087535,0.857563 0.574345,1.704387 -0.954547,0.534191 -2.9705,0.661302 -4.479895,0.282468 -2.481213,-0.622745 -2.57053,-0.815892 -0.931508,-2.014375 1.59043,-1.162951 1.317674,-1.41848 -2.223158,-2.082744 -3.29172,-0.61753 -4.407517,-0.358385 -6.050604,1.405261 -1.10803,1.189331 -2.0146,2.920297 -2.0146,3.846591 0,0.926295 -0.651092,2.748574 -1.446872,4.04951 -1.145596,1.872816 -1.193639,3.210228 -0.230725,6.422924 1.205102,4.020737 2.745558,4.340686 2.745558,0.570246 0,-1.076861 0.413939,-1.957929 0.919865,-1.957929 0.505926,0 0.695821,1.172011 0.421989,2.60447 -0.328041,1.716033 -1.606944,2.991093 -3.749133,3.737864 -4.261126,1.485437 -4.18387,1.510212 -3.958704,-1.269518 z m 7.251532,-21.439203 c 0.298671,-1.573914 -0.211541,-1.882149 -2.65164,-1.601942 -1.904709,0.218727 -3.158164,1.067304 -3.391303,2.295881 -0.298671,1.573914 0.211541,1.882149 2.65164,1.601942 1.904709,-0.218727 3.158164,-1.067304 3.391303,-2.295881 z m 16.201829,21.540606 c 0,-0.939842 0.762191,-2.341365 1.693758,-3.114496 0.93156,-0.77313 2.69727,-3.54059 3.9238,-6.14991 1.94787,-4.143907 2.02922,-4.894742 0.64297,-5.933811 -0.87289,-0.654277 -1.88979,-1.997119 -2.25978,-2.984094 -0.53467,-1.426295 -0.0828,-1.75499 2.20211,-1.601942 2.63448,0.176461 2.93158,-0.2092 3.55385,-4.613267 0.50958,-3.606504 0.59479,-3.043458 0.34143,2.256194 -0.29744,6.221763 -3.50292,16.140074 -5.82871,18.035068 -0.36045,0.293689 -1.46853,1.722224 -2.4624,3.174521 -1.268262,1.853264 -1.807028,2.131061 -1.807028,0.931737 z m 21.359228,-7.053017 c 0,-0.628033 2.5048,-2.683101 5.56623,-4.566818 6.12408,-3.768184 10.15517,-7.676693 12.5559,-12.174078 0.8628,-1.616329 1.73499,-2.440009 1.93819,-1.8304 0.2032,0.609609 -0.17564,2.126908 -0.84187,3.371775 -0.91286,1.705691 -0.8977,2.641296 0.0615,3.797071 1.04176,1.255243 0.83884,1.533675 -1.11776,1.533675 -1.31482,0 -4.68199,1.682039 -7.48258,3.737864 -2.8006,2.055825 -5.47035,3.737864 -5.93278,3.737864 -0.46243,0 -1.71965,0.795358 -2.79381,1.767463 -1.07416,0.972104 -1.95302,1.253617 -1.95302,0.625584 z M 84.561082,74.509057 c 1.044419,-1.869513 2.587967,-3.628788 3.430106,-3.909501 1.130582,-0.376861 1.065508,-0.04473 -0.248737,1.269513 -0.978946,0.978945 -2.08406,2.73822 -2.45581,3.9095 -0.37175,1.171281 -1.114342,2.129601 -1.650206,2.129601 -0.535863,0 -0.119772,-1.529601 0.924647,-3.399113 z m -23.888104,-0.09063 c -0.28573,-0.7446 -0.09256,-4.469114 0.429264,-8.276699 0.521825,-3.807586 0.753738,-7.433788 0.515362,-8.058228 -0.238375,-0.62444 0.544704,-2.020526 1.740176,-3.102414 2.130811,-1.928357 2.173586,-1.914771 2.173586,0.690362 0,1.461586 -0.360437,3.021242 -0.800971,3.465902 -0.877469,0.885688 -0.9449,1.486982 -1.176829,10.494117 -0.145296,5.642675 -1.615,8.085028 -2.880588,4.78696 z m 38.43267,-11.569308 c -0.413123,-0.668448 -2.052735,-0.910311 -3.800892,-0.56068 -1.705472,0.341095 -3.074361,0.15124 -3.074361,-0.42639 0,-1.648781 6.391882,-1.209713 8.162275,0.56068 0.88107,0.881068 1.11539,1.601941 0.52073,1.601941 -0.59467,0 -1.40816,-0.528998 -1.807752,-1.175551 z M 36.429425,52.641829 c -4.493037,-1.863622 -4.963845,-2.980224 -1.939142,-4.598997 1.936254,-1.036252 7.537473,-2.434522 9.571855,-2.166784 0.33072,0.04353 0.442904,1.43899 0.440634,1.669908 -0.01214,1.235154 3.419581,0.816032 6.759871,0.878927 3.819156,0.07191 6.239852,0.609824 6.522121,1.449306 0.328923,0.978231 -1.429859,1.334952 -6.581877,1.334952 -5.537576,0 -7.030744,0.262259 -7.030744,1.523985 0,2.017876 -2.607138,2.03884 -7.742718,-0.0913 z m 130.558255,0.302748 c 0,-3.147226 -1.2528,-1.735436 -7.03075,-1.735436 -5.15106,0 -6.91121,-0.356901 -6.58366,-1.334952 0.28186,-0.841618 2.73754,-1.38324 6.64501,-1.46562 4.32256,-0.09113 7.16768,1.320422 7.10353,-1.748881 -0.0343,-1.641824 1.42658,-1.440084 5.45855,-0.06155 2.50412,0.856165 4.96476,1.958857 5.46809,2.450426 1.19585,1.167922 -3.30354,4.080002 -7.64573,4.948439 -2.72058,0.544117 -3.41504,0.330103 -3.41504,-1.052428 z M 66.332337,51.569812 c 0.734223,-0.296266 1.93568,-0.296266 2.669903,0 0.734223,0.296265 0.133495,0.538664 -1.334951,0.538664 -1.468447,0 -2.069175,-0.242399 -1.334952,-0.538664 z m 4.538835,-1.356665 c 0,-0.626961 1.10534,-1.139929 2.456311,-1.139929 1.350971,0 2.990959,-0.534648 3.644417,-1.188107 0.653459,-0.653458 1.830886,-0.951034 2.616505,-0.661278 0.918721,0.338847 0.47573,0.902434 -1.241505,1.579482 -5.522821,2.177464 -7.475728,2.545759 -7.475728,1.409832 z m 13.2046,-4.884372 c 1.682432,-0.87745 3.845054,-1.592402 4.805825,-1.588783 1.037991,0.0039 0.505542,0.65397 -1.312112,1.601942 -1.682433,0.877449 -3.845054,1.592401 -4.805825,1.588782 -1.037991,-0.0039 -0.505542,-0.653969 1.312112,-1.601941 z m 9.756565,-2.675998 c -2.254554,-0.452099 -0.672339,-0.824773 5.339806,-1.257734 7.893097,-0.568418 10.130877,-0.419239 8.988677,0.599224 -0.9037,0.805793 -11.22784,1.280272 -14.328483,0.65851 z m 18.689323,-2.123248 c 0,-0.587379 0.72087,-1.067961 1.60194,-1.067961 0.88107,0 1.60194,0.480582 1.60194,1.067961 0,0.587379 -0.72087,1.067961 -1.60194,1.067961 -0.88107,0 -1.60194,-0.480582 -1.60194,-1.067961 z m 7.65317,0.132268 c -1.98239,-1.256637 1.49644,-2.55877 4.38596,-1.641673 1.68868,0.535966 1.82263,0.867454 0.65052,1.609805 -1.85341,1.173847 -3.22131,1.182503 -5.03648,0.03187 z"
       id="path1"
       sodipodi:nodetypes="sscccssssscccssscssssssssssscssssssssssssssssssssscccssscsssssssssssscsssssssssssssssssscsssscssssssssssssssssssssssssssssssssssssssssssssssssssssssssssssssssssssssssssssssssssssssssssssssssssscsssssssssssscsssssssssscsssssssssssssscssssssssscsssssssssssssssssssssssssssssssssscsssssssssssssssssssssssssssssssssssssssssssssssssssssssssssssssssssssssssssssssssssssssssssssssssssssssssssssssssssssssssssssssssssssssssssssssss" /></g></svg>
