<?xml version="1.0" encoding="UTF-8" standalone="no"?>
<!-- Created with Inkscape (http://www.inkscape.org/) -->

<svg
   width="200mm"
   height="200mm"
   viewBox="0 0 200 200"
   version="1.1"
   id="svg1"
   xml:space="preserve"
   inkscape:version="1.3.2 (091e20e, 2023-11-25)"
   sodipodi:docname="illegal_stop.svg"
   xmlns:inkscape="http://www.inkscape.org/namespaces/inkscape"
   xmlns:sodipodi="http://sodipodi.sourceforge.net/DTD/sodipodi-0.dtd"
   xmlns="http://www.w3.org/2000/svg"
   xmlns:svg="http://www.w3.org/2000/svg"><sodipodi:namedview
     id="namedview1"
     pagecolor="#ffffff"
     bordercolor="#111111"
     borderopacity="1"
     inkscape:showpageshadow="0"
     inkscape:pageopacity="0"
     inkscape:pagecheckerboard="1"
     inkscape:deskcolor="#d1d1d1"
     inkscape:document-units="mm"
     inkscape:zoom="0.31256932"
     inkscape:cx="361.51981"
     inkscape:cy="406.30987"
     inkscape:window-width="1312"
     inkscape:window-height="579"
     inkscape:window-x="0"
     inkscape:window-y="25"
     inkscape:window-maximized="0"
     inkscape:current-layer="layer1" /><defs
     id="defs1" /><g
     inkscape:label="Layer 1"
     inkscape:groupmode="layer"
     id="layer1"><path
       style="fill:#000000"
       d="m -3.2406806,206.13638 c -0.3719551,-0.38119 -0.676282,-47.63119 -0.676282,-105 V -3.170553 H 99.554187 203.02535 v 105.000003 105 H 100.23048 c -56.537186,0 -103.0992054,-0.31188 -103.4711606,-0.69307 z M 200.9965,101.30965 V -2.1309491 H 99.554187 -1.8881165 V 101.30965 204.75024 H 99.554187 200.9965 Z M 83.856035,194.75152 c -1.205087,-1.235 -1.561263,-3.20907 -1.340487,-7.42952 0.33771,-6.45584 1.903075,-8.24873 6.230192,-7.13573 3.392474,0.87259 3.468544,2.49321 0.157009,3.34499 -3.028738,0.77903 -3.378282,2.50611 -0.507211,2.50611 1.115865,0 2.028846,0.51162 2.028846,1.13693 0,0.62532 -0.912981,1.38161 -2.028846,1.68066 -2.79129,0.74806 -2.54383,2.20836 0.507211,2.99313 2.845163,0.73181 3.377634,2.99231 0.931456,3.95429 -2.602619,1.02351 -4.233839,0.73677 -5.97817,-1.05086 z m 24.272315,-1.06892 c -1.36819,-1.51295 -2.48762,-3.80585 -2.48762,-5.09532 0,-2.3353 -0.0112,-2.33369 -2.85192,0.41171 -1.56856,1.51591 -3.181253,3.65312 -3.583743,4.74935 -1.40028,3.81379 -2.80437,-0.003 -2.49285,-6.77696 0.2903,-6.31224 0.44182,-6.66798 2.96805,-6.96817 1.464173,-0.17399 3.375153,0.41438 4.246623,1.30748 0.97655,1.00079 1.82688,1.22188 2.21625,0.57624 0.34746,-0.57617 1.28955,-1.04758 2.09352,-1.04758 1.08065,0 1.46177,1.3751 1.46177,5.27425 0,4.46164 0.27351,5.22102 1.77524,4.92877 1.33762,-0.26032 1.85145,-1.56046 2.08442,-5.27425 0.21698,-3.45884 0.74642,-4.92877 1.77524,-4.92877 0.80633,0 1.46606,0.93565 1.46606,2.07921 0,2.76393 0.65415,2.62439 3.47994,-0.74233 2.09178,-2.49221 2.66621,-2.68239 4.92135,-1.62937 1.40424,0.65569 3.51208,0.93518 4.6841,0.62108 1.59723,-0.42805 2.13868,-0.085 2.1618,1.36947 0.0289,1.81594 0.0973,1.82372 1.06483,0.12125 1.16274,-2.04586 3.97644,-2.47159 3.97644,-0.60166 0,0.6697 -0.7449,2.06118 -1.65534,3.09217 -1.53083,1.73354 -1.53083,2.06926 0,4.4636 3.01274,4.71216 1.3886,8.19093 -1.70849,3.65945 l -1.45003,-2.1216 -0.56499,2.21417 c -0.45019,1.76427 -0.92826,2.00583 -2.35279,1.18884 -1.27163,-0.72931 -2.45144,-0.5797 -4.08641,0.51816 -2.12645,1.42789 -2.49868,1.33848 -4.96952,-1.1937 l -2.67091,-2.73721 -2.58217,2.64627 c -3.22702,3.30713 -3.842,3.29783 -6.91885,-0.10455 z m 19.82969,-6.14718 c 0,-3.07354 -0.33961,-3.57726 -2.41185,-3.57726 -4.99228,0 -6.3568,6.09497 -1.64051,7.32779 3.47936,0.90949 4.05236,0.37917 4.05236,-3.75053 z m -26.375,-2.53765 c 0,-0.57178 -0.2013,-1.03961 -0.44734,-1.03961 -0.24604,0 -0.72947,0.46783 -1.07429,1.03961 -0.344833,0.57178 -0.143523,1.0396 0.44734,1.0396 0.59086,0 1.07429,-0.46782 1.07429,-1.0396 z m -37.631946,9.18317 c -0.05406,-0.76238 -0.02261,-3.09137 0.06988,-5.17554 0.12591,-2.8371 -0.386892,-4.18784 -2.040529,-5.37484 -4.347401,-3.12063 -0.333758,-4.64474 8.354762,-3.17258 2.798644,0.4742 3.827875,1.19376 4.057693,2.83685 0.169357,1.21083 1.106779,2.35754 2.083162,2.54825 1.318452,0.25753 1.77524,-0.34162 1.77524,-2.32849 0,-1.72007 0.559836,-2.67524 1.567984,-2.67524 1.289125,0 1.514638,1.248 1.268028,7.01733 -0.294368,6.88663 -1.769775,9.04708 -2.881747,4.21977 -0.726955,-3.15587 -3.256991,-3.07893 -3.994203,0.12147 -0.31951,1.38707 -1.138949,2.71256 -1.820976,2.94555 -0.886518,0.30284 -1.240048,-1.3794 -1.240048,-5.90065 0,-3.47834 -0.400595,-6.32426 -0.890212,-6.32426 -1.767394,0 -3.034218,2.728 -3.351339,7.21683 -0.177844,2.51736 -0.893965,4.76932 -1.591381,5.00435 -0.697416,0.23504 -1.312259,-0.19643 -1.366319,-0.9588 z M 24.071362,167.7143 c -0.78188,-2.08813 -0.776041,-12.33697 0.0075,-13.13995 0.333513,-0.34179 1.246494,-0.36971 2.028846,-0.062 0.946156,0.37208 1.422459,2.22544 1.422459,5.53496 0,3.30953 0.476304,5.16288 1.422459,5.53497 2.149299,0.84524 2.635233,-0.20736 2.635233,-5.70823 0,-3.77338 0.378952,-5.02476 1.521635,-5.02476 1.14968,0 1.521635,1.27063 1.521635,5.19802 0,4.82189 0.179673,5.19802 2.483044,5.19802 2.280201,0 2.508093,-0.44586 2.789664,-5.45792 0.306617,-5.45788 0.306641,-5.45792 3.772564,-5.45792 1.90627,0 3.65615,0.58478 3.888622,1.29951 0.245341,0.75429 -0.438881,1.2995 -1.630837,1.2995 -2.900541,0 -3.635824,1.79333 -1.07659,2.62576 1.63153,0.53068 2.782482,-0.0918 4.840071,-2.61762 2.132216,-2.61745 3.335818,-3.23961 5.727292,-2.96051 1.994301,0.23275 3.151562,1.02163 3.390458,2.3112 0.299823,1.61846 -0.0742,1.84546 -2.157706,1.30955 -1.610629,-0.41428 -2.956573,-0.10968 -3.728765,0.84385 -1.782958,2.20167 -0.89245,6.19662 1.483433,6.65491 1.944739,0.37512 1.95516,0.30742 0.251392,-1.63315 -2.046095,-2.33048 -1.427858,-3.41518 1.946524,-3.41518 2.074362,0 2.366988,0.50035 2.366988,4.04719 0,4.13306 -1.125721,5.30925 -5.081456,5.30925 -1.674275,0 -5.422679,-3.74842 -6.263238,-6.26327 -0.381039,-1.14002 -4.886076,-0.11272 -4.886076,1.11419 0,0.46533 1.027104,0.99555 2.282452,1.17826 1.255349,0.18271 2.282452,1.03394 2.282452,1.89161 0,2.35381 -22.364179,2.72891 -23.240041,0.3898 z m 36.601341,1.00119 c -0.969028,-0.99309 -0.842269,-4.22494 0.248794,-6.34321 0.511393,-0.99286 1.488504,-3.34727 2.171358,-5.23202 1.723735,-4.75769 4.073631,-3.90919 5.904262,2.1319 0.822253,2.71344 1.846339,4.93353 2.275747,4.93353 0.429408,0 0.919876,-2.22215 1.089929,-4.93812 0.412999,-6.59612 2.260292,-6.31055 2.640877,0.40825 0.266722,4.70866 0.593965,5.40341 2.743501,5.82452 2.305318,0.45163 2.457279,0.16891 2.740425,-5.09843 0.38607,-7.18202 2.237001,-7.69023 2.631578,-0.72256 0.242476,4.28177 0.698176,5.45581 2.282452,5.8804 1.088719,0.29177 1.979489,1.2959 1.979489,2.23139 0,2.54175 -18.010786,1.80978 -19.430269,-0.78966 -1.253469,-2.29542 -2.389822,-2.2162 -4.702569,0.32787 -1.042009,1.14623 -2.201018,1.76999 -2.575574,1.38614 z m 29.914071,-0.60081 c -0.647247,-0.66331 -1.176813,-2.46245 -1.176813,-3.99808 0,-1.53563 -0.672737,-4.12095 -1.494972,-5.74514 -2.000284,-3.95126 -0.170577,-6.11318 2.317782,-2.73862 1.711419,2.32093 1.739649,2.32337 2.997095,0.2599 1.41904,-2.32865 3.284381,-2.77498 3.274811,-0.78359 -0.003,0.71473 -0.68818,2.63949 -1.52164,4.27725 -0.833461,1.63776 -1.515384,4.30013 -1.515384,5.91637 0,3.39003 -1.186616,4.54823 -2.880879,2.81191 z m 10.667486,-0.16874 c -0.68404,-1.82683 0.13349,-2.70065 2.5267,-2.70065 2.5179,0 2.33908,-0.87378 -0.67628,-3.30454 -2.74468,-2.21256 -3.290233,-5.16451 -1.26803,-6.86126 1.84355,-1.54685 16.20987,-1.07525 16.73813,0.54947 0.23239,0.71472 -0.30025,1.2995 -1.18365,1.2995 -1.26848,0 -1.60617,1.18925 -1.60617,5.65647 0,8.97376 -3.61366,8.5658 -4.24155,-0.47884 -0.30912,-4.45291 -0.46839,-4.66528 -3.62022,-4.82728 -3.68412,-0.18936 -4.31417,1.09775 -1.33674,2.73078 2.90881,1.59539 3.61565,5.02142 1.52455,7.38941 -2.06311,2.3363 -6.06714,2.65569 -6.85674,0.54694 z m 19.25283,-0.4434 c -2.31713,-2.62395 -2.21211,-9.75726 0.17626,-11.97236 2.5884,-2.40062 6.84978,-2.17391 8.65009,0.4602 l 1.49045,2.18073 1.13882,-2.18073 c 1.27516,-2.44179 5.95813,-2.99042 7.96552,-0.93321 2.6343,2.6997 0.0395,9.14852 -3.68108,9.14852 -0.65348,0 -1.18815,0.93564 -1.18815,2.07921 0,2.80664 -2.46968,2.63923 -3.83402,-0.2599 -0.85236,-1.81123 -1.11627,-1.9368 -1.16944,-0.55638 -0.14578,3.78533 -6.75805,5.19382 -9.54845,2.03392 z m 7.03769,-4.86976 c 0.61752,-2.52147 -0.89934,-5.70432 -2.71853,-5.70432 -1.48316,0 -3.09374,4.15107 -2.43537,6.27689 0.92214,2.97755 4.3785,2.59357 5.1539,-0.57257 z m 9.54307,-3.62511 c 0,-0.57178 -0.48343,-1.0396 -1.07429,-1.0396 -0.59086,0 -0.79217,0.46782 -0.44735,1.0396 0.34483,0.57178 0.82826,1.0396 1.0743,1.0396 0.24603,0 0.44734,-0.46782 0.44734,-1.0396 z m 5.51736,9.04602 c -0.30517,-0.81499 -0.41607,-4.23635 -0.24644,-7.60302 0.28912,-5.73837 0.47491,-6.141 2.97054,-6.43756 1.46417,-0.17399 3.30312,0.34056 4.08655,1.14344 1.20647,1.23642 1.62333,1.24156 2.7244,0.0336 2.23452,-2.45144 3.2072,-0.46371 3.2072,6.55411 0,5.88863 -0.23164,6.72713 -1.77524,6.42611 -1.20079,-0.23417 -1.97485,-1.68855 -2.3921,-4.49455 -0.33928,-2.28159 -0.68165,-3.55354 -0.76082,-2.82656 -0.0792,0.72699 -1.28518,1.85468 -2.68001,2.50599 -1.39483,0.6513 -2.53606,2.01712 -2.53606,3.03516 0,2.3899 -1.87618,3.59105 -2.59802,1.66328 z m 4.62687,-9.04602 c 0,-0.57178 -0.45649,-1.0396 -1.01442,-1.0396 -0.55794,0 -1.01443,0.46782 -1.01443,1.0396 0,0.57178 0.45649,1.0396 1.01443,1.0396 0.55793,0 1.01442,-0.46782 1.01442,-1.0396 z m 16.43365,9.14851 c -0.66952,-0.68613 -1.2173,-1.85569 -1.2173,-2.59901 0,-0.74331 -0.45649,-1.35148 -1.01443,-1.35148 -0.55793,0 -1.01442,0.67412 -1.01442,1.49805 0,2.07921 -2.08904,3.20306 -3.03578,1.63317 -0.42906,-0.71146 -0.62658,-3.46137 -0.43893,-6.11091 0.18766,-2.64954 0.36149,-5.40212 0.38631,-6.11685 0.0798,-2.29808 3.09413,-1.38444 4.2874,1.29951 1.37715,3.09755 2.85869,3.39874 2.85869,0.58116 0,-2.92999 1.74883,-3.57969 3.0303,-1.1258 l 1.10325,2.11261 2.1822,-2.08349 c 2.23137,-2.13043 4.44927,-2.57197 7.296,-1.45246 2.49572,0.98147 1.96601,3.70619 -0.67785,3.48671 -3.87263,-0.32148 -4.66087,-0.0269 -5.28037,1.97343 -0.90046,2.90752 0.4102,5.34838 2.85284,5.31286 1.96411,-0.0286 2.00259,-0.13388 0.39868,-1.09126 -2.88857,-1.7242 -2.22469,-4.26625 1.01442,-3.8843 2.20791,0.26036 2.85784,0.93826 3.11657,3.25073 0.63286,5.65627 -4.87116,8.01522 -8.9495,3.83565 -1.11587,-1.14356 -2.20385,-2.07921 -2.41774,-2.07921 -0.2139,0 -0.62765,0.93565 -0.91946,2.07921 -0.60383,2.36638 -1.79246,2.644 -3.56088,0.83168 z M 18.400345,161.79413 c 0,-5.09001 0.378826,-6.8714 1.560035,-7.33593 2.09781,-0.82498 2.672993,1.11984 2.301667,7.78246 -0.241779,4.33819 -0.707327,5.66134 -2.086461,5.93004 -1.542476,0.30051 -1.775241,-0.53557 -1.775241,-6.37657 z m 61.125726,-27.99686 c -0.945944,-1.22619 -2.947599,-3.86074 -4.248258,-10.4905 -0.343576,-1.75128 1.365055,-1.75596 2.056806,-1.77193 3.026195,-0.0699 2.170429,-2.04077 1.677576,-4.36802 l -0.760888,-3.5929 -8.519598,-0.61616 c -4.685778,-0.33889 -10.128157,-1.30494 -12.094174,-2.14679 -4.010001,-1.71707 -7.123888,-5.80224 -6.234079,-8.1786 0.639285,-1.70731 -2.063939,-2.843204 -6.825148,-2.867934 -1.503203,-0.008 -4.0139,-1.15421 -5.579327,-2.54756 -2.501508,-2.226531 -2.691291,-2.793665 -1.566954,-4.682571 1.131545,-1.901015 0.911559,-2.485922 -1.904941,-5.064933 -2.888392,-2.644839 -3.057072,-3.124374 -1.815627,-5.161589 0.752727,-1.235226 2.637054,-2.531382 4.187394,-2.880346 2.277679,-0.51268 2.8188,-1.203083 2.8188,-3.596433 0,-3.128671 1.882757,-5.72388 4.824515,-6.650153 3.365053,-1.059557 19.026786,-3.938787 22.290018,-4.097765 2.155103,-0.104991 3.838854,-0.982838 4.922217,-2.566265 1.899147,-2.775763 1.405859,-3.366085 -6.422567,-7.685944 -2.371214,-1.308476 -4.311298,-2.964628 -4.311298,-3.680337 0,-2.073951 1.217431,-1.597911 9.053925,3.540265 6.328417,4.149371 7.768119,4.703152 10.070137,3.873479 1.477319,-0.532441 2.686034,-1.658542 2.686034,-2.502446 0,-1.555051 -22.265895,-17.473143 -24.59976,-17.586593 -0.697416,-0.0339 -1.268029,-0.529461 -1.268029,-1.101243 0,-0.571782 -0.684735,-1.039604 -1.521634,-1.039604 -0.836899,0 -1.521635,-0.803794 -1.521635,-1.786209 0,-0.982416 -1.238677,-2.876994 -2.752617,-4.210175 -2.205513,-1.942184 -2.536745,-2.775279 -1.666511,-4.191514 0.597358,-0.972151 1.950159,-1.901733 3.006223,-2.065738 1.784099,-0.277067 1.794362,-0.218175 0.144876,0.831361 -0.976382,0.621253 -1.77524,1.477869 -1.77524,1.90359 0,1.262658 7.860482,9.518685 9.062647,9.518685 0.933446,0 14.759165,8.819078 16.29793,10.39604 0.897234,0.919505 4.498598,3.094395 6.847356,4.135167 1.255348,0.556264 2.282452,1.724702 2.282452,2.596527 0,1.302896 1.670761,1.593307 9.383415,1.631018 14.376053,0.07029 20.548443,2.294187 28.059643,10.10982 1.90293,1.980062 4.86711,4.013717 6.58705,4.519235 4.25596,1.250891 8.71989,1.157805 8.71989,-0.181835 0,-0.605527 0.51575,-0.7743 1.1461,-0.375052 0.63034,0.399248 5.53762,0.830192 10.90504,0.957654 5.36743,0.127462 9.98721,0.351586 10.26617,0.498053 1.75226,0.92 -7.56151,1.869692 -19.27404,1.965305 l -13.69471,0.111794 -4.05769,-3.933269 C 114.22655,58.896029 113.8938,58.759952 99.673507,58.649919 c -13.800704,-0.106788 -15.335662,0.09935 -15.335662,2.059526 0,1.488737 -4.267865,3.69426 -7.148693,3.69426 -1.089613,0 -1.981114,0.411065 -1.981114,0.913479 0,1.986708 6.020736,3.159721 14.709134,2.865764 9.624795,-0.32564 12.012358,0.0032 11.092958,1.527711 -0.99481,1.649606 -23.041713,1.131731 -25.451212,-0.597841 -2.128992,-1.52822 -8.065954,-1.243075 -22.668188,1.088722 -5.647176,0.901785 -10.406663,3.271562 -9.872011,4.915334 0.627393,1.928898 7.213725,2.737826 21.537876,2.645263 12.828195,-0.0829 13.196615,-0.02307 13.522012,2.19576 0.292322,1.993299 0.07684,2.139652 -1.708551,1.160422 -3.980546,-2.183204 -37.557315,-0.623802 -39.977716,1.85668 -0.879802,0.901641 -0.748705,1.624775 0.53261,2.937897 1.44038,1.476134 4.60098,1.798649 20.717848,2.114096 17.97299,0.351777 20.509164,0.771276 20.59422,3.406416 0.0092,0.285891 -8.432334,0.373878 -18.759026,0.195526 -16.599326,-0.286687 -18.849317,-0.127949 -19.409981,1.369384 -1.303097,3.480108 1.35879,4.072338 20.877093,4.644838 10.549296,0.30943 19.519631,0.91011 19.934076,1.33484 1.669127,1.710564 -1.333826,2.355264 -13.281884,2.851454 -6.88407,0.28589 -12.878989,0.89311 -13.322043,1.34937 -1.487903,1.53226 1.316861,4.32607 5.626881,5.60492 2.350521,0.69743 9.854382,1.45358 16.675246,1.68033 6.952274,0.23111 13.408221,0.96438 14.692516,1.66878 1.536512,0.84273 6.033781,1.12873 13.656614,0.86849 9.16862,-0.31301 13.40095,-1.02839 21.89449,-3.70075 9.82206,-3.09035 20.41108,-4.37943 20.41108,-2.48479 0,0.45536 -3.5378,1.36442 -7.86178,2.02013 -4.32398,0.65571 -10.82897,2.18165 -14.45553,3.39098 -13.84951,4.6183 -21.57839,5.40787 -30.939905,3.16077 -11.321923,-2.71767 -12.795641,-2.25628 -12.068877,1.66776 0.244341,1.31927 0.0695,2.7771 0.674179,3.86882 0.672637,1.21441 1.684201,0.59326 3.221564,0.62887 1.490517,0.0345 -3.225747,13.54365 -4.472576,13.54365 -0.440319,0 -1.251707,-0.58478 -1.803084,-1.29951 z M 137.16793,62.757665 c 0.0487,-1.211079 0.28905,-1.45742 0.61289,-0.628094 0.29303,0.750464 0.25699,1.647123 -0.0801,1.992575 -0.33709,0.345451 -0.57684,-0.268565 -0.5328,-1.364481 z M 59.991692,62.324497 c -1.300387,-0.861235 -1.263512,-1.01008 0.253605,-1.023685 0.976383,-0.0088 1.775241,0.451903 1.775241,1.023685 0,1.267912 -0.114414,1.267912 -2.028846,0 z m -3.04327,-7.858384 c 0,-0.891418 0.463937,-1.326914 1.030971,-0.967769 0.567033,0.359145 0.768338,1.088487 0.447343,1.62076 -0.869604,1.441976 -1.478314,1.1731 -1.478314,-0.652991 z m 2.226607,-4.097062 c 0.02067,-1.715346 0.248025,-2.29122 0.505225,-1.279719 0.257201,1.011501 0.240286,2.414966 -0.03759,3.118812 -0.277874,0.703846 -0.488311,-0.123746 -0.467637,-1.839093 z m 54.073881,-1.559405 c -0.34483,-0.571783 -0.14352,-1.039604 0.44734,-1.039604 0.59086,0 1.07429,0.467821 1.07429,1.039604 0,0.571782 -0.2013,1.039603 -0.44734,1.039603 -0.24604,0 -0.72947,-0.467821 -1.07429,-1.039603 z m -4.56491,-2.59901 c -1.37078,-1.692693 -1.04289,-1.904281 1.43867,-0.928378 0.88253,0.347065 1.6046,1.048798 1.6046,1.559406 0,1.438014 -1.64372,1.097185 -3.04327,-0.631028 z M 84.337845,42.460903 c -3.068629,-2.231277 -7.001274,-4.779772 -8.739209,-5.663322 -1.737936,-0.883549 -4.020388,-2.427886 -5.072116,-3.43186 -1.051728,-1.003973 -3.395826,-2.498314 -5.209107,-3.320758 -3.467789,-1.572872 -4.116291,-2.613815 -2.064957,-3.314566 0.677555,-0.231458 3.140332,0.899111 5.472837,2.512376 2.332506,1.613265 4.5377,2.933209 4.900432,2.933209 0.362732,0 4.04196,2.339109 8.176063,5.19802 4.134102,2.858911 8.27074,5.19802 9.192528,5.19802 1.111504,0 1.468594,0.553849 1.060234,1.644432 -0.338658,0.904438 -0.615743,1.840082 -0.615743,2.079208 0,0.9887 -1.816379,0.0078 -7.100962,-3.834759 z m -30.432692,1.670525 c -0.727898,-0.898835 -0.826488,-1.559406 -0.232742,-1.559406 0.566556,0 1.292859,0.701732 1.614007,1.559406 0.321149,0.857673 0.425883,1.559406 0.232743,1.559406 -0.19314,0 -0.919443,-0.701733 -1.614008,-1.559406 z m 70.248797,-2.074874 c -1.66992,-1.943785 -1.60529,-2.670724 0.17518,-1.970533 1.52357,0.599163 3.0676,3.553638 1.82183,3.486061 -0.40094,-0.02175 -1.29959,-0.703737 -1.99701,-1.515528 z M 98.398547,39.487797 c -1.31716,-1.124542 -1.82422,-2.060185 -1.12681,-2.079208 0.69742,-0.01902 1.26803,0.361745 1.26803,0.84615 0,0.484406 1.0271,1.388387 2.282453,2.008848 1.25535,0.62046 1.76241,1.159772 1.12681,1.19847 -0.63561,0.0387 -2.233323,-0.849719 -3.550483,-1.97426 z M 49.533055,38.711426 c -0.452133,-0.73694 0.08509,-2.142019 1.291828,-3.378713 1.594436,-1.634015 2.065847,-1.761282 2.065847,-0.557721 0,0.857673 -0.423019,1.559406 -0.940041,1.559406 -0.517023,0 -1.098346,0.818688 -1.291828,1.819307 -0.249193,1.288728 -0.57752,1.451381 -1.125806,0.557721 z m 63.018435,-5.166404 c 0.73229,-0.300311 1.60723,-0.263378 1.94431,0.08207 0.33709,0.345452 -0.26206,0.591161 -1.33143,0.54602 -1.18174,-0.04988 -1.42212,-0.296225 -0.61288,-0.628094 z M 91.988916,32.247114 c -0.727521,-1.206373 3.348321,-4.229548 5.702281,-4.229548 0.95879,0 2.04462,0.499715 2.412953,1.110478 0.36833,0.610763 1.21325,0.896716 1.8776,0.635451 0.66436,-0.261265 2.00107,0.119336 2.97048,0.84578 1.59737,1.197025 1.60858,1.381358 0.11956,1.966931 -0.90364,0.355369 -2.15176,0.323882 -2.7736,-0.06997 -1.89349,-1.199293 -6.660753,-1.405006 -7.317643,-0.315764 -0.779501,1.292573 -2.229728,1.320031 -2.991631,0.05664 z m 16.504884,-0.7813 c 0.73228,-0.300311 1.60722,-0.263378 1.94431,0.08207 0.33708,0.345452 -0.26206,0.591161 -1.33143,0.54602 -1.18175,-0.04988 -1.42212,-0.296225 -0.61288,-0.628094 z M 59.738086,25.054695 c 0.976382,-1.057797 2.169131,-1.566381 2.650553,-1.130187 1.302462,1.1801 -0.204844,3.053454 -2.456816,3.053454 -1.879206,0 -1.888039,-0.08769 -0.193737,-1.923267 z m 22.380709,1.213099 c 0.732287,-0.300311 1.607227,-0.263377 1.944311,0.08207 0.337084,0.345452 -0.262059,0.591161 -1.33143,0.54602 -1.181745,-0.04988 -1.422119,-0.296225 -0.612881,-0.628094 z m -3.360276,-1.36904 c -0.344822,-0.571782 -0.143517,-1.039604 0.447343,-1.039604 0.59086,0 1.074291,0.467822 1.074291,1.039604 0,0.571783 -0.201304,1.039604 -0.447343,1.039604 -0.246039,0 -0.72947,-0.467821 -1.074291,-1.039604 z M 92.45323,24.505913 c 0,-2.493919 2.190609,-8.924704 5.489777,-11.562604 2.258753,-1.806017 2.805033,-2.033434 2.624373,-4.9381195 0.001,-2.140111 0.85646,-2.180604 7.60941,-0.360385 2.78966,0.751939 5.18754,2.017802 5.32861,2.8130295 0.28799,1.623436 -10.61114,9.339103 -11.57598,6.124089 -1.27889,-4.261481 -2.827863,1.297478 -4.784363,7.537128 -0.67194,2.142943 -4.691827,2.4744 -4.691827,0.386862 z M 64.049384,19.700735 c 0,-0.571783 0.45649,-1.039604 1.014423,-1.039604 0.557933,0 1.014423,0.467821 1.014423,1.039604 0,0.571782 -0.45649,1.039604 -1.014423,1.039604 -0.557933,0 -1.014423,-0.467822 -1.014423,-1.039604 z"
       id="path1"
       sodipodi:nodetypes="sscccccsscccccccccsssssssssssssssssssssssssssscsssscsssscssssssssssssssssssssssssssssssscssssssssssssssssssssssssssssssssssssssssssssssscsssssssssssssssssscssssssssssssssssssssssssssssssssssssssssssscssssssssssssssssssssscssscssssssssssssssssssssssssssssssssssscsssssscssssssssscsssssssssssssssssssssssssscssssssssssssssssssssssssssssssssssssssssssssssssssssssssssssssssssssssssssssssssssssssssscssssssssss" /></g></svg>
