<?xml version="1.0" encoding="UTF-8" standalone="no"?>
<!-- Created with Inkscape (http://www.inkscape.org/) -->

<svg
   width="210mm"
   height="210mm"
   viewBox="0 0 210 210"
   version="1.1"
   id="svg1"
   xml:space="preserve"
   inkscape:version="1.3.2 (091e20e, 2023-11-25)"
   sodipodi:docname="illegal_advancement_2.svg"
   xmlns:inkscape="http://www.inkscape.org/namespaces/inkscape"
   xmlns:sodipodi="http://sodipodi.sourceforge.net/DTD/sodipodi-0.dtd"
   xmlns="http://www.w3.org/2000/svg"
   xmlns:svg="http://www.w3.org/2000/svg"><sodipodi:namedview
     id="namedview1"
     pagecolor="#ffffff"
     bordercolor="#111111"
     borderopacity="1"
     inkscape:showpageshadow="0"
     inkscape:pageopacity="0"
     inkscape:pagecheckerboard="1"
     inkscape:deskcolor="#d1d1d1"
     inkscape:document-units="mm"
     inkscape:zoom="0.2311357"
     inkscape:cx="333.13763"
     inkscape:cy="510.52261"
     inkscape:window-width="1312"
     inkscape:window-height="597"
     inkscape:window-x="42"
     inkscape:window-y="49"
     inkscape:window-maximized="0"
     inkscape:current-layer="layer1" /><defs
     id="defs1" /><g
     inkscape:label="Layer 1"
     inkscape:groupmode="layer"
     id="layer1"><path
       style="fill:#000000"
       d="M -4.1484461,106.39077 V -3.0700171 H 105.31234 214.77312 V 106.39077 215.85155 H 105.31234 -4.1484461 Z M 212.35186,106.12116 212.07704,-1.45237 H 104.77312 -2.530799 L -2.8056152,106.12116 -3.0804313,213.69469 H 104.77312 212.62668 Z M 68.796091,202.1621 c -0.379299,-0.3793 -0.689635,-2.8604 -0.689635,-5.51355 0,-3.24145 -0.584715,-5.25148 -1.782405,-6.12725 -2.859549,-2.09096 -0.734366,-3.90256 3.743944,-3.19151 2.183409,0.34667 5.034939,0.65007 6.336734,0.67422 1.54682,0.0287 2.480954,0.81455 2.696078,2.26812 0.446551,3.01728 3.030921,3.68286 3.741993,0.96372 0.31583,-1.20774 1.254356,-2.45687 2.085613,-2.77585 1.206706,-0.46306 1.511376,0.92815 1.511376,6.90136 v 7.48132 l -1.55459,-0.59655 c -0.855024,-0.3281 -1.704289,-1.64743 -1.887255,-2.93184 -0.49118,-3.44806 -3.501574,-2.91421 -3.915368,0.69433 -0.576764,5.02974 -2.862769,2.62271 -3.213851,-3.38399 l -0.325966,-5.577 H 73.442254 71.34175 v 5.32851 c 0,5.03614 -1.006907,7.32471 -2.545659,5.78596 z m 20.271112,-0.65943 c -0.326179,-0.85001 -0.444166,-4.10676 -0.262194,-7.23722 0.366578,-6.30623 2.632445,-8.98883 5.868377,-6.94765 2.434164,1.53543 2.072839,3.07557 -0.890539,3.79592 l -2.490117,0.6053 2.426471,1.3199 c 3.001456,1.63266 3.098808,2.97349 0.269608,3.71334 -2.9049,0.75965 -2.737931,2.69028 0.269608,3.11742 3.653498,0.51888 2.913404,2.45455 -1.085846,2.83997 -2.299909,0.22164 -3.71703,-0.19499 -4.105368,-1.20698 z m 14.268007,0.68875 c -1.48774,-1.48774 -0.73906,-12.04805 0.97573,-13.76284 2.10529,-2.10529 2.62921,-2.10677 5.61438,-0.0159 3.30917,2.31783 2.99788,5.36127 -0.83847,8.19761 -1.77941,1.31558 -3.2353,3.27128 -3.2353,4.34601 0,1.97309 -1.19285,2.55858 -2.51634,1.2351 z m 5.75164,-10.129 c 0,-0.55814 -0.72794,-1.01479 -1.61765,-1.01479 -1.6677,0 -2.14252,1.27251 -0.92801,2.48702 0.86159,0.86159 2.54566,-0.11236 2.54566,-1.47223 z m 5.50232,8.35773 c -1.52901,-2.85699 -1.19037,-12.19057 0.42905,-11.82546 0.59314,0.13373 1.32108,2.55599 1.61765,5.3828 0.38839,3.70206 1.05067,5.23664 2.36776,5.48639 l 1.82855,0.34674 0.32831,-5.47408 c 0.18058,-3.01074 0.81361,-5.58903 1.40675,-5.72953 1.57193,-0.37236 1.98525,10.94335 0.46656,12.77326 -2.03651,2.45385 -6.91433,1.89926 -8.44463,-0.96012 z m 12.41583,-0.16791 c -3.09416,-4.72228 -1.82913,-9.52695 3.21566,-12.21328 1.67794,-0.89349 2.58207,-0.8833 3.5049,0.0395 1.97243,1.97243 1.46301,2.96913 -1.51754,2.96913 h -2.76118 l 0.33471,4.04412 c 0.26886,3.24847 0.8121,4.11192 2.76118,4.38873 3.64027,0.517 3.05869,3.4299 -0.68479,3.4299 -2.11681,0 -3.66796,-0.84963 -4.85294,-2.65814 z m 10.12106,-4.28802 c 0,-7.25891 0.99021,-9.2394 3.25508,-6.5104 l 1.3426,1.61773 1.3875,-1.89752 c 2.24553,-3.07095 3.2431,-0.51313 1.16915,2.99777 l -1.89895,3.21468 2.25618,2.86827 c 1.6313,2.07386 1.92882,3.19047 1.07422,4.03156 -0.84851,0.83511 -1.6354,0.55481 -2.78929,-0.99358 l -1.60733,-2.15686 -1.06973,1.88725 c -2.0409,3.6006 -3.11943,1.85151 -3.11943,-5.0589 z M 16.750646,174.38121 c -0.923213,-2.40585 0.0815,-13.00145 1.208751,-12.7473 0.593137,0.13373 1.321078,2.5602 1.617647,5.39216 l 0.539216,5.14901 2.42647,0.34461 2.426471,0.34462 v -6.00638 c 0,-4.62005 0.373368,-6.00638 1.617647,-6.00638 1.237584,0 1.617647,1.36403 1.617647,5.80565 v 5.80566 l 2.648735,0.50633 2.648735,0.50634 0.316952,-6.5816 0.316951,-6.58159 h 3.145424 c 3.86065,0 4.932302,2.37053 1.624779,3.59406 l -2.420234,0.8953 1.790702,0.68716 c 2.231834,0.85643 2.367745,3.99014 0.173054,3.99014 -2.451058,0 -1.936058,3.0354 0.581934,3.4299 1.209769,0.18954 2.181494,0.82991 2.159388,1.42304 -0.06398,1.71669 -23.782075,1.7645 -24.440269,0.0493 z m 27.708592,-1.27313 c -2.965005,-3.7694 -2.823038,-7.45294 0.411924,-10.6879 2.932156,-2.93216 4.059006,-3.17408 7.129721,-1.53069 3.220484,1.72356 2.475658,3.19736 -1.615872,3.19736 -2.730942,0 -3.877988,0.555 -4.373469,2.11612 -0.828402,2.61007 1.125012,6.51133 3.260308,6.51133 1.800426,0 2.116136,-1.69804 0.501273,-2.69608 -1.986652,-1.22782 -1.105696,-2.69608 1.617647,-2.69608 h 2.696078 v 3.65913 c 0,5.6826 -5.819408,6.96815 -9.62761,2.12681 z m 11.193533,1.47795 c -0.366401,-0.95483 0.241804,-4.31437 1.351568,-7.46565 2.671385,-7.58567 5.329764,-7.79733 7.624573,-0.60706 0.899188,2.8174 2.022895,5.12255 2.497127,5.12255 0.474232,0 1.010153,-2.26722 1.190936,-5.03825 0.492242,-7.54507 3.024775,-7.46516 3.024775,0.0954 v 6.02125 h 2.246732 c 1.317814,0 2.061157,0.55735 1.797889,1.34804 -0.560352,1.68294 -3.584647,2.3254 -5.994871,1.2735 -1.003343,-0.43789 -2.613782,-0.7012 -3.578753,-0.58512 -0.964971,0.11607 -2.041652,-0.53729 -2.392624,-1.45191 -0.91313,-2.37958 -3.546649,-2.05152 -5.459992,0.68016 l -1.641176,2.34311 z m 21.80009,0.64461 c -0.395425,-0.39543 -0.718954,-3.83293 -0.718954,-7.63889 0,-5.05925 0.362472,-6.7978 1.348039,-6.46571 0.741422,0.24982 1.429994,2.35276 1.530161,4.6732 0.100168,2.32044 0.221491,4.769 0.269608,5.44124 0.04812,0.67224 1.106902,1.48884 2.352856,1.81467 1.247405,0.3262 1.94571,1.10962 1.554001,1.74342 -0.783869,1.26833 -5.198399,1.56938 -6.335711,0.43207 z m 29.539089,-1.32213 c -1.41287,-2.63997 -4.16579,-2.99603 -5.06413,-0.655 -0.74953,1.95325 -3.625644,2.1672 -3.624407,0.26961 4.83e-4,-0.74142 0.922402,-3.77451 2.048707,-6.7402 2.86582,-7.54601 5.21669,-7.26046 7.88498,0.95776 1.33085,4.099 1.69115,6.72045 1.0164,7.3952 -0.67474,0.67474 -1.47642,0.23966 -2.26155,-1.22737 z m 4.97072,1.32213 c -0.39543,-0.39543 -0.71896,-3.80772 -0.71896,-7.58287 0,-5.32716 0.39042,-7.01373 1.74384,-7.53308 2.70713,-1.03883 7.23427,1.02983 8.73205,3.99007 l 1.35506,2.67816 0.0159,-2.96568 c 0.009,-1.63113 0.40413,-2.96569 0.87864,-2.96569 1.67011,0 3.45098,2.61566 3.45098,5.06863 0,3.71684 1.82206,2.98801 3.2353,-1.29412 0.68513,-2.07598 1.936,-3.77451 2.77971,-3.77451 0.84371,0 1.53401,0.39885 1.53401,0.88632 0,2.13439 -3.64922,11.66292 -5.02976,13.13329 l -1.51883,1.61765 -1.06869,-1.61765 c -0.58778,-0.88971 -1.35883,-2.95221 -1.71345,-4.58333 -0.81869,-3.76572 -2.09037,-3.79372 -3.02581,-0.0666 -0.4002,1.59449 -1.54472,3.52023 -2.54339,4.27942 -1.93832,1.47353 -6.91493,1.92167 -8.1066,0.73 z m 6.81844,-4.11999 c 1.92861,-2.32383 0.47937,-7.0238 -2.16579,-7.0238 H 114.479 v 4.31372 c 0,4.58752 1.80192,5.72262 4.30211,2.71008 z m 34.63046,0.86423 -2.17057,-4.11352 -0.0477,3.5049 -0.0477,3.5049 h -3.80835 c -2.39037,0 -4.03949,-0.60231 -4.42911,-1.61765 -0.83828,-2.18453 -3.61472,-2.04433 -5.30548,0.26791 -2.56595,3.50915 -3.10635,0.20413 -0.97677,-5.97375 2.79807,-8.11713 5.24602,-8.68858 7.2837,-1.70032 2.08317,7.14427 4.00072,7.37732 4.00072,0.48623 0,-5.9755 1.99921,-7.43205 4.564,-3.32517 0.74084,1.18628 1.71554,2.15687 2.166,2.15687 0.45046,0 0.81902,-0.97059 0.81902,-2.15687 0,-1.22659 0.71895,-2.15686 1.66692,-2.15686 h 1.66692 l -0.31888,7.19347 c -0.37746,8.51474 -1.98505,9.7626 -5.06279,3.92986 z m 8.04035,1.57789 c -2.55727,-3.65102 -2.11897,-8.67643 1.01338,-11.61912 l 2.69218,-2.52917 2.69998,1.44498 c 3.61545,1.93494 3.40836,3.23739 -0.51477,3.23739 -2.5341,0 -3.35876,0.5738 -3.89494,2.71008 -0.91369,3.64043 1.33124,6.24814 4.65973,5.41274 l 2.56302,-0.64328 -1.17291,2.1916 c -1.56921,2.9321 -5.92604,2.82097 -8.04567,-0.20522 z m 11.02529,1.74359 c -1.00494,-1.54363 -1.39183,-13.17536 -0.46894,-14.09826 1.45378,-1.45377 1.87962,0.68863 1.56703,7.88374 -0.17698,4.07383 -0.67112,6.87037 -1.09809,6.21452 z m 10.04688,-2.67046 -1.99388,-3.27866 -0.69321,2.76196 c -0.38126,1.51908 -1.43506,2.76196 -2.34177,2.76196 h -1.64856 l 0.32107,-6.72937 c 0.25674,-5.38107 0.69682,-6.80094 2.19646,-7.08659 1.19526,-0.22768 2.36021,0.70684 3.21225,2.57688 l 1.33687,2.9341 0.61088,-2.5877 c 0.85661,-3.62868 3.59081,-3.22805 4.41956,0.64758 0.3805,1.77941 0.74924,2.47062 0.81942,1.53603 0.16209,-2.15873 4.61257,-6.38897 6.72161,-6.38897 1.68109,0 4.19029,2.02557 4.19029,3.38265 0,0.43693 -1.5772,0.94649 -3.5049,1.13236 -2.71412,0.26169 -3.58441,0.89879 -3.85729,2.82376 -0.35362,2.49446 1.41078,5.60241 3.18052,5.60241 0.52051,0 0.94638,-0.72794 0.94638,-1.61765 0,-0.88971 -0.48529,-1.61765 -1.07843,-1.61765 -0.59314,0 -1.07843,-0.48529 -1.07843,-1.07843 0,-2.06904 5.22306,-1.15326 5.91844,1.0377 2.25574,7.10719 -8.47726,8.871 -11.30307,1.85749 l -0.94925,-2.35597 -0.0684,2.8503 c -0.10263,4.27931 -2.98864,4.72963 -5.35661,0.83581 z M 10.949593,168.46422 c 0,-3.53753 0.536987,-6.73882 1.199004,-7.14797 1.849957,-1.14334 2.653315,1.08566 2.436149,6.75933 -0.269301,7.03573 -0.198004,6.79558 -2.017506,6.79558 -1.256384,0 -1.617647,-1.43084 -1.617647,-6.40694 z m 76.20915,5.68799 c -0.395424,-0.39543 -0.718954,-1.69553 -0.718954,-2.88912 0,-1.1936 -0.578373,-3.76963 -1.285274,-5.72453 -1.523596,-4.21343 -0.287764,-6.12877 1.979342,-3.06767 l 1.596152,2.15517 1.555009,-2.0989 c 2.36707,-3.19499 4.024168,-0.73361 2.057798,3.05657 -0.874116,1.68486 -1.589301,4.4638 -1.589301,6.17541 0,2.92653 -1.837844,4.14999 -3.594772,2.39307 z M 68.776975,131.5816 c -0.795363,-3.97682 -0.897994,-12.29739 -0.142363,-11.54176 0.95252,0.95252 2.381026,13.92518 1.587405,14.41567 -0.425988,0.26327 -1.076257,-1.02999 -1.445042,-2.87391 z m -22.239147,1.31894 c 0,-0.54463 0.310183,-1.79855 0.689294,-2.7865 0.513665,-1.33859 0.900413,-1.45468 1.517871,-0.45561 0.455717,0.73737 0.578908,1.99129 0.273757,2.7865 -0.626211,1.63188 -2.480922,1.97249 -2.480922,0.45561 z m 1.575454,-12.57481 c 0.726963,-9.53392 1.659841,-10.22925 1.659841,-1.23717 0,3.91924 -0.49796,7.43365 -1.106577,7.8098 -0.734508,0.45395 -0.920535,-1.75599 -0.553264,-6.57263 z m 15.878939,-6.52054 -0.199491,-5.52675 4.710214,-4.916 4.710213,-4.916012 0.676212,-8.969007 c 1.43559,-19.04108 1.591626,-25.665236 0.618725,-26.266522 -0.555215,-0.343142 -1.009481,-1.537201 -1.009481,-2.653465 0,-2.696146 -1.873714,-3.734383 -3.821751,-2.117657 -2.517355,2.08922 -1.87436,4.27452 1.257721,4.27452 h 2.828126 l -1.333876,1.607222 c -1.155923,1.392802 -5.744536,1.328792 -7.430165,-0.103648 -1.083933,-0.921122 -1.105612,-10.570127 -0.02667,-11.870172 0.714805,-0.861288 0.941296,-2.969158 0.545647,-5.078145 -0.526738,-2.807759 -0.195823,-4.040577 1.49541,-5.571122 1.194508,-1.081015 2.171832,-1.433613 2.171832,-0.783552 0,0.650061 -0.485294,1.481857 -1.078431,1.848436 -0.593137,0.366579 -1.078431,1.365808 -1.078431,2.220509 0,0.8547 0.485294,1.554001 1.078431,1.554001 0.593137,0 1.078431,-0.727941 1.078431,-1.617647 0,-0.889706 0.485294,-1.617647 1.078432,-1.617647 0.593137,0 1.116744,-1.334559 1.16357,-2.965686 0.04683,-1.631128 0.348625,-2.302939 0.670663,-1.492913 0.933604,2.348302 -1.983514,10.178658 -4.720938,12.672309 -2.289541,2.085654 -3.35839,4.727466 -1.912682,4.727466 0.326024,0 1.984142,-0.719505 3.684706,-1.598901 2.100011,-1.085958 3.31388,-2.729324 3.783762,-5.122549 0.380504,-1.938006 1.230862,-4.615559 1.889684,-5.950118 0.90248,-1.828131 0.859014,-3.059605 -0.176266,-4.994044 -0.755768,-1.412165 -1.047717,-3.595989 -0.648776,-4.852941 0.454632,-1.432418 0.258049,-2.285368 -0.526719,-2.285368 -0.688636,0 -1.505881,0.970588 -1.816099,2.156863 -0.657266,2.513389 -2.469337,2.909081 -2.469337,0.539215 0,-0.889706 0.363971,-1.621433 0.808824,-1.626061 1.205786,-0.01254 3.504902,-5.45371 3.504902,-8.294822 0,-1.762123 -0.625005,-2.481078 -2.156863,-2.481078 -1.186275,0 -2.156863,0.51918 -2.156863,1.153733 0,0.634553 -1.48869,3.31747 -3.3082,5.962037 -1.81951,2.644568 -4.505041,7.584947 -5.967846,10.97862 -1.462804,3.393674 -3.089449,7.140905 -3.614765,8.327179 -1.761021,3.976755 -5.571795,21.026205 -4.931276,22.062587 0.348245,0.563473 0.311496,2.306163 -0.08167,3.872644 -1.044509,4.161656 -2.703221,0.957833 -1.98155,-3.827388 1.995587,-13.232225 10.921385,-38.823529 13.540967,-38.823529 0.523699,0 0.9614,-0.606618 0.97267,-1.348039 0.03869,-2.545536 6.496865,-11.660687 9.103026,-12.848133 2.101791,-0.95764 2.958666,-0.836491 4.420089,0.624931 l 1.812863,1.812864 -0.694194,6.148796 c -0.381807,3.381838 -0.936048,8.817914 -1.231647,12.080169 -0.295598,3.262255 -1.011946,6.093137 -1.591883,6.29085 -1.101331,0.375466 -1.508522,4.493464 -0.444318,4.493464 0.335563,0 1.600899,-0.530252 2.811859,-1.178338 1.592281,-0.852163 2.527919,-0.852163 3.380082,0 0.852163,0.852163 0.727144,1.178338 -0.451644,1.178338 -0.896491,0 -2.677902,0.976285 -3.958692,2.169522 l -2.328708,2.169521 1.046927,2.753625 c 0.575809,1.514494 1.046926,3.935268 1.046926,5.379498 0,3.063408 0.790051,3.24708 4.073768,0.947075 2.709952,-1.898125 3.107463,-4.266506 0.931017,-5.547026 l -1.465804,-0.862411 2.005019,-2.075943 c 1.102761,-1.141769 2.005019,-1.540404 2.005019,-0.885855 0,0.654549 0.76749,1.957579 1.705533,2.895622 l 1.705533,1.705532 3.209499,-2.285365 c 1.765225,-1.256951 3.457397,-2.037468 3.760381,-1.734483 0.607848,0.607847 -1.732143,2.410999 -9.84173,7.583844 -3.888061,2.48007 -5.483549,4.225273 -5.719795,6.256524 -0.243047,2.089718 0.242811,2.966215 1.881812,3.394823 3.414754,0.892978 3.879126,3.781498 1.192195,7.415767 -4.243715,5.739932 -1.070751,4.881024 4.388032,-1.187821 3.433933,-3.817703 6.321594,-6.016656 8.238097,-6.27331 1.622968,-0.217345 3.805338,-1.168472 4.84971,-2.113616 1.044381,-0.945144 2.170621,-1.446686 2.502771,-1.114539 1.09748,1.097488 -4.21118,5.134506 -6.751859,5.134506 -3.805917,0 -3.077,3.01345 1.866407,7.716 2.681702,2.551041 5.482892,4.194884 7.279412,4.271845 2.13123,0.0913 2.3375,0.248337 0.76342,0.581204 -1.18628,0.250857 -3.24878,0.689102 -4.58334,0.973878 -1.334558,0.284775 -2.42647,1.177047 -2.42647,1.982826 0,0.805779 -0.692553,2.039821 -1.539008,2.742316 -1.020743,0.847141 -1.34416,2.477965 -0.960401,4.842796 0.374676,2.30886 -0.03447,4.501196 -1.160853,6.220286 -1.891867,2.88735 -1.393985,4.10022 1.683138,4.10022 1.087418,0 1.977124,0.52385 1.977124,1.16412 0,0.76904 -1.189481,0.87519 -3.504902,0.31278 -1.927696,-0.46824 -6.726898,-0.74471 -10.664893,-0.61437 -5.591192,0.18504 -7.298984,-0.12525 -7.794356,-1.41617 l -0.634366,-1.65313 2.291625,1.22644 c 1.72375,0.92252 3.387986,0.90562 6.715925,-0.0682 6.635314,-1.94164 9.277242,-3.9927 9.277242,-7.202397 v -2.80905 l -4.583334,0.902156 c -2.520833,0.496185 -6.88848,0.834613 -9.705882,0.752061 L 74.57704,96.295694 v 3.160282 c 0,2.109974 -0.545301,3.160284 -1.640767,3.160284 -0.902422,0 -2.193555,1.21323 -2.869183,2.69608 -0.675629,1.48284 -2.095746,2.69607 -3.155816,2.69607 h -1.927399 l -0.396084,5.66177 -0.396083,5.66176 z M 92.669785,92.076325 c 1.379233,-0.903709 3.192828,-2.968003 4.03021,-4.587322 l 1.522513,-2.944215 -2.025655,-1.833193 -2.025656,-1.833193 -3.005319,1.971869 c -1.670627,1.096142 -5.8563,2.21134 -9.424858,2.511084 l -6.419538,0.539216 -0.385531,2.558038 c -0.248831,1.651018 0.470173,3.300186 2.02778,4.651091 l 2.413311,2.093054 5.392523,-0.741662 c 2.965888,-0.407914 6.520987,-1.481059 7.90022,-2.384767 z m -3.934984,-9.501756 c 2.08655,-0.750236 4.486913,-5.520956 3.183233,-6.326675 -0.886672,-0.547994 -6.354548,3.116739 -7.833557,5.250283 -1.011262,1.458796 0.113523,3.033296 1.645317,2.303152 0.687066,-0.327497 2.039319,-0.879539 3.005007,-1.22676 z M 81.047632,77.15774 c 0,-0.826247 0.544716,-1.502267 1.21048,-1.502267 0.83633,0 0.795515,-0.500001 -0.132048,-1.617647 -0.738391,-0.889706 -1.958438,-1.617647 -2.711216,-1.617647 -1.496595,0 -3.115184,4.8955 -2.140183,6.473084 0.863694,1.397486 3.772967,0.05925 3.772967,-1.735523 z M 76.620716,20.443973 c -1.137396,-2.125243 -3.122103,-2.631278 -3.122103,-0.796034 0,0.632131 0.537457,2.153577 1.194348,3.38099 0.923676,1.725904 1.395428,1.906308 2.081615,0.796034 0.487996,-0.789595 0.418759,-2.31104 -0.15386,-3.38099 z m 31.387704,85.696597 c 1.48284,-0.27263 3.18137,-0.87844 3.77451,-1.34625 1.39357,-1.09913 8.08823,-2.53851 8.08823,-1.73901 0,1.23307 -7.9132,3.87029 -11.18562,3.72781 l -3.3732,-0.14686 z M 49.422488,102.1796 c -1.083259,-2.822929 -0.880776,-23.066995 0.237631,-23.758209 0.530986,-0.328167 1.258927,0.168178 1.617647,1.102988 0.915908,2.386817 0.670806,19.96138 -0.313429,22.473811 l -0.814052,2.07802 z m 72.066322,0.43666 c -0.4284,-0.69317 2.91992,-1.02696 9.37263,-0.93434 l 10.03913,0.14409 -5.39215,0.83986 c -7.77187,1.21052 -13.25279,1.19112 -14.01961,-0.0496 z M 59.40557,80.072328 c 1.226664,-1.72269 2.230298,-4.391808 2.230298,-5.931372 0,-1.539565 0.485294,-2.799208 1.078431,-2.799208 0.593137,0 1.078431,-0.970589 1.078431,-2.156863 0,-1.186275 0.439861,-2.156863 0.977469,-2.156863 1.167603,0 0.248082,4.09551 -1.107642,4.933393 -0.521542,0.322331 -0.948258,1.905316 -0.948258,3.517746 0,3.131865 -2.644958,7.725332 -4.448312,7.725332 -0.599893,0 -0.08708,-1.409474 1.139583,-3.132165 z m 66.12736,-7.780245 c -1.9277,-0.556602 -3.52313,-1.604746 -3.5454,-2.329209 -0.0875,-2.845814 -11.65026,-13.606678 -19.08703,-17.763283 -1.32651,-0.741422 -3.603016,-1.348039 -5.058903,-1.348039 -1.455886,0 -2.946994,-0.485295 -3.313572,-1.078432 -0.366579,-0.593137 -2.943014,-1.120144 -5.725411,-1.171125 l -5.058903,-0.09269 2.957667,-0.890327 c 3.374851,-1.015908 12.165728,0.750565 18.280202,3.673294 4.41359,2.109705 12.90461,9.849191 17.40021,15.860137 l 2.91599,3.898893 7.43576,-0.532026 c 4.08966,-0.292614 9.29882,-0.169243 11.5759,0.274158 l 4.14015,0.806183 -2.15686,0.873701 c -2.92699,1.185665 -16.43418,1.067748 -20.7598,-0.181231 z m -6.20098,-19.387098 c -0.20833,-0.725256 2.72718,-1.952546 5.77531,-3.368161 4.36005,-2.024899 6.78475,-4.410794 6.81053,-0.766291 0.0112,1.57842 0.23911,1.919704 9.05886,1.741479 8.71252,-0.176058 9.83953,0.02632 9.77257,-1.935804 -0.11518,-3.375293 1.2265,-2.283387 6.41607,0.691283 3.03644,1.740485 5.32347,2.577442 5.32347,3.529206 0,0.856959 -2.60199,1.84371 -5.4726,3.60214 -5.81135,3.559826 -6.32016,2.091874 -6.35578,0.807569 -0.0901,-3.248701 -0.91602,-3.323735 -9.51161,-3.385155 -8.10484,-0.05791 -9.40497,0.491489 -9.21615,3.345155 0.14971,2.262509 -3.14508,0.430106 -6.61915,-1.194013 -2.67713,-1.251551 -5.67022,-1.983712 -5.98152,-3.067408 z"
       id="path1"
       sodipodi:nodetypes="ccccccccccccccccccssssssssscsssscccsssssscsssssssssssssssssssscsssscssscsssccsscsscssscssssscccssscccccsscsssssssssssssscsssssssscsssssscssssssssssssssssssssccsssssscsssssssscssccccsssssssssscsccsscsssscssssssccsscssscssssssssssssscsccssssssssscsssssssssssssssssccccssssscssssssssssssssssssssssssssssssssssssscsssssssscsssscssscsssssssssssssssssssssssscssscsscssssccccsscccsscsscsssssssssssssssssssssscssssscssscsssssssssssssssssscssscsscssssssssssssssss" /></g></svg>
