<?xml version="1.0" encoding="UTF-8" standalone="no"?>
<!-- Created with Inkscape (http://www.inkscape.org/) -->

<svg
   width="210mm"
   height="210mm"
   viewBox="0 0 210 210"
   version="1.1"
   id="svg1"
   xml:space="preserve"
   inkscape:version="1.3.2 (091e20e, 2023-11-25)"
   sodipodi:docname="illegal_sub.svg"
   xmlns:inkscape="http://www.inkscape.org/namespaces/inkscape"
   xmlns:sodipodi="http://sodipodi.sourceforge.net/DTD/sodipodi-0.dtd"
   xmlns="http://www.w3.org/2000/svg"
   xmlns:svg="http://www.w3.org/2000/svg"><sodipodi:namedview
     id="namedview1"
     pagecolor="#ffffff"
     bordercolor="#111111"
     borderopacity="1"
     inkscape:showpageshadow="0"
     inkscape:pageopacity="0"
     inkscape:pagecheckerboard="1"
     inkscape:deskcolor="#d1d1d1"
     inkscape:document-units="mm"
     inkscape:zoom="0.26511217"
     inkscape:cx="727.99375"
     inkscape:cy="403.60275"
     inkscape:window-width="1312"
     inkscape:window-height="583"
     inkscape:window-x="0"
     inkscape:window-y="25"
     inkscape:window-maximized="0"
     inkscape:current-layer="layer1" /><defs
     id="defs1" /><g
     inkscape:label="Layer 1"
     inkscape:groupmode="layer"
     id="layer1"><path
       style="fill:#000000"
       d="M -2.5276216,212.20429 C -2.8047369,211.47006 -2.9087894,162.81108 -2.7588493,104.07322 L -2.4862309,-2.7228983 H 104.86954 212.22531 l 0.26955,106.6804483 c 0.19693,77.94003 -0.0517,107.07126 -0.92278,108.13107 -1.69401,2.06097 -213.3223403,2.1753 -214.0997016,0.11567 z M 209.45677,211.02056 c 0.87101,-1.05968 1.11973,-29.77364 0.92278,-106.52912 L 210.10992,-0.58697599 104.60512,-0.85912402 -0.89969246,-1.131272 V 103.98071 c 0,57.8116 0.28890332,105.87217 0.64200739,106.80128 0.57940008,1.52455 10.77803507,1.68929 104.58202507,1.68929 86.28512,0 104.14257,-0.24642 105.13243,-1.45072 z M 45.903192,203.2203 c -2.037629,-0.83019 -1.564338,-3.56456 0.616987,-3.56456 3.193595,0 3.433607,-1.22762 0.66926,-3.42317 -3.199605,-2.54125 -3.345556,-5.546 -0.371552,-7.6493 3.890536,-2.75149 7.206859,0.2533 3.389879,3.07144 -1.630092,1.20352 -1.586329,1.41522 0.528846,2.55822 3.006541,1.62467 3.170082,7.03665 0.260153,8.60912 -2.187979,1.18234 -3.011109,1.2467 -5.093573,0.39825 z m 10.547843,-0.95521 c -1.934248,-1.36796 -2.350727,-2.68127 -2.350727,-7.4127 0,-3.16261 0.422031,-6.01357 0.937848,-6.33545 1.688409,-1.05363 3.378937,2.299 3.119626,6.18678 -0.139715,2.09472 0.04843,4.11398 0.41811,4.48724 1.5195,1.53425 2.928262,-1.01267 2.928262,-5.29404 0,-5.19155 0.766221,-6.49453 2.811336,-4.78076 2.448916,2.05215 1.756154,9.22872 -1.176721,12.19007 -3.051179,3.0808 -3.580132,3.15664 -6.687734,0.95886 z m 11.663696,0.95521 c -1.740409,-0.70909 -1.784685,-13.34992 -0.05289,-15.09854 0.698077,-0.70485 2.052193,-1.28155 3.009148,-1.28155 2.149822,0 5.467171,3.55198 5.138717,5.50217 -0.13335,0.79177 0.124657,2.76118 0.573349,4.37647 0.598776,2.15559 1.488741,2.93689 3.345371,2.93689 3.215662,0 3.189645,-0.77028 -0.114662,-3.39468 -1.454327,-1.15508 -2.644231,-2.99918 -2.644231,-4.098 0,-2.85233 4.052974,-5.49408 6.44549,-4.20121 1.258704,0.68018 2.126513,0.62985 2.604492,-0.15105 0.44788,-0.73172 2.356919,-0.91707 5.088228,-0.49404 5.636563,0.87302 8.737717,0.87306 13.615477,1.7e-4 3.17195,-0.56764 4.09305,-0.34626 4.64932,1.11743 0.38153,1.00391 0.17894,2.14652 -0.4502,2.53913 -0.62915,0.39261 -1.29345,3.10313 -1.47624,6.02339 -0.25321,4.04529 -0.77307,5.39406 -2.1833,5.66446 -1.58346,0.30361 -1.85096,-0.50531 -1.85096,-5.59719 0,-4.57878 -0.36606,-5.9521 -1.58654,-5.9521 -1.14032,0 -1.58654,1.17692 -1.58654,4.1845 0,5.21765 -0.855104,7.56308 -2.757388,7.56308 -1.080784,0 -1.473377,-1.56512 -1.473377,-5.87379 0,-4.41494 -0.380315,-5.87379 -1.531264,-5.87379 -1.101094,0 -1.621075,1.57228 -1.850962,5.5968 -0.242906,4.25245 -0.750465,5.67944 -2.113079,5.94089 -1.473363,0.2827 -1.850842,-0.66837 -2.115385,-5.3298 -0.314564,-5.54284 -0.401407,-5.68164 -3.759502,-6.00856 -3.840971,-0.37394 -4.558145,1.25587 -1.322116,3.00456 2.542933,1.37415 2.783292,5.58081 0.453297,7.93342 -2.04866,2.06855 -4.077124,2.1385 -5.990481,0.20656 -1.238224,-1.25024 -1.757411,-1.25024 -3.450783,0 -2.019191,1.49081 -4.208826,1.7439 -6.612994,0.76438 z m 5.024038,-4.63252 c 0,-0.58738 -0.713942,-1.06796 -1.586538,-1.06796 -0.872597,0 -1.586539,0.48058 -1.586539,1.06796 0,0.58738 0.713942,1.06796 1.586539,1.06796 0.872596,0 1.586538,-0.48058 1.586538,-1.06796 z m 40.427651,3.67731 c -1.9808,-1.40088 -2.35073,-2.66134 -2.35073,-8.00971 0,-3.49097 0.38077,-6.34721 0.84616,-6.34721 2.0276,0 3.38461,2.90452 3.38461,7.24434 0,6.47632 2.48056,5.40497 3.17308,-1.37045 0.58206,-5.69469 1.22781,-6.08236 10.04808,-6.03216 8.4406,0.048 7.93269,-0.45071 7.93269,7.78937 0,5.52134 -0.34859,7.38236 -1.32212,7.05842 -0.77383,-0.2575 -1.45565,-2.75808 -1.64412,-6.0299 -0.26437,-4.58954 -0.64296,-5.52579 -2.11538,-5.23143 -1.29623,0.25914 -1.83093,1.53598 -1.92882,4.60595 -0.21127,6.62524 -0.29487,6.91732 -1.97995,6.91732 -1.21795,0 -1.58654,-1.36462 -1.58654,-5.87379 0,-4.50917 -0.36859,-5.87379 -1.58653,-5.87379 -1.11194,0 -1.58654,1.13269 -1.58654,3.78641 0,2.59619 -0.81608,4.61041 -2.59616,6.40777 -3.05118,3.0808 -3.58013,3.15664 -6.68773,0.95886 z m 26.87845,-0.55094 c -3.79689,-3.01563 -3.7962,-8.22374 0.002,-12.05841 3.47875,-3.51252 5.05953,-3.53212 8.45385,-0.10485 2.63242,2.65798 2.69583,2.66735 3.26175,0.48226 0.73019,-2.81934 3.55928,-2.3683 5.13271,0.81832 l 1.18028,2.3904 1.20342,-2.66685 c 2.13522,-4.7318 3.36415,-2.97511 3.36415,4.80888 0,6.41732 -0.26294,7.47573 -1.85719,7.47573 -1.066,0 -2.53043,-1.47865 -3.4375,-3.47088 l -1.58031,-3.47087 -0.33144,3.47087 c -0.36651,3.83817 -2.82741,4.74509 -3.87058,1.42643 -0.60904,-1.93755 -0.77616,-1.90963 -3.19627,0.53398 -3.12446,3.15479 -4.72363,3.22491 -8.32446,0.36499 z m 6.20351,-6.34488 c 0,-3.01126 -0.40451,-3.72324 -2.11538,-3.72324 -1.40833,0 -2.23172,0.82913 -2.46345,2.48058 -0.50388,3.59101 0.59564,5.74044 2.72467,5.32645 1.34425,-0.2614 1.85416,-1.38449 1.85416,-4.08379 z M 73.608099,174.78715 c -0.324211,-0.85308 -0.443452,-4.13698 -0.264979,-7.29754 0.240013,-4.2504 0.737549,-5.74649 1.911034,-5.74649 2.078727,0 2.330687,13.45504 0.264979,14.1503 -0.726857,0.24464 -1.586823,-0.25318 -1.911034,-1.10627 z m 5.268074,-0.0536 c -1.004141,-2.64215 0.02754,-12.80509 1.344354,-13.24302 0.849827,-0.28263 1.370066,1.44081 1.586539,5.25586 0.281207,4.95591 0.624144,5.7197 2.701895,6.01765 2.223546,0.31886 2.379808,-0.0493 2.379808,-5.6068 0,-4.47976 0.377997,-5.94806 1.531264,-5.94806 1.101094,0 1.621075,1.57228 1.850962,5.59679 0.247084,4.32559 0.740108,5.6775 2.170659,5.9521 1.521368,0.29203 1.850961,-0.43182 1.850961,-4.06506 0,-6.08777 1.516495,-8.55179 5.263254,-8.55179 4.818451,0 5.226711,3.36673 0.554051,4.56908 -2.014027,0.51824 -2.001358,0.5813 0.26443,1.31606 2.94968,0.95654 3.10234,3.28661 0.26442,4.03595 -2.749705,0.72605 -2.723599,2.64967 0.0419,3.08716 1.1865,0.18769 2.25741,0.82185 2.3798,1.40923 0.13509,0.6483 -4.460977,1.18669 -11.69634,1.37011 -9.453382,0.23965 -12.036589,-0.008 -12.487957,-1.19526 z m 26.625217,-0.88443 c -2.65272,-3.82407 -2.16805,-8.90098 1.09733,-11.49447 3.14825,-2.50045 5.71271,-2.81579 7.57851,-0.93188 2.0323,2.05203 1.50187,2.83232 -2.16827,3.18962 -2.98992,0.29108 -3.47934,0.76883 -3.75887,3.6692 -0.3114,3.23122 2.13359,5.83049 3.4545,3.67247 0.30615,-0.50018 -0.18473,-1.19667 -1.09086,-1.54776 -2.33985,-0.90661 -0.82054,-2.78935 2.25092,-2.78935 1.95492,0 2.58181,0.57049 2.58181,2.34951 0,2.94468 1.3253,1.52078 3.18082,-3.41747 2.96157,-7.88186 5.09721,-7.71788 7.52303,0.5776 0.76592,2.61921 1.76464,4.7622 2.21937,4.7622 0.45473,0 0.82678,-2.40291 0.82678,-5.3398 0,-4.03452 0.38782,-5.33981 1.58654,-5.33981 1.20261,0 1.58654,1.3164 1.58654,5.43979 0,4.54163 0.34927,5.53201 2.11538,5.99834 1.16346,0.30721 2.11539,1.20802 2.11539,2.0018 0,1.05614 -1.5603,1.40179 -5.81731,1.2887 -3.77895,-0.10039 -5.81731,-0.6097 -5.81731,-1.45354 0,-2.14678 -2.99253,-2.62521 -4.82804,-0.77188 -1.0049,1.01465 -4.04348,1.90681 -7.33145,2.15258 -4.90209,0.36642 -5.82985,0.11039 -7.30481,-2.01585 z m -3.66194,-50.59436 c -1.957412,-0.85808 -4.896313,-2.43981 -5.528198,-1.56014 -2.502661,3.48404 -3.238855,-1.59632 -4.109336,-4.47244 -1.548154,-5.11519 -2.70565,-7.27514 -1.18233,-7.27514 1.348476,0 5.758424,1.40143 8.837883,2.28397 5.134671,1.47154 2.959521,2.55629 1.358621,4.47254 -2.666083,3.19125 8.07079,4.52985 14.05748,2.90215 5.82904,-1.58483 11.92671,-7.90174 16.05173,-16.62888 1.73779,-3.676559 3.15962,-7.149248 3.15962,-7.717082 0,-2.093589 -22.92057,0.487041 -27.09599,3.050742 -1.81386,1.113703 -4.90761,1.98697 -6.875,1.9406 -3.278488,-0.0773 -3.154277,-0.276565 0.9967,-1.599172 1.09334,-0.348368 1.02197,-0.828707 -0.32526,-2.189012 -0.94927,-0.958491 -1.481383,-2.386229 -1.18247,-3.17275 0.73397,-1.931267 -0.101826,-2.313363 -6.735401,-3.079179 -7.665802,-0.884981 -10.584906,-2.574402 -4.308928,-2.493777 2.592717,0.03331 5.548335,0.58665 6.56804,1.229648 1.370348,0.864105 2.868248,0.798774 5.741889,-0.250436 3.76275,-1.373838 3.96572,-1.319091 6.30663,1.701076 2.04053,2.63263 3.00913,3.051008 6.19425,2.675553 3.99631,-0.471076 4.22395,-2.325631 0.29254,-2.383252 -1.27456,-0.01868 -3.24128,-0.739555 -4.3705,-1.601942 -2.02666,-1.54777 -2.02598,-1.567977 0.0529,-1.567977 1.1583,0 2.67715,-0.576699 3.37523,-1.281553 0.98718,-0.996764 1.55128,-0.996764 2.53846,0 0.98718,0.996763 0.98718,1.281553 0,1.281553 -0.69808,0 -1.26923,0.539427 -1.26923,1.198727 0,0.811339 0.42726,0.856779 1.32211,0.140607 0.72717,-0.581967 2.90813,-1.090374 4.84658,-1.129795 2.64497,-0.05379 3.37908,0.310873 2.94185,1.461335 -0.32043,0.843155 -0.12159,1.53301 0.44189,1.53301 0.56347,0 1.02449,-0.41394 1.02449,-0.919865 0,-1.121785 5.32367,-0.254818 7.09309,1.155121 0.70168,0.559122 1.83372,0.668417 2.51564,0.242878 0.88393,-0.551605 0.74542,-1.053091 -0.48252,-1.74695 -0.9473,-0.535282 -1.72236,-1.670235 -1.72236,-2.522116 0,-0.851881 -0.71913,-1.548874 -1.59807,-1.548874 -0.87893,0 -3.61571,-0.919165 -6.08173,-2.042589 -6.1742,-2.812734 -12.20341,-4.62412 -13.23945,-3.977597 -0.47544,0.296695 -1.55566,0.09793 -2.40048,-0.441695 -2.04732,-1.307718 5.7076,-1.379978 8.26196,-0.07698 1.01014,0.515274 3.74046,1.537733 6.06738,2.272131 2.32693,0.734397 6.09824,2.231826 8.38069,3.327619 2.28246,1.095793 4.41786,1.721808 4.74535,1.391144 0.32748,-0.330664 0.77349,-5.85405 0.99112,-12.274191 0.29804,-8.791971 0.7424,-11.672984 1.80043,-11.672984 4.08898,0 2.76802,25.934147 -1.90389,37.378641 -2.77545,6.798863 -6.80804,13.692263 -10.13922,17.332223 -6.96447,7.61004 -17.15087,10.27751 -25.41418,6.6551 z m 4.08778,-28.678892 c 0,-1.610945 -2.56923,-3.037887 -3.59852,-1.998606 -1.39288,1.406406 -0.50806,3.486287 1.48314,3.486287 1.16346,0 2.11538,-0.669456 2.11538,-1.487681 z M 49.81434,106.2763 c 0.75455,-0.91801 2.146562,-1.67178 3.093361,-1.67506 0.946799,-0.003 3.599277,-0.53236 5.894396,-1.17575 3.529736,-0.9895 3.885179,-1.33241 2.306009,-2.22474 -1.777039,-1.00414 -1.774255,-1.12587 0.05783,-2.528141 2.867191,-2.194543 5.855648,-1.852339 9.857453,1.128765 l 3.584054,2.669906 h -4.715612 c -2.593587,0 -7.115474,0.88569 -10.048639,1.96821 -2.933165,1.08252 -6.698265,2.31419 -8.366891,2.73706 -2.669319,0.67646 -2.869017,0.56829 -1.661956,-0.90025 z m 16.978275,-5.94095 c 1.282937,-0.837143 1.131137,-1.03838 -0.793269,-1.051604 -1.308894,-0.009 -2.379808,0.464229 -2.379808,1.051604 0,1.33808 1.122467,1.33808 3.173077,0 z m 8.461539,3.20389 c 0,-0.58738 1.130408,-1.06796 2.512019,-1.06796 1.38161,0 4.118389,-0.26573 6.081731,-0.59051 l 3.569711,-0.5905 -3.558933,1.65846 c -4.028491,1.87728 -8.604528,2.19132 -8.604528,0.59051 z m 16.129807,-1.80414 c 1.018029,-0.26862 2.683895,-0.26862 3.701923,0 1.018029,0.26863 0.185097,0.48841 -1.850961,0.48841 -2.036058,0 -2.86899,-0.21978 -1.850962,-0.48841 z M 43.523384,87.668935 c 0,-1.058269 8.427183,-2.675713 9.30787,-1.786476 0.897712,0.906427 -0.01844,1.29388 -4.812677,2.035347 -2.472356,0.382369 -4.495193,0.270377 -4.495193,-0.248871 z M 55.158,86.451859 c -1.276393,-0.832877 -1.109118,-1.038451 0.855691,-1.051608 1.361851,-0.0091 2.153054,0.456085 1.78854,1.051608 -0.786062,1.284223 -0.676145,1.284223 -2.644231,0 z m 8.990384,-2.699808 c 2.326924,-0.774338 5.682452,-1.444821 7.456731,-1.489962 1.774279,-0.04514 3.678125,-0.499107 4.230769,-1.008812 1.541894,-1.422094 7.879808,-2.373195 7.879808,-1.182486 0,0.572694 -1.196362,1.041262 -2.658582,1.041262 -1.462221,0 -3.485057,0.423812 -4.495193,0.941804 -2.636653,1.352062 -11.500709,3.349662 -14.279673,3.218061 -1.660309,-0.07863 -1.104467,-0.531327 1.86614,-1.519867 z m 20.625,-4.763299 c 0,-0.594321 1.094712,-1.080582 2.432693,-1.080582 1.337981,0 2.971853,-0.544396 3.630827,-1.209768 0.658975,-0.665372 2.02366,-0.889909 3.032634,-0.49897 2.633621,1.020427 0.660345,2.387172 -4.600961,3.186751 -2.772454,0.42134 -4.495193,0.269028 -4.495193,-0.397431 z M 102.2938,78.020076 c -0.70741,-1.155741 2.36661,-2.50439 3.74613,-1.643519 0.53873,0.336182 0.70566,1.058615 0.37098,1.605407 -0.77485,1.265908 -3.35099,1.289755 -4.11711,0.03811 z M 73.661984,75.763048 c -1.053339,-1.720886 -0.336925,-26.01878 0.810556,-27.490801 0.690361,-0.885615 0.670694,-1.334951 -0.05843,-1.334951 -0.604483,0 -1.317209,0.600728 -1.583836,1.334951 -0.339896,0.935992 -0.839107,1.001117 -1.670398,0.217915 -0.860182,-0.810422 -0.240049,-2.129569 2.259227,-4.805825 1.894668,-2.028834 4.839716,-6.572284 6.544552,-10.096556 3.978902,-8.225269 12.340085,-16.652176 18.278648,-18.42233 5.322287,-1.586453 9.152337,-1.699707 11.665627,-0.344949 3.41826,1.842572 7.3611,6.222552 9.45538,3.158653 0.43528,-0.636809 1.07045,-2.643864 2.93012,4.023136 0.85588,3.068371 2.47296,6.340127 1.89456,6.924146 -0.5917,0.597452 0.87784,0.855106 -6.55583,-1.001226 -7.50915,-1.87518 -5.37662,-3.102947 -3.72848,-5.233782 2.17327,-2.809755 -8.2163,-4.842654 -14.168316,-3.317205 -6.378494,1.634753 -16.004389,11.90656 -16.015719,17.090399 -0.0037,1.678568 0.31988,1.668818 4.491238,-0.135345 5.811107,-2.513374 11.119632,-3.480868 11.920447,-2.172535 0.36125,0.590178 -0.954602,1.03298 -3.069641,1.03298 -2.036058,0 -3.996084,0.480583 -4.355613,1.067961 -0.35953,0.587379 -1.696514,1.069758 -2.971076,1.071953 -3.274492,0.0056 -8.8696,3.69447 -9.723368,6.410572 -0.939559,2.989027 -0.163657,3.653208 2.388031,2.044181 1.643703,-1.036476 2.739582,-0.998526 5.391458,0.186705 3.664954,1.638016 4.354316,3.093059 1.477455,3.118477 -1.581829,0.01398 -1.620276,0.166881 -0.264423,1.051607 3.064988,1.999979 7.963062,1.203826 10.464429,-1.700929 2.956038,-3.432748 2.238878,-4.344973 -2.016635,-2.565167 -2.588499,1.082601 -3.837729,1.092961 -6.103424,0.05062 l -2.848774,-1.31059 2.464535,-1.331785 c 1.756569,-0.949214 4.183733,-1.073607 8.449317,-0.433031 6.681959,1.00345 12.012039,3.029208 9.951129,3.782038 -0.72716,0.265625 -1.32211,1.548247 -1.32211,2.850269 0,1.302023 -0.53303,2.905515 -1.18451,3.563316 -0.8742,0.882694 -0.11225,1.496617 2.90866,2.343558 2.25123,0.631157 4.71619,1.150238 5.47769,1.153513 0.7615,0.0033 1.08558,0.494378 0.72018,1.091338 -0.36539,0.59696 -1.17578,0.766231 -1.80086,0.376159 -0.62508,-0.390073 -3.03169,-0.930263 -5.34802,-1.200422 -2.31633,-0.27016 -5.6987,-1.344842 -7.51637,-2.388182 -2.130707,-1.223025 -6.589586,-2.112009 -12.550353,-2.502213 -11.380649,-0.745001 -11.3795,-0.746433 -11.3795,14.170718 0,8.647746 -0.298033,10.74982 -1.524116,10.74982 -0.838264,0 -1.820811,-0.484722 -2.183438,-1.07716 z M 106.45608,50.126554 c 0,-2.289182 -3.07331,-1.958539 -3.51907,0.378601 -0.27221,1.427218 0.15856,1.862173 1.57205,1.587316 1.07086,-0.208231 1.94702,-1.092894 1.94702,-1.965917 z m 22.35906,9.953229 c -1.19115,-1.202721 -0.72546,-2.462875 0.91017,-2.462875 0.87259,0 1.58654,0.452219 1.58654,1.004933 0,1.346675 -1.65168,2.311169 -2.49671,1.457942 z m 26.29478,-0.326953 c -1.16346,-0.504811 -3.63417,-0.951615 -5.49046,-0.992899 -1.85629,-0.04128 -3.66924,-0.555645 -4.02877,-1.143023 -0.9183,-1.500266 -9.36078,-1.334742 -10.89423,0.213592 -0.69808,0.704854 -1.26923,0.938371 -1.26923,0.518926 0,-1.285036 6.78248,-7.075679 8.32662,-7.10898 1.17064,-0.02525 1.19675,0.278785 0.13492,1.570636 -1.07341,1.305937 -1.01591,1.601942 0.3112,1.601942 0.89534,0 1.79507,-0.506362 1.99938,-1.125249 0.25319,-0.766961 1.2074,-0.788515 2.99679,-0.06769 2.55704,1.030051 2.56343,1.059315 0.24551,1.125249 -2.93126,0.08338 -3.20028,2.203616 -0.2796,2.203616 3.23378,0 11.6498,2.474558 11.6498,3.425384 0,1.034656 -0.93586,0.978661 -3.70193,-0.2215 z m -37.54807,-2.159028 c 0,-1.236965 8.10379,-1.425357 8.8503,-0.205747 0.28249,0.46151 -1.59327,0.931695 -4.16835,1.044856 -2.57507,0.113161 -4.68195,-0.264438 -4.68195,-0.839109 z m -4.59624,-13.059419 c 0.26967,-0.440534 2.1,-0.800971 4.06739,-0.800971 1.96739,0 3.87124,-0.480582 4.23077,-1.067961 0.35953,-0.587378 1.15984,-1.067961 1.77847,-1.067961 0.74398,0 0.70794,0.507131 -0.10645,1.49794 -1.2501,1.520905 -10.87028,2.909342 -9.97018,1.438953 z m 38.34647,-4.087309 c -1.08484,-0.693426 -0.69882,-0.957251 1.41804,-0.969153 3.15851,-0.01776 3.72724,0.505914 1.49062,1.372521 -0.77992,0.302188 -2.08881,0.120672 -2.90866,-0.403368 z m 9.61515,0.08245 c 0,-0.587379 0.71394,-1.067961 1.58654,-1.067961 0.8726,0 1.58654,0.480582 1.58654,1.067961 0,0.587379 -0.71394,1.067961 -1.58654,1.067961 -0.8726,0 -1.58654,-0.480582 -1.58654,-1.067961 z m -20.09615,-2.146083 c 0,-0.614408 1.63964,-0.872781 3.81211,-0.60071 5.43717,0.680925 5.7908,1.678832 0.59494,1.678832 -2.42388,0 -4.40705,-0.485155 -4.40705,-1.078122 z m -5.28846,-1.057801 c 0,-0.587378 0.71394,-1.067961 1.58653,-1.067961 0.8726,0 1.58654,0.480583 1.58654,1.067961 0,0.587379 -0.71394,1.067962 -1.58654,1.067962 -0.87259,0 -1.58653,-0.480583 -1.58653,-1.067962 z m -8.46154,-1.067961 c -0.8726,-0.56939 -3.10533,-1.042613 -4.96162,-1.051608 -1.85629,-0.009 -3.70538,-0.555974 -4.10907,-1.21551 -0.48299,-0.789084 -3.39792,-1.026538 -8.52396,-0.694374 -4.28448,0.277631 -7.78997,0.09638 -7.78997,-0.402785 0,-1.297132 16.66364,-1.127454 17.46259,0.177814 0.36539,0.59696 1.03966,0.851176 1.49837,0.564924 0.45871,-0.286252 2.44866,-0.02468 4.42211,0.581279 1.97345,0.605955 4.67459,1.248546 6.00253,1.427979 1.32795,0.179433 2.71617,0.630892 3.08494,1.003242 1.08581,1.096354 -5.35085,0.741216 -7.08592,-0.390961 z"
       id="path1"
       sodipodi:nodetypes="sscccssssscccsssssssssssssssssssssssssssssssssssssssssssssssssssssssssssssssssssssssssssccssscsssscsssccsssssssssscssssssssssssssscssssssssssssssssssssssssssssssssssssssssssssssssssssssssssssssssssssssssssssscsssscsssssssssssscsssssssssssssssssssssssssssssssssssssssssssssssscsssscsssssssscssssssssssssssssssssssssssssssssssssssssssssssssssssssssssssssssssssssssssssss" /></g></svg>
