<?xml version="1.0" encoding="UTF-8" standalone="no"?>
<!-- Created with Inkscape (http://www.inkscape.org/) -->

<svg
   width="210mm"
   height="210mm"
   viewBox="0 0 210 210"
   version="1.1"
   id="svg1"
   xml:space="preserve"
   inkscape:version="1.3.2 (091e20e, 2023-11-25)"
   sodipodi:docname="obstruction.svg"
   xmlns:inkscape="http://www.inkscape.org/namespaces/inkscape"
   xmlns:sodipodi="http://sodipodi.sourceforge.net/DTD/sodipodi-0.dtd"
   xmlns="http://www.w3.org/2000/svg"
   xmlns:svg="http://www.w3.org/2000/svg"><sodipodi:namedview
     id="namedview1"
     pagecolor="#ffffff"
     bordercolor="#111111"
     borderopacity="1"
     inkscape:showpageshadow="0"
     inkscape:pageopacity="0"
     inkscape:pagecheckerboard="1"
     inkscape:deskcolor="#d1d1d1"
     inkscape:document-units="mm"
     inkscape:zoom="0.3353914"
     inkscape:cx="402.5148"
     inkscape:cy="392.07923"
     inkscape:window-width="1312"
     inkscape:window-height="560"
     inkscape:window-x="0"
     inkscape:window-y="25"
     inkscape:window-maximized="0"
     inkscape:current-layer="layer1" /><defs
     id="defs1" /><g
     inkscape:label="Layer 1"
     inkscape:groupmode="layer"
     id="layer1"><path
       style="fill:#000000"
       d="M -1.7923879,107.97287 V -2.0323107 H 105.56844 212.92927 L 212.65979,107.69541 212.3903,217.42313 105.29896,217.7006 -1.7923879,217.97806 Z M 210.80377,107.42313 V -0.94320181 H 105.56338 0.32299667 V 107.42313 215.78947 H 105.56338 210.80377 Z M 46.332612,207.0766 c -1.014181,-1.68972 0.415163,-3.26733 2.960268,-3.26733 2.215149,0 2.191713,-0.10967 -0.591268,-2.76684 -1.593815,-1.52177 -2.897846,-3.44716 -2.897846,-4.27865 0,-2.20812 3.157207,-5.09757 5.140272,-4.70432 2.27474,0.45109 2.946833,4.12605 0.75459,4.12605 -2.178064,0 -2.109276,1.04555 0.186869,2.84035 2.768532,2.16404 3.740177,1.81812 3.191699,-1.13628 -0.270823,-1.4588 -0.136365,-3.24556 0.298796,-3.97058 1.165734,-1.94222 4.177774,-0.33278 4.177774,2.23233 0,1.2405 0.696957,2.2124 1.586538,2.2124 0.98718,0 1.586539,-1.0286 1.586539,-2.72277 0,-2.01697 0.560881,-2.72278 2.16371,-2.72278 1.997008,0 2.139615,0.5664 1.850962,7.35149 -0.236525,5.55977 -0.687801,7.35148 -1.851602,7.35148 -0.846368,0 -1.81142,-1.18891 -2.144559,-2.64202 -0.853558,-3.72313 -3.191588,-4.22265 -3.191588,-0.68188 0,3.2071 -2.892446,5.00912 -4.293474,2.67488 -0.722265,-1.20336 -1.174272,-1.23567 -2.220175,-0.1587 -1.575617,1.62241 -5.792376,1.78786 -6.707505,0.26317 z m 21.900778,-6.80693 0.310761,-7.89604 h 3.613782 c 4.076636,0 5.770225,2.5359 2.31496,3.46631 -2.551116,0.68694 -3.017119,2.52379 -0.640281,2.52379 2.429814,0 1.885098,2.79243 -0.793269,4.06661 -2.37274,1.12878 -2.37117,1.13448 0.528846,1.91816 4.592834,1.24114 3.669326,3.81721 -1.368452,3.81721 H 67.92263 Z m 9.517479,0.0894 c 0.301847,-7.71292 0.407236,-7.99674 3.088194,-8.31684 1.526624,-0.18227 3.519115,0.43411 4.427756,1.36974 1.018203,1.04845 1.904808,1.28007 2.310779,0.60369 1.184743,-1.9739 3.55228,-1.15206 3.897797,1.35303 0.443495,3.21546 3.412507,3.16645 3.857152,-0.0637 0.229209,-1.66509 0.943607,-2.39754 2.115384,-2.16883 2.931289,0.57214 3.055769,15.02952 0.129411,15.02952 -0.966817,0 -1.41914,-0.87911 -2.652314,-5.15491 -0.672488,-2.33172 -3.640493,-0.17987 -3.640493,2.63942 0,3.47885 -2.528687,2.76382 -2.960518,-0.83715 -0.173958,-1.4506 -0.562937,-3.37261 -0.864399,-4.27112 -0.462093,-1.37729 -0.711186,-1.33456 -1.587231,0.27227 -0.571516,1.04827 -1.696308,1.90594 -2.499538,1.90594 -0.803229,0 -1.612512,1.09772 -1.798404,2.43937 -0.185893,1.34166 -1.19256,2.60713 -2.237038,2.81217 -1.709281,0.33554 -1.867822,-0.42517 -1.586538,-7.61264 z m 23.270981,-0.0894 0.31076,-7.89604 h 3.61378 c 4.07664,0 5.77023,2.5359 2.31496,3.46631 -2.55111,0.68694 -3.01711,2.52379 -0.64028,2.52379 0.8726,0 1.58654,0.73515 1.58654,1.63366 0,0.89852 -0.71394,1.63367 -1.58654,1.63367 -2.35434,0 -1.92295,2.92269 0.52885,3.58289 3.71628,1.00069 2.28741,2.95176 -2.16172,2.95176 h -4.27711 z m 9.51923,0 c 0.30529,-7.75694 0.36313,-7.90222 3.28338,-8.24701 4.40206,-0.51975 6.33882,1.65822 5.71733,6.4294 -0.2859,2.19483 -0.10457,4.66566 0.40296,5.49074 1.04377,1.69683 1.24899,0.83529 0.98737,-4.14506 -0.26529,-5.05017 1.6059,-7.96866 5.1091,-7.96866 6.54822,0 10.19989,9.90365 5.27379,14.30294 -2.56865,2.29395 -8.28608,2.70118 -10.20355,0.72676 -0.98718,-1.0165 -1.26923,-1.0165 -1.26923,0 0,2.2983 -1.99948,1.40194 -3.51455,-1.57556 l -1.46673,-2.8825 -0.70259,2.8825 c -0.38642,1.58537 -1.42831,2.88249 -2.31531,2.88249 -1.32545,0 -1.55737,-1.40652 -1.30197,-7.89604 z m 18.62297,0 c -0.21242,-2.26856 -0.90115,-3.5396 -1.91798,-3.5396 -1.01682,0 -1.70555,1.27104 -1.91797,3.5396 -0.28005,2.99081 0.0173,3.5396 1.91797,3.5396 1.90066,0 2.19803,-0.54879 1.91798,-3.5396 z m 5.48587,0.27228 c 0,-5.76018 0.34641,-7.68638 1.32212,-7.35149 0.87213,0.29935 1.32211,2.80143 1.32211,7.35149 0,4.55005 -0.44998,7.05214 -1.32211,7.35148 -0.97571,0.3349 -1.32212,-1.59131 -1.32212,-7.35148 z m 4.95793,6.92038 c -0.39994,-0.41182 -0.72716,-3.54767 -0.72716,-6.96855 0,-7.80845 1.92848,-10.09296 5.0598,-5.99389 1.99376,2.60994 2.13146,2.64033 2.65329,0.58555 0.30273,-1.19199 1.30891,-2.16726 2.23597,-2.16726 1.38175,0 1.68555,1.37411 1.68555,7.62377 0,6.73358 -0.23201,7.62376 -1.98706,7.62376 -1.24285,0 -2.52357,-1.32569 -3.41954,-3.5396 l -1.43247,-3.53961 -0.54681,3.17748 c -0.54523,3.16831 -2.14219,4.6187 -3.52157,3.19835 z m 13.76205,-1.23549 c -2.60347,-2.96225 -2.32764,-9.44733 0.51792,-12.17712 2.74089,-2.62937 6.4155,-2.87809 8.28331,-0.56066 1.6633,2.06368 0.61068,3.24101 -2.8977,3.24101 -3.0678,0 -5.18096,2.66533 -4.20003,5.29751 0.36518,0.97993 1.72181,1.78169 3.01471,1.78169 2.2907,0 2.2983,-0.0399 0.29762,-1.56034 -2.43471,-1.85035 -0.87046,-4.33475 2.32973,-3.70015 1.52104,0.30163 1.96331,1.36733 1.96331,4.73085 0,4.18654 -0.13409,4.35313 -3.75599,4.66663 -2.62432,0.22716 -4.29738,-0.2909 -5.55288,-1.71942 z M 94.457612,181.6907 c 0,-0.78402 0.6819,-2.37685 1.515334,-3.5396 2.132385,-2.97498 4.517784,-0.68087 2.776207,2.66996 -1.312621,2.52551 -4.291541,3.12916 -4.291541,0.86964 z m 92.019228,1.03171 c 0,-1.84704 2.24951,-6.14086 3.21716,-6.14086 1.94539,0 0.66475,5.93633 -1.3662,6.33292 -1.01802,0.1988 -1.85096,0.11237 -1.85096,-0.19206 z M 18.742278,179.45465 c -0.304035,-0.81583 -0.408087,-4.36905 -0.231228,-7.89604 0.307231,-6.12691 0.454042,-6.42834 3.294176,-6.76368 3.748859,-0.44262 6.319306,1.68876 5.747993,4.76616 -0.241935,1.30319 0.102599,3.13336 0.765631,4.06705 1.003433,1.41303 1.441436,0.87484 2.61293,-3.21061 1.269535,-4.42737 3.524466,-6.9727 4.9117,-5.54426 0.971603,1.00046 4.671824,12.20245 4.671824,14.1434 0,2.29953 -1.943228,2.56142 -2.759205,0.37186 -1.052286,-2.82366 -3.926946,-3.05236 -5.823546,-0.46329 -1.479728,2.01999 -2.074091,2.21116 -3.386803,1.08935 -1.076489,-0.91995 -1.814104,-0.99074 -2.27755,-0.2186 -0.999294,1.66492 -6.877614,1.39831 -7.525922,-0.34134 z m 5.907642,-3.96221 c 0,-0.59901 -0.447872,-1.08911 -0.995271,-1.08911 -0.547399,0 -1.289431,0.4901 -1.64896,1.08911 -0.359529,0.59901 0.08834,1.08911 0.99527,1.08911 0.906929,0 1.648961,-0.4901 1.648961,-1.08911 z m 17.59945,4.68986 c -0.372005,-0.38305 -0.676373,-4.04547 -0.676373,-8.1387 v -7.44225 h 3.572914 c 2.515174,0 4.057444,0.72546 5.209594,2.4505 l 1.63668,2.45049 1.767012,-2.51169 c 1.322086,-1.87927 2.604794,-2.42773 5.094244,-2.17822 4.807253,0.48182 5.198034,3.87919 0.499635,4.34374 -3.110422,0.30753 -3.501233,0.71088 -3.501233,3.6135 0,2.67864 0.47642,3.32167 2.644231,3.56896 2.287806,0.26097 2.394733,0.14357 0.793269,-0.87095 -2.770941,-1.75539 -2.299139,-4.33167 0.793269,-4.33167 1.454327,0 2.644231,0.4901 2.644231,1.08911 0,0.599 0.475961,1.0891 1.057692,1.0891 0.581731,0 1.057692,-1.66291 1.057692,-3.69535 0,-3.42855 2.041086,-5.8201 3.598518,-4.2164 0.95911,0.9876 0.724332,12.61059 -0.287936,14.2546 -0.722276,1.17304 -1.192659,1.12794 -2.522998,-0.24191 -1.436461,-1.47913 -1.792261,-1.48891 -2.92744,-0.0805 -2.173927,2.69722 -6.982252,1.97548 -9.271926,-1.39175 -1.120128,-1.64728 -2.317186,-3.7302 -2.660128,-4.62872 -0.342943,-0.89851 -0.339852,0.51446 0.0069,3.13993 0.501019,3.79387 0.326692,4.67352 -0.849394,4.28598 -0.813888,-0.26819 -1.949632,-1.55863 -2.523875,-2.86765 -1.293511,-2.94864 -2.657844,-3.08523 -2.657844,-0.2661 0,2.27322 -1.393966,3.71142 -2.496704,2.57592 z m 4.612088,-10.1354 c 0,-0.59901 -0.504051,-1.08911 -1.120114,-1.08911 -0.616063,0 -0.825954,0.4901 -0.466424,1.08911 0.359529,0.59901 0.86358,1.08911 1.120114,1.08911 0.256533,0 0.466424,-0.4901 0.466424,-1.08911 z m 23.753454,9.53041 c -0.329176,-0.8833 -0.453798,-4.48695 -0.276939,-8.00811 0.381362,-7.59271 2.836853,-9.33559 5.232279,-3.71382 l 1.435437,3.36879 0.528846,-2.94928 c 0.66474,-3.70714 3.115295,-4.68086 3.909539,-1.55346 l 0.596703,2.34957 2.396338,-2.31811 c 2.8459,-2.753 8.230421,-2.61455 8.753071,0.22506 0.251692,1.36746 -0.550658,1.91983 -3.164033,2.17822 -3.110422,0.30753 -3.501233,0.71088 -3.501233,3.6135 0,2.67864 0.47642,3.32167 2.644231,3.56896 2.287806,0.26097 2.394733,0.14357 0.793269,-0.87095 -2.761391,-1.74934 -2.300495,-4.33167 0.773118,-4.33167 1.889835,0 2.80286,0.73347 3.263014,2.62133 1.648591,6.76361 -5.743205,9.93717 -10.041096,4.311 -2.02896,-2.65602 -2.192152,-2.70135 -2.192152,-0.60883 0,4.67662 -4.385024,3.7275 -6.397426,-1.3847 -0.860251,-2.18534 -0.873262,-2.18394 -0.939377,0.10111 -0.08974,3.10172 -2.968429,5.66926 -3.813589,3.40139 z m 33.361928,-6.80764 v -8.16832 h 3.64937 c 2.37078,0 4.01695,0.66777 4.69853,1.90594 0.983,1.78576 1.15179,1.76859 2.67669,-0.27227 1.40509,-1.88053 1.77261,-1.95495 2.68912,-0.54456 0.58387,0.89852 1.06888,3.71659 1.07779,6.26238 0.0113,3.22235 0.46386,4.62871 1.48957,4.62871 1.59546,0 3.00868,2.64554 1.97939,3.7054 -1.17016,1.20492 -6.44496,0.6641 -6.92836,-0.71035 -0.38303,-1.08911 -0.92664,-1.08911 -2.71802,0 -1.23157,0.74876 -3.67356,1.36139 -5.42665,1.36139 h -3.18743 z m 5.81731,2.72277 c -0.35953,-0.59901 -1.10156,-1.08911 -1.64896,-1.08911 -0.5474,0 -0.99527,0.4901 -0.99527,1.08911 0,0.59901 0.74203,1.08911 1.64896,1.08911 0.90693,0 1.3548,-0.4901 0.99527,-1.08911 z m 4.75962,-3.81188 c 0,-0.89851 -0.47597,-1.63366 -1.0577,-1.63366 -0.58173,0 -1.05769,0.73515 -1.05769,1.63366 0,0.89852 0.47596,1.63366 1.05769,1.63366 0.58173,0 1.0577,-0.73514 1.0577,-1.63366 z m 10.26426,7.70502 c -1.04455,-0.81572 -2.15846,-3.12826 -2.47534,-5.13897 -1.24601,-7.90632 7.88846,-13.18845 11.90134,-6.88211 l 1.75826,2.76315 1.20125,-2.49087 c 1.30322,-2.7023 5.48422,-3.90735 7.24963,-2.0895 0.73803,0.75994 1.74297,0.77477 3.06678,0.0452 1.49322,-0.82288 2.1229,-0.67226 2.60572,0.62333 0.52168,1.39984 0.9278,1.45963 2.24846,0.33103 0.88649,-0.75757 2.99248,-1.4489 4.67998,-1.53629 l 3.06819,-0.15889 -0.3083,7.65284 c -0.30018,7.45103 -0.38479,7.66116 -3.20818,7.96789 -1.93328,0.21002 -3.38676,-0.40074 -4.36056,-1.83233 -1.44322,-2.12169 -1.46768,-2.11981 -2.04584,0.15675 -0.4906,1.93179 -0.92925,2.11448 -2.71468,1.13057 -1.4084,-0.77615 -2.35147,-0.80374 -2.78498,-0.0815 -1.17146,1.95177 -5.65425,1.15802 -7.3241,-1.29684 l -1.62498,-2.38889 -2.46951,2.38889 c -2.8054,2.71382 -5.69361,2.99929 -8.46314,0.83649 z m 21.46651,-6.07136 c 0,-4.07861 -0.19515,-4.35643 -3.05992,-4.35643 -5.37801,0 -5.67051,7.09895 -0.32706,7.93781 1.57197,0.24678 2.97712,0.52213 3.12255,0.61188 0.14543,0.0898 0.26443,-1.79722 0.26443,-4.19326 z m -15.00511,-0.27227 c -0.25279,-2.69977 -0.83335,-3.53961 -2.44682,-3.53961 -1.61347,0 -2.19402,0.83984 -2.44682,3.53961 -0.29792,3.18165 -0.0505,3.5396 2.44682,3.5396 2.49731,0 2.74474,-0.35795 2.44682,-3.5396 z m 25.58203,-1.05886 v -4.59846 l -2.21126,2.27694 c -1.93392,1.99136 -2.03467,2.56811 -0.80327,4.59846 2.12031,3.496 3.01453,2.82057 3.01453,-2.27694 z m 6.52783,7.9814 c -0.92491,-0.5886 -1.24867,-3.04955 -1.02978,-7.82761 0.25061,-5.47068 0.6978,-7.04331 2.07985,-7.31425 1.0358,-0.20306 2.04485,0.57707 2.45108,1.895 0.88999,2.88739 2.25835,2.8633 2.99893,-0.0528 0.7977,-3.14102 3.21948,-2.03756 4.03445,1.83825 0.36747,1.74762 0.72444,2.39577 0.79327,1.44034 0.30726,-4.26532 7.55834,-7.05441 10.49052,-4.03514 2.11383,2.17661 1.44988,3.04951 -2.31953,3.04951 -2.35124,0 -3.81842,0.61625 -4.25475,1.78709 -0.96952,2.60157 0.31031,5.83667 2.30902,5.83667 1.34307,0 1.44475,-0.29043 0.45757,-1.30693 -2.29112,-2.35917 -1.47984,-4.30825 1.63942,-3.93868 2.30209,0.27275 2.97974,0.98294 3.24951,3.40553 0.43682,3.92274 -1.42214,6.19652 -5.06605,6.19652 -2.97417,0 -6.28619,-2.81595 -6.50571,-5.53131 -0.0688,-0.85134 -0.42947,-0.0836 -0.80142,1.70613 -0.93964,4.52123 -3.57105,4.67151 -5.67128,0.32388 -1.32538,-2.7436 -1.74796,-3.06999 -1.81225,-1.39969 -0.12193,3.16762 -1.48081,4.92157 -3.04285,3.92749 z m -1.75471,-25.14261 c -0.76267,-1.27069 1.23736,-5.46805 2.60552,-5.46805 1.73069,0 2.25931,2.093 1.0946,4.33393 -1.23868,2.38323 -2.68442,2.82636 -3.70012,1.13412 z M 46.003206,151.48962 c -2.964151,-2.84355 -3.176322,-9.70826 -0.38058,-12.31353 2.58464,-2.40854 8.237523,-2.34753 9.586726,0.10348 0.993496,1.80482 1.125028,1.80027 2.479051,-0.0857 1.01758,-1.41736 2.48388,-1.88843 5.085126,-1.63366 3.388148,0.33184 3.696589,0.67633 4.221162,4.71444 0.713052,5.48901 1.669101,7.07921 4.256112,7.07921 2.823183,0 2.571876,-1.5776 -0.591268,-3.71173 -2.842373,-1.91772 -3.422231,-4.8535 -1.375,-6.96154 0.84168,-0.86668 5.413274,-1.30693 13.571272,-1.30693 11.994325,0 12.336955,0.0672 13.697893,2.68565 1.102295,2.12083 1.124447,3.02238 0.105331,4.28681 -0.983032,1.21967 -1.001613,2.15704 -0.07799,3.93411 1.662128,3.19797 0.55588,6.1787 -1.607103,4.33026 -0.865712,-0.73982 -1.574022,-2.02026 -1.574022,-2.84543 0,-2.34294 -1.802731,-1.75993 -2.450991,0.79265 -1.136704,4.47588 -3.35779,1.51387 -3.686018,-4.91562 -0.271748,-5.32311 -0.549382,-6.06616 -1.850962,-4.95386 -0.95356,0.81489 -1.53126,3.31271 -1.53126,6.62077 0,4.58611 -0.289132,5.31218 -2.115385,5.31218 -1.853887,0 -2.115384,-0.72607 -2.115384,-5.87357 0,-4.03426 -0.464445,-6.0571 -1.483133,-6.45961 -0.815723,-0.32232 -1.807309,-0.25223 -2.203525,0.15575 -0.396217,0.40799 -1.156692,0.80305 -1.689945,0.87793 -0.533253,0.0749 -1.313436,0.1974 -1.73374,0.27228 -0.420305,0.0749 0.234318,0.85629 1.454717,1.73648 2.947387,2.12575 3.656003,5.36857 1.776813,8.13118 -1.80498,2.65351 -4.841161,2.91896 -6.720256,0.58753 -1.199936,-1.48878 -1.523817,-1.48878 -3.121446,0 -1.816699,1.69293 -7.420109,2.328 -7.449528,0.84431 -0.0089,-0.44926 -0.434455,-1.49691 -0.945661,-2.32812 -0.759076,-1.23423 -1.374357,-1.08449 -3.356321,0.81684 -3.038408,2.91479 -5.218435,2.94345 -8.174689,0.10747 z m 7.024679,-5.8295 c 0.192015,-1.73203 -0.240785,-3.52456 -0.961777,-3.98339 -2.389377,-1.52058 -4.146957,0.19908 -4.146957,4.05749 0,3.28782 0.304982,3.7265 2.379807,3.42308 1.737564,-0.2541 2.474025,-1.19789 2.728927,-3.49718 z m 10.75665,2.6046 c 0,-0.59901 -0.475961,-1.08911 -1.057692,-1.08911 -0.581731,0 -1.057692,0.4901 -1.057692,1.08911 0,0.59901 0.475961,1.08911 1.057692,1.08911 0.581731,0 1.057692,-0.4901 1.057692,-1.08911 z m 36.654315,3.45385 c -2.287392,-2.60262 -2.514209,-14.34494 -0.27709,-14.34494 1.90228,0 2.75739,2.39187 2.75739,7.71284 0,3.06713 0.44623,4.26736 1.58654,4.26736 1.21795,0 1.58654,-1.39164 1.58654,-5.9901 0,-4.75486 0.34758,-5.9901 1.68556,-5.9901 0.92705,0 1.93956,1.00018 2.25002,2.22262 l 0.56446,2.22262 1.51188,-2.22262 c 1.34753,-1.98102 2.64168,-2.22262 11.90546,-2.22262 9.88784,0 10.42407,0.11924 11.01989,2.45049 l 0.6263,2.4505 1.67242,-2.4505 c 2.22063,-3.25375 8.2004,-3.38543 10.34824,-0.22787 l 1.51188,2.22262 0.56446,-2.22262 c 0.79574,-3.1333 3.74238,-2.76174 5.25778,0.66299 l 1.27684,2.8856 0.59913,-2.61333 c 0.32952,-1.43733 1.29161,-2.61333 2.13798,-2.61333 1.13429,0 1.62294,1.67054 1.85872,6.35427 0.35263,7.00507 -1.13162,10.36664 -3.63328,8.22878 -0.79541,-0.67974 -1.4462,-1.70099 -1.4462,-2.26944 0,-0.56845 -0.71395,-1.7687 -1.58654,-2.66721 -1.41026,-1.45215 -1.58654,-1.26199 -1.58654,1.71145 0,3.65408 -2.00045,4.5775 -2.83107,1.30684 -0.48305,-1.90202 -0.68534,-1.86562 -3.02598,0.54456 -1.37959,1.42056 -3.3629,2.56725 -4.40737,2.5482 -2.44774,-0.0447 -5.58061,-2.49783 -5.67255,-4.44187 -0.0394,-0.83248 -0.58807,-0.41087 -1.21932,0.9369 -2.21205,4.72286 -5.65788,1.4393 -5.01935,-4.78299 0.11423,-1.11317 0.15289,-2.94162 0.0859,-4.06324 -0.10071,-1.6862 -0.3965,-1.80454 -1.70834,-0.68347 -1.01931,0.87108 -1.58654,3.28359 -1.58654,6.74786 0,4.54725 -0.29,5.33528 -1.85096,5.02971 -1.42341,-0.27864 -1.92379,-1.65051 -2.16625,-5.9392 -0.31454,-5.56345 -0.32345,-5.57605 -3.70193,-5.23259 -1.86264,0.18935 -3.7436,0.37556 -4.17989,0.4138 -0.4363,0.0382 -0.79327,1.84201 -0.79327,4.00837 0,3.6241 0.21331,3.89686 2.66947,3.41339 3.15571,-0.62117 4.37476,0.81589 2.58054,3.04201 -1.80262,2.23653 -4.18634,1.97144 -7.03281,-0.78211 l -2.44797,-2.36807 -2.44798,2.36807 c -2.98852,2.89096 -5.13084,2.99939 -7.43617,0.37637 z m 44.35711,-5.10166 c 0.6527,-2.67782 -0.94471,-5.97595 -2.89438,-5.97595 -0.52297,0 -1.48659,1.21073 -2.14138,2.69052 -0.91032,2.05727 -0.8745,3.08261 0.15219,4.35643 2.00199,2.48391 4.13088,2.01703 4.88357,-1.071 z m -11.5563,-28.4842 c -0.38782,-0.39934 -0.70512,-3.52373 -0.70512,-6.94307 0,-5.96445 -0.12252,-6.24223 -3.01582,-6.83808 -1.65869,-0.34159 -4.06833,-0.33766 -5.35475,0.009 -1.64891,0.44401 -2.80514,-0.0555 -3.91917,-1.69328 -1.4009,-2.05948 -2.59359,-2.32309 -10.51062,-2.32309 -5.24848,0 -8.93041,-0.449033 -8.93041,-1.089112 0,-0.644865 3.85739,-1.089109 9.4568,-1.089109 10.22426,0 11.00676,-0.414706 11.3026,-5.990099 0.51307,-9.66949 1.75518,-18.451123 3.06713,-21.684327 2.06734,-5.094813 7.2935,-9.355277 11.47577,-9.355277 5.35586,0 6.06823,-1.620374 3.17535,-7.222737 -2.62349,-5.080653 -3.50691,-14.889465 -1.45842,-16.193104 0.58173,-0.370209 1.05769,-1.783999 1.05769,-3.141756 0,-1.357757 1.2198,-3.648635 2.71068,-5.09084 2.23459,-2.161646 3.81236,-2.62219 8.98333,-2.62219 5.31006,0 6.1889,-0.271723 5.72687,-1.770662 -0.8888,-2.883542 0.61007,-5.34485 3.25486,-5.34485 1.35775,0 2.72769,0.431588 3.04429,0.959084 0.31661,0.527496 0.83351,7.195127 1.14867,14.816958 0.54521,13.185147 0.44928,14.085863 -1.97616,18.554331 -2.98923,5.507175 -2.20924,7.055766 3.55382,7.055766 2.92716,0 4.60037,0.837818 7.20997,3.610222 3.95508,4.20181 5.08079,7.684819 6.57719,20.350174 1.66231,14.069718 0.76942,13.069307 11.66468,13.069307 5.59351,0 9.44795,0.44432 9.44795,1.089109 0,0.628196 -3.32052,1.089112 -7.84618,1.089112 -8.8999,0 -11.19228,0.61027 -11.19228,2.9796 0,1.35341 -0.94539,1.52832 -5.15363,0.95349 -7.91541,-1.0812 -8.59637,-0.47766 -8.59637,7.61907 v 6.96269 h -16.74679 c -9.21074,0 -17.06411,-0.32673 -17.45193,-0.72607 z m 44.48919,-16.26857 c -0.35147,-0.3619 -1.26373,-0.40059 -2.02725,-0.086 -0.84375,0.34767 -0.59313,0.60574 0.63902,0.658 1.11499,0.0473 1.73969,-0.21012 1.38823,-0.57202 z m -31.44431,-5.221559 c 0,-1.093106 -2.16497,-1.742967 -7.66827,-2.301791 -4.21755,-0.428265 -8.01995,-0.993662 -8.44979,-1.256438 -0.42983,-0.262777 -0.0205,-1.673682 0.90957,-3.135346 2.11359,-3.321558 1.23221,-5.941713 -1.9987,-5.941713 -3.7691,0 -5.00435,2.07 -5.00435,8.386139 v 5.772277 h 11.10577 c 8.80846,0 11.10577,-0.31507 11.10577,-1.523128 z m 31.02182,0.706296 c 0.26048,-0.449257 0.22801,-3.389851 -0.0722,-6.534653 l -0.54574,-5.717822 h -3.99718 c -3.47644,0 -3.92511,0.283768 -3.44399,2.178218 0.35799,1.409604 1.44271,2.178218 3.07406,2.178218 1.53564,0 2.52087,0.63848 2.52087,1.633663 0,1.081824 -1.05076,1.633664 -3.11066,1.633664 -1.71086,0 -3.39331,0.470932 -3.73878,1.046517 -0.77966,1.298983 -16.24628,1.212797 -17.03117,-0.0949 -1.3221,-2.202755 -2.4162,-0.725269 -1.31156,1.77116 1.18991,2.689133 1.36527,2.722772 14.19375,2.722772 7.14393,0 13.20207,-0.367574 13.46255,-0.816832 z M 156.33261,62.225115 c 0.40585,-0.676183 -1.57555,-1.089109 -5.22604,-1.089109 -3.23385,0 -5.87973,0.490099 -5.87973,1.089109 0,0.59901 2.35172,1.089109 5.22604,1.089109 2.87432,0 5.5202,-0.490099 5.87973,-1.089109 z m -9.65144,-7.844039 c -0.28681,-0.477858 -1.20733,-0.868832 -2.0456,-0.868832 -1.86846,0 -2.03334,2.904009 -0.202,3.557816 1.48186,0.529038 3.05177,-1.349167 2.2476,-2.688984 z m 8.34946,1.684108 c -0.7161,-0.298332 -2.14398,-0.316492 -3.17308,-0.04036 -1.0291,0.276136 -0.44321,0.520226 1.30199,0.542422 1.74519,0.0222 2.58718,-0.203734 1.87109,-0.502066 z m 1.83083,-7.510585 c 0,-0.208165 -0.71348,-3.113403 -1.66108,-3.561563 -0.55764,-0.263733 -1.63285,0.835426 -1.63285,0.835426 -2.54204,-0.168948 -4.42325,-3.347397 -0.14094,-3.844165 1.10398,-0.128068 3.01512,4.054189 1.72508,-1.718592 -0.1917,-0.857878 -2.54224,-1.646579 -5.56091,-1.629124 -3.78125,0.02187 -6.60507,1.773514 -7.42554,3.169008 -0.0862,0.146604 -0.77201,2.075158 -0.19585,1.713168 0.57724,-0.362672 1.53795,-1.107169 2.52645,-1.152857 1.3922,-0.06435 2.77375,0.764309 2.64379,1.700869 -0.25753,1.855935 -0.97374,2.319461 -3.32089,2.149247 -0.98625,-0.07152 -1.68415,-1.946355 -2.03423,-1.850066 -0.53861,0.148145 -0.3312,2.41112 0.31385,3.211452 0.86767,1.076543 3.41696,1.578406 8.01767,1.578406 3.71002,0 6.74549,-0.270544 6.74549,-0.601209 z m 4.10563,-5.661167 c -0.0688,-1.048267 -0.48848,-3.376238 -0.93255,-5.173267 -0.72072,-2.916484 -0.82085,-2.711825 -0.93256,1.90594 -0.0688,2.845297 0.35082,5.173267 0.93256,5.173267 0.58173,0 1.00137,-0.857673 0.93255,-1.90594 z m -10.29172,-7.89604 c 4.86593,0 5.24928,-0.190258 4.93754,-2.450495 -0.28736,-2.08341 -1.07686,-2.499643 -5.27032,-2.778589 -3.9746,-0.264387 -5.3538,0.137726 -7.10285,2.070879 -2.32713,2.572072 -1.97778,4.793228 0.59406,3.777008 0.86133,-0.340341 3.94004,-0.618803 6.84157,-0.618803 z M 47.337255,114.77462 c -0.0162,0 -0.34839,-1.7221 -2.600916,-5.27607 -1.967046,-3.10353 -1.052146,-3.61812 1.672203,-3.62601 3.132132,-0.009 2.621328,-10.776937 0.541419,-10.727842 -0.988942,0.02334 -2.59816,0.304971 -2.983697,-0.129137 -0.300497,-0.338354 0.700588,-2.046326 0.852554,-2.505488 0.107775,-0.325641 0.222109,-1.443987 0.331305,-1.725431 1.448929,-3.734495 -4.592618,-0.534095 -5.310024,1.390968 -0.334846,0.898515 -1.271832,1.633663 -2.08219,1.633663 -1.714757,0 -2.068672,6.027261 -0.415685,7.079207 2.284246,1.45368 0.878781,2.63341 -2.379807,1.99759 -5.922652,-1.15564 -7.237388,-2.28893 -6.474266,-5.580764 1.026256,-4.426898 2.48266,-5.962548 4.234791,-4.465216 1.137851,0.972382 1.446206,0.789473 1.446206,-0.857857 0,-1.151563 -0.571154,-2.68187 -1.269231,-3.400682 -0.98718,-1.016502 -0.33926,-1.306931 2.915636,-1.306931 2.301677,0 5.688246,0.44397 7.525709,0.9866 3.044467,0.899077 3.213055,0.437102 4.623203,-1.721353 0.79481,-1.216582 2.040303,-2.510915 1.90873,-3.091849 -0.275976,-1.218517 -3.140826,-0.686229 -4.583439,0.546594 -1.130096,0.965753 -4.028105,1.227878 -9.544791,0.863322 -7.25181,-0.479216 -10.250049,0.476037 -6.341508,2.020435 0.869255,0.343472 1.316331,1.064565 0.993503,1.602427 -0.933537,1.555361 -4.927228,-1.17517 -4.275734,-2.923366 0.397335,-1.066195 -0.188188,-1.550137 -1.875519,-1.550137 -4.180807,0 -8.751793,-2.167114 -10.118859,-4.797373 -2.073648,-3.989736 -1.095408,-35.018353 1.243828,-39.45275 4.022538,-7.625364 15.880488,-10.470326 28.992973,-6.956 4.310637,1.15531 6.699144,1.195184 11.546596,0.19276 8.300909,-1.716578 16.380263,-1.588657 20.83969,0.329955 4.137038,1.779908 9.241863,7.405191 9.254163,10.197663 0.0044,1.002309 0.482392,5.98822 1.062173,11.079805 0.909525,7.987385 0.341572,37.757336 -0.699879,36.684951 -0.20306,-0.209091 -0.524726,-2.917978 -0.714813,-6.019749 -0.359023,-5.858383 -0.57682,-6.047443 -4.94397,-4.291636 -4.176737,1.679252 -13.645517,4.121483 -15.979411,4.121483 -3.185291,0 -1.26748,2.161399 2.02741,2.284918 1.565427,0.05868 -0.247518,0.739414 -4.028768,1.512733 -3.78125,0.773318 -7.112981,1.148305 -7.403846,0.833305 -0.290866,-0.315001 0.08568,-0.798241 0.836762,-1.073866 0.955813,-0.350755 0.645321,-1.144397 -1.034686,-2.644738 -1.508932,-1.347561 -3.933827,-2.833807 -4.244312,-2.131572 -0.28142,0.636497 1.429224,3.304052 2.402812,5.177252 1.125842,2.16614 3.311207,7.077751 0.02581,6.508792 -3.316442,-0.574336 -1.320458,4.286896 -1.343498,4.753084 -0.111087,2.24767 4.757634,0.34337 9.139706,0.37294 4.382072,0.0296 7.967404,0.45408 7.967404,0.94334 0,0.48925 -1.13185,0.88955 -2.515222,0.88955 -1.383372,0 -3.168228,0.99218 -3.966346,2.20483 l -1.451125,2.20482 -4.348247,-1.7326 c -1.033206,-0.41169 -3.582636,0.28731 -2.640255,-3.04291 0.375245,-1.32606 -1.835816,-0.93567 -1.771354,2.1181 0.02278,1.07908 -0.761566,1.63592 0.861494,1.68755 1.172698,0.0373 2.452994,0.0198 1.538213,2.17995 -1.331937,3.14515 -3.949051,8.73666 -5.490008,8.73666 -0.843909,0 -1.610683,-0.45664 -1.952892,-2.10392 z m -4.17772,-32.945545 c 0.386683,-0.64425 6.856754,-1.089108 15.840118,-1.089108 12.576946,0 15.993079,-0.356042 19.880901,-2.072057 5.34721,-2.360164 6.057827,-4.244031 6.057827,-16.059486 v -6.968177 l -2.646189,1.78535 c -1.540971,1.039674 -3.806556,1.556944 -5.42442,1.238483 l -2.778231,-0.546867 0.562641,6.389202 0.56264,6.389202 -8.153581,-0.178552 c -6.466599,-0.14161 -9.140603,0.313448 -12.924083,2.199402 -5.674161,2.828403 -6.438455,2.879708 -10.520303,0.706205 -2.822505,-1.502927 -3.202469,-1.502927 -3.76256,0 -0.342653,0.919462 -1.479447,1.67175 -2.526208,1.67175 -1.441183,0 -1.761774,0.59488 -1.320613,2.450495 0.320425,1.347772 1.048087,3.063119 1.617027,3.811881 1.239251,1.630935 4.61975,1.797227 5.535034,0.272277 z M 28.020406,77.200363 c 0.254028,-2.712912 0.887253,-3.620888 2.711245,-3.88763 4.07627,-0.596119 2.605189,-2.374747 -1.964123,-2.374747 -3.74506,0 -4.230618,-0.26276 -3.522014,-1.90594 0.452054,-1.048268 1.026864,-3.988862 1.277356,-6.534654 l 0.45544,-4.628713 h -4.65458 c -2.560019,0 -5.225733,-0.588118 -5.92381,-1.30693 -0.98718,-1.016502 -1.268352,0.738173 -1.265277,7.896039 0.0052,12.129404 2.141263,16.282179 8.375024,16.282179 3.941995,0 4.198122,-0.200985 4.510739,-3.539604 z m 9.23368,-10.17139 c 0.242388,-0.246082 0.242388,-0.589771 0,-0.763754 -0.242387,-0.173982 -2.22556,-1.669221 -4.407051,-3.322753 l -3.966346,-3.006421 v 4.53307 4.533069 l 3.966346,-0.762894 c 2.181491,-0.419592 4.164664,-0.964234 4.407051,-1.210317 z m 33.731208,-0.295132 c 0.894288,-0.584015 1.136736,-1.915655 0.685692,-3.766139 l -0.697761,-2.862675 -3.594345,2.822972 c -1.97689,1.552635 -3.594345,3.254903 -3.594345,3.782817 0,1.211378 5.354845,1.228501 7.200759,0.02303 z M 44.217227,64.546348 c -3.510386,-2.238865 -4.273217,-2.15781 -3.336938,0.354568 0.357637,0.959669 1.888323,1.678175 3.568166,1.674901 l 2.941849,-0.0057 z m 15.357752,0.37522 c 2.048182,-2.541212 0.890737,-2.709821 -3.19429,-0.465323 -3.577399,1.965585 -3.608439,2.03554 -0.922778,2.079655 1.52853,0.02511 3.38121,-0.701342 4.117068,-1.614332 z m -4.822805,-4.382602 c 6.045751,-2.954112 7.990798,-12.214773 3.479477,-16.566307 -5.362482,-5.172546 -12.358976,-5.057415 -16.653169,0.274036 -2.178178,2.704315 -1.750896,11.030384 0.710731,13.84938 3.674956,4.208473 7.368099,4.932373 12.462961,2.442891 z M 39.457612,102.52214 c 0,-0.59901 0.447872,-1.0891 0.995271,-1.0891 0.547398,0 1.28943,0.49009 1.64896,1.0891 0.359529,0.59901 -0.08834,1.08911 -0.995271,1.08911 -0.906928,0 -1.64896,-0.4901 -1.64896,-1.08911 z m 4.230769,-1.0891 c 0,-0.59901 0.475962,-1.08911 1.057693,-1.08911 0.58173,0 1.057692,0.4901 1.057692,1.08911 0,0.59901 -0.475962,1.0891 -1.057692,1.0891 -0.581731,0 -1.057693,-0.49009 -1.057693,-1.0891 z M 17.246074,98.710264 c 0,-0.898515 -0.475962,-1.633664 -1.057693,-1.633664 -0.58173,0 -1.047109,-0.857673 -1.034173,-1.90594 0.01906,-1.544646 0.165833,-1.175531 2.091866,0.816831 0.618979,0.640296 0.793416,2.345711 1.98187,2.824974 4.431078,1.786905 10.916993,1.838635 -0.924178,1.531465 -0.581535,-0.0151 -1.057692,-0.735152 -1.057692,-1.633666 z m 54.497693,2.814706 c 0.35953,-0.59901 7.76575,-2.544814 8.313149,-2.544814 0.547398,0 0.650696,-0.324348 0.650696,0.274662 0,0.59901 -0.742032,1.089112 -1.64896,1.089112 -0.906928,0 -7.674414,1.78005 -7.314885,1.18104 z m 10.055176,-2.918185 c 0.02363,-0.692298 1.327088,-1.582347 2.067696,-2.735058 1.166684,-1.815872 2.004046,-3.819457 2.38253,-3.188867 0.332994,0.5548 -1.243678,3.890127 -2.393422,4.961537 -1.149743,1.07141 -2.075306,1.504484 -2.056804,0.962388 z M 14.750306,91.631056 c 0,-0.59901 -0.624666,-10.994757 -0.04293,-10.994757 0.581731,0 0.719037,10.395747 0.719037,10.994757 0,0.59901 0.286012,1.089109 -0.295719,1.089109 -0.581731,0 -0.380383,-0.490099 -0.380383,-1.089109 z m 57.495768,-4.90099 c 0.72419,-0.898515 1.719454,-1.633664 2.211698,-1.633664 0.492243,0 0.621022,0.735149 0.286176,1.633664 -0.334847,0.898514 -1.330111,1.633663 -2.211698,1.633663 -1.304864,0 -1.358072,-0.303745 -0.286176,-1.633663 z M 215.03454,107.96769 c 0,-72.607261 0.35954,-110.0000007 1.05769,-110.0000007 0.69814,0 1.05769,37.3927397 1.05769,110.0000007 0,72.60726 -0.35955,110 -1.05769,110 -0.69815,0 -1.05769,-37.39274 -1.05769,-110 z"
       id="path1"
       sodipodi:nodetypes="ccccccccccccccccccssssssssssssssssssssccsssssscccsssssssssssssssccccsssssssccsssssssssscssssssssssssssssssssscssssssssssssssssssssssssssssssssssssssscscsscsssssssssssssssscsssccsssssssscsscsssssssssssssccssssssssssccsssssssssscsscsscssscssssssscsccssssssssssscsssssssssssssssssssssssssssssssssssssssssssssssssssssssssssssssssssssssssssssscssscsscsscssssssssscssssssssscsssscssssssscsscsssssssssssssssssssssssssscsccsssssssscsscsssccssssssssssssssssssssssssscsssssssssssssccsssssssssssssssssssssssssssssssssssssssssssssssssssssssscssscsssssssssssscsscccssssssssssssscsssssssscccsssscsssscscccssssssssssssssssssssssssssssssssssssssssssssssssssss" /></g></svg>
