<?xml version="1.0" encoding="UTF-8" standalone="no"?>
<!-- Created with Inkscape (http://www.inkscape.org/) -->

<svg
   width="210mm"
   height="210mm"
   viewBox="0 0 210 210"
   version="1.1"
   id="svg1"
   xml:space="preserve"
   inkscape:version="1.3.2 (091e20e, 2023-11-25)"
   sodipodi:docname="out_of_bounds.svg"
   xmlns:inkscape="http://www.inkscape.org/namespaces/inkscape"
   xmlns:sodipodi="http://sodipodi.sourceforge.net/DTD/sodipodi-0.dtd"
   xmlns="http://www.w3.org/2000/svg"
   xmlns:svg="http://www.w3.org/2000/svg"><sodipodi:namedview
     id="namedview1"
     pagecolor="#ffffff"
     bordercolor="#111111"
     borderopacity="1"
     inkscape:showpageshadow="0"
     inkscape:pageopacity="0"
     inkscape:pagecheckerboard="1"
     inkscape:deskcolor="#d1d1d1"
     inkscape:document-units="mm"
     inkscape:zoom="0.22864798"
     inkscape:cx="284.27979"
     inkscape:cy="220.86353"
     inkscape:window-width="1312"
     inkscape:window-height="638"
     inkscape:window-x="0"
     inkscape:window-y="25"
     inkscape:window-maximized="0"
     inkscape:current-layer="layer1" /><defs
     id="defs1" /><g
     inkscape:label="Layer 1"
     inkscape:groupmode="layer"
     id="layer1"><path
       style="fill:#000000"
       d="m -3.7205379,212.53238 c -0.3630147,-0.92798 -0.6600267,-49.88798 -0.6600267,-108.8 V -3.3803801 H 106.53206 217.44468 V 104.13962 c 0,82.20444 -0.30723,107.82138 -1.30486,108.8 -2.26022,2.21717 -218.9907603,1.81573 -219.8603579,-0.40724 z M 214.18254,104.90853 C 214.63213,18.028197 214.47558,-0.25137244 213.27807,-0.70204377 212.48159,-1.0017954 163.91654,-1.2470468 105.35574,-1.2470468 H -1.1184286 l -8e-7,105.8666668 -7e-7,105.86667 107.3786401,-0.2561 107.37864,-0.2561 z M 10.201915,202.08929 c -3.1964563,-8.17117 4.662313,-20.75301 7.094308,-14.08667 1.640972,4.49807 1.933627,3.66784 2.984881,0.0441 0.960383,-3.31051 3.610176,-0.88927 3.610176,4.78837 0,3.59935 0.492493,5.34164 1.631068,5.77023 1.315816,0.49531 1.631068,-0.41684 1.631068,-4.71935 0,-5.71891 2.517223,-8.44025 4.535218,-4.90298 0.913861,1.60187 0.181856,4.37491 3.332567,-0.36855 1.877659,-2.82685 6.063673,-2.96181 6.813644,-1.05863 1.145598,2.90715 1.98395,2.46783 2.863146,-0.0798 0.672966,-1.95004 2.285877,-0.78704 2.772131,1.03698 0.577333,2.16567 0.601525,2.16391 2.560736,-0.18687 2.959704,-3.55121 4.678733,-1.21517 2.440744,3.31681 -1.635438,3.3118 -1.623433,3.77741 0.174368,6.76287 2.607821,4.3306 0.450314,6.98557 -2.651634,3.26303 -1.666668,-2.00011 -2.075701,-2.12019 -2.369416,-0.69558 -0.546683,2.65158 -12.163281,4.4975 -12.962429,0.57936 -1.663395,-8.15546 -1.945853,-6.98142 -4.421659,0.0384 -1.724032,4.88826 -10.699066,0.79228 -10.699066,-4.3377 0,-1.78552 0.427081,-7.90646 -2.463854,-1.43988 -0.621649,1.39054 -5.031576,-0.6853 -2.964556,4.15874 1.025839,2.40405 -3.06933,4.26982 -3.911441,2.11712 z m 33.049243,-6.9384 c -0.384651,-3.25389 -4.089026,-4.35798 -6.210099,-1.85093 -2.146846,2.53752 0.224603,5.8333 3.724995,5.1769 2.293531,-0.43008 2.754504,-1.04703 2.485104,-3.32597 z m -27.32058,-3.04405 c -0.456543,-0.88517 -1.064634,-0.53958 -1.341396,-0.46536 -0.288822,0.0775 -0.66245,0.41072 -0.66245,0.70405 0,0.29334 0.619688,1.67286 0.918717,1.67286 0.299029,0 1.695677,-0.72778 1.085129,-1.91155 z m 44.657485,9.57945 c -6.406108,-7.04025 4.169972,-21.39177 9.111648,-13.47703 2.984768,4.78049 2.875381,3.70433 3.707266,-0.01 2.626998,-2.57696 3.765857,-1.14055 3.765857,4.74978 0,3.97367 0.401303,5.27038 1.631067,5.27038 1.227169,0 1.631068,-1.28988 1.631068,-5.20893 0,-5.86475 0.906563,-6.4828 9.548691,-6.50984 5.159085,-0.0161 7.426209,2.49099 4.28803,4.74197 -1.085078,0.77832 -1.86777,3.22938 -2.07959,6.51242 -0.496041,7.68824 -3.408248,7.32331 -4.14548,-0.51947 -0.684114,-7.27769 -3.262136,-8.8085 -3.262136,-1.93703 0,7.39518 -6.523139,11.2922 -10.525522,6.18604 -2.107162,-2.68828 -2.347309,-3.07435 -4.485515,0 -2.401681,3.45318 -6.958183,2.64918 -9.185384,0.20151 z m 7.66637,-7.10666 c -0.563089,-3.86601 -5.217522,-3.61898 -5.217522,0.27691 0,1.75192 0.611651,3.40085 1.359223,3.6643 2.080844,0.7333 4.220769,-1.45261 3.858299,-3.94121 z m 34.653097,6.57332 c -1.35183,-1.3306 -3.448464,-2.25605 -4.705375,-2.07693 -1.327953,0.18923 -2.551101,-0.40297 -2.952703,-1.42959 -0.963607,-2.4633 0.09936,-3.69348 3.191439,-3.69348 1.479319,0 2.654269,-0.62595 2.654269,-1.41406 0,-6.50866 12.76406,-7.60808 13.1772,-1.13501 0.0708,1.10866 0.43995,0.57574 0.82042,-1.18426 0.60101,-2.78016 1.22612,-3.24344 4.76455,-3.53106 4.77557,-0.38818 6.07735,3.40572 1.71212,4.98977 -3.12694,1.1347 -1.10574,2.32085 4.47629,2.62694 4.19447,0.23 4.31483,0.13836 4.62938,-3.52476 0.42464,-4.94502 5.83902,-6.03272 9.19526,-1.84722 l 2.05582,2.56376 1.92651,-2.50538 c 2.18399,-2.84023 6.33176,-3.29001 8.34925,-0.90538 1.76979,2.09185 3.94578,2.03727 4.78973,-0.12014 1.3446,-3.43721 3.9093,0.55416 3.9093,6.08393 0,4.15666 0.31951,5.04898 1.63107,4.55527 1.13857,-0.42859 1.63106,-2.17088 1.63106,-5.77023 0,-4.9872 1.30137,-7.53137 2.70931,-5.29668 0.463,0.73488 1.37617,0.72399 2.81925,-0.0336 2.25082,-1.18165 4.33145,0.0261 5.62832,3.26717 0.43477,1.08655 0.65944,0.86611 0.71844,-0.70493 0.0987,-2.62888 3.15421,-4.25062 3.98881,-2.11712 3.14647,8.0434 -1.66124,18.404 -5.26049,11.33634 l -1.90123,-3.73334 -0.002,3.28889 c -9.3e-4,1.80889 -0.29419,3.57582 -0.65168,3.92651 -1.12105,1.0997 -3.69952,-0.43178 -3.69952,-2.19732 0,-1.31242 -0.50523,-1.15504 -2.27536,0.70879 -2.86635,3.01806 -7.52261,2.69311 -9.20826,-0.64262 l -1.20391,-2.38242 -2.34807,2.64909 c -2.79277,3.15079 -6.99389,3.43921 -9.8131,0.67369 -1.96007,-1.92274 -2.04831,-1.92109 -3.31054,0.0616 -1.90352,2.98997 -9.22066,2.30701 -9.68739,-0.90419 -0.24412,-1.67958 -0.89365,-2.14063 -2.4524,-1.74077 -1.16617,0.29915 -2.84546,-0.0464 -3.73175,-0.76798 -2.12259,-1.72804 -4.90126,-0.60598 -4.90126,1.97917 0,4.50454 -4.2942,3.70078 -4.43536,-0.83017 -0.0509,-1.63398 -0.32995,-2.10432 -0.68558,-1.15556 -2.07469,5.53497 -7.50747,6.91447 -11.55213,2.93333 z m 6.84331,-3.41542 c 1.87699,-2.21855 0.94344,-5.38458 -1.58772,-5.38458 -2.2204,0 -3.3632,2.67993 -2.30084,5.39564 0.76774,1.96261 2.22226,1.95847 3.88856,-0.0111 z m 27.22782,0.48209 c 0,-0.58667 -0.5182,-1.06667 -1.15155,-1.06667 -0.63336,0 -0.84914,0.48 -0.47952,1.06667 0.36962,0.58667 0.88782,1.06667 1.15155,1.06667 0.26374,0 0.47952,-0.48 0.47952,-1.06667 z m 13.91655,-3.63999 c -0.47166,-3.23828 -4.56541,-2.97892 -5.04081,0.31936 -0.20184,1.40032 0.27106,2.93286 1.05091,3.40565 1.97727,1.19875 4.38029,-1.04474 3.9899,-3.72501 z m 31.11956,7.52764 c -0.31104,-0.79512 -0.41801,-4.51512 -0.23771,-8.26667 l 0.32781,-6.82098 3.61339,-0.34006 c 2.59043,-0.24379 4.16239,0.28088 5.55258,1.85326 1.93394,2.18737 1.94449,2.18756 3.89495,0.0734 2.3472,-2.54422 6.56359,-2.78283 7.48647,-0.42367 0.84461,2.15912 -0.079,3.63708 -2.27277,3.63708 -1.18938,0 -0.83714,0.67624 1.15156,2.21075 3.35405,2.58804 3.65903,5.28711 0.87655,7.75726 -2.48247,2.20381 -5.44267,2.25615 -7.82819,0.13841 -1.64247,-1.4581 -1.97544,-1.4581 -3.20905,0 -1.71357,2.02539 -8.58212,2.15844 -9.35559,0.18123 z m 7.11591,-4.87705 c 1.26525,-2.3191 0.44623,-5.4106 -1.43341,-5.4106 -0.99401,0 -1.51011,4.28477 -0.83512,6.93333 0.27594,1.08273 1.17705,0.47787 2.26853,-1.52273 z m 9.82856,1.01741 c 0,-0.31983 -0.97864,-1.18104 -2.17476,-1.9138 -1.87133,-1.14641 -2.17475,-1.06527 -2.17475,0.58151 0,1.20269 0.80807,1.9138 2.17475,1.9138 1.19612,0 2.17476,-0.26168 2.17476,-0.58151 z M 107.07575,135.61418 C 97.145193,127.47259 89.43802,119.80249 88.651632,117.27868 85.101748,105.88582 83.994947,87.640828 86.535153,82.389705 88.758502,77.793591 96.655562,70.21962 99.224389,70.21962 c 5.438861,0 10.569801,4.152892 10.569801,8.555012 0,2.334743 0.46047,4.244988 1.02327,4.244988 0.5628,0 1.04515,2.28 1.07188,5.066667 0.0267,2.786666 0.10293,6.506666 0.16932,8.266666 0.0664,1.76 -0.21657,4.459587 -0.62879,5.999087 -0.48907,1.82646 -0.24224,3.20011 0.71032,3.95315 9.40067,7.4316 10.628,10.88566 1.76994,4.9811 -2.20031,-1.46667 -4.47506,-2.66667 -5.05501,-2.66667 -0.57995,0 -1.21756,-0.36877 -1.41691,-0.8195 -0.19936,-0.45072 -1.83043,-1.93444 -3.6246,-3.29715 -3.06505,-2.32797 -3.26241,-2.9229 -3.26672,-9.847172 -0.004,-7.094725 1.73125,-10.079314 3.39226,-5.833235 0.47708,1.219565 1.14254,1.294218 3.22801,0.362117 4.75125,-2.123583 2.128,-5.231023 -3.64073,-4.312717 -4.219919,0.671754 -4.093747,1.259509 -1.71143,-7.97241 1.31776,-5.106574 -2.830844,-4.148393 -8.477537,1.958012 l -5.328266,5.762055 0.381915,11.467397 c 0.210054,6.307073 0.707794,11.787073 1.106091,12.177773 0.398296,0.39071 0.724174,1.75664 0.724174,3.03539 0,5.62196 5.038415,11.37614 20.932043,23.90569 4.03689,3.18243 7.3398,6.18243 7.3398,6.66666 0,2.18914 -3.36075,0.34699 -11.41747,-6.25835 z m 1.72,-36.59456 c 0.54914,0 0.99844,-1.2 0.99844,-2.666667 0,-2.133333 -0.54369,-2.666666 -2.71844,-2.666666 -2.31638,0 -2.71845,0.490169 -2.71845,3.314121 0,2.583813 0.37902,3.171442 1.72,2.666667 0.946,-0.3561 2.1693,-0.647455 2.71845,-0.647455 z m -1.55154,-19.779337 c 0.88057,-2.25103 -0.5892,-3.466346 -1.84201,-1.523105 -1.33117,2.064802 -1.30448,3.169109 0.0766,3.169109 0.61682,0 1.41125,-0.740702 1.7654,-1.646004 z M 55.156122,105.71988 c -0.283287,-2.21848 -0.216291,-4.51359 0.14888,-5.10026 0.365172,-0.58667 0.73213,-2.986667 0.815464,-5.333333 0.191303,-5.387072 9.177991,-29.272325 11.660828,-31.195559 2.474792,-1.917002 -4.231025,10.749039 -5.246357,13.328892 -2.943367,7.478793 -5.06242,27.0028 -2.919547,26.89941 3.13863,-0.15144 4.73703,-3.28906 4.030385,-7.911542 -0.524156,-3.428749 -0.365504,-4.854535 0.540182,-4.854535 0.705265,0 3.035678,-1.510162 5.178695,-3.355916 4.476321,-3.8554 6.286596,-2.332354 2.244462,1.888345 -2.141636,2.236245 -2.286152,2.800744 -0.932058,3.640752 1.083194,0.671957 1.162062,0.999446 0.24335,1.010486 -0.747572,0.009 -1.359223,0.702048 -1.359223,1.540143 0,0.838095 -0.669424,2.180482 -1.487608,2.983082 -0.818185,0.802605 -1.833937,2.529675 -2.257228,3.837945 -1.934191,5.97802 -9.979014,7.9568 -10.660225,2.62209 z m 81.966108,-7.569138 c -1.1986,-1.651216 -4.33612,-4.339574 -6.97227,-5.974129 -5.8986,-3.657455 -8.3946,-7.615004 -8.3946,-13.31013 0,-5.99096 -3.38117,-14.190209 -7.46761,-18.108735 -1.8734,-1.796425 -3.40618,-3.753976 -3.40618,-4.350114 0,-2.474866 -9.4426,-10.721347 -12.276439,-10.721347 -1.89733,0 -4.315117,-1.438942 -7.169084,-4.266667 -2.368445,-2.346667 -4.822675,-4.266667 -5.453845,-4.266667 -1.60671,0 -4.108149,-4.149653 -4.983203,-8.266666 L 80.262174,25.41962 h 7.852659 c 14.708817,0 20.466067,2.575052 33.930957,15.17634 6.43935,6.026346 11.69954,11.33643 11.68932,11.800185 -0.0102,0.463756 0.89514,2.143756 2.01193,3.733334 8.84219,12.585571 20.80443,33.51201 20.80443,36.394731 0,2.630114 -1.98367,0.0072 -8.5778,-11.341828 -4.72952,-8.139898 -6.55159,-10.411914 -8.10173,-10.102374 -2.57824,0.514838 -6.38959,-3.028251 -8.99334,-8.360336 -4.03725,-8.267694 -7.53567,-4.705921 -7.36655,7.499948 0.15498,11.184913 2.45267,16.746128 8.02972,19.434721 4.08079,1.967278 9.7864,7.870289 9.7864,10.124986 0,2.285193 -1.89862,1.550023 -4.20594,-1.628585 z m 4.02471,-28.731122 c -0.89186,-1.968475 -9.25525,-14.609208 -11.02187,-16.658865 l -1.96039,-2.274468 0.74482,2.666666 c 1.0441,3.738149 9.94711,17.066667 11.39998,17.066667 0.65996,0 1.03682,-0.36 0.83746,-0.8 z M 124.12362,54.924299 c 1.00351,-0.748443 1.49139,-1.889625 1.08418,-2.53596 -0.70845,-1.124455 -5.6272,1.791197 -5.6272,3.335593 0,1.084903 2.63904,0.620395 4.54302,-0.799633 z m -2.73344,-6.499647 c -0.78799,-2.014351 -3.98434,-2.243012 -3.98434,-0.285032 0,0.762667 0.58719,1.962667 1.30486,2.666667 1.65591,1.624366 3.57819,-0.08424 2.67948,-2.381635 z m -4.9675,-5.249912 2.43513,-1.673143 -3.96725,-3.564639 c -6.58033,-5.912541 -29.117172,-11.349536 -27.567643,-6.650671 0.580884,1.761497 5.462153,3.788819 7.822758,3.249 1.525271,-0.348797 2.53175,0.215422 3.262136,1.828711 0.665528,1.470031 2.578639,2.681833 5.171489,3.275718 3.31361,0.758972 4.56131,1.800359 6.40539,5.34619 2.08772,4.014326 2.36588,4.202869 3.14652,2.132795 0.47098,-1.24895 1.95215,-3.023732 3.29147,-3.943961 z m -11.34046,1.800435 c -0.39871,-0.391111 -0.72492,-0.07111 -0.72492,0.711112 0,0.782222 0.32621,1.102222 0.72492,0.711111 0.3987,-0.391111 0.3987,-1.031111 0,-1.422223 z M 68.473804,82.558167 c 0,-0.840466 0.856311,-1.797574 1.902913,-2.126906 2.098663,-0.660382 7.883495,-5.284927 7.883495,-6.30227 0,-0.353329 -0.752205,-0.359267 -1.671567,-0.01319 -3.783041,1.424038 -8.759261,-7.497312 -6.000642,-10.757931 1.895071,-2.239928 5.370709,-2.710193 7.147648,-0.967101 2.347568,2.302852 1.979073,3.562188 -1.042333,3.562188 -6.239924,0 -4.568297,3.671651 2.110583,4.635798 2.392233,0.345337 3.737865,0.363557 2.990292,0.04049 -2.250052,-0.972375 -1.527746,-2.739182 0.82089,-2.007952 3.89943,1.214057 3.995914,-2.517521 0.156113,-6.037772 -3.88195,-3.558894 -4.110827,-4.097229 -1.741963,-4.097229 0.924903,0 2.515195,1.456253 3.533981,3.236119 1.372061,2.397055 2.416212,3.088324 4.027095,2.666097 6.870856,-1.800913 10.330097,-1.886851 10.330097,-0.256631 0,0.95643 -1.331814,1.93852 -3.164212,2.333317 -1.740317,0.374957 -6.26653,3.581751 -10.058252,7.126208 -9.03619,8.446926 -17.224138,12.709516 -17.224138,8.96677 z M 74.998076,57.67872 c 0,-1.599565 9.786838,-9.156545 10.661538,-8.232385 0.415766,0.439275 0.118224,1.02149 -0.661205,1.293811 -0.779429,0.272321 -2.49205,1.551397 -3.805825,2.84239 -3.672081,3.608404 -6.194508,5.276385 -6.194508,4.096184 z M 88.04662,53.686287 c 0,-0.293334 0.24466,-0.533334 0.543689,-0.533334 0.299029,0 0.54369,0.24 0.54369,0.533334 0,0.293333 -0.244661,0.533333 -0.54369,0.533333 -0.299029,0 -0.543689,-0.24 -0.543689,-0.533333 z m 3.283944,-3.225777 c 0.756511,-0.894178 1.599405,-1.406113 1.873097,-1.137634 0.754095,0.739731 -0.778066,2.763411 -2.092223,2.763411 -0.721034,0 -0.638542,-0.612035 0.219126,-1.625777 z m 3.240328,-2.64089 c 0,-0.782222 0.326213,-1.102222 0.724919,-0.711111 0.398705,0.391111 0.398705,1.031111 0,1.422222 -0.398706,0.391111 -0.724919,0.07111 -0.724919,-0.711111 z m -6.161813,-1.777778 c 0.398706,-0.391111 1.051133,-0.391111 1.449839,0 0.398705,0.391111 0.07249,0.711111 -0.724919,0.711111 -0.797411,0 -1.123625,-0.32 -0.72492,-0.711111 z m 55.093851,0.177778 c 0,-0.293333 0.24466,-0.533333 0.54369,-0.533333 0.29903,0 0.54369,0.24 0.54369,0.533333 0,0.293333 -0.24466,0.533333 -0.54369,0.533333 -0.29903,0 -0.54369,-0.24 -0.54369,-0.533333 z m -5.07443,-4.444445 c 0.3987,-0.391111 1.05113,-0.391111 1.44984,0 0.3987,0.391112 0.0725,0.711112 -0.72492,0.711112 -0.79741,0 -1.12363,-0.32 -0.72492,-0.711112 z m -6.88673,-5.155555 c 0,-0.293333 0.24466,-0.533333 0.54368,-0.533333 0.29903,0 0.54369,0.24 0.54369,0.533333 0,0.293333 -0.24466,0.533333 -0.54369,0.533333 -0.29902,0 -0.54368,-0.24 -0.54368,-0.533333 z M 64.12429,27.519476 c 0,-4.134888 -0.13362,-7.02342 1.190649,-6.196638 3.094358,1.931901 3.212328,-1.375175 3.94218,-2.368164 10.858525,-14.7733941 47.161241,-16.5785537 62.375951,-3.101657 2.04299,1.809637 3.39096,7.153784 6.16112,4.951103 2.80299,-2.228789 3.70439,12.082167 0.88958,12.082167 -2.0409,0 -10.11093,-7.478372 -7.39012,-8.287416 5.38649,-1.601697 -7.81982,-8.868583 -10.71629,-9.819474 -0.85789,-0.281639 -1.83073,-0.544753 -2.56147,-0.781928 C 102.7018,9.0270053 90.476426,12.565367 86.469921,13.7868 c -0.842647,0.256892 -2.063877,0.694602 -2.834143,0.743571 -2.724941,0.173235 -14.329257,7.677918 -10.812459,8.746188 3.154281,0.958151 -4.356696,9.609728 -6.631679,9.609728 -1.757621,0 -2.06735,-0.804054 -2.06735,-5.366811 z m 57.63107,4.333621 c 0,-0.568254 0.73398,-0.7569 1.63107,-0.419212 0.89708,0.337688 1.63106,0.802623 1.63106,1.03319 0,0.230566 -0.73398,0.419212 -1.63106,0.419212 -0.89709,0 -1.63107,-0.464936 -1.63107,-1.03319 z m -6.36117,-1.04681 c 0.46726,-1.375078 1.95871,-1.622084 2.09321,-0.346667 0.0449,0.425333 -0.50563,0.965333 -1.2233,1.2 -0.71767,0.234667 -1.10913,-0.149333 -0.86991,-0.853333 z"
       id="path2"
       sodipodi:nodetypes="sscccsssssscccccsssssssssssssssssssssssssssssssscscssscssssssccsssscssssssssssscssssssssssssccsssscssssscssscccssccssssssssssscsssssssssssssssssssssssssscssssssscssssscsssssssssssssssssssssssssssssssssssssssssscssscsssssssscscsscssssssssscssssssssssssssssssssssssssssssssssssssssssssssssssssssssssssssssssssssssssssssssssssssscss" /></g></svg>
