<?xml version="1.0" encoding="UTF-8" standalone="no"?>
<!-- Created with Inkscape (http://www.inkscape.org/) -->

<svg
   width="210mm"
   height="210mm"
   viewBox="0 0 210 210"
   version="1.1"
   id="svg1"
   xml:space="preserve"
   inkscape:version="1.3.2 (091e20e, 2023-11-25)"
   sodipodi:docname="stick_infringement.svg"
   xmlns:inkscape="http://www.inkscape.org/namespaces/inkscape"
   xmlns:sodipodi="http://sodipodi.sourceforge.net/DTD/sodipodi-0.dtd"
   xmlns="http://www.w3.org/2000/svg"
   xmlns:svg="http://www.w3.org/2000/svg"><sodipodi:namedview
     id="namedview1"
     pagecolor="#ffffff"
     bordercolor="#111111"
     borderopacity="1"
     inkscape:showpageshadow="0"
     inkscape:pageopacity="0"
     inkscape:pagecheckerboard="1"
     inkscape:deskcolor="#d1d1d1"
     inkscape:document-units="mm"
     inkscape:zoom="0.4196513"
     inkscape:cx="581.43511"
     inkscape:cy="187.06007"
     inkscape:window-width="1312"
     inkscape:window-height="564"
     inkscape:window-x="0"
     inkscape:window-y="25"
     inkscape:window-maximized="0"
     inkscape:current-layer="layer1" /><defs
     id="defs1" /><g
     inkscape:label="Layer 1"
     inkscape:groupmode="layer"
     id="layer1"><path
       style="fill:#000000"
       d="m -2.0615518,214.18779 c 0,-0.29118 0.23823,-0.52942 0.52941,-0.52942 0.29117,0 0.52941,0.23824 0.52941,0.52942 0,0.29117 -0.23824,0.52941 -0.52941,0.52941 -0.29118,0 -0.52941,-0.23824 -0.52941,-0.52941 z M 210.76198,108.29538 210.84091,-2.5467748 104.35014,-1.7984054 C 45.824878,-1.3871161 -1.351252,-6.5381261 -1.351212,-6.9748908 c 3e-5,-0.4367647 47.605023,2.1799126 106.388702,4.1787507 L 211.8208,-2.8750746 V 107.77602 c 0,58.81765 -0.23823,106.94118 -0.52941,106.94118 -0.29118,0 -0.52941,-47.88982 -0.52941,-106.42182 z M 17.573788,202.08755 c -0.334,-0.54043 0.35259,-1.28724 1.52575,-1.65959 2.8201,-0.89507 2.69074,-1.99797 -0.62304,-5.31175 -2.6465,-2.64649 -2.68207,-2.83784 -0.89472,-4.81283 2.06151,-2.27795 4.21453,-2.6556 5.28306,-0.92668 0.38662,0.62556 -0.32303,1.39721 -1.58954,1.72841 -2.26158,0.59142 -2.25463,0.63313 0.6019,3.61471 2.53335,2.64425 2.73997,3.34543 1.67474,5.68336 -1.20179,2.63762 -4.768,3.64242 -5.97815,1.68437 z m 24.25403,-1.59492 c -3.35889,-5.12632 0.57264,-13.6948 5.42866,-11.83137 2.45411,0.94173 1.71509,2.76182 -1.12139,2.76182 -3.50282,0 -4.7937,4.47705 -2.13724,7.41241 1.01189,1.11812 2.21189,1.93275 2.66667,1.81027 0.45478,-0.12247 0.99363,0.25379 1.19745,0.83614 0.20383,0.58236 -0.67135,1.20714 -1.94484,1.38841 -1.54492,0.2199 -2.90574,-0.57134 -4.08931,-2.37768 z m 15.18468,0.50095 c -1.58825,-2.54319 -2.95641,-2.8072 -2.95641,-0.5705 0,2.20237 -1.87402,1.99831 -2.43098,-0.26471 -0.38851,-1.57859 -0.30916,-5.87297 0.18098,-9.79411 0.21227,-1.69812 2.25,-1.21865 2.25,0.52941 0,2.10983 1.04779,2.00807 2.70847,-0.26304 0.74453,-1.0182 1.70737,-1.4976 2.13965,-1.06532 0.43228,0.43228 -0.005,1.66023 -0.97226,2.72877 -2.23646,2.47126 -2.20987,2.93251 0.3786,6.56768 1.26372,1.77473 1.7105,3.26436 1.09346,3.64572 -0.57385,0.35466 -1.65003,-0.3266 -2.39151,-1.5139 z m 21.933494,0.93746 c -0.526842,-0.72153 0.87818,-1.62547 -2.593285,-4.38359 -3.101614,-2.46427 -2.860039,0.006 -3.066651,4.49052 -0.08562,1.85828 -1.855482,-1.57172 -1.667144,-5.85018 0.154666,-3.51353 -0.09531,-6.68949 0.117702,-7.10082 0.771975,-1.4907 2.285436,1.02931 3.534917,4.04582 1.459928,3.52458 4.196325,2.58509 4.196325,-1.24279 0,-1.42151 0.47647,-2.58457 1.058823,-2.58457 1.309141,0 1.421779,12.35659 0.119972,13.16115 -0.516368,0.31913 -1.173818,0.18599 -1.700659,-0.53554 z m 36.542138,-2.24967 c -1.1715,-1.92147 -2.13178,-3.87906 -2.13396,-4.35019 -0.002,-0.47113 -0.48043,-0.56213 -1.06278,-0.20222 -0.58235,0.35992 -1.05882,2.1351 -1.05882,3.94484 0,5.4876 -1.39728,2.28105 -1.70892,-3.92171 -0.39183,-7.79887 1.51937,-8.7747 4.78195,-2.44162 1.72078,3.34027 3.27991,2.92055 3.27991,-0.88295 0,-1.45589 0.44243,-2.37362 0.98319,-2.03942 1.27148,0.78582 1.28578,12.00471 0.0163,12.78929 -0.53179,0.32866 -1.92538,-0.97455 -3.09688,-2.89602 z m 7.46834,0.59892 c -1.20697,-1.53442 -2.19449,-3.70019 -2.19449,-4.81284 0,-2.92069 4.8863,-7.42893 7.61609,-7.02682 3.64242,0.53654 3.64011,2.98245 -0.003,2.98245 -3.04307,0 -4.43681,1.50019 -4.43681,4.77567 0,2.19044 3.04565,4.73748 4.84106,4.04852 1.42637,-0.54735 1.42299,-0.81449 -0.0307,-2.42074 -2.26988,-2.50819 -2.04209,-3.43223 0.74841,-3.03592 1.55091,0.22027 2.5031,1.19014 2.72834,2.77899 0.79611,5.61591 -5.52891,7.46562 -9.26914,2.71069 z m 12.00626,1.34011 c -0.30598,-0.79736 -0.41014,-4.01353 -0.23148,-7.14706 0.30964,-5.43062 0.46115,-5.69732 3.23661,-5.69732 3.55322,0 3.9661,1.89174 0.5919,2.71195 l -2.44484,0.5943 2.38235,1.29589 c 3.00185,1.63288 3.03348,2.92178 0.0906,3.69137 -1.93572,0.5062 -2.08008,0.85438 -0.92917,2.24113 0.74942,0.90301 2.04708,1.64183 2.88367,1.64183 0.83659,0 1.2266,0.47647 0.86669,1.05883 -0.97293,1.57423 -5.80465,1.28122 -6.44631,-0.39092 z m 27.35807,0.7485 c -1.7229,-0.6952 -1.76592,-11.13872 -0.0529,-12.8517 1.68761,-1.68761 6.45025,-1.6684 5.88621,0.0237 -0.2373,0.71188 -1.5873,1.5749 -3,1.91783 l -2.56856,0.62351 2.38235,1.29589 c 2.7148,1.47674 3.15771,3.33904 0.79412,3.33904 -2.36455,0 -1.92151,3.28757 0.52941,3.9285 1.1647,0.30458 2.11765,0.97468 2.11765,1.48911 0,0.98834 -3.85197,1.13645 -6.08824,0.23409 z m 15.95581,-0.60502 c -0.47684,-0.73744 -1.34359,-2.25611 -1.9261,-3.37483 -1.53477,-2.94752 -3.26932,-3.14287 -3.21962,-0.36261 0.0236,1.31815 -0.43362,2.50928 -1.01597,2.64696 -1.50996,0.35696 -1.32546,-10.2659 0.20031,-11.53329 0.90342,-0.75044 1.85797,0.0973 3.37884,3.00088 l 2.1197,4.0468 0.7241,-3.44118 c 1.16387,-5.53105 2.57705,-3.96859 2.57705,2.84928 0,6.22889 -1.16371,8.75777 -2.83831,6.16799 z m -149.632282,-4.9334 c 0,-3.62843 -0.47591,-5.36346 -1.58824,-5.7903 -2.88878,-1.10853 -1.64914,-2.79357 2.05516,-2.79357 3.93139,0 6.00183,1.73336 3.30607,2.76782 -1.18916,0.45632 -1.65535,2.09427 -1.65535,5.81605 0,2.84946 -0.47647,5.18084 -1.05882,5.18084 -0.58235,0 -1.05882,-2.33138 -1.05882,-5.18084 z m 7.41176,-1.17211 c 0,-3.52941 0.47059,-6.35294 1.05883,-6.35294 0.58823,0 1.05882,2.82353 1.05882,6.35294 0,3.52942 -0.47059,6.35295 -1.05882,6.35295 -0.58824,0 -1.05883,-2.82353 -1.05883,-6.35295 z m 30.07644,4.88584 c -0.98439,-2.56529 0.0479,-10.52765 1.423563,-10.98001 0.961476,-0.31618 1.323529,1.32676 1.323529,6.00594 0,6.00438 -1.387595,8.51686 -2.747092,4.97407 z m 18.629445,-5.41525 c 0,-6.59092 0.109443,-6.88235 2.58457,-6.88235 3.351344,0 5.42459,2.32567 2.452132,2.08904 -2.590741,-0.20624 -4.43856,3.85856 -2.025692,3.85856 0.873529,0 2.283108,0.83083 2.283108,1.35088 0,0.52005 -1.409579,0.52493 -2.283108,0.86014 -0.87353,0.3352 -0.893363,2.27222 -0.893363,3.45521 0,1.18298 -0.47647,2.15088 -1.058823,2.15088 -0.597285,0 -1.058824,-3 -1.058824,-6.88236 z m 8.68477,0.26471 c 0.287954,-6.04503 0.531941,-6.64831 2.819703,-6.972 3.69207,-0.52238 2.0703,2.75842 4.744374,8.42033 2.01986,4.27672 -0.71888,6.94549 -1.954734,3.05167 -0.369658,-1.16471 -1.16108,-2.11765 -1.758709,-2.11765 -0.597629,0 -1.335798,0.95294 -1.640375,2.11765 -1.179678,4.51109 -2.51044,1.80172 -2.210259,-4.5 z m 5.079936,-2.38235 c 0,-0.87353 -0.714706,-1.58824 -1.588235,-1.58824 -0.87353,0 -1.588235,0.71471 -1.588235,1.58824 0,0.87353 0.714705,1.58823 1.588235,1.58823 0.873529,0 1.588235,-0.7147 1.588235,-1.58823 z m 5.931091,2.64705 c 0,-4.75294 -0.27687,-6.40938 0.68656,-6.08823 0.83824,0.27941 0.74447,2.51176 0.74447,6.08823 0,3.57648 0.0938,5.80883 -0.74447,6.08824 -0.96343,0.32114 -0.68656,-1.33529 -0.68656,-6.08824 z m 39.59832,0.11329 c 0,-4.62473 0.4194,-6.4006 1.62045,-6.86148 1.5452,-0.59295 2.43297,0.70143 4.08371,5.95408 0.99984,3.18148 3.40776,2.03113 4.43263,-2.11765 0.58981,-2.38759 1.61406,-3.97059 2.5691,-3.97059 1.20873,0 1.66356,1.58128 1.90346,6.61765 0.19566,4.10739 -0.10557,6.61765 -0.79411,6.61765 -0.61015,0 -1.10935,-1.75872 -1.10935,-3.90826 0,-3.66375 -0.0973,-3.77967 -1.55456,-1.85294 -0.85501,1.13042 -1.56972,2.88914 -1.58824,3.90825 -0.0526,2.89631 -3.12663,2.17293 -4.49945,-1.05882 l -1.23689,-2.91176 -0.39546,2.91176 c -0.22254,1.63849 -1.05924,2.91177 -1.91338,2.91177 -1.14627,0 -1.51791,-1.52767 -1.51791,-6.23966 z m 42.25035,4.91613 c -0.0564,-0.72794 -0.0246,-3.04709 0.0708,-5.15366 0.11851,-2.61751 -0.35184,-4.03169 -1.48564,-4.46677 -2.94932,-1.13176 -1.76115,-2.82075 1.98433,-2.82075 3.93139,0 6.00183,1.73336 3.30607,2.76782 -1.18916,0.45632 -1.65535,2.09427 -1.65535,5.81605 0,2.84946 -0.47647,5.18084 -1.05882,5.18084 -0.58235,0 -1.10499,-0.59559 -1.16142,-1.32353 z M 82.106531,143.53245 c -0.268153,-0.73957 -0.614201,-6.10937 -0.768996,-11.9329 L 81.056091,121.01132 70.12754,120.70873 c -7.399112,-0.20486 -10.802452,-0.68088 -10.538092,-1.47397 0.25534,-0.76601 3.81815,-1.09605 10.295087,-0.95369 6.868998,0.15098 10.149871,-0.17912 10.70483,-1.07706 1.273184,-2.06006 -0.07799,-4.13387 -2.69338,-4.13387 -1.322271,0 -3.058058,-0.80392 -3.857306,-1.78648 -1.297225,-1.59476 -1.225916,-1.68325 0.664471,-0.82458 1.164706,0.52905 10.694117,1.21385 21.17647,1.52178 10.48236,0.30793 19.6325,0.9318 20.33366,1.38638 2.14094,1.38803 6.33218,-0.30972 7.59232,-3.07542 1.8495,-4.05922 1.42145,-7.45288 -1.3121,-10.402424 -2.94523,-3.177956 -4.53655,-3.365975 -7.30251,-0.862813 -1.11752,1.011337 -3.43944,1.909587 -5.15982,1.996107 -1.72039,0.0865 -3.97815,0.92671 -5.01725,1.86709 -2.35972,2.13551 -3.96391,2.17654 -4.75249,0.12154 -0.445334,-1.16052 -2.272266,-1.58824 -6.783873,-1.58824 -6.479402,0 -8.715584,-1.17896 -8.715584,-4.595039 0,-7.065874 -13.687028,-5.802077 -13.81525,1.275636 -0.04067,2.244883 -0.373081,1.868387 -1.701357,-1.926977 -2.127308,-6.078477 -1.458958,-15.012744 1.412791,-18.885767 3.175037,-4.282058 9.686641,-7.595013 14.967542,-7.615142 2.513285,-0.0096 5.491226,-0.510653 6.617648,-1.113495 1.580469,-0.845842 2.048038,-0.750839 2.048038,0.416129 0,1.687749 1.978234,2.719395 3.915979,2.042178 0.942202,-0.329287 0.976432,-1.085425 0.13293,-2.9367 -0.663796,-1.456875 -1.741393,-2.260913 -2.59245,-1.934332 -0.832993,0.319649 -1.456459,-0.113975 -1.456459,-1.012975 0,-0.864528 -0.714706,-2.165023 -1.588235,-2.889988 -0.87353,-0.724965 -1.588236,-2.33634 -1.588236,-3.580833 0,-1.244493 -0.978668,-2.873904 -2.174818,-3.620912 -1.493583,-0.932757 -1.968729,-2.007531 -1.516884,-3.431167 0.372701,-1.174279 0.167972,-2.07297 -0.47224,-2.07297 -0.621596,0 -1.130175,-1.429412 -1.130175,-3.176471 0,-1.747059 0.527447,-3.176471 1.172106,-3.176471 0.644658,0 0.884262,-0.750108 0.532453,-1.666907 -1.369029,-3.567631 2.156145,-4.922895 14.302414,-5.498604 l 11.66317,-0.552812 -0.20279,-4.876133 c -0.11154,-2.681872 0.0767,-5.590838 0.41824,-6.464367 0.34157,-0.87353 0.75852,-3.255882 0.92655,-5.294118 0.27566,-3.343873 0.6158,-3.705882 3.48198,-3.705882 3.02649,0 3.18677,0.224971 3.39472,4.764706 0.12004,2.620588 0.74285,10.352972 1.38403,17.183076 1.05438,11.231693 0.98449,12.799973 -0.73135,16.411765 -1.33957,2.819754 -2.00254,3.448823 -2.25579,2.140453 -0.52282,-2.701073 -2.85198,-2.265458 -4.24601,0.794118 -0.9977,2.189709 -1.94751,2.647058 -5.49731,2.647058 -4.23955,0 -6.99463,2.474819 -4.5392,4.07745 1.21079,0.79027 1.42938,2.47612 1.46205,11.275492 0.029,7.815502 0.63924,10.058823 2.73624,10.058823 1.30058,0 1.50118,-0.895053 1.00852,-4.5 -1.93259,-14.141522 -1.93918,-14.486801 -0.30763,-16.118355 0.88932,-0.889317 2.58024,-1.616939 3.7576,-1.616939 1.17737,0 2.62632,-0.833824 3.21991,-1.852941 0.95735,-1.643669 1.08287,-1.656463 1.11143,-0.113283 0.0177,0.956813 -0.68251,2.013918 -1.55604,2.349122 -1.7778,0.682209 -2.0245,2.582827 -0.6226,4.796685 0.91188,1.440033 3.32311,1.782636 14.66757,2.084066 4.71621,0.125314 6.14396,0.677875 9.27428,3.589292 2.9629,2.755699 3.77713,4.390299 4.08752,8.205882 0.21319,2.620589 0.16729,3.589623 -0.102,2.15341 -0.61732,-3.292462 -5.02092,-7.447527 -7.89298,-7.447527 -1.20175,0 -3.76247,1.722194 -5.69049,3.827098 -2.91283,3.180078 -4.36904,3.898336 -8.61339,4.248474 -3.75119,0.309455 -4.54544,0.156408 -2.99026,-0.576207 1.16471,-0.548672 3.46765,-1.031073 5.11765,-1.072004 4.8578,-0.120506 2.72577,-2.576094 -3.42197,-3.941293 -6.51205,-1.4461 -6.61767,-1.320206 -5.90906,7.043344 0.27137,3.202941 0.50191,6.895588 0.51231,8.205882 0.0182,2.295526 0.37179,2.382353 9.70122,2.382353 8.74798,0 10.02404,-0.260641 13.22344,-2.700944 1.94761,-1.485519 3.54112,-3.391401 3.54112,-4.235294 0,-0.843893 0.47647,-1.53435 1.05882,-1.53435 1.96149,0 1.07922,2.867301 -1.75407,5.700593 -2.74397,2.743975 -4.47634,3.455242 -9.89299,4.061808 -2.61697,0.293053 -2.64706,0.410762 -2.64706,10.355246 v 10.05883 l 10.32353,0.30304 c 5.67794,0.16668 10.32353,0.74501 10.32353,1.28519 0,0.54018 -4.64559,1.11851 -10.32353,1.28519 l -10.32353,0.30305 -0.52941,11.64705 -0.52941,11.64706 -22.52512,0.28584 c -17.45499,0.2215 -22.63487,-0.0168 -23.012679,-1.05882 z m 43.115389,-2.66819 c 0.19229,-0.43677 0.1854,-4.96324 -0.0153,-10.05883 l -0.36493,-9.2647 H 104.27242 83.70315 v 9.35294 c 0,5.14412 0.317647,9.67059 0.705882,10.05882 0.978255,0.97826 40.380848,0.89307 40.812888,-0.0882 z m -9.88346,-25.09999 c -0.73363,-0.73363 -30.627047,-0.87886 -31.353592,-0.15232 -0.349062,0.34906 6.671223,0.63466 15.600638,0.63466 8.929414,0 16.018244,-0.21705 15.752954,-0.48234 z m 10.71763,-0.57648 c 0,-1.32663 -1.12366,-1.32663 -3.17647,0 -1.28431,0.82998 -1.13234,1.0295 0.79412,1.04261 1.3103,0.009 2.38235,-0.46026 2.38235,-1.04261 z M 103.8208,98.77602 c 0,-0.87353 -0.47647,-1.588236 -1.05882,-1.588236 -0.58236,0 -1.05883,0.714706 -1.05883,1.588236 0,0.873529 0.47647,1.58823 1.05883,1.58823 0.58235,0 1.05882,-0.714701 1.05882,-1.58823 z M 94.63279,85.960942 C 94.43952,79.203826 94.017283,73.247943 93.694487,72.725648 92.099346,70.144656 79.29213,72.866867 75.075062,76.683261 c -2.59297,2.346605 -5.136618,8.164509 -5.136618,11.748616 0,2.365387 0.295485,2.549062 2.911765,1.809963 1.60147,-0.452416 3.983823,-0.861422 5.294117,-0.908903 1.719424,-0.06231 2.382353,-0.731869 2.382353,-2.406193 0,-2.620498 1.156368,-3.715002 2.788883,-2.639683 1.401104,0.92289 3.564058,7.18797 3.564058,10.32343 0,2.624316 1.211566,3.42496 5.375815,3.552526 l 2.728757,0.08359 z m 15.03368,8.151172 c -0.38751,-1.764329 -0.19766,-3.37101 0.44528,-3.768371 1.67675,-1.036288 1.35144,-4.803017 -0.41481,-4.803017 -2.30646,0 -3.33624,2.639548 -2.8832,7.390222 0.2729,2.861594 0.91765,4.256836 1.96711,4.256836 1.1724,0 1.39293,-0.765894 0.88562,-3.07567 z m -5.84567,-1.689035 c 0,-0.87353 -0.44835,-1.588236 -0.99633,-1.588236 -1.33516,0 -2.2914,1.653448 -1.44547,2.499374 1.19243,1.19243 2.4418,0.726237 2.4418,-0.911138 z m -4.235294,-3.176471 c 0,-0.291177 -0.23824,-0.529412 -0.52942,-0.529412 -0.291172,0 -0.529407,0.238235 -0.529407,0.529412 0,0.291176 0.238235,0.529412 0.529407,0.529412 0.29118,0 0.52942,-0.238236 0.52942,-0.529412 z m 4.235294,-3.176471 c 0,-0.873529 -0.47647,-1.588235 -1.05882,-1.588235 -0.58236,0 -1.05883,0.714706 -1.05883,1.588235 0,0.87353 0.47647,1.588236 1.05883,1.588236 0.58235,0 1.05882,-0.714706 1.05882,-1.588236 z m 0,-6.352941 c 0,-0.873529 -0.47647,-1.588235 -1.05882,-1.588235 -0.58236,0 -1.05883,0.714706 -1.05883,1.588235 0,0.87353 0.47647,1.588235 1.05883,1.588235 0.58235,0 1.05882,-0.714705 1.05882,-1.588235 z m -4.588234,-3.352941 c -0.38824,-0.388235 -0.705887,-0.07059 -0.705887,0.705882 0,0.776471 0.317647,1.094118 0.705887,0.705883 0.38823,-0.388236 0.38823,-1.02353 0,-1.411765 z m 34.574304,-3.794118 c -0.87348,-1.494963 -16.928,-0.90605 -18.23509,0.668902 -0.99918,1.203936 -0.18132,1.59207 4.61837,2.191751 3.20791,0.400802 6.08864,1.143063 6.40161,1.649468 0.68803,1.113255 7.87563,-3.379664 7.21511,-4.510121 z M 103.8208,67.011314 c 0,-0.87353 -0.42549,-1.588235 -0.94554,-1.588235 -0.52005,0 -1.2198,0.714705 -1.555,1.588235 -0.37125,0.967458 -0.002,1.588235 0.94554,1.588235 0.85525,0 1.555,-0.714706 1.555,-1.588235 z m -3.59536,-3.441177 c 0.31541,-1.019117 0.98858,-2.637739 1.49594,-3.596936 0.74911,-1.416244 0.28686,-1.83364 -2.459644,-2.221006 -1.860166,-0.262356 -4.215939,-0.838829 -5.235057,-1.281052 -2.959409,-1.284167 -2.321983,2.900006 0.938503,6.160492 3.267512,3.267512 4.472884,3.482567 5.260258,0.938502 z m 3.24242,-0.970588 c -0.38824,-0.388235 -1.02353,-0.388235 -1.41177,0 -0.38823,0.388235 -0.0706,0.705882 0.70589,0.705882 0.77647,0 1.09411,-0.317647 0.70588,-0.705882 z m 10.20748,-8.362239 c 1.26011,-0.483549 1.33584,-1.183838 0.39701,-3.671089 -0.90494,-2.397462 -1.6533,-2.949782 -3.40206,-2.51087 -2.9652,0.744218 -5.88647,-2.416137 -3.60493,-3.899979 0.83608,-0.543764 2.59221,-0.736607 3.9025,-0.42854 1.99541,0.469147 2.38235,0.120459 2.38235,-2.146843 v -2.706965 l -9.73788,0.304439 -9.737892,0.304439 -2.024771,3.472222 c -1.758107,3.014926 -1.847921,3.899174 -0.681958,6.714059 0.738547,1.78301 2.339095,3.644721 3.556774,4.137134 2.515954,1.017419 16.589247,1.338226 18.950857,0.431993 z M 93.860876,46.769596 c -0.773727,-2.0163 1.107961,-3.73851 3.60698,-3.301278 0.873529,0.152834 1.58823,1.224295 1.58823,2.381026 0,2.732177 -4.213505,3.478535 -5.19521,0.920252 z m 25.842274,-8.346517 c 0,-9.176471 -0.27731,-11.117648 -1.58823,-11.117648 -1.31093,0 -1.58824,1.941177 -1.58824,11.117648 0,9.17647 0.27731,11.117647 1.58824,11.117647 1.31092,0 1.58823,-1.941177 1.58823,-11.117647 z M 72.223274,104.59955 c 0,-1.45588 0.240325,-2.05147 0.534055,-1.32353 0.293731,0.72794 0.293731,1.91912 0,2.64706 -0.29373,0.72794 -0.534055,0.13235 -0.534055,-1.32353 z M 91.259107,31.440124 c -0.247823,-4.722379 3.223772,-6.733293 11.861233,-6.870593 6.59147,-0.104776 6.7635,-0.06503 1.31585,0.304023 -6.993661,0.473788 -11.843079,3.154958 -12.576871,6.953563 -0.408589,2.115138 -0.471016,2.074888 -0.600212,-0.386993 z"
       id="path1"
       sodipodi:nodetypes="sssssscscscssssssssssssssssssssssssssscsssssssssssssscssssssssscssssscssccsssscssssssssssscsssssssssssscsssssssssssssssssssssssssssssssssssssssssssssssssssssssscsssssssssssssscsssssssssssssssssssssssssssssssssssscscssssssssssssssssssssssssssssssssssssscssscccsssscccsssssssssscsssssssssssssssscsssssssssssssssssssssssssssssssssssssssssssssssssssssssscccssssssssssssssssssssss" /><path
       style="fill:#000000"
       d="m -2.0615518,214.18779 c 0,-0.29118 0.23823,-0.52942 0.52941,-0.52942 0.29117,0 0.52941,0.23824 0.52941,0.52942 0,0.29117 -0.23824,0.52941 -0.52941,0.52941 -0.29118,0 -0.52941,-0.23824 -0.52941,-0.52941 z M 210.76198,108.29538 210.91985,-2.3099716 104.35014,-2.2720119 C 45.823437,-2.251165 -2.0616618,-10.090175 -2.0616218,-4.2121862 c 3e-5,-4.9360265 48.1238458,2.8526517 106.9412418,2.6789968 L 211.8208,-1.8489271 V 107.77602 c 0,58.81765 -0.23823,106.94118 -0.52941,106.94118 -0.29118,0 -0.52941,-47.88982 -0.52941,-106.42182 z M 17.573788,202.08755 c -0.334,-0.54043 0.35259,-1.28724 1.52575,-1.65959 2.8201,-0.89507 2.69074,-1.99797 -0.62304,-5.31175 -2.6465,-2.64649 -2.68207,-2.83784 -0.89472,-4.81283 2.06151,-2.27795 4.21453,-2.6556 5.28306,-0.92668 0.38662,0.62556 -0.32303,1.39721 -1.58954,1.72841 -2.26158,0.59142 -2.25463,0.63313 0.6019,3.61471 2.53335,2.64425 2.73997,3.34543 1.67474,5.68336 -1.20179,2.63762 -4.768,3.64242 -5.97815,1.68437 z m 24.25403,-1.59492 c -3.35889,-5.12632 0.57264,-13.6948 5.42866,-11.83137 2.45411,0.94173 1.71509,2.76182 -1.12139,2.76182 -3.50282,0 -4.7937,4.47705 -2.13724,7.41241 1.01189,1.11812 2.21189,1.93275 2.66667,1.81027 0.45478,-0.12247 0.99363,0.25379 1.19745,0.83614 0.20383,0.58236 -0.67135,1.20714 -1.94484,1.38841 -1.54492,0.2199 -2.90574,-0.57134 -4.08931,-2.37768 z m 15.18468,0.50095 c -1.58825,-2.54319 -2.95641,-2.8072 -2.95641,-0.5705 0,2.20237 -1.87402,1.99831 -2.43098,-0.26471 -0.38851,-1.57859 -0.30916,-5.87297 0.18098,-9.79411 0.21227,-1.69812 2.25,-1.21865 2.25,0.52941 0,2.10983 1.04779,2.00807 2.70847,-0.26304 0.74453,-1.0182 1.70737,-1.4976 2.13965,-1.06532 0.43228,0.43228 -0.005,1.66023 -0.97226,2.72877 -2.23646,2.47126 -2.20987,2.93251 0.3786,6.56768 1.26372,1.77473 1.7105,3.26436 1.09346,3.64572 -0.57385,0.35466 -1.65003,-0.3266 -2.39151,-1.5139 z m 21.933494,0.93746 c -0.526842,-0.72153 0.87818,-1.62547 -2.593285,-4.38359 -3.101614,-2.46427 -2.860039,0.006 -3.066651,4.49052 -0.08562,1.85828 -1.855482,-1.57172 -1.667144,-5.85018 0.154666,-3.51353 -0.09531,-6.68949 0.117702,-7.10082 0.771975,-1.4907 2.285436,1.02931 3.534917,4.04582 1.459928,3.52458 4.196325,2.58509 4.196325,-1.24279 0,-1.42151 0.47647,-2.58457 1.058823,-2.58457 1.309141,0 1.421779,12.35659 0.119972,13.16115 -0.516368,0.31913 -1.173818,0.18599 -1.700659,-0.53554 z m 36.542138,-2.24967 c -1.1715,-1.92147 -2.13178,-3.87906 -2.13396,-4.35019 -0.002,-0.47113 -0.48043,-0.56213 -1.06278,-0.20222 -0.58235,0.35992 -1.05882,2.1351 -1.05882,3.94484 0,5.4876 -1.39728,2.28105 -1.70892,-3.92171 -0.39183,-7.79887 1.51937,-8.7747 4.78195,-2.44162 1.72078,3.34027 3.27991,2.92055 3.27991,-0.88295 0,-1.45589 0.44243,-2.37362 0.98319,-2.03942 1.27148,0.78582 1.28578,12.00471 0.0163,12.78929 -0.53179,0.32866 -1.92538,-0.97455 -3.09688,-2.89602 z m 7.46834,0.59892 c -1.20697,-1.53442 -2.19449,-3.70019 -2.19449,-4.81284 0,-2.92069 4.8863,-7.42893 7.61609,-7.02682 3.64242,0.53654 3.64011,2.98245 -0.003,2.98245 -3.04307,0 -4.43681,1.50019 -4.43681,4.77567 0,2.19044 3.04565,4.73748 4.84106,4.04852 1.42637,-0.54735 1.42299,-0.81449 -0.0307,-2.42074 -2.26988,-2.50819 -2.04209,-3.43223 0.74841,-3.03592 1.55091,0.22027 2.5031,1.19014 2.72834,2.77899 0.79611,5.61591 -5.52891,7.46562 -9.26914,2.71069 z m 12.00626,1.34011 c -0.30598,-0.79736 -0.41014,-4.01353 -0.23148,-7.14706 0.30964,-5.43062 0.46115,-5.69732 3.23661,-5.69732 3.55322,0 3.9661,1.89174 0.5919,2.71195 l -2.44484,0.5943 2.38235,1.29589 c 3.00185,1.63288 3.03348,2.92178 0.0906,3.69137 -1.93572,0.5062 -2.08008,0.85438 -0.92917,2.24113 0.74942,0.90301 2.04708,1.64183 2.88367,1.64183 0.83659,0 1.2266,0.47647 0.86669,1.05883 -0.97293,1.57423 -5.80465,1.28122 -6.44631,-0.39092 z m 27.35807,0.7485 c -1.7229,-0.6952 -1.76592,-11.13872 -0.0529,-12.8517 1.68761,-1.68761 6.45025,-1.6684 5.88621,0.0237 -0.2373,0.71188 -1.5873,1.5749 -3,1.91783 l -2.56856,0.62351 2.38235,1.29589 c 2.7148,1.47674 3.15771,3.33904 0.79412,3.33904 -2.36455,0 -1.92151,3.28757 0.52941,3.9285 1.1647,0.30458 2.11765,0.97468 2.11765,1.48911 0,0.98834 -3.85197,1.13645 -6.08824,0.23409 z m 15.95581,-0.60502 c -0.47684,-0.73744 -1.34359,-2.25611 -1.9261,-3.37483 -1.53477,-2.94752 -3.26932,-3.14287 -3.21962,-0.36261 0.0236,1.31815 -0.43362,2.50928 -1.01597,2.64696 -1.50996,0.35696 -1.32546,-10.2659 0.20031,-11.53329 0.90342,-0.75044 1.85797,0.0973 3.37884,3.00088 l 2.1197,4.0468 0.7241,-3.44118 c 1.16387,-5.53105 2.57705,-3.96859 2.57705,2.84928 0,6.22889 -1.16371,8.75777 -2.83831,6.16799 z m -149.632282,-4.9334 c 0,-3.62843 -0.47591,-5.36346 -1.58824,-5.7903 -2.88878,-1.10853 -1.64914,-2.79357 2.05516,-2.79357 3.93139,0 6.00183,1.73336 3.30607,2.76782 -1.18916,0.45632 -1.65535,2.09427 -1.65535,5.81605 0,2.84946 -0.47647,5.18084 -1.05882,5.18084 -0.58235,0 -1.05882,-2.33138 -1.05882,-5.18084 z m 7.41176,-1.17211 c 0,-3.52941 0.47059,-6.35294 1.05883,-6.35294 0.58823,0 1.05882,2.82353 1.05882,6.35294 0,3.52942 -0.47059,6.35295 -1.05882,6.35295 -0.58824,0 -1.05883,-2.82353 -1.05883,-6.35295 z m 30.07644,4.88584 c -0.98439,-2.56529 0.0479,-10.52765 1.423563,-10.98001 0.961476,-0.31618 1.323529,1.32676 1.323529,6.00594 0,6.00438 -1.387595,8.51686 -2.747092,4.97407 z m 18.629445,-5.41525 c 0,-6.59092 0.109443,-6.88235 2.58457,-6.88235 3.351344,0 5.42459,2.32567 2.452132,2.08904 -2.590741,-0.20624 -4.43856,3.85856 -2.025692,3.85856 0.873529,0 2.283108,0.83083 2.283108,1.35088 0,0.52005 -1.409579,0.52493 -2.283108,0.86014 -0.87353,0.3352 -0.893363,2.27222 -0.893363,3.45521 0,1.18298 -0.47647,2.15088 -1.058823,2.15088 -0.597285,0 -1.058824,-3 -1.058824,-6.88236 z m 8.68477,0.26471 c 0.287954,-6.04503 -0.646484,-6.94292 1.641278,-7.26661 3.69207,-0.52238 9.111249,0.86916 5.549489,7.36579 -2.273758,4.14732 0.55774,7.4365 -0.678117,3.54268 -0.369658,-1.16471 -2.064387,-1.25951 -2.662016,-1.25951 -0.597629,0 -1.335798,0.95294 -1.640375,2.11765 -1.179678,4.51109 -2.51044,1.80172 -2.210259,-4.5 z m 5.079936,-2.38235 c 0,-0.87353 -0.714706,-1.58824 -1.588235,-1.58824 -0.87353,0 -1.588235,0.71471 -1.588235,1.58824 0,0.87353 0.714705,1.58823 1.588235,1.58823 0.873529,0 1.588235,-0.7147 1.588235,-1.58823 z m 5.931091,2.64705 c 0,-4.75294 -0.27687,-6.40938 0.68656,-6.08823 0.83824,0.27941 0.74447,2.51176 0.74447,6.08823 0,3.57648 0.0938,5.80883 -0.74447,6.08824 -0.96343,0.32114 -0.68656,-1.33529 -0.68656,-6.08824 z m 39.59832,0.11329 c 0,-4.62473 0.4194,-6.4006 1.62045,-6.86148 1.5452,-0.59295 2.43297,0.70143 4.08371,5.95408 0.99984,3.18148 3.40776,2.03113 4.43263,-2.11765 0.58981,-2.38759 1.61406,-3.97059 2.5691,-3.97059 1.20873,0 1.66356,1.58128 1.90346,6.61765 0.19566,4.10739 -0.10557,6.61765 -0.79411,6.61765 -0.61015,0 -1.10935,-1.75872 -1.10935,-3.90826 0,-3.66375 -0.0973,-3.77967 -1.55456,-1.85294 -0.85501,1.13042 -1.56972,2.88914 -1.58824,3.90825 -0.0526,2.89631 -3.12663,2.17293 -4.49945,-1.05882 l -1.23689,-2.91176 -0.39546,2.91176 c -0.22254,1.63849 -1.05924,2.91177 -1.91338,2.91177 -1.14627,0 -1.51791,-1.52767 -1.51791,-6.23966 z m 42.25035,4.91613 c -0.0564,-0.72794 -0.0246,-3.04709 0.0708,-5.15366 0.11851,-2.61751 -0.35184,-4.03169 -1.48564,-4.46677 -2.94932,-1.13176 -1.76115,-2.82075 1.98433,-2.82075 3.93139,0 6.00183,1.73336 3.30607,2.76782 -1.18916,0.45632 -1.65535,2.09427 -1.65535,5.81605 0,2.84946 -0.47647,5.18084 -1.05882,5.18084 -0.58235,0 -1.10499,-0.59559 -1.16142,-1.32353 z M 82.106531,143.53245 c -0.268153,-0.73957 -0.614201,-6.10937 -0.768996,-11.9329 L 81.056091,121.01132 70.12754,120.70873 c -7.399112,-0.20486 -10.802452,-0.68088 -10.538092,-1.47397 0.25534,-0.76601 3.81815,-1.09605 10.295087,-0.95369 6.868998,0.15098 10.149871,-0.17912 10.70483,-1.07706 1.273184,-2.06006 -0.07799,-4.13387 -2.69338,-4.13387 -1.322271,0 -3.058058,-0.80392 -3.857306,-1.78648 -1.297225,-1.59476 -1.225916,-1.68325 0.664471,-0.82458 1.164706,0.52905 10.694117,1.21385 21.17647,1.52178 10.48236,0.30793 19.6325,0.9318 20.33366,1.38638 2.14094,1.38803 6.33218,-0.30972 7.59232,-3.07542 1.8495,-4.05922 1.42145,-7.45288 -1.3121,-10.402424 -2.94523,-3.177956 -4.53655,-3.365975 -7.30251,-0.862813 -1.11752,1.011337 -3.43944,1.909587 -5.15982,1.996107 -1.72039,0.0865 -3.97815,0.92671 -5.01725,1.86709 -2.35972,2.13551 -3.96391,2.17654 -4.75249,0.12154 -0.445334,-1.16052 -2.272266,-1.58824 -6.783873,-1.58824 -6.479402,0 -8.715584,-1.17896 -8.715584,-4.595039 0,-7.065874 -13.687028,-5.802077 -13.81525,1.275636 -0.04067,2.244883 -0.373081,1.868387 -1.701357,-1.926977 -2.127308,-6.078477 -1.458958,-15.012744 1.412791,-18.885767 3.175037,-4.282058 9.686641,-7.595013 14.967542,-7.615142 2.513285,-0.0096 5.491226,-0.510653 6.617648,-1.113495 1.580469,-0.845842 2.048038,-0.750839 2.048038,0.416129 0,1.687749 1.978234,2.719395 3.915979,2.042178 0.942202,-0.329287 0.976432,-1.085425 0.13293,-2.9367 -0.663796,-1.456875 -1.741393,-2.260913 -2.59245,-1.934332 -0.832993,0.319649 -1.456459,-0.113975 -1.456459,-1.012975 0,-0.864528 -0.714706,-2.165023 -1.588235,-2.889988 -0.87353,-0.724965 -1.588236,-2.33634 -1.588236,-3.580833 0,-1.244493 -0.978668,-2.873904 -2.174818,-3.620912 -1.493583,-0.932757 -1.968729,-2.007531 -1.516884,-3.431167 0.372701,-1.174279 0.167972,-2.07297 -0.47224,-2.07297 -0.621596,0 -1.130175,-1.429412 -1.130175,-3.176471 0,-1.747059 0.527447,-3.176471 1.172106,-3.176471 0.644658,0 0.884262,-0.750108 0.532453,-1.666907 -1.369029,-3.567631 2.156145,-4.922895 14.302414,-5.498604 l 11.66317,-0.552812 -0.20279,-4.876133 c -0.11154,-2.681872 0.0767,-5.590838 0.41824,-6.464367 0.34157,-0.87353 0.75852,-3.255882 0.92655,-5.294118 0.27566,-3.343873 0.6158,-3.705882 3.48198,-3.705882 3.02649,0 3.18677,0.224971 3.39472,4.764706 0.12004,2.620588 0.74285,10.352972 1.38403,17.183076 1.05438,11.231693 0.98449,12.799973 -0.73135,16.411765 -1.33957,2.819754 -2.00254,3.448823 -2.25579,2.140453 -0.52282,-2.701073 -2.85198,-2.265458 -4.24601,0.794118 -0.9977,2.189709 -1.94751,2.647058 -5.49731,2.647058 -4.23955,0 -6.99463,2.474819 -4.5392,4.07745 1.21079,0.79027 1.42938,2.47612 1.46205,11.275492 0.029,7.815502 0.63924,10.058823 2.73624,10.058823 1.30058,0 1.50118,-0.895053 1.00852,-4.5 -1.93259,-14.141522 -1.93918,-14.486801 -0.30763,-16.118355 0.88932,-0.889317 2.58024,-1.616939 3.7576,-1.616939 1.17737,0 2.62632,-0.833824 3.21991,-1.852941 0.95735,-1.643669 1.08287,-1.656463 1.11143,-0.113283 0.0177,0.956813 -0.68251,2.013918 -1.55604,2.349122 -1.7778,0.682209 -2.0245,2.582827 -0.6226,4.796685 0.91188,1.440033 3.32311,1.782636 14.66757,2.084066 4.71621,0.125314 6.14396,0.677875 9.27428,3.589292 2.9629,2.755699 3.77713,4.390299 4.08752,8.205882 0.21319,2.620589 0.16729,3.589623 -0.102,2.15341 -0.61732,-3.292462 -5.02092,-7.447527 -7.89298,-7.447527 -1.20175,0 -3.76247,1.722194 -5.69049,3.827098 -2.91283,3.180078 -4.36904,3.898336 -8.61339,4.248474 -3.75119,0.309455 -4.54544,0.156408 -2.99026,-0.576207 1.16471,-0.548672 3.46765,-1.031073 5.11765,-1.072004 4.8578,-0.120506 2.72577,-2.576094 -3.42197,-3.941293 -6.51205,-1.4461 -6.61767,-1.320206 -5.90906,7.043344 0.27137,3.202941 0.27723,6.333896 0.28763,7.64419 0.0182,2.295526 0.59647,2.944045 9.9259,2.944045 8.74798,0 10.02404,-0.260641 13.22344,-2.700944 1.94761,-1.485519 3.54112,-3.391401 3.54112,-4.235294 0,-0.843893 0.47647,-1.53435 1.05882,-1.53435 1.96149,0 1.07922,2.867301 -1.75407,5.700593 -2.74397,2.743975 -4.47634,3.455242 -9.89299,4.061808 -2.61697,0.293053 -2.64706,0.410762 -2.64706,10.355246 v 10.05883 l 10.32353,0.30304 c 5.67794,0.16668 10.32353,0.74501 10.32353,1.28519 0,0.54018 -4.64559,1.11851 -10.32353,1.28519 l -10.32353,0.30305 -0.52941,11.64705 -0.52941,11.64706 -22.52512,0.28584 c -17.45499,0.2215 -22.63487,-0.0168 -23.012679,-1.05882 z m 43.115389,-2.66819 c 0.19229,-0.43677 0.1854,-4.96324 -0.0153,-10.05883 l -0.36493,-9.2647 H 104.27242 83.70315 v 9.35294 c 0,5.14412 0.317647,9.67059 0.705882,10.05882 0.978255,0.97826 40.380848,0.89307 40.812888,-0.0882 z m -9.88346,-25.09999 c -0.73363,-0.73363 -30.627047,-0.87886 -31.353592,-0.15232 -0.349062,0.34906 6.671223,0.63466 15.600638,0.63466 8.929414,0 16.018244,-0.21705 15.752954,-0.48234 z m 10.71763,-0.57648 c 0,-1.32663 -1.12366,-1.32663 -3.17647,0 -1.28431,0.82998 -1.13234,1.0295 0.79412,1.04261 1.3103,0.009 2.38235,-0.46026 2.38235,-1.04261 z M 103.8208,98.77602 c 0,-0.87353 -0.47647,-1.588236 -1.05882,-1.588236 -0.58236,0 -1.05883,0.714706 -1.05883,1.588236 0,0.873529 0.47647,1.58823 1.05883,1.58823 0.58235,0 1.05882,-0.714701 1.05882,-1.58823 z M 94.63279,85.960942 C 94.43952,79.203826 94.017283,73.247943 93.694487,72.725648 92.099346,70.144656 79.29213,72.866867 75.075062,76.683261 c -2.59297,2.346605 -5.136618,8.164509 -5.136618,11.748616 0,2.365387 0.295485,2.549062 2.911765,1.809963 1.60147,-0.452416 3.983823,-0.861422 5.294117,-0.908903 1.719424,-0.06231 2.382353,-0.731869 2.382353,-2.406193 0,-2.620498 1.156368,-3.715002 2.788883,-2.639683 1.401104,0.92289 3.564058,7.18797 3.564058,10.32343 0,2.624316 1.211566,3.42496 5.375815,3.552526 l 2.728757,0.08359 z m 18.29149,4.444007 c -0.38751,-1.764329 -3.45547,0.336155 -2.81253,-0.06121 1.67675,-1.036288 1.35144,-4.803017 -0.41481,-4.803017 -2.30646,0 -3.33624,2.639548 -2.8832,7.390222 0.2729,2.861594 0.91765,4.256836 1.96711,4.256836 1.1724,0 4.65074,-4.473059 4.14343,-6.782835 z m -9.10348,2.01813 c 0,-0.87353 -0.44835,-1.588236 -0.99633,-1.588236 -1.33516,0 -2.2914,1.653448 -1.44547,2.499374 1.19243,1.19243 2.4418,0.726237 2.4418,-0.911138 z m -4.235294,-3.176471 c 0,-0.291177 -0.23824,-0.529412 -0.52942,-0.529412 -0.291172,0 -0.529407,0.238235 -0.529407,0.529412 0,0.291176 0.238235,0.529412 0.529407,0.529412 0.29118,0 0.52942,-0.238236 0.52942,-0.529412 z m 4.235294,-3.176471 c 0,-0.873529 -0.47647,-1.588235 -1.05882,-1.588235 -0.58236,0 -1.05883,0.714706 -1.05883,1.588235 0,0.87353 0.47647,1.588236 1.05883,1.588236 0.58235,0 1.05882,-0.714706 1.05882,-1.588236 z m 0,-6.352941 c 0,-0.873529 -0.47647,-1.588235 -1.05882,-1.588235 -0.58236,0 -1.05883,0.714706 -1.05883,1.588235 0,0.87353 0.47647,1.588235 1.05883,1.588235 0.58235,0 1.05882,-0.714705 1.05882,-1.588235 z m -4.588234,-3.352941 c -0.38824,-0.388235 -0.705887,-0.07059 -0.705887,0.705882 0,0.776471 0.317647,1.094118 0.705887,0.705883 0.38823,-0.388236 0.38823,-1.02353 0,-1.411765 z m 34.574304,-3.794118 c -0.87348,-1.494963 -16.928,-0.90605 -18.23509,0.668902 -0.99918,1.203936 -0.18132,1.59207 4.61837,2.191751 3.20791,0.400802 6.08864,1.143063 6.40161,1.649468 0.68803,1.113255 7.87563,-3.379664 7.21511,-4.510121 z M 103.8208,67.011314 c 0,-0.87353 -0.42549,-1.588235 -0.94554,-1.588235 -0.52005,0 -1.2198,0.714705 -1.555,1.588235 -0.37125,0.967458 -0.002,1.588235 0.94554,1.588235 0.85525,0 1.555,-0.714706 1.555,-1.588235 z m -3.59536,-3.441177 c 0.31541,-1.019117 0.98858,-2.637739 1.49594,-3.596936 0.74911,-1.416244 0.28686,-1.83364 -2.459644,-2.221006 -1.860166,-0.262356 -4.215939,-0.838829 -5.235057,-1.281052 -2.959409,-1.284167 -2.321983,2.900006 0.938503,6.160492 3.267512,3.267512 4.472884,3.482567 5.260258,0.938502 z m 3.24242,-0.970588 c -0.38824,-0.388235 -1.02353,-0.388235 -1.41177,0 -0.38823,0.388235 -0.0706,0.705882 0.70589,0.705882 0.77647,0 1.09411,-0.317647 0.70588,-0.705882 z m 10.20748,-8.362239 c 1.26011,-0.483549 1.33584,-1.183838 0.39701,-3.671089 -0.90494,-2.397462 -1.6533,-2.949782 -3.40206,-2.51087 -2.9652,0.744218 -5.88647,-2.416137 -3.60493,-3.899979 0.83608,-0.543764 2.59221,-0.736607 3.9025,-0.42854 1.99541,0.469147 2.38235,0.120459 2.38235,-2.146843 v -2.706965 l -9.73788,0.304439 -9.737892,0.304439 -2.024771,3.472222 c -1.758107,3.014926 -1.847921,3.899174 -0.681958,6.714059 0.738547,1.78301 2.339095,3.644721 3.556774,4.137134 2.515954,1.017419 16.589247,1.338226 18.950857,0.431993 z M 93.860876,46.769596 c -0.773727,-2.0163 1.107961,-3.73851 3.60698,-3.301278 0.873529,0.152834 1.58823,1.224295 1.58823,2.381026 0,2.732177 -4.213505,3.478535 -5.19521,0.920252 z m 25.842274,-8.346517 c 0,-9.176471 -0.27731,-11.117648 -1.58823,-11.117648 -1.31093,0 -1.58824,1.941177 -1.58824,11.117648 0,9.17647 0.27731,11.117647 1.58824,11.117647 1.31092,0 1.58823,-1.941177 1.58823,-11.117647 z M 72.223274,104.59955 c 0,-1.45588 0.240325,-2.05147 0.534055,-1.32353 0.293731,0.72794 0.293731,1.91912 0,2.64706 -0.29373,0.72794 -0.534055,0.13235 -0.534055,-1.32353 z M 91.259107,31.440124 c -0.247823,-4.722379 3.223772,-6.733293 11.861233,-6.870593 6.59147,-0.104776 10.63796,0.07334 5.19031,0.442396 -6.99366,0.473788 -15.717539,3.016585 -16.451331,6.81519 -0.408589,2.115138 -0.471016,2.074888 -0.600212,-0.386993 z"
       id="path2"
       sodipodi:nodetypes="sssssscscscssssssssssssssssssssssssssscsssssssssssssscssssssssscssssscssccsssscssssssssssscsssssssssssscsssssssssssssssssssssssssssssssssssssssssssssssssssssssscsssssssssssssscsssssssssssssssssssssssssssssssssssscscssssssssssssssssssssssssssssssssssssscssscccsssscccsssssssssscsssssssssssssssscsssssssssssssssssssssssssssssssssssssssssssssssssssssssscccsssssssssssssssssssssss" /></g></svg>
