<?xml version="1.0" encoding="UTF-8" standalone="no"?>
<!-- Created with Inkscape (http://www.inkscape.org/) -->

<svg
   width="210mm"
   height="210mm"
   viewBox="0 0 210 210"
   version="1.1"
   id="svg1"
   xml:space="preserve"
   inkscape:version="1.3.2 (091e20e, 2023-11-25)"
   sodipodi:docname="unknown.svg"
   xmlns:inkscape="http://www.inkscape.org/namespaces/inkscape"
   xmlns:sodipodi="http://sodipodi.sourceforge.net/DTD/sodipodi-0.dtd"
   xmlns="http://www.w3.org/2000/svg"
   xmlns:svg="http://www.w3.org/2000/svg"><sodipodi:namedview
     id="namedview1"
     pagecolor="#ffffff"
     bordercolor="#111111"
     borderopacity="1"
     inkscape:showpageshadow="0"
     inkscape:pageopacity="0"
     inkscape:pagecheckerboard="1"
     inkscape:deskcolor="#d1d1d1"
     inkscape:document-units="mm"
     inkscape:zoom="0.2102413"
     inkscape:cx="361.48939"
     inkscape:cy="149.82784"
     inkscape:window-width="1312"
     inkscape:window-height="584"
     inkscape:window-x="0"
     inkscape:window-y="25"
     inkscape:window-maximized="0"
     inkscape:current-layer="layer1" /><defs
     id="defs1" /><g
     inkscape:label="Layer 1"
     inkscape:groupmode="layer"
     id="layer1"><path
       style="fill:#000000"
       d="m 28.22709,107.88906 c -3.869998,-2.18487 -4.204584,-3.36514 -4.419519,-15.590053 L 23.61219,81.186298 h 2.156588 2.156588 v 9.562147 c 0,7.989337 0.173699,9.822475 1.056034,11.144835 1.19621,1.79276 2.739326,2.23445 5.06901,1.45091 2.260034,-0.76011 2.92668,-3.899665 2.92668,-13.783131 v -8.374761 h 2.112069 2.112069 l -9.38e-4,9.840604 c -7.48e-4,7.847378 -0.214649,10.374508 -1.056034,12.476488 -1.919525,4.79544 -7.532511,6.86109 -11.917166,4.38567 z m 85.05629,-0.003 c -4.1589,-2.31692 -6.12418,-7.69892 -5.5589,-15.223287 0.67273,-8.954629 7.74977,-14.082819 14.10864,-10.223453 4.06898,2.469571 6.19648,9.371568 5.03108,16.321752 -1.33436,7.957808 -7.8353,12.325808 -13.58082,9.124988 z m 6.64081,-4.7965 c 2.50297,-1.22845 3.59201,-9.073432 1.85572,-13.367829 -1.12301,-2.777547 -3.89522,-4.11347 -6.30572,-3.038714 -3.73466,1.665146 -4.80893,10.940544 -1.74953,15.105723 1.29905,1.76856 4.06431,2.34879 6.19953,1.30082 z M 44.821917,94.644109 V 81.088496 l 1.954881,0.241854 c 1.733741,0.214495 2.467571,1.185491 6.487069,8.583624 l 4.532188,8.341771 0.170626,-8.534724 0.170626,-8.534723 h 2.092305 2.092305 v 13.506711 13.506711 l -1.961206,-0.0113 c -1.799756,-0.0104 -2.283476,-0.61875 -5.875925,-7.38968 -2.153094,-4.058084 -4.25762,-7.742319 -4.676724,-8.187188 -0.605576,-0.642806 -0.762007,0.874199 -0.762007,7.389678 v 8.19853 h -2.112069 -2.112069 z m 21.724138,0.0489 V 81.186298 h 2.087665 2.087664 l 0.175267,6.190103 0.175266,6.190104 3.878343,-6.190104 c 3.630472,-5.794484 4.025787,-6.190103 6.185345,-6.190103 1.268851,0 2.307002,0.230141 2.307002,0.511424 0,0.281283 -1.641608,3.049738 -3.648017,6.152122 l -3.648017,5.640699 3.648017,6.939077 c 2.006409,3.81649 3.648017,7.12606 3.648017,7.35459 0,0.22853 -1.084043,0.41551 -2.408984,0.41551 -2.315005,0 -2.519654,-0.21287 -5.245831,-5.45651 l -2.836847,-5.456515 -1.076958,1.790406 c -0.679537,1.129709 -1.081909,3.143279 -1.090375,5.456509 l -0.01342,3.66611 h -2.112069 -2.112069 z m 19.913794,-0.0489 V 81.088496 l 1.930522,0.241854 c 1.708949,0.214096 2.453493,1.216275 6.487069,8.731787 l 4.556546,8.489933 0.170626,-8.682886 0.170626,-8.682886 h 2.092302 2.09231 v 13.506711 13.506711 h -1.98672 c -1.84435,0 -2.309186,-0.59453 -6.487064,-8.296979 l -4.500355,-8.29698 -0.171278,8.29698 -0.171278,8.296979 h -2.091653 -2.091653 z m 45.383711,1.816816 c -1.42474,-6.49081 -2.75114,-12.606683 -2.94755,-13.59083 -0.33326,-1.669757 -0.20045,-1.772932 1.98698,-1.543624 l 2.3441,0.245733 1.87804,9.261745 1.87804,9.261741 0.96426,-4.244962 c 0.53034,-2.334732 1.28577,-5.981544 1.67873,-8.104027 1.09232,-5.899878 1.54817,-6.685716 3.71981,-6.412526 1.88778,0.237479 1.89622,0.259047 3.65683,9.337954 0.97058,5.004959 1.90277,8.923321 2.07153,8.707471 0.16877,-0.21585 1.04931,-4.310816 1.95678,-9.099925 1.56925,-8.281693 1.73006,-8.71972 3.28858,-8.957981 3.74233,-0.572109 3.83523,-1.872929 -1.54736,21.668296 l -1.19117,5.20973 h -2.28504 -2.28504 l -1.65092,-7.56054 c -0.90801,-4.15829 -1.85691,-7.986806 -2.10867,-8.507808 -0.26782,-0.554246 -1.20888,2.502614 -2.26813,7.367583 l -1.81039,8.314855 -2.36949,0.2243 -2.36949,0.22429 z m 28.23698,-1.816816 V 81.088496 l 1.93052,0.241854 c 1.70895,0.214096 2.45349,1.216275 6.48707,8.731787 l 4.55655,8.489933 0.17062,-8.682886 0.17063,-8.682886 h 2.0923 2.09231 v 13.506711 13.506711 h -1.98672 c -1.84435,0 -2.30919,-0.59453 -6.48706,-8.296979 l -4.50036,-8.29698 -0.17128,8.29698 -0.17128,8.296979 h -2.09165 -2.09165 z"
       id="path1" /></g></svg>
