<?xml version="1.0" encoding="UTF-8" standalone="no"?>
<!-- Created with Inkscape (http://www.inkscape.org/) -->

<svg
   width="210mm"
   height="210mm"
   viewBox="0 0 210 210"
   version="1.1"
   id="svg1"
   xml:space="preserve"
   inkscape:version="1.3.2 (091e20e, 2023-11-25)"
   sodipodi:docname="unsportsmanlike.svg"
   xmlns:inkscape="http://www.inkscape.org/namespaces/inkscape"
   xmlns:sodipodi="http://sodipodi.sourceforge.net/DTD/sodipodi-0.dtd"
   xmlns="http://www.w3.org/2000/svg"
   xmlns:svg="http://www.w3.org/2000/svg"><sodipodi:namedview
     id="namedview1"
     pagecolor="#ffffff"
     bordercolor="#111111"
     borderopacity="1"
     inkscape:showpageshadow="0"
     inkscape:pageopacity="0"
     inkscape:pagecheckerboard="1"
     inkscape:deskcolor="#d1d1d1"
     inkscape:document-units="mm"
     inkscape:zoom="0.13825946"
     inkscape:cx="238.68169"
     inkscape:cy="318.24225"
     inkscape:window-width="1312"
     inkscape:window-height="613"
     inkscape:window-x="0"
     inkscape:window-y="25"
     inkscape:window-maximized="0"
     inkscape:current-layer="layer1" /><defs
     id="defs1" /><g
     inkscape:label="Layer 1"
     inkscape:groupmode="layer"
     id="layer1"><path
       style="fill:#000000"
       d="M -3.366053,104.38232 -5.4714883,-3.5384726 H 108.13874 216.08049 V 104.38232 212.30311 h -1.58738 -1.58738 V 105.46153 -1.3800568 H 108.13874 l -113.8365589,-1.133696 0.1619565,108.1372428 -0.9717393,106.03179 1.3278395,0.48587 2.7854486,0.16196 z m 72.390677,99.08363 -2.15773,-2.36191 v -3.0721 -3.0721 l 1.650866,-2.56943 1.650865,-2.56943 1.600554,-0.62635 1.600554,-0.62635 2.039843,1.11331 2.039843,1.1133 v 1.53179 1.53179 l 2.597528,-2.64897 2.597529,-2.64896 h 1.492766 1.492767 l 2.678736,2.14882 2.595522,4.0627 0.688737,-3.5231 0.605523,-1.60921 h 1.891386 1.891386 l 1.581147,3.50742 1.581147,3.50743 0.331857,-3.51077 0.331856,-3.51076 2.462884,0.63039 1.71398,3.95889 1.45594,-4.49516 0.70703,-1.16665 h 2.34771 2.34771 l 2.27959,1.6283 2.27959,1.62831 0.45739,2.41872 0.4574,2.41873 0.14411,-3.50743 0.14412,-3.50742 h 2.1165 2.11651 v 5.93564 5.93564 h 1.53207 1.53208 l 0.31986,-5.65573 0.31987,-5.65574 1.85194,-0.35904 1.85195,-0.35904 v 1.69795 1.69794 h 0.52912 0.52913 l 1.85226,-1.88861 1.85225,-1.88862 h 7.91763 7.91763 l 0.36111,1.88862 0.3611,1.88861 h -1.66497 -1.66497 v 5.93564 5.93565 h -2.0612 -2.06121 l -0.31986,-5.56685 -0.31987,-5.56685 -3.52932,-0.099 -3.52931,-0.099 -1.08643,1.335 -1.08643,1.33499 0.67637,2.74824 0.67637,2.74823 2.88112,-0.306 2.88113,-0.306 v 1.59282 1.59282 l -2.89485,1.03823 -2.89484,1.03822 -2.44462,-2.34207 -2.44461,-2.34207 -2.31003,2.35577 -2.31002,2.35577 -2.91055,-1.04386 -2.91055,-1.04385 -1.32971,-2.6801 -1.3297,-2.6801 -0.0156,1.82742 -0.0156,1.82742 -2.35198,1.68001 -2.35197,1.68 h -2.8511 -2.8511 l -0.48504,-1.34901 -0.73467,-9.08778 -1.10301,9.03727 -1.35266,1.2985 -1.95438,-1.06667 -1.954385,-1.06666 v -1.58084 -1.58085 H 96.497962 95.43971 v 2.15842 2.15842 h -1.620592 -1.620591 l -0.605523,-1.60922 -0.605524,-3.19025 -2.678735,3.72986 -2.678736,2.14881 h -1.97379 -1.973791 l -2.116505,-2.15841 -2.116504,-2.15842 v 1.50335 1.50335 l -1.673931,0.65507 -1.67393,0.65506 h -1.459603 -1.459602 z m 6.750864,-2.60998 1.673931,-0.65507 v -2.54459 -2.54458 l -2.005383,-1.0945 -2.005383,-1.09451 -1.287547,1.58212 -1.287546,1.58212 0.66746,2.71204 0.66746,2.71203 h 0.951539 0.951539 z m 10.555855,-1.05202 0.642347,-1.70707 -0.0162,-1.26075 -0.0162,-1.26074 -0.961393,-1.54942 -0.961392,-1.54941 -1.668034,1.41175 -1.668034,1.41176 v 2.38601 2.38601 l 0.705502,0.71947 0.705502,0.71947 h 1.297782 1.297782 z m 25.609287,-1.00495 0.66746,-2.71204 -1.306,-1.60479 -1.306,-1.6048 h -0.92868 -0.92867 v 4.31683 4.31683 h 1.56722 1.56721 z m -86.304356,-22.31325 -2.157729,-2.36191 v -5.73215 -5.73214 h 2.061201 2.061201 l 0.319867,5.58101 0.319867,5.58101 1.26512,0.42496 1.26512,0.42495 0.322259,-5.72606 0.322258,-5.72605 1.851942,-0.35905 1.851942,-0.35904 v 6.49319 6.49318 l -2.351973,1.68001 -2.351973,1.68001 H 29.10469 27.794003 Z m 29.628316,0.79038 -1.278934,-1.57154 0.621285,-1.02517 0.621285,-1.02516 2.11545,0.56416 2.115451,0.56415 v -1.1671 -1.16711 l -2.044835,-1.11603 -2.044835,-1.11604 -0.696179,-2.2369 -0.696179,-2.2369 1.888936,-2.12858 1.888936,-2.12858 2.164083,0.3173 2.164083,0.31731 0.352969,1.88862 0.35297,1.88861 -2.458664,0.0359 -2.458663,0.0359 2.645631,2.25499 2.645631,2.25499 0.358203,-3.1003 0.358203,-3.1003 1.09419,-1.34901 1.09419,-1.34901 h 2.168163 2.168163 l 1.791085,1.65301 1.791084,1.653 3.306621,-1.92281 3.306621,-1.9228 2.922515,1.6537 2.922515,1.65371 0.326102,5.18013 0.326102,5.18013 -2.339967,2.06963 -2.339966,2.06963 h -1.719114 -1.719114 l -2.351973,-1.68001 -2.351973,-1.68001 v -1.49392 -1.49393 l -1.036381,-0.6532 -1.036382,-0.6532 -2.138376,1.16708 -2.138375,1.16709 v 2.12044 2.12045 H 66.549419 65.17369 l -1.103102,-1.12495 -1.103103,-1.12494 -1.35463,1.66455 -1.35463,1.66455 h -1.85735 -1.85735 z m 27.275409,-7.41535 0.328445,-3.96361 h -1.43961 -1.43961 l -1.269902,1.29505 -1.269903,1.29505 v 1.72673 1.72674 l 1.283131,1.30853 1.283131,1.30854 1.097937,-0.36671 1.097937,-0.36671 z m -13.173908,-2.3448 0.609135,-1.61881 h -1.02504 -1.025039 v 1.61881 1.61881 h 0.415905 0.415905 z m 40.042549,10.03664 -1.2699,-1.29505 v -1.4757 -1.47569 l 2.1165,0.68505 2.11651,0.68505 v -1.43193 -1.43194 l -2.11651,-1.34795 -2.1165,-1.34796 v -1.60966 -1.60967 h -1.00295 -1.00295 l -0.31987,5.66584 -0.31986,5.66584 h -2.11651 -2.1165 l -0.31987,-5.66584 -0.31987,-5.66584 h -0.824121 -0.824126 l -1.427342,2.71983 -1.427343,2.71982 1.24852,1.27325 1.248519,1.27324 v 1.94257 1.94258 h -2.045192 -2.045191 l -0.750206,-2.4105 -0.750205,-2.41049 -0.874385,2.41049 -0.874385,2.4105 H 89.607061 87.93922 l 0.310924,-7.82426 0.310925,-7.82426 2.777151,-0.32839 2.777151,-0.32839 1.617637,1.64967 1.617636,1.64966 0.598699,-1.59107 0.598698,-1.59108 h 4.795349 4.79535 v 1.11718 1.11718 l 2.1992,-1.20028 2.19919,-1.20029 1.50469,0.58884 1.50469,0.58884 v 1.57355 1.57355 l -1.70424,0.34893 -1.70424,0.34893 2.23337,2.05588 2.23336,2.05588 v -3.27274 -3.27275 l 1.45325,-1.22997 1.45324,-1.22997 1.57035,0.61453 1.57035,0.61453 1.44288,4.45855 1.44288,4.45855 0.66774,-2.08664 0.66774,-2.08664 0.79046,-2.35356 0.79045,-2.35356 1.66305,-0.65082 1.66305,-0.65081 0.8621,1.38557 0.86209,1.38556 0.0162,3.50742 0.0162,3.50743 h 1.05825 l 0.0803,0.41179 0.72062,-2.18714 0.25737,-1.56946 1.59573,-3.14689 1.59572,-3.1469 1.43569,0.56184 1.4357,0.56184 1.20159,2.68943 1.20159,2.68943 v 2.10763 l 0.56621,1.90175 0.49204,0.20589 h 1.05826 v -4.18469 -4.18469 l 1.3583,-1.14962 1.35831,-1.14961 1.0841,0.74767 1.0841,0.74767 1.88858,2.69802 1.88858,2.69802 -0.70007,-2.43353 -0.70007,-2.43354 1.76715,-0.69154 1.76715,-0.69155 0.93524,1.50627 0.93525,1.50627 0.0162,-1.34901 0.0162,-1.34901 h 2.1165 2.11651 v 5.93564 5.93564 h 2.1165 l 1.60142,3.94894 0.51508,-9.88458 v -5.93564 h 1.58738 1.58738 v 7.43435 7.43435 l -3.75014,0.71746 -3.75014,0.71746 -2.00484,-0.64891 -2.00483,-0.64891 -0.43598,-2.91627 -0.43598,-2.91627 -0.15856,2.96783 -0.15856,2.96782 h -2.14269 -2.1427 l -1.18056,-2.96782 -1.18056,-2.96783 -0.68853,2.67912 -0.68852,2.67912 -3.84988,0.30129 -3.84989,0.30128 -0.67566,-2.171 -0.67567,-2.17099 h -0.73238 -0.73238 l -1.32178,2.15841 -1.32178,2.15842 h -3.199 -3.19901 l -0.6661,-1.77023 -0.0211,-4.99524 -2.08844,5.23813 -1.44343,2.0131 -2.23208,-1.42156 -2.68358,-4.96908 -0.43264,4.996 -0.88413,1.44848 -1.90171,-1.20079 -1.90171,-1.20079 -1.34706,1.47059 -1.34707,1.4706 h -1.334 -1.33401 z m -16.438186,-11.29571 -0.705501,-0.71948 v 1.43895 1.43894 l 0.705501,-0.71947 0.705502,-0.71947 z m 91.574796,11.69451 -1.37503,-0.91578 0.31678,-7.45785 0.31679,-7.45785 h 3.68939 3.68939 l 0.35665,1.88862 0.35665,1.88861 -2.98779,0.0684 -2.98779,0.0684 2.27278,0.93518 2.27278,0.93517 0.66706,1.10069 0.66705,1.10069 -2.14614,1.17132 -2.14615,1.17133 v 1.04124 1.04123 h 2.1941 2.1941 l -0.35121,1.88862 -0.3512,1.88861 -2.63659,0.27957 -2.63658,0.27957 z m -147.931867,-1.66061 -0.556018,-1.47765 0.324668,-5.80701 0.324667,-5.807 2.290175,-0.33271 2.290175,-0.33272 0.691332,2.22133 0.691333,2.22133 1.198903,2.20765 0.867756,-2.20765 -0.310953,-1.88861 -0.310954,-1.88862 h 2.116505 2.116505 l 0.323082,3.39079 0.323082,3.39078 2.166306,-0.57772 2.166307,-0.57772 0.933727,1.50377 0.933727,1.50376 0.0162,0.9319 0.0162,0.9319 -3.126109,-0.46791 -3.126108,-0.4679 -0.313212,2.23403 -0.313212,2.23402 -2.458249,0.35518 -2.458249,0.35518 -0.575371,-2.24379 -0.57537,-2.24379 -1.155592,-1.65574 -0.714062,1.65574 v 2.15841 2.15842 H 38.789992 37.1694 Z m 135.726007,0.75818 -0.70551,-0.71948 v -6.32925 -6.32925 l 1.65852,-0.64903 1.65851,-0.64903 1.13074,1.15313 0.36225,3.9069 2.35587,-4.37258 1.58737,-1.61882 1.15541,1.17829 1.15541,1.17829 -1.30576,1.85891 -1.30577,1.85891 -0.65073,1.38921 -0.65074,1.3892 1.71572,1.9334 1.71573,1.9334 v 1.80363 1.80364 h -1.52492 -1.52493 l -0.71102,-1.17324 -1.79973,-3.86298 -0.0618,3.86298 -1.15046,1.17324 h -1.19935 -1.19935 z M 75.976973,148.3094 74.1,146.90974 l 0.351894,-8.84381 0.351894,-8.84381 -1.409368,-0.54861 -1.409367,-0.54862 h -11.49177 -11.49177 l -0.72716,-1.19986 -0.727159,-1.19987 1.458394,-0.94202 1.458394,-0.94203 12.169903,-0.0222 12.169903,-0.0222 0.125035,-12.67505 0.125036,-12.675054 1.616479,-3.909304 1.616478,-3.909303 2.491496,-2.938607 2.491495,-2.938607 2.857641,-1.515951 2.857642,-1.515951 h 4.285562 4.285563 v -1.390622 -1.390622 l -2.027111,-4.054795 -2.027112,-4.054795 -1.087022,-1.335717 -1.087022,-1.335718 -0.256545,-5.054199 -0.256546,-5.054199 1.7833,-2.009545 1.7833,-2.009545 v -2.680934 -2.680934 l 2.968101,-2.89993 2.968102,-2.89993 h 2.94993 2.94994 l 2.6907,-2.158416 2.6907,-2.158416 h 1.1901 1.19011 l 1.36267,-2.225192 1.36267,-2.225193 2.86033,0.336579 2.86034,0.336579 0.32007,3.237623 0.32007,3.237624 6.93123,6.74505 6.93122,6.745049 h 0.75956 0.75956 l 3.62992,3.357612 3.62992,3.357612 5.47886,4.172905 5.47887,4.172904 0.73043,1.205267 0.73043,1.205267 -5.41561,7.910118 -5.4156,7.910118 v 1.727085 1.727086 l -4.14921,6.718597 -4.1492,6.718594 -2.20031,9.05173 -2.20031,9.05173 -0.002,0.66114 -0.002,0.66115 13.43433,-0.33452 13.43433,-0.33452 2.44138,0.62488 2.44138,0.62488 v 1.59825 1.59825 H 149.9065 133.47037 l -0.36268,1.34901 -0.36267,1.34901 -1.27851,5.93565 -1.2785,5.93564 -1.05331,3.50743 -1.0533,3.50742 H 102.96767 77.853945 Z m 10.54184,-3.37425 0.567911,-2.30754 -0.32108,-6.98156 -0.32108,-6.98155 H 81.776617 77.10867 l 0.246753,8.61811 0.246752,8.61811 0.890419,0.55516 0.890418,0.55515 3.283945,0.11583 3.283946,0.11583 z m 0.454877,-28.20563 v -6.95116 h -4.671838 -4.671838 l -0.354861,6.96835 -0.354861,6.96834 4.23301,0.32397 4.23301,0.32396 0.793689,-0.34115 0.793689,-0.34115 z m 27.23559,-33.558132 1.31536,-1.834473 -0.42756,-0.436022 -0.42756,-0.436023 -2.35553,1.285606 -2.35553,1.285606 -5.23544,-0.708259 -5.235443,-0.708258 0.729983,1.20453 0.72999,1.20453 2.27278,0.985427 2.27278,0.985426 3.70041,-0.496809 3.70041,-0.496808 z m 36.60775,-4.815729 4.02492,-6.566431 -0.33461,-0.261086 -0.33462,-0.261085 -8.03571,-6.375537 -8.0357,-6.375537 -3.56207,-2.69802 -3.56206,-2.69802 -4.04473,-3.663665 -4.04473,-3.663664 -2.65717,2.545712 -2.65717,2.545712 -2.07169,-1.31941 -2.07169,-1.319411 0.0337,1.897759 0.0336,1.897759 1.28916,1.618812 1.28916,1.618812 3.58909,0.175738 3.58908,0.175738 2.39567,2.634784 2.39567,2.634785 2.344,4.743933 2.34399,4.743933 5.78681,7.753714 5.7868,7.753714 1.24268,-0.486304 1.24268,-0.486303 z m -46.61695,-0.0058 -1.18721,-1.210714 0.50781,-1.349529 0.50781,-1.349528 -2.97158,-0.582082 -2.971569,-0.582081 -0.529126,0.536115 -0.529126,0.536114 2.969206,2.60621 2.969205,2.60621 h 1.21089 1.21089 z m 19.09435,-0.138295 1.24722,-1.34901 0.26047,-3.446317 0.26046,-3.446317 -0.81042,-0.510788 -0.81043,-0.510788 -2.77447,5.306115 -2.77447,5.306115 h 2.0772 2.07721 z m -6.0002,-3.572832 2.70976,-2.763426 -0.58275,-0.594295 -0.58276,-0.594294 -2.47542,2.723916 -2.47542,2.723916 -3.13901,0.472105 -3.13902,0.472104 3.48743,0.1617 3.48742,0.1617 z m 12.00956,-1.013801 1.3174,-1.618812 h -2.24608 -2.24608 v 1.618812 1.618812 h 0.92868 0.92867 z m -14.81554,-6.247989 v -2.470761 l -2.91019,0.04254 -2.91019,0.04254 -0.33817,-2.428217 -0.33817,-2.428218 1.92555,-0.127868 1.92554,-0.127867 1.32282,0.175176 1.32281,0.175177 v -1.666121 -1.666121 h -7.48335 -7.483359 l -1.51179,1.541726 -1.511789,1.541725 v 3.465537 3.465538 l 1.851942,1.433662 1.851946,1.433662 7.1432,0.03432 7.1432,0.03432 z M 98.306356,64.856886 97.556215,64.09189 v -1.852678 -1.852678 l 1.999358,-0.533198 1.999357,-0.533197 1.27953,0.806448 1.27952,0.806449 -0.3795,2.029097 -0.3795,2.029097 -2.14924,0.315326 -2.149242,0.315326 z m 28.562424,0.653111 -1.53496,-2.234853 -0.67903,1.804568 -0.67903,1.804569 1.87032,1.406271 1.87033,1.406271 0.34366,-0.975986 0.34367,-0.975987 z m -6.03101,-3.75639 v -2.69802 h -1.58738 -1.58738 v 2.69802 2.698019 h 1.58738 1.58738 z m -10.89984,-9.625272 0.21182,-0.159884 -1.29459,-2.661877 -1.29459,-2.661878 -2.83334,-0.336336 -2.83334,-0.336335 -2.039337,1.113034 -2.03934,1.113033 -0.489765,2.612774 -0.489765,2.612774 6.445217,-0.567711 6.44522,-0.567711 z m 29.7965,-5.917851 V 45.67088 l 0.81188,-5.99382 0.24637,5.99382 v 0.539604 0.539604 l -1.33229,9.153795 0.27404,-9.153795 z m -9.50807,-3.507426 0.0162,-0.809406 0.98451,-1.587558 0.9845,-1.587557 0.61158,0.623686 0.61158,0.623687 -0.66726,1.773277 -0.66726,1.773277 h -0.94503 -0.94503 z m 9.50807,-0.269802 1.35591,-10.833495 -0.65041,10.114023 0.0703,-1.821473 0.14752,3.768607 -1.15881,11.119253 z m -9.7883,-4.510489 -0.64234,-1.707078 v -0.583481 -0.583482 l 1.4355,-0.169926 1.58737,1.343495 v 0.947065 0.947064 h -0.94503 -0.94503 z m -3.8171,-7.589945 v -2.821774 l 2.86973,-5.542087 2.86972,-5.542087 0.22528,-0.36834 0.22528,-0.368341 2.07299,0.670968 2.07298,0.670968 3.29803,3.214185 3.29803,3.214185 v 1.609425 1.609425 h -1.0318 -1.03179 l 0.63495,3.237624 0.48307,1.724204 h -0.57367 -0.57368 l -4.7067,-0.715492 -4.8089,-1.997115 0.62622,-1.664214 0.62622,-1.664215 h -1.10298 -1.10297 l -1.33934,3.777228 -1.33935,3.777228 h -0.84566 -0.84566 z m -24.33981,0.716479 v -1.026088 l 1.14595,-5.44916 1.14594,-5.449159 1.73776,0.795748 1.27021,0.56042 5.08875,-5.124035 4.25102,-3.616488 1.09029,-0.792744 1.39241,-1.0188659 1.37362,-0.8407143 2.31729,-1.2062093 -0.70644,-2.0063745 V 4.8279138 l 5.81916,0.4921263 5.81917,0.4921262 3.36836,0.3090204 -1.77853,1.3182155 -2.64564,2.1234223 -2.64563,2.1234225 -1.86403,1.560907 -1.86404,1.560908 -2.03351,-2.977126 -3.951,2.977126 -3.83572,2.967822 -3.83573,2.967822 -2.3535,2.021208 2.2763,2.31057 -3.7395,3.499952 -3.81185,2.559523 -1.47942,0.94043 -1.9858,1.229793 z"
       id="path2"
       sodipodi:nodetypes="cccccccccccccccccccccccccccccccccccccccccccccccccccccccccccccccccccccccccccccccccccccccccccccccccccccccccccccccccccccccccccccccccccccccccccccccccccccccccccccccccccccccccccccccccccccccccccccccccccccccccccccccccccccccccccccccccccccccccccccccccccccccccccccccccccccccccccccccccccccccccccccccccccccccccccccccccccccccccccccccccccccccccccccccccccccccccccccccccccccccccccccccccccccccccccccccccccccccccccccccccccccccccccccccccccccccccccccccccccccccccccccccccccccccccccccccccccccccccccccccccccccccccccccccccccccccccccccccccccccccccccccccccccccccccccccccccccccccccccccccccccccccccccccccccccccccccccccccccccccccccccccccccccccccccccccccccccccccccccccccccccccccccccccccccccccccccccccccccccccccccccccccccccccccccccccccccccccccccccccccccccccccccccccccccccccccccccccccccccccccccccccccccccccccccccccccccccccccccccccccccccccccccccccccccccccccccccccccccccccccccccccccccccccccccccccccccccccccccccccccccccccccccccccccccccc" /></g></svg>
