<?xml version="1.0" encoding="UTF-8" standalone="no"?>
<!-- Created with Inkscape (http://www.inkscape.org/) -->

<svg
   width="210mm"
   height="210mm"
   viewBox="0 0 210 210"
   version="1.1"
   id="svg5"
   xmlns="http://www.w3.org/2000/svg"
   xmlns:svg="http://www.w3.org/2000/svg">
  <defs
     id="defs2" />
  <g
     id="g475"
     style="display:inline"
     transform="matrix(8,0,0,8,-1755,4.9999996)">
    <g
       aria-label="DELY
GAME"
       id="text473"
       style="font-size:8.46667px;text-align:center;text-anchor:middle;fill:#ffffff;stroke-width:0.264583"
       transform="translate(220.0646,-1.4435816)">
      <path
         d="m 7.8920105,8.5981696 q 0,0.8392256 -0.3679363,1.5213544 Q 7.160272,10.801654 6.5525569,11.177858 6.130877,11.438307 5.6099784,11.554063 5.0932138,11.669818 4.24572,11.669818 H 2.6912923 V 5.5141189 h 1.5378913 q 0.9012373,0 1.4304042,0.1322917 0.533301,0.1281576 0.9012373,0.355534 0.6283857,0.392741 0.9797856,1.0459314 0.3513998,0.6531903 0.3513998,1.5502936 z m -0.855762,-0.012402 q 0,-0.7234703 -0.2521811,-1.2195643 Q 6.5318863,6.870109 6.0316582,6.584855 5.667856,6.3781492 5.2585785,6.2996009 4.849301,6.2169186 4.278793,6.2169186 H 3.5098473 V 10.967018 H 4.278793 q 0.5911786,0 1.0293949,-0.08682 0.4423504,-0.08682 0.8102868,-0.322461 Q 6.5773616,10.264218 6.804738,9.7846609 7.0362485,9.3051034 7.0362485,8.5857676 Z"
         id="path663" />
      <path
         d="M 13.270496,11.669818 H 9.2149277 V 5.5141189 h 4.0555683 v 0.7276044 h -3.237013 v 1.6867194 h 3.237013 v 0.7276045 h -3.237013 v 2.2861658 h 3.237013 z"
         id="path665" />
      <path
         d="M 18.462945,11.669818 H 14.568608 V 5.5141189 h 0.818555 v 5.4280941 h 3.075782 z"
         id="path667" />
      <path
         d="M 22.977401,5.5141189 20.811124,8.97024 v 2.699578 H 19.992569 V 9.0570565 L 17.818024,5.5141189 h 0.905371 l 1.682586,2.7533214 1.699121,-2.7533214 z"
         id="path669" />
      <path
         d="m 5.9737806,21.798403 q -0.5043622,0.23151 -1.103809,0.405143 -0.5953128,0.169499 -1.1534185,0.169499 -0.7193362,0 -1.318783,-0.198438 Q 1.7983232,21.97617 1.3766434,21.579295 0.95082939,21.178285 0.71931888,20.578838 0.48780837,19.975257 0.48780837,19.169105 q 0,-1.47588 0.85989613,-2.327508 0.8640303,-0.855762 2.3688486,-0.855762 0.5250328,0 1.0707361,0.128158 0.5498375,0.124023 1.1823573,0.425814 v 0.971517 H 5.8952324 Q 5.7670748,17.412105 5.5231619,17.250875 5.2792491,17.089644 5.0436045,16.982157 4.7583504,16.854 4.3945482,16.771317 q -0.3596681,-0.08682 -0.818555,-0.08682 -1.0335291,0 -1.63711,0.665593 -0.5994469,0.661458 -0.5994469,1.794206 0,1.19476 0.6283857,1.860352 0.6283856,0.661459 1.7115241,0.661459 0.3968752,0 0.7896162,-0.07855 0.3968752,-0.07855 0.6945315,-0.202572 V 19.876039 H 3.5139814 v -0.719337 h 2.4597992 z"
         id="path671" />
      <path
         d="M 12.257637,22.253155 H 11.385339 L 10.781758,20.537497 H 8.119387 L 7.5158061,22.253155 H 6.6848487 l 2.240691,-6.155699 H 10.016946 Z M 10.529577,19.834697 9.4505725,16.812659 8.367434,19.834697 Z"
         id="path673" />
      <path
         d="m 18.673786,22.253155 h -0.818555 v -5.304071 l -1.711524,3.609084 h -0.487826 l -1.699122,-3.609084 v 5.304071 h -0.764811 v -6.155699 h 1.116211 l 1.641244,3.427183 1.587501,-3.427183 h 1.136882 z"
         id="path675" />
      <path
         d="M 24.383,22.253155 H 20.327432 V 16.097456 H 24.383 v 0.727605 H 21.145987 V 18.51178 H 24.383 v 0.727605 h -3.237013 v 2.286166 H 24.383 Z"
         id="path677" />
    </g>
  </g>
</svg>
