<?xml version="1.0" encoding="UTF-8" standalone="no"?>
<!-- Created with Inkscape (http://www.inkscape.org/) -->

<svg
   width="210mm"
   height="210mm"
   viewBox="0 0 210 210"
   version="1.1"
   id="svg5"
   xmlns="http://www.w3.org/2000/svg"
   xmlns:svg="http://www.w3.org/2000/svg">
  <defs
     id="defs2" />
  <g
     id="g499"
     style="display:inline"
     transform="matrix(8,0,0,8,-2415.0001,4.9999996)">
    <g
       aria-label="FALSE
STRT"
       id="text497"
       style="font-size:8.46667px;text-align:center;text-anchor:middle;fill:#ffffff;stroke-width:0.264583"
       transform="translate(302.3889,-1.383637)">
      <path
         d="M 4.1444342,6.2417233 H 1.0314447 V 7.9780521 H 3.7062179 V 8.7056566 H 1.0314447 V 11.669818 H 0.21288964 V 5.5141189 H 4.1444342 Z"
         id="path707" />
      <path
         d="M 9.5187852,11.669818 H 8.6464867 L 8.0429057,9.9541597 H 5.3805349 L 4.7769539,11.669818 H 3.9459965 L 6.1866875,5.5141189 H 7.2780942 Z M 7.7907246,9.2513599 6.7117203,6.229321 5.6285818,9.2513599 Z"
         id="path709" />
      <path
         d="M 14.347433,11.669818 H 10.453095 V 5.5141189 h 0.818555 v 5.4280941 h 3.075783 z"
         id="path711" />
      <path
         d="m 19.639102,9.9128185 q 0,0.3596685 -0.169499,0.7110685 -0.165365,0.351399 -0.467155,0.595312 -0.33073,0.264584 -0.77308,0.413412 -0.438216,0.148828 -1.058334,0.148828 -0.665592,0 -1.198893,-0.124023 -0.529167,-0.124024 -1.079005,-0.367937 v -1.025261 h 0.05788 q 0.467155,0.388607 1.079004,0.599447 0.611849,0.21084 1.149285,0.21084 0.760677,0 1.182357,-0.285254 0.425814,-0.285254 0.425814,-0.760677 0,-0.4092777 -0.202572,-0.6035812 Q 18.386464,9.2306893 17.977187,9.1232023 17.667128,9.04052 17.303326,8.9867765 16.943658,8.933033 16.538515,8.8503507 15.71996,8.6767178 15.323084,8.259172 14.930343,7.8374922 14.930343,7.1636312 q 0,-0.7730797 0.653191,-1.2650395 0.65319,-0.496094 1.65778,-0.496094 0.649057,0 1.190626,0.1240235 0.541569,0.1240235 0.959115,0.3059246 V 6.799829 h -0.05788 Q 18.981777,6.5021726 18.407135,6.3078692 17.836627,6.1094316 17.23718,6.1094316 q -0.657324,0 -1.058334,0.2728517 -0.396875,0.2728516 -0.396875,0.7027997 0,0.3844728 0.198438,0.603581 0.198437,0.2191082 0.698665,0.3348634 0.264584,0.057878 0.75241,0.14056 0.487825,0.082682 0.826823,0.1694987 0.686263,0.1819011 1.033529,0.5498375 0.347266,0.3679363 0.347266,1.0293949 z"
         id="path713" />
      <path
         d="M 25.00932,11.669818 H 20.953752 V 5.5141189 h 4.055568 v 0.7276044 h -3.237013 v 1.6867194 h 3.237013 v 0.7276045 h -3.237013 v 2.2861658 h 3.237013 z"
         id="path715" />
      <path
         d="m 6.8026709,20.496156 q 0,0.359668 -0.1694988,0.711068 -0.1653646,0.3514 -0.4671551,0.595313 -0.3307293,0.264583 -0.7730797,0.413411 -0.4382163,0.148829 -1.0583338,0.148829 -0.6655927,0 -1.1988937,-0.124024 Q 2.6065429,22.11673 2.0567055,21.872817 v -1.025261 h 0.057878 q 0.4671551,0.388607 1.0790043,0.599447 0.6118492,0.21084 1.1492844,0.21084 0.7606773,0 1.1823572,-0.285254 0.425814,-0.285254 0.425814,-0.760678 0,-0.409277 -0.2025717,-0.603581 Q 5.5500337,19.814027 5.1407562,19.70654 4.8306975,19.623858 4.4668952,19.570114 4.1072271,19.516371 3.7020837,19.433688 2.8835287,19.260055 2.4866536,18.84251 2.0939125,18.42083 2.0939125,17.746969 q 0,-0.77308 0.6531904,-1.26504 0.6531904,-0.496094 1.6577806,-0.496094 0.6490562,0 1.1906255,0.124024 0.5415692,0.124023 0.9591149,0.305924 v 0.967384 H 6.4967463 Q 6.1453464,17.08551 5.5707043,16.891207 5.0001962,16.692769 4.4007494,16.692769 q -0.6573245,0 -1.0583338,0.272852 -0.3968751,0.272851 -0.3968751,0.7028 0,0.384472 0.1984375,0.603581 0.1984376,0.219108 0.6986657,0.334863 0.2645834,0.05788 0.7524091,0.14056 0.4878258,0.08268 0.8268233,0.169499 0.6862633,0.181901 1.033529,0.549837 0.3472658,0.367936 0.3472658,1.029395 z"
         id="path717" />
      <path
         d="m 12.507751,16.825061 h -2.19935 v 5.428094 H 9.4898464 V 16.825061 H 7.2904965 v -0.727605 h 5.2172545 z"
         id="path719" />
      <path
         d="m 18.427806,22.253155 h -1.062468 l -2.05879,-2.447396 h -1.153419 v 2.447396 h -0.818555 v -6.155699 h 1.723927 q 0.558106,0 0.930176,0.07441 0.372071,0.07028 0.669727,0.256316 0.334863,0.21084 0.520899,0.533301 0.190169,0.318327 0.190169,0.810286 0,0.665593 -0.334864,1.116212 -0.334863,0.446484 -0.921907,0.673861 z M 16.51371,17.829651 q 0,-0.264583 -0.09509,-0.467155 -0.09095,-0.206706 -0.305924,-0.347266 -0.177767,-0.119889 -0.42168,-0.165364 -0.243913,-0.04961 -0.574642,-0.04961 h -0.96325 v 2.323373 h 0.826824 q 0.388607,0 0.677995,-0.06615 0.289388,-0.07028 0.49196,-0.256316 0.186035,-0.173632 0.272851,-0.396875 0.09095,-0.227376 0.09095,-0.574642 z"
         id="path721" />
      <path
         d="m 23.36394,16.825061 h -2.19935 v 5.428094 h -0.818555 v -5.428094 h -2.19935 v -0.727605 h 5.217255 z"
         id="path723" />
    </g>
  </g>
</svg>
