<?xml version="1.0" encoding="UTF-8" standalone="no"?>
<!-- Created with Inkscape (http://www.inkscape.org/) -->

<svg
   width="210mm"
   height="210mm"
   viewBox="0 0 210 210"
   version="1.1"
   id="svg5"
   xmlns="http://www.w3.org/2000/svg"
   xmlns:svg="http://www.w3.org/2000/svg">
  <defs
     id="defs2" />
  <g
     id="g404"
     style="display:inline"
     transform="matrix(8,0,0,8,-2195.0001,4.9999996)">
    <g
       aria-label="FREE
ARM"
       id="text402"
       style="font-size:8.46667px;text-align:center;text-anchor:middle;fill:#ffffff;stroke-width:0.264583"
       transform="translate(274.8889,-1.3836366)">
      <path
         d="M 6.4616063,6.2417233 H 3.3486168 V 7.9780521 H 6.02339 V 8.7056566 H 3.3486168 V 11.669818 H 2.5300618 V 5.5141189 h 3.9315445 z"
         id="path406" />
      <path
         d="M 12.489148,11.669818 H 11.42668 L 9.36789,9.2224211 H 8.2144715 V 11.669818 H 7.3959165 V 5.5141189 H 9.119843 q 0.5581057,0 0.930176,0.074414 0.372071,0.07028 0.669727,0.2563152 0.334863,0.2108399 0.520899,0.533301 0.190169,0.3183269 0.190169,0.8102867 0,0.6655927 -0.334863,1.1162114 -0.334864,0.4464846 -0.921908,0.673861 z M 10.575052,7.2463136 q 0,-0.2645835 -0.09508,-0.4671552 Q 10.389017,6.5724526 10.174043,6.4318927 9.9962756,6.3120033 9.7523628,6.266528 9.5084499,6.2169186 9.1777206,6.2169186 H 8.2144715 v 2.3233733 h 0.8268233 q 0.3886069,0 0.677995,-0.066146 0.2893882,-0.07028 0.4919602,-0.2563152 0.186035,-0.1736329 0.272851,-0.3968752 0.09095,-0.2273764 0.09095,-0.5746421 z"
         id="path408" />
      <path
         d="M 17.338466,11.669818 H 13.282898 V 5.5141189 h 4.055568 v 0.7276044 h -3.237013 v 1.6867194 h 3.237013 v 0.7276045 h -3.237013 v 2.2861658 h 3.237013 z"
         id="path410" />
      <path
         d="M 22.692148,11.669818 H 18.63658 V 5.5141189 h 4.055568 v 0.7276044 h -3.237013 v 1.6867194 h 3.237013 v 0.7276045 h -3.237013 v 2.2861658 h 3.237013 z"
         id="path412" />
      <path
         d="M 8.7084985,22.253155 H 7.8362 L 7.232619,20.537497 H 4.5702481 L 3.9666672,22.253155 H 3.1357098 l 2.240691,-6.155699 H 6.4678075 Z M 6.9804379,19.834697 5.9014336,16.812659 4.8182951,19.834697 Z"
         id="path414" />
      <path
         d="m 14.73604,22.253155 h -1.062468 l -2.05879,-2.447396 h -1.153418 v 2.447396 H 9.6428087 v -6.155699 h 1.7239263 q 0.558106,0 0.930176,0.07441 0.372071,0.07028 0.669727,0.256316 0.334864,0.21084 0.520899,0.533301 0.190169,0.318327 0.190169,0.810286 0,0.665593 -0.334863,1.116212 -0.334864,0.446484 -0.921908,0.673861 z m -1.914096,-4.423504 q 0,-0.264583 -0.09509,-0.467155 -0.09095,-0.206706 -0.305924,-0.347266 -0.177767,-0.119889 -0.42168,-0.165364 -0.243913,-0.04961 -0.574642,-0.04961 h -0.963249 v 2.323373 h 0.826823 q 0.388607,0 0.677995,-0.06615 0.289388,-0.07028 0.49196,-0.256316 0.186035,-0.173632 0.272852,-0.396875 0.09095,-0.227376 0.09095,-0.574642 z"
         id="path416" />
      <path
         d="m 21.011628,22.253155 h -0.818555 v -5.304071 l -1.711524,3.609084 h -0.487826 l -1.699122,-3.609084 v 5.304071 H 15.52979 v -6.155699 h 1.116211 l 1.641244,3.427183 1.587501,-3.427183 h 1.136882 z"
         id="path418" />
    </g>
  </g>
</svg>
