<?xml version="1.0" encoding="UTF-8" standalone="no"?>
<!-- Created with Inkscape (http://www.inkscape.org/) -->

<svg
   width="210mm"
   height="210mm"
   viewBox="0 0 210 210"
   version="1.1"
   id="svg5"
   xmlns="http://www.w3.org/2000/svg"
   xmlns:svg="http://www.w3.org/2000/svg">
  <defs
     id="defs2" />
  <g
     id="g467"
     style="display:inline"
     transform="matrix(8,0,0,8,-1535,5.0000004)">
    <g
       aria-label="GRAB
BARR"
       id="text465"
       style="font-size:8.46667px;text-align:center;text-anchor:middle;fill:#ffffff;stroke-width:0.264583"
       transform="translate(192.48192,-1.3278261)">
      <path
         d="m 6.3727228,11.215065 q -0.5043622,0.231511 -1.103809,0.405144 -0.5953127,0.169498 -1.1534184,0.169498 -0.7193363,0 -1.3187831,-0.198437 Q 2.1972654,11.392832 1.7755856,10.995957 1.3497716,10.594948 1.1182611,9.9955009 0.88675058,9.3919199 0.88675058,8.5857672 q 0,-1.4758795 0.85989622,-2.3275074 0.8640303,-0.8557621 2.3688486,-0.8557621 0.5250327,0 1.0707361,0.1281576 0.5498374,0.1240235 1.1823572,0.425814 V 6.9279866 H 6.2941746 Q 6.166017,6.8287678 5.9221042,6.6675373 5.6781913,6.5063068 5.4425467,6.3988197 5.1572926,6.2706621 4.7934904,6.1879798 4.4338223,6.1011634 3.9749354,6.1011634 q -1.033529,0 -1.63711,0.6655927 -0.5994469,0.6614586 -0.5994469,1.7942064 0,1.1947596 0.6283857,1.8603525 0.6283857,0.661458 1.7115241,0.661458 0.3968752,0 0.7896162,-0.07855 0.3968752,-0.07855 0.6945315,-0.202571 V 9.2927011 H 3.9129237 V 8.5733649 h 2.4597991 z"
         id="path642" />
      <path
         d="M 12.896358,11.669818 H 11.83389 L 9.7751006,9.2224211 H 8.6216822 V 11.669818 H 7.8031272 V 5.5141189 h 1.7239264 q 0.5581054,0 0.9301764,0.074414 0.37207,0.07028 0.669727,0.2563152 0.334863,0.2108399 0.520898,0.533301 0.19017,0.3183269 0.19017,0.8102867 0,0.6655927 -0.334864,1.1162114 -0.334863,0.4464846 -0.921908,0.673861 z M 10.982263,7.2463136 q 0,-0.2645835 -0.09508,-0.4671552 Q 10.796227,6.5724526 10.581253,6.4318927 10.403486,6.3120033 10.159573,6.266528 9.9156605,6.2169186 9.5849313,6.2169186 H 8.6216822 v 2.3233733 h 0.8268232 q 0.3886069,0 0.6779946,-0.066146 0.289389,-0.07028 0.49196,-0.2563152 0.186036,-0.1736329 0.272852,-0.3968752 0.09095,-0.2273764 0.09095,-0.5746421 z"
         id="path644" />
      <path
         d="M 18.543561,11.669818 H 17.671262 L 17.067681,9.9541597 H 14.40531 L 13.801729,11.669818 H 12.970772 L 15.211463,5.5141189 H 16.30287 Z M 16.8155,9.2513599 15.736496,6.229321 14.653357,9.2513599 Z"
         id="path646" />
      <path
         d="m 24.120484,9.7763927 q 0,0.4588873 -0.173633,0.8102863 -0.173632,0.3514 -0.467155,0.578777 -0.347265,0.272851 -0.764811,0.388607 -0.413412,0.115755 -1.0542,0.115755 H 19.477872 V 5.5141189 h 1.823145 q 0.673861,0 1.008724,0.049609 0.334864,0.049609 0.640788,0.2067058 0.338998,0.177767 0.49196,0.4588869 0.152963,0.2769858 0.152963,0.6655927 0,0.4382163 -0.223243,0.748275 -0.223242,0.3059246 -0.595312,0.4919598 v 0.033073 q 0.624251,0.1281576 0.983919,0.5498374 0.359668,0.4175458 0.359668,1.0583342 z m -1.37666,-2.773992 q 0,-0.2232423 -0.07441,-0.3762046 Q 22.594995,6.4732338 22.429631,6.3781492 22.235327,6.266528 21.958341,6.2417233 21.681356,6.2127845 21.272078,6.2127845 h -0.975651 v 1.77767 h 1.058334 q 0.384472,0 0.611849,-0.037207 0.227376,-0.041341 0.42168,-0.1653646 0.194303,-0.1240235 0.272851,-0.318327 0.08268,-0.1984375 0.08268,-0.4671551 z m 0.525032,2.8070649 q 0,-0.3720704 -0.111621,-0.5911786 Q 23.045614,8.9991788 22.752092,8.8462165 22.553654,8.7428636 22.2684,8.7139248 21.98728,8.6808519 21.582137,8.6808519 h -1.28571 v 2.2903001 h 1.083138 q 0.537435,0 0.880567,-0.05374 0.343132,-0.05788 0.56224,-0.206706 0.23151,-0.161231 0.338997,-0.367936 0.107487,-0.206706 0.107487,-0.5333014 z"
         id="path648" />
      <path
         d="m 6.2197605,20.35973 q 0,0.458887 -0.1736329,0.810287 -0.1736328,0.3514 -0.4671551,0.578776 Q 5.2317067,22.021645 4.814161,22.1374 4.4007494,22.253155 3.7599614,22.253155 H 1.577148 v -6.155699 h 1.8231453 q 0.6738609,0 1.0087243,0.04961 0.3348634,0.04961 0.640788,0.206706 0.3389976,0.177767 0.4919599,0.458887 0.1529623,0.276985 0.1529623,0.665592 0,0.438217 -0.2232423,0.748275 -0.2232423,0.305925 -0.5953128,0.49196 v 0.03307 q 0.6242516,0.128158 0.9839197,0.549837 0.3596681,0.417546 0.3596681,1.058334 z M 4.8430998,17.585738 q 0,-0.223242 -0.074414,-0.376204 Q 4.6942716,17.056571 4.528907,16.961487 4.3346035,16.849866 4.0576177,16.825061 3.7806319,16.796122 3.3713544,16.796122 H 2.395703 v 1.77767 h 1.0583338 q 0.3844728,0 0.6118492,-0.03721 0.2273764,-0.04134 0.4216798,-0.165365 0.1943035,-0.124023 0.2728517,-0.318327 0.082682,-0.198437 0.082682,-0.467155 z m 0.5250328,2.807065 q 0,-0.37207 -0.1116212,-0.591178 Q 5.1448903,19.582516 4.851368,19.429554 4.6529305,19.326201 4.3676764,19.297262 4.0865565,19.264189 3.6814132,19.264189 H 2.395703 v 2.290301 h 1.0831385 q 0.5374351,0 0.8805667,-0.05374 0.3431317,-0.05788 0.5622398,-0.206705 0.2315105,-0.161231 0.3389976,-0.367937 0.107487,-0.206706 0.107487,-0.533301 z"
         id="path650" />
      <path
         d="M 12.2349,22.253155 H 11.362601 L 10.75902,20.537497 H 8.0966495 l -0.603581,1.715658 H 6.6621111 l 2.240691,-6.155699 H 9.9942088 Z M 10.506839,19.834697 9.4278349,16.812659 8.3446964,19.834697 Z"
         id="path652" />
      <path
         d="m 18.262441,22.253155 h -1.062468 l -2.05879,-2.447396 h -1.153418 v 2.447396 H 13.16921 v -6.155699 h 1.723926 q 0.558106,0 0.930177,0.07441 0.37207,0.07028 0.669726,0.256316 0.334864,0.21084 0.520899,0.533301 0.190169,0.318327 0.190169,0.810286 0,0.665593 -0.334863,1.116212 -0.334863,0.446484 -0.921908,0.673861 z m -1.914096,-4.423504 q 0,-0.264583 -0.09508,-0.467155 -0.09095,-0.206706 -0.305925,-0.347266 -0.177767,-0.119889 -0.42168,-0.165364 -0.243913,-0.04961 -0.574642,-0.04961 h -0.963249 v 2.323373 h 0.826823 q 0.388607,0 0.677995,-0.06615 0.289388,-0.07028 0.49196,-0.256316 0.186035,-0.173632 0.272852,-0.396875 0.09095,-0.227376 0.09095,-0.574642 z"
         id="path654" />
      <path
         d="m 24.149423,22.253155 h -1.062468 l -2.05879,-2.447396 h -1.153418 v 2.447396 h -0.818555 v -6.155699 h 1.723926 q 0.558106,0 0.930177,0.07441 0.37207,0.07028 0.669726,0.256316 0.334864,0.21084 0.520899,0.533301 0.190169,0.318327 0.190169,0.810286 0,0.665593 -0.334863,1.116212 -0.334863,0.446484 -0.921908,0.673861 z m -1.914096,-4.423504 q 0,-0.264583 -0.09508,-0.467155 -0.09095,-0.206706 -0.305925,-0.347266 -0.177767,-0.119889 -0.42168,-0.165364 -0.243913,-0.04961 -0.574642,-0.04961 h -0.963249 v 2.323373 h 0.826823 q 0.388607,0 0.677995,-0.06615 0.289388,-0.07028 0.49196,-0.256316 0.186035,-0.173632 0.272852,-0.396875 0.09095,-0.227376 0.09095,-0.574642 z"
         id="path656" />
    </g>
  </g>
</svg>
