<?xml version="1.0" encoding="UTF-8" standalone="no"?>
<!-- Created with Inkscape (http://www.inkscape.org/) -->

<svg
   width="210mm"
   height="210mm"
   viewBox="0 0 210 210"
   version="1.1"
   id="svg5"
   xmlns="http://www.w3.org/2000/svg"
   xmlns:svg="http://www.w3.org/2000/svg">
  <defs
     id="defs2" />
  <g
     id="g491"
     style="display:inline"
     transform="matrix(8,0,0,8,-435.00001,5.0000004)">
    <g
       aria-label="ILLEG
ADV"
       id="text489"
       style="font-size:8.46667px;text-align:center;text-anchor:middle;fill:#ffffff;stroke-width:0.264583"
       transform="translate(55.085268,-1.3278261)">
      <path
         d="M 2.9765463,11.669818 H 0.545686 V 11.041432 H 1.3518387 V 6.1425045 H 0.545686 V 5.5141189 H 2.9765463 V 6.1425045 H 2.1703937 v 4.8989275 h 0.8061526 z"
         id="path533" />
      <path
         d="M 8.264081,11.669818 H 4.3697435 V 5.5141189 h 0.818555 V 10.942213 H 8.264081 Z"
         id="path535" />
      <path
         d="M 12.976974,11.669818 H 9.082636 V 5.5141189 h 0.818555 v 5.4280941 h 3.075783 z"
         id="path537" />
      <path
         d="M 17.851097,11.669818 H 13.795529 V 5.5141189 h 4.055568 v 0.7276044 h -3.237013 v 1.6867194 h 3.237013 v 0.7276045 h -3.237013 v 2.2861658 h 3.237013 z"
         id="path539" />
      <path
         d="m 24.283782,11.215065 q -0.504362,0.231511 -1.103809,0.405144 -0.595312,0.169498 -1.153418,0.169498 -0.719336,0 -1.318783,-0.198437 -0.599447,-0.198438 -1.021127,-0.595313 -0.425814,-0.401009 -0.657324,-1.0004561 -0.231511,-0.603581 -0.231511,-1.4097337 0,-1.4758795 0.859896,-2.3275074 0.864031,-0.8557621 2.368849,-0.8557621 0.525033,0 1.070736,0.1281576 0.549838,0.1240235 1.182357,0.425814 v 0.9715173 h -0.07441 Q 24.077077,6.8287678 23.833164,6.6675373 23.589251,6.5063068 23.353606,6.3988197 23.068352,6.2706621 22.70455,6.1879798 q -0.359668,-0.086816 -0.818555,-0.086816 -1.033529,0 -1.63711,0.6655927 -0.599447,0.6614586 -0.599447,1.7942064 0,1.1947596 0.628386,1.8603521 0.628386,0.661458 1.711524,0.661458 0.396875,0 0.789616,-0.07855 0.396875,-0.07855 0.694532,-0.202571 V 9.2927011 H 21.823983 V 8.5733649 h 2.459799 z"
         id="path541" />
      <path
         d="M 9.0640325,22.253155 H 8.191734 L 7.588153,20.537497 H 4.9257821 L 4.3222012,22.253155 H 3.4912438 l 2.240691,-6.155699 H 6.8233415 Z M 7.3359719,19.834697 6.2569676,16.812659 5.1738291,19.834697 Z"
         id="path543" />
      <path
         d="m 15.199061,19.181507 q 0,0.839226 -0.367936,1.521355 -0.363803,0.682129 -0.971518,1.058334 -0.42168,0.260449 -0.942578,0.376204 -0.516765,0.115755 -1.364259,0.115755 H 9.9983427 v -6.155699 h 1.5378913 q 0.901237,0 1.430404,0.132292 0.533301,0.128158 0.901237,0.355534 0.628386,0.392741 0.979786,1.045932 0.3514,0.65319 0.3514,1.550293 z m -0.855762,-0.0124 q 0,-0.723471 -0.252181,-1.219565 -0.252181,-0.496093 -0.752409,-0.781347 -0.363803,-0.206706 -0.77308,-0.285255 -0.409278,-0.08268 -0.979786,-0.08268 h -0.768945 v 4.7501 h 0.768945 q 0.591179,0 1.029395,-0.08682 0.442351,-0.08682 0.810287,-0.322461 0.458887,-0.293522 0.686263,-0.77308 0.231511,-0.479557 0.231511,-1.198893 z"
         id="path545" />
      <path
         d="m 21.37543,16.097456 -2.240691,6.155699 h -1.091407 l -2.240691,-6.155699 h 0.876433 l 1.930632,5.415693 1.930633,-5.415693 z"
         id="path547" />
    </g>
  </g>
</svg>
