<?xml version="1.0" encoding="UTF-8" standalone="no"?>
<!-- Created with Inkscape (http://www.inkscape.org/) -->

<svg
   width="210mm"
   height="210mm"
   viewBox="0 0 210 210"
   version="1.1"
   id="svg5"
   xmlns="http://www.w3.org/2000/svg"
   xmlns:svg="http://www.w3.org/2000/svg">
  <defs
     id="defs2" />
  <g
     id="g435"
     style="display:inline"
     transform="matrix(8,0,0,8,-655.00002,5.0000004)">
    <g
       aria-label="ILLEG
SUBS"
       id="text433"
       style="font-size:8.46667px;text-align:center;text-anchor:middle;fill:#ffffff;stroke-width:0.264583"
       transform="translate(82.585268,-1.3919051)">
      <path
         d="M 2.9765463,11.669818 H 0.545686 V 11.041432 H 1.3518387 V 6.1425045 H 0.545686 V 5.5141189 H 2.9765463 V 6.1425045 H 2.1703937 v 4.8989275 h 0.8061526 z"
         id="path554" />
      <path
         d="M 8.264081,11.669818 H 4.3697435 V 5.5141189 h 0.818555 V 10.942213 H 8.264081 Z"
         id="path556" />
      <path
         d="M 12.976974,11.669818 H 9.082636 V 5.5141189 h 0.818555 v 5.4280941 h 3.075783 z"
         id="path558" />
      <path
         d="M 17.851097,11.669818 H 13.795529 V 5.5141189 h 4.055568 v 0.7276044 h -3.237013 v 1.6867194 h 3.237013 v 0.7276045 h -3.237013 v 2.2861658 h 3.237013 z"
         id="path560" />
      <path
         d="m 24.283782,11.215065 q -0.504362,0.231511 -1.103809,0.405144 -0.595312,0.169498 -1.153418,0.169498 -0.719336,0 -1.318783,-0.198437 -0.599447,-0.198438 -1.021127,-0.595313 -0.425814,-0.401009 -0.657324,-1.0004561 -0.231511,-0.603581 -0.231511,-1.4097337 0,-1.4758795 0.859896,-2.3275074 0.864031,-0.8557621 2.368849,-0.8557621 0.525033,0 1.070736,0.1281576 0.549838,0.1240235 1.182357,0.425814 v 0.9715173 h -0.07441 Q 24.077077,6.8287678 23.833164,6.6675373 23.589251,6.5063068 23.353606,6.3988197 23.068352,6.2706621 22.70455,6.1879798 q -0.359668,-0.086816 -0.818555,-0.086816 -1.033529,0 -1.63711,0.6655927 -0.599447,0.6614586 -0.599447,1.7942064 0,1.1947596 0.628386,1.8603521 0.628386,0.661458 1.711524,0.661458 0.396875,0 0.789616,-0.07855 0.396875,-0.07855 0.694532,-0.202571 V 9.2927011 H 21.823983 V 8.5733649 h 2.459799 z"
         id="path562" />
      <path
         d="m 5.9448418,20.496156 q 0,0.359668 -0.1694988,0.711068 -0.1653646,0.3514 -0.4671551,0.595313 -0.3307293,0.264583 -0.7730797,0.413411 -0.4382164,0.148829 -1.0583338,0.148829 -0.6655927,0 -1.1988937,-0.124024 Q 1.7487138,22.11673 1.1988764,21.872817 v -1.025261 h 0.057878 q 0.4671551,0.388607 1.0790043,0.599447 0.6118492,0.21084 1.1492843,0.21084 0.7606774,0 1.1823573,-0.285254 0.4258139,-0.285254 0.4258139,-0.760678 0,-0.409277 -0.2025716,-0.603581 Q 4.6922046,19.814027 4.2829271,19.70654 3.9728683,19.623858 3.6090661,19.570114 3.249398,19.516371 2.8442546,19.433688 2.0256996,19.260055 1.6288244,18.84251 q -0.392741,-0.42168 -0.392741,-1.095541 0,-0.77308 0.6531904,-1.26504 0.6531903,-0.496094 1.6577806,-0.496094 0.6490562,0 1.1906255,0.124024 0.5415692,0.124023 0.9591149,0.305924 v 0.967384 H 5.6389172 Q 5.2875173,17.08551 4.7128752,16.891207 4.1423671,16.692769 3.5429203,16.692769 q -0.6573245,0 -1.0583338,0.272852 -0.3968752,0.272851 -0.3968752,0.7028 0,0.384472 0.1984376,0.603581 0.1984376,0.219108 0.6986657,0.334863 0.2645834,0.05788 0.7524091,0.14056 0.4878257,0.08268 0.8268233,0.169499 0.6862633,0.181901 1.033529,0.549837 0.3472658,0.367936 0.3472658,1.029395 z"
         id="path564" />
      <path
         d="m 11.893835,19.780954 q 0,0.669727 -0.148828,1.169955 -0.144694,0.496094 -0.479558,0.826823 -0.318327,0.314193 -0.744141,0.458887 -0.425814,0.144694 -0.9921875,0.144694 -0.5787763,0 -1.0087244,-0.152962 Q 8.090448,22.075388 7.7969258,21.777732 7.4620624,21.438735 7.3132342,20.959177 7.1685401,20.47962 7.1685401,19.780954 v -3.683498 h 0.818555 v 3.724839 q 0,0.500228 0.066146,0.789616 0.07028,0.289388 0.2315105,0.525033 0.1819011,0.268718 0.4919598,0.405143 0.3141929,0.136426 0.7524092,0.136426 0.4423504,0 0.7524094,-0.132291 0.310058,-0.136426 0.496094,-0.409278 0.16123,-0.235645 0.227376,-0.537435 0.07028,-0.305925 0.07028,-0.756543 v -3.74551 h 0.818555 z"
         id="path566" />
      <path
         d="m 18.099143,20.35973 q 0,0.458887 -0.173633,0.810287 -0.173633,0.3514 -0.467155,0.578776 -0.347266,0.272852 -0.764812,0.388607 -0.413411,0.115755 -1.054199,0.115755 H 13.45653 v -6.155699 h 1.823146 q 0.67386,0 1.008724,0.04961 0.334863,0.04961 0.640788,0.206706 0.338997,0.177767 0.49196,0.458887 0.152962,0.276985 0.152962,0.665592 0,0.438217 -0.223242,0.748275 -0.223243,0.305925 -0.595313,0.49196 v 0.03307 q 0.624252,0.128158 0.98392,0.549837 0.359668,0.417546 0.359668,1.058334 z m -1.376661,-2.773992 q 0,-0.223242 -0.07441,-0.376204 -0.07441,-0.152963 -0.239779,-0.248047 -0.194303,-0.111621 -0.471289,-0.136426 -0.276986,-0.02894 -0.686263,-0.02894 h -0.975652 v 1.77767 h 1.058334 q 0.384473,0 0.611849,-0.03721 0.227377,-0.04134 0.42168,-0.165365 0.194304,-0.124023 0.272852,-0.318327 0.08268,-0.198437 0.08268,-0.467155 z m 0.525033,2.807065 q 0,-0.37207 -0.111621,-0.591178 -0.111621,-0.219109 -0.405144,-0.372071 -0.198437,-0.103353 -0.483691,-0.132292 -0.28112,-0.03307 -0.686264,-0.03307 h -1.28571 v 2.290301 h 1.083139 q 0.537435,0 0.880566,-0.05374 0.343132,-0.05788 0.56224,-0.206705 0.231511,-0.161231 0.338998,-0.367937 0.107487,-0.206706 0.107487,-0.533301 z"
         id="path568" />
      <path
         d="m 23.733944,20.496156 q 0,0.359668 -0.169498,0.711068 -0.165365,0.3514 -0.467156,0.595313 -0.330729,0.264583 -0.773079,0.413411 -0.438217,0.148829 -1.058334,0.148829 -0.665593,0 -1.198894,-0.124024 -0.529167,-0.124023 -1.079004,-0.367936 v -1.025261 h 0.05788 q 0.467155,0.388607 1.079004,0.599447 0.611849,0.21084 1.149284,0.21084 0.760678,0 1.182357,-0.285254 0.425814,-0.285254 0.425814,-0.760678 0,-0.409277 -0.202571,-0.603581 -0.198438,-0.194303 -0.607715,-0.30179 -0.310059,-0.08268 -0.673861,-0.136426 -0.359668,-0.05374 -0.764812,-0.136426 -0.818555,-0.173633 -1.21543,-0.591178 -0.392741,-0.42168 -0.392741,-1.095541 0,-0.77308 0.65319,-1.26504 0.653191,-0.496094 1.657781,-0.496094 0.649056,0 1.190625,0.124024 0.54157,0.124023 0.959115,0.305924 v 0.967384 h -0.05788 q -0.3514,-0.297657 -0.926042,-0.49196 -0.570508,-0.198438 -1.169955,-0.198438 -0.657325,0 -1.058334,0.272852 -0.396875,0.272851 -0.396875,0.7028 0,0.384472 0.198437,0.603581 0.198438,0.219108 0.698666,0.334863 0.264584,0.05788 0.752409,0.14056 0.487826,0.08268 0.826824,0.169499 0.686263,0.181901 1.033529,0.549837 0.347265,0.367936 0.347266,1.029395 z"
         id="path570" />
    </g>
  </g>
</svg>
