<?xml version="1.0" encoding="UTF-8" standalone="no"?>
<!-- Created with Inkscape (http://www.inkscape.org/) -->

<svg
   width="210mm"
   height="210mm"
   viewBox="0 0 210 210"
   version="1.1"
   id="svg5"
   xmlns="http://www.w3.org/2000/svg"
   xmlns:svg="http://www.w3.org/2000/svg">
  <defs
     id="defs2" />
  <g
     id="g443"
     style="display:inline"
     transform="matrix(8,0,0,8,-875.00002,4.9999996)">
    <g
       aria-label="ILLEG
STOP"
       id="text441"
       style="font-size:8.46667px;text-align:center;text-anchor:middle;fill:#ffffff;stroke-width:0.264583"
       transform="translate(110.08527,-1.391905)">
      <path
         d="M 2.9765463,11.669818 H 0.545686 V 11.041432 H 1.3518387 V 6.1425045 H 0.545686 V 5.5141189 H 2.9765463 V 6.1425045 H 2.1703937 v 4.8989275 h 0.8061526 z"
         id="path577" />
      <path
         d="M 8.264081,11.669818 H 4.3697435 V 5.5141189 h 0.818555 V 10.942213 H 8.264081 Z"
         id="path579" />
      <path
         d="M 12.976974,11.669818 H 9.082636 V 5.5141189 h 0.818555 v 5.4280941 h 3.075783 z"
         id="path581" />
      <path
         d="M 17.851097,11.669818 H 13.795529 V 5.5141189 h 4.055568 v 0.7276044 h -3.237013 v 1.6867194 h 3.237013 v 0.7276045 h -3.237013 v 2.2861658 h 3.237013 z"
         id="path583" />
      <path
         d="m 24.283782,11.215065 q -0.504362,0.231511 -1.103809,0.405144 -0.595312,0.169498 -1.153418,0.169498 -0.719336,0 -1.318783,-0.198437 -0.599447,-0.198438 -1.021127,-0.595313 -0.425814,-0.401009 -0.657324,-1.0004561 -0.231511,-0.603581 -0.231511,-1.4097337 0,-1.4758795 0.859896,-2.3275074 0.864031,-0.8557621 2.368849,-0.8557621 0.525033,0 1.070736,0.1281576 0.549838,0.1240235 1.182357,0.425814 v 0.9715173 h -0.07441 Q 24.077077,6.8287678 23.833164,6.6675373 23.589251,6.5063068 23.353606,6.3988197 23.068352,6.2706621 22.70455,6.1879798 q -0.359668,-0.086816 -0.818555,-0.086816 -1.033529,0 -1.63711,0.6655927 -0.599447,0.6614586 -0.599447,1.7942064 0,1.1947596 0.628386,1.8603521 0.628386,0.661458 1.711524,0.661458 0.396875,0 0.789616,-0.07855 0.396875,-0.07855 0.694532,-0.202571 V 9.2927011 H 21.823983 V 8.5733649 h 2.459799 z"
         id="path585" />
      <path
         d="m 6.449204,20.496156 q 0,0.359668 -0.1694988,0.711068 -0.1653646,0.3514 -0.4671551,0.595313 -0.3307293,0.264583 -0.7730798,0.413411 -0.4382163,0.148829 -1.0583337,0.148829 -0.6655927,0 -1.1988937,-0.124024 Q 2.253076,22.11673 1.7032385,21.872817 v -1.025261 h 0.057878 q 0.4671551,0.388607 1.0790043,0.599447 0.6118492,0.21084 1.1492843,0.21084 0.7606774,0 1.1823573,-0.285254 0.4258139,-0.285254 0.4258139,-0.760678 0,-0.409277 -0.2025717,-0.603581 Q 5.1965668,19.814027 4.7872892,19.70654 4.4772305,19.623858 4.1134283,19.570114 3.7537602,19.516371 3.3486168,19.433688 2.5300618,19.260055 2.1331866,18.84251 q -0.392741,-0.42168 -0.392741,-1.095541 0,-0.77308 0.6531904,-1.26504 0.6531903,-0.496094 1.6577806,-0.496094 0.6490562,0 1.1906254,0.124024 0.5415693,0.124023 0.959115,0.305924 v 0.967384 H 6.1432794 Q 5.7918795,17.08551 5.2172373,16.891207 4.6467293,16.692769 4.0472824,16.692769 q -0.6573244,0 -1.0583337,0.272852 -0.3968752,0.272851 -0.3968752,0.7028 0,0.384472 0.1984376,0.603581 0.1984376,0.219108 0.6986657,0.334863 0.2645834,0.05788 0.7524091,0.14056 0.4878257,0.08268 0.8268233,0.169499 0.6862632,0.181901 1.033529,0.549837 0.3472658,0.367936 0.3472658,1.029395 z"
         id="path587" />
      <path
         d="M 12.154284,16.825061 H 9.9549345 v 5.428094 H 9.1363794 V 16.825061 H 6.9370296 v -0.727605 h 5.2172544 z"
         id="path589" />
      <path
         d="m 17.363271,16.80439 q 0.376205,0.413412 0.574643,1.012859 0.202571,0.599447 0.202571,1.360124 0,0.760677 -0.206706,1.364258 -0.202571,0.599447 -0.570508,1.000456 -0.380338,0.417546 -0.901237,0.628386 -0.516764,0.21084 -1.182357,0.21084 -0.649056,0 -1.182357,-0.214974 -0.529167,-0.214974 -0.901238,-0.624252 -0.37207,-0.409277 -0.574642,-1.00459 -0.198437,-0.595313 -0.198437,-1.360124 0,-0.752409 0.198437,-1.347722 0.198438,-0.599447 0.578776,-1.025261 0.363803,-0.405143 0.901238,-0.620117 0.541569,-0.214974 1.178223,-0.214974 0.661458,0 1.186491,0.219108 0.529167,0.214974 0.897103,0.615983 z m -0.07441,2.372983 q 0,-1.198894 -0.537435,-1.84795 -0.537435,-0.65319 -1.467611,-0.65319 -0.938444,0 -1.47588,0.65319 -0.533301,0.649056 -0.533301,1.84795 0,1.211296 0.545704,1.856218 0.545703,0.640788 1.463477,0.640788 0.917774,0 1.459343,-0.640788 0.545703,-0.644922 0.545703,-1.856218 z"
         id="path591" />
      <path
         d="m 23.465227,17.957809 q 0,0.409277 -0.144694,0.760677 -0.14056,0.347266 -0.396876,0.603581 -0.318327,0.318327 -0.752409,0.479558 -0.434082,0.157096 -1.095541,0.157096 h -0.818555 v 2.294434 h -0.818555 v -6.155699 h 1.670183 q 0.553972,0 0.938445,0.09508 0.384473,0.09095 0.682129,0.289388 0.3514,0.235645 0.541569,0.587045 0.194304,0.3514 0.194304,0.888835 z m -0.851628,0.02067 q 0,-0.318327 -0.111621,-0.553971 -0.111622,-0.235645 -0.338998,-0.384473 -0.198438,-0.128158 -0.454753,-0.181901 -0.252181,-0.05788 -0.640788,-0.05788 h -0.810287 v 2.459799 h 0.690398 q 0.496094,0 0.806153,-0.08682 0.310058,-0.09095 0.504362,-0.285254 0.194303,-0.198438 0.272851,-0.417546 0.08268,-0.219108 0.08268,-0.49196 z"
         id="path593" />
    </g>
  </g>
</svg>
