<?xml version="1.0" encoding="UTF-8" standalone="no"?>
<!-- Created with Inkscape (http://www.inkscape.org/) -->

<svg
   width="210mm"
   height="210mm"
   viewBox="0 0 210 210"
   version="1.1"
   id="svg5"
   xmlns="http://www.w3.org/2000/svg"
   xmlns:svg="http://www.w3.org/2000/svg">
  <defs
     id="defs2" />
  <g
     id="g459"
     style="display:inline"
     transform="matrix(8,0,0,8,-1315,5.0000004)">
    <g
       aria-label="OBS-
TRCT"
       id="text457"
       style="font-size:8.46667px;text-align:center;text-anchor:middle;fill:#ffffff;stroke-width:0.264583"
       transform="translate(165.06667,-1.3753699)">
      <path
         d="m 6.7985368,6.2210527 q 0.3762046,0.4134117 0.5746421,1.0128585 0.2025717,0.5994469 0.2025717,1.3601243 0,0.7606773 -0.2067058,1.3642583 -0.2025717,0.5994472 -0.570508,1.0004562 -0.3803387,0.417546 -0.9012373,0.628386 -0.5167646,0.21084 -1.1823573,0.21084 -0.6490562,0 -1.1823572,-0.214975 Q 3.0034181,11.368027 2.6313476,10.95875 2.2592772,10.549472 2.0567055,9.9541597 1.8582679,9.358847 1.8582679,8.5940355 q 0,-0.7524092 0.1984376,-1.3477219 Q 2.2551431,6.6468667 2.6354817,6.2210527 2.999284,5.8159093 3.5367191,5.6009353 q 0.5415692,-0.214974 1.1782231,-0.214974 0.6614586,0 1.1864914,0.2191081 0.5291668,0.2149741 0.8971032,0.6159833 z m -0.074414,2.3729828 q 0,-1.1988938 -0.5374351,-1.84795 -0.5374351,-0.6531904 -1.4676113,-0.6531904 -0.9384444,0 -1.4758795,0.6531904 -0.533301,0.6490562 -0.533301,1.84795 0,1.211296 0.5457034,1.8562185 0.5457033,0.640788 1.4634771,0.640788 0.9177738,0 1.4593431,-0.640788 0.5457033,-0.6449225 0.5457033,-1.8562185 z"
         id="path621" />
      <path
         d="m 13.516476,9.7763927 q 0,0.4588873 -0.173633,0.8102863 -0.173633,0.3514 -0.467155,0.578777 -0.347266,0.272851 -0.764812,0.388607 -0.413411,0.115755 -1.054199,0.115755 H 8.8738633 V 5.5141189 h 1.8231457 q 0.673861,0 1.008724,0.049609 0.334863,0.049609 0.640788,0.2067058 0.338997,0.177767 0.49196,0.4588869 0.152962,0.2769858 0.152962,0.6655927 0,0.4382163 -0.223242,0.748275 -0.223242,0.3059246 -0.595313,0.4919598 v 0.033073 q 0.624252,0.1281576 0.98392,0.5498374 0.359668,0.4175458 0.359668,1.0583342 z m -1.376661,-2.773992 q 0,-0.2232423 -0.07441,-0.3762046 Q 11.990987,6.4732338 11.825622,6.3781492 11.631319,6.266528 11.354333,6.2417233 11.077347,6.2127845 10.66807,6.2127845 H 9.6924183 v 1.77767 h 1.0583337 q 0.384473,0 0.611849,-0.037207 0.227377,-0.041341 0.42168,-0.1653646 0.194304,-0.1240235 0.272852,-0.318327 0.08268,-0.1984375 0.08268,-0.4671551 z m 0.525033,2.8070649 q 0,-0.3720704 -0.111621,-0.5911786 Q 12.441606,8.9991788 12.148083,8.8462165 11.949646,8.7428636 11.664392,8.7139248 11.383272,8.6808519 10.978128,8.6808519 H 9.6924183 v 2.2903001 h 1.0831387 q 0.537435,0 0.880567,-0.05374 0.343131,-0.05788 0.562239,-0.206706 0.231511,-0.161231 0.338998,-0.367936 0.107487,-0.206706 0.107487,-0.5333014 z"
         id="path623" />
      <path
         d="m 19.151276,9.9128185 q 0,0.3596685 -0.169499,0.7110685 -0.165364,0.351399 -0.467155,0.595312 -0.330729,0.264584 -0.77308,0.413412 -0.438216,0.148828 -1.058333,0.148828 -0.665593,0 -1.198894,-0.124023 -0.529167,-0.124024 -1.079004,-0.367937 v -1.025261 h 0.05788 q 0.467155,0.388607 1.079004,0.599447 0.61185,0.21084 1.149285,0.21084 0.760677,0 1.182357,-0.285254 0.425814,-0.285254 0.425814,-0.760677 0,-0.4092777 -0.202572,-0.6035812 Q 17.898639,9.2306893 17.489361,9.1232023 17.179303,9.04052 16.8155,8.9867765 16.455832,8.933033 16.050689,8.8503507 15.232134,8.6767178 14.835259,8.259172 14.442518,7.8374922 14.442518,7.1636312 q 0,-0.7730797 0.65319,-1.2650395 0.65319,-0.496094 1.657781,-0.496094 0.649056,0 1.190625,0.1240235 0.541569,0.1240235 0.959115,0.3059246 V 6.799829 h -0.05788 q -0.3514,-0.2976564 -0.926042,-0.4919598 -0.570508,-0.1984376 -1.169955,-0.1984376 -0.657324,0 -1.058333,0.2728517 -0.396875,0.2728516 -0.396875,0.7027997 0,0.3844728 0.198437,0.603581 0.198438,0.2191082 0.698666,0.3348634 0.264583,0.057878 0.752409,0.14056 0.487826,0.082682 0.826823,0.1694987 0.686263,0.1819011 1.033529,0.5498375 0.347266,0.3679363 0.347266,1.0293949 z"
         id="path625" />
      <path
         d="m 22.851311,9.3505787 h -2.579689 v -0.748275 h 2.579689 z"
         id="path627" />
      <path
         d="M 6.5339534,16.825061 H 4.3346035 v 5.428094 H 3.5160485 V 16.825061 H 1.3166987 v -0.727605 h 5.2172547 z"
         id="path629" />
      <path
         d="M 12.454008,22.253155 H 11.39154 L 9.33275,19.805759 H 8.1793316 v 2.447396 H 7.3607766 V 16.097456 H 9.084703 q 0.5581057,0 0.930176,0.07441 0.372071,0.07028 0.669727,0.256316 0.334863,0.21084 0.520899,0.533301 0.190169,0.318327 0.190169,0.810286 0,0.665593 -0.334863,1.116212 -0.334864,0.446484 -0.921908,0.673861 z m -1.914096,-4.423504 q 0,-0.264583 -0.09508,-0.467155 Q 10.353877,17.15579 10.138903,17.01523 9.9611357,16.895341 9.7172228,16.849866 9.4733099,16.800256 9.1425807,16.800256 H 8.1793316 v 2.323373 h 0.8268232 q 0.3886069,0 0.6779951,-0.06615 0.2893881,-0.07028 0.4919601,-0.256316 0.186035,-0.173632 0.272851,-0.396875 0.09095,-0.227376 0.09095,-0.574642 z"
         id="path631" />
      <path
         d="m 18.001992,21.806671 q -0.227376,0.09922 -0.413411,0.186035 -0.181902,0.08682 -0.479558,0.181901 -0.252181,0.07855 -0.549837,0.132292 -0.293523,0.05788 -0.649057,0.05788 -0.669726,0 -1.219564,-0.186036 -0.545703,-0.190169 -0.950847,-0.591178 -0.396875,-0.392741 -0.620117,-0.996322 -0.223242,-0.607715 -0.223242,-1.409734 0,-0.760677 0.214974,-1.360124 0.214974,-0.599447 0.620117,-1.012859 0.392741,-0.401009 0.946713,-0.611849 0.558105,-0.21084 1.2361,-0.21084 0.496094,0 0.988054,0.11989 0.496094,0.119889 1.099675,0.421679 v 0.971518 h -0.06201 q -0.508496,-0.425814 -1.008724,-0.620118 -0.500228,-0.194303 -1.070736,-0.194303 -0.467155,0 -0.84336,0.152962 -0.37207,0.148828 -0.665592,0.467155 -0.285254,0.310059 -0.446485,0.785482 -0.157096,0.47129 -0.157096,1.091407 0,0.649056 0.173632,1.116211 0.177767,0.467156 0.454753,0.760678 0.289388,0.305924 0.673861,0.454753 0.388607,0.144694 0.818555,0.144694 0.591179,0 1.107943,-0.202572 0.516765,-0.202572 0.967384,-0.607715 h 0.05788 z"
         id="path633" />
      <path
         d="m 23.549975,16.825061 h -2.19935 v 5.428094 H 20.53207 v -5.428094 h -2.19935 v -0.727605 h 5.217255 z"
         id="path635" />
    </g>
  </g>
</svg>
