<?xml version="1.0" encoding="UTF-8" standalone="no"?>
<!-- Created with Inkscape (http://www.inkscape.org/) -->

<svg
   width="210mm"
   height="210mm"
   viewBox="0 0 210 210"
   version="1.1"
   id="svg5"
   xmlns="http://www.w3.org/2000/svg"
   xmlns:svg="http://www.w3.org/2000/svg">
  <defs
     id="defs2" />
  <g
     id="g451"
     style="display:inline"
     transform="matrix(8,0,0,8,-1095,5.0000004)">
    <g
       aria-label="OUT
OF B"
       id="text449"
       style="font-size:8.46667px;text-align:center;text-anchor:middle;fill:#ffffff;stroke-width:0.264583"
       transform="translate(137.49639,-1.3836369)">
      <path
         d="m 8.8097843,6.2210527 q 0.3762046,0.4134117 0.5746422,1.0128585 0.2025717,0.5994469 0.2025717,1.3601243 0,0.7606773 -0.2067058,1.3642583 -0.2025717,0.5994472 -0.5705081,1.0004562 -0.3803387,0.417546 -0.9012373,0.628386 -0.5167645,0.21084 -1.1823572,0.21084 -0.6490563,0 -1.1823573,-0.214975 Q 5.0146656,11.368027 4.6425952,10.95875 4.2705247,10.549472 4.067953,9.9541597 3.8695154,9.358847 3.8695154,8.5940355 q 0,-0.7524092 0.1984376,-1.3477219 0.1984376,-0.5994469 0.5787763,-1.0252609 0.3638022,-0.4051434 0.9012373,-0.6201174 0.5415693,-0.214974 1.1782232,-0.214974 0.6614586,0 1.1864913,0.2191081 0.5291669,0.2149741 0.8971032,0.6159833 z m -0.074414,2.3729828 q 0,-1.1988938 -0.5374351,-1.84795 Q 7.6605,6.0928951 6.7303239,6.0928951 q -0.9384444,0 -1.4758795,0.6531904 -0.533301,0.6490562 -0.533301,1.84795 0,1.211296 0.5457033,1.8562185 0.5457034,0.640788 1.4634772,0.640788 0.9177738,0 1.459343,-0.640788 0.5457033,-0.6449225 0.5457034,-1.8562185 z"
         id="path604" />
      <path
         d="m 15.519455,9.1976164 q 0,0.6697268 -0.148828,1.1699546 -0.144694,0.496094 -0.479558,0.826824 -0.318326,0.314192 -0.74414,0.458886 -0.425814,0.144695 -0.992188,0.144695 -0.578777,0 -1.008725,-0.152963 -0.429948,-0.152962 -0.72347,-0.450618 Q 11.087683,10.855397 10.938854,10.37584 10.79416,9.8962821 10.79416,9.1976164 V 5.5141189 h 0.818555 v 3.7248387 q 0,0.500228 0.06615,0.7896164 0.07028,0.289388 0.231511,0.525033 0.181901,0.268717 0.49196,0.405143 0.314192,0.136426 0.752409,0.136426 0.44235,0 0.752409,-0.132292 0.310059,-0.136426 0.496094,-0.409277 0.16123,-0.235645 0.227376,-0.537436 Q 14.7009,9.7102468 14.7009,9.2596282 V 5.5141189 h 0.818555 z"
         id="path606" />
      <path
         d="M 21.472582,6.2417233 H 19.273233 V 11.669818 H 18.454678 V 6.2417233 h -2.19935 V 5.5141189 h 5.217254 z"
         id="path608" />
      <path
         d="m 7.693573,16.80439 q 0.3762045,0.413412 0.5746421,1.012859 0.2025717,0.599447 0.2025717,1.360124 0,0.760677 -0.2067058,1.364258 -0.2025717,0.599447 -0.570508,1.000456 -0.3803387,0.417546 -0.9012374,0.628386 -0.5167645,0.21084 -1.1823572,0.21084 -0.6490563,0 -1.1823573,-0.214974 Q 3.8984543,21.951365 3.5263838,21.542087 3.1543133,21.13281 2.9517416,20.537497 2.7533041,19.942184 2.7533041,19.177373 q 0,-0.752409 0.1984375,-1.347722 0.1984376,-0.599447 0.5787763,-1.025261 0.3638022,-0.405143 0.9012374,-0.620117 0.5415692,-0.214974 1.1782231,-0.214974 0.6614586,0 1.1864913,0.219108 0.5291669,0.214974 0.8971033,0.615983 z m -0.074414,2.372983 q 0,-1.198894 -0.5374351,-1.84795 -0.5374352,-0.65319 -1.4676113,-0.65319 -0.9384444,0 -1.4758795,0.65319 -0.533301,0.649056 -0.533301,1.84795 0,1.211296 0.5457033,1.856218 0.5457034,0.640788 1.4634772,0.640788 0.9177738,0 1.459343,-0.640788 0.5457034,-0.644922 0.5457034,-1.856218 z"
         id="path610" />
      <path
         d="m 13.700444,16.825061 h -3.11299 v 1.736329 h 2.674774 v 0.727604 h -2.674774 v 2.964161 H 9.7688995 v -6.155699 h 3.9315445 z"
         id="path612" />
      <path
         d="m 22.25393,20.35973 q 0,0.458887 -0.173633,0.810287 -0.173633,0.3514 -0.467155,0.578776 -0.347266,0.272852 -0.764811,0.388607 -0.413412,0.115755 -1.0542,0.115755 h -2.182813 v -6.155699 h 1.823145 q 0.673861,0 1.008724,0.04961 0.334864,0.04961 0.640788,0.206706 0.338998,0.177767 0.49196,0.458887 0.152962,0.276985 0.152962,0.665592 0,0.438217 -0.223242,0.748275 -0.223242,0.305925 -0.595313,0.49196 v 0.03307 q 0.624252,0.128158 0.98392,0.549837 0.359668,0.417546 0.359668,1.058334 z m -1.376661,-2.773992 q 0,-0.223242 -0.07441,-0.376204 -0.07441,-0.152963 -0.239778,-0.248047 -0.194304,-0.111621 -0.47129,-0.136426 -0.276985,-0.02894 -0.686263,-0.02894 h -0.975651 v 1.77767 h 1.058333 q 0.384473,0 0.61185,-0.03721 0.227376,-0.04134 0.421679,-0.165365 0.194304,-0.124023 0.272852,-0.318327 0.08268,-0.198437 0.08268,-0.467155 z m 0.525033,2.807065 q 0,-0.37207 -0.111621,-0.591178 -0.111621,-0.219109 -0.405143,-0.372071 -0.198438,-0.103353 -0.483692,-0.132292 -0.28112,-0.03307 -0.686263,-0.03307 h -1.28571 v 2.290301 h 1.083138 q 0.537435,0 0.880567,-0.05374 0.343132,-0.05788 0.56224,-0.206705 0.23151,-0.161231 0.338997,-0.367937 0.107487,-0.206706 0.107487,-0.533301 z"
         id="path614" />
    </g>
  </g>
</svg>
