<?xml version="1.0" encoding="UTF-8" standalone="no"?>
<!-- Created with Inkscape (http://www.inkscape.org/) -->

<svg
   width="210mm"
   height="210mm"
   viewBox="0 0 210 210"
   version="1.1"
   id="svg5"
   xmlns="http://www.w3.org/2000/svg"
   xmlns:svg="http://www.w3.org/2000/svg">
  <defs
     id="defs2" />
  <g
     id="g427"
     style="display:inline"
     transform="matrix(8,0,0,8,-215.00001,5.0000004)">
    <g
       aria-label="STCK
INF"
       id="text425"
       style="font-size:8.46667px;text-align:center;text-anchor:middle;fill:#ffffff;stroke-width:0.264583"
       transform="translate(27.335154,-1.3278261)">
      <path
         d="m 6.4243993,9.9128185 q 0,0.3596685 -0.1694988,0.7110685 -0.1653646,0.351399 -0.4671551,0.595312 -0.3307293,0.264584 -0.7730798,0.413412 -0.4382163,0.148828 -1.0583337,0.148828 -0.6655927,0 -1.1988937,-0.124023 -0.5291669,-0.124024 -1.0790044,-0.367937 v -1.025261 h 0.057878 q 0.4671551,0.388607 1.0790043,0.599447 0.6118492,0.21084 1.1492843,0.21084 0.7606774,0 1.1823573,-0.285254 0.4258139,-0.285254 0.4258139,-0.760677 0,-0.4092777 -0.2025717,-0.6035812 Q 5.1717621,9.2306893 4.7624845,9.1232023 4.4524258,9.04052 4.0886236,8.9867765 3.7289555,8.933033 3.3238121,8.8503507 2.5052571,8.6767178 2.1083819,8.259172 1.7156409,7.8374922 1.7156409,7.1636312 q 0,-0.7730797 0.6531904,-1.2650395 0.6531903,-0.496094 1.6577806,-0.496094 0.6490562,0 1.1906254,0.1240235 0.5415693,0.1240235 0.959115,0.3059246 V 6.799829 H 6.1184747 Q 5.7670748,6.5021726 5.1924326,6.3078692 4.6219246,6.1094316 4.0224777,6.1094316 q -0.6573244,0 -1.0583337,0.2728517 -0.3968752,0.2728516 -0.3968752,0.7027997 0,0.3844728 0.1984376,0.603581 0.1984376,0.2191082 0.6986657,0.3348634 0.2645834,0.057878 0.7524091,0.14056 0.4878257,0.082682 0.8268233,0.1694987 0.6862632,0.1819011 1.033529,0.5498375 0.3472658,0.3679363 0.3472658,1.0293949 z"
         id="path514" />
      <path
         d="M 12.12948,6.2417233 H 9.9301298 V 11.669818 H 9.1115747 V 6.2417233 H 6.9122249 V 5.5141189 H 12.12948 Z"
         id="path516" />
      <path
         d="m 17.545171,11.223333 q -0.227376,0.09922 -0.413411,0.186036 -0.181901,0.08682 -0.479558,0.181901 -0.252181,0.07855 -0.549837,0.132291 -0.293523,0.05788 -0.649057,0.05788 -0.669726,0 -1.219564,-0.186035 -0.545703,-0.19017 -0.950847,-0.591179 -0.396875,-0.392741 -0.620117,-0.996322 -0.223242,-0.6077149 -0.223242,-1.4097334 0,-0.7606774 0.214974,-1.3601243 0.214974,-0.5994468 0.620117,-1.0128584 0.392741,-0.4010093 0.946713,-0.6118493 0.558105,-0.2108399 1.236101,-0.2108399 0.496093,0 0.988053,0.1198894 0.496094,0.1198894 1.099675,0.4216798 v 0.9715174 h -0.06201 Q 16.974663,6.4897703 16.474435,6.2954668 15.974207,6.1011634 15.403699,6.1011634 q -0.467155,0 -0.84336,0.1529623 -0.37207,0.1488281 -0.665592,0.4671551 -0.285254,0.3100587 -0.446485,0.7854821 -0.157096,0.4712892 -0.157096,1.0914067 0,0.6490562 0.173633,1.1162113 0.177767,0.4671551 0.454752,0.7606771 0.289388,0.305925 0.673861,0.454753 0.388607,0.144694 0.818555,0.144694 0.591179,0 1.107943,-0.202572 0.516765,-0.202571 0.967384,-0.607715 h 0.05788 z"
         id="path518" />
      <path
         d="M 23.651261,11.669818 H 22.588793 L 20.153798,8.9288989 19.541949,9.5820892 V 11.669818 H 18.723394 V 5.5141189 h 0.818555 v 3.2122083 l 2.988966,-3.2122083 h 0.992188 l -2.749187,2.8938813 z"
         id="path520" />
      <path
         d="M 8.049107,22.253155 H 5.6182466 V 21.62477 H 6.4243993 V 16.725842 H 5.6182466 V 16.097456 H 8.049107 v 0.628386 H 7.2429543 V 21.62477 H 8.049107 Z"
         id="path522" />
      <path
         d="m 14.13866,22.253155 h -1.012858 l -2.918686,-5.506642 v 5.506642 H 9.4423041 v -6.155699 h 1.2691739 l 2.662371,5.027086 v -5.027086 h 0.764811 z"
         id="path524" />
      <path
         d="m 19.707314,16.825061 h -3.112989 v 1.736329 h 2.674773 v 0.727604 h -2.674773 v 2.964161 H 15.77577 v -6.155699 h 3.931544 z"
         id="path526" />
    </g>
  </g>
</svg>
