<?xml version="1.0" encoding="UTF-8" standalone="no"?>
<!-- Created with Inkscape (http://www.inkscape.org/) -->

<svg
   width="210mm"
   height="210mm"
   viewBox="0 0 210 210"
   version="1.1"
   id="svg5"
   xmlns="http://www.w3.org/2000/svg"
   xmlns:svg="http://www.w3.org/2000/svg">
  <defs
     id="defs2" />
  <g
     id="g483"
     style="display:inline"
     transform="matrix(8,0,0,8,-1975,4.9999996)">
    <g
       aria-label="UN-
SPRT"
       id="text481"
       style="font-size:8.46667px;text-align:center;text-anchor:middle;fill:#ffffff;stroke-width:0.264583"
       transform="translate(247.28968,-1.4394476)">
      <path
         d="m 9.7068876,9.1976164 q 0,0.6697268 -0.1488282,1.1699546 -0.1446941,0.496094 -0.4795575,0.826824 -0.318327,0.314192 -0.7441409,0.458886 -0.425814,0.144695 -0.9921879,0.144695 -0.5787763,0 -1.0087244,-0.152963 Q 5.9035006,11.492051 5.6099784,11.194395 5.275115,10.855397 5.1262868,10.37584 4.9815927,9.8962821 4.9815927,9.1976164 V 5.5141189 h 0.818555 v 3.7248387 q 0,0.500228 0.066146,0.7896164 0.07028,0.289388 0.2315105,0.525033 0.1819011,0.268717 0.4919598,0.405143 0.3141929,0.136426 0.7524092,0.136426 0.4423504,0 0.7524091,-0.132292 0.3100587,-0.136426 0.496094,-0.409277 0.1612305,-0.235645 0.2273764,-0.537436 0.07028,-0.3059242 0.07028,-0.7565428 V 5.5141189 h 0.8185551 z"
         id="path688" />
      <path
         d="M 15.965939,11.669818 H 14.953081 L 12.034395,6.1631751 V 11.669818 H 11.269583 V 5.5141189 h 1.269174 l 2.662371,5.0270851 V 5.5141189 h 0.764811 z"
         id="path690" />
      <path
         d="m 19.988434,9.3505787 h -2.579688 v -0.748275 h 2.579688 z"
         id="path692" />
      <path
         d="m 6.8584815,20.496156 q 0,0.359668 -0.1694988,0.711068 -0.1653646,0.3514 -0.4671551,0.595313 -0.3307293,0.264583 -0.7730798,0.413411 -0.4382163,0.148829 -1.0583337,0.148829 -0.6655927,0 -1.1988937,-0.124024 Q 2.6623535,22.11673 2.112516,21.872817 v -1.025261 h 0.057878 q 0.4671551,0.388607 1.0790043,0.599447 0.6118492,0.21084 1.1492843,0.21084 0.7606774,0 1.1823573,-0.285254 0.4258139,-0.285254 0.4258139,-0.760678 0,-0.409277 -0.2025717,-0.603581 Q 5.6058443,19.814027 5.1965668,19.70654 4.886508,19.623858 4.5227058,19.570114 4.1630377,19.516371 3.7578943,19.433688 2.9393393,19.260055 2.5424641,18.84251 q -0.392741,-0.42168 -0.392741,-1.095541 0,-0.77308 0.6531904,-1.26504 0.6531903,-0.496094 1.6577806,-0.496094 0.6490562,0 1.1906254,0.124024 0.5415693,0.124023 0.959115,0.305924 v 0.967384 H 6.5525569 Q 6.201157,17.08551 5.6265148,16.891207 5.0560068,16.692769 4.4565599,16.692769 q -0.6573244,0 -1.0583337,0.272852 -0.3968752,0.272851 -0.3968752,0.7028 0,0.384472 0.1984376,0.603581 0.1984376,0.219108 0.6986657,0.334863 0.2645834,0.05788 0.7524091,0.14056 0.4878257,0.08268 0.8268233,0.169499 0.6862633,0.181901 1.033529,0.549837 0.3472658,0.367936 0.3472658,1.029395 z"
         id="path694" />
      <path
         d="m 12.19976,17.957809 q 0,0.409277 -0.144695,0.760677 -0.140559,0.347266 -0.396875,0.603581 -0.318327,0.318327 -0.752409,0.479558 -0.434082,0.157096 -1.0955406,0.157096 h -0.818555 v 2.294434 h -0.818555 v -6.155699 h 1.6701829 q 0.5539717,0 0.9384447,0.09508 0.384473,0.09095 0.682129,0.289388 0.3514,0.235645 0.541569,0.587045 0.194304,0.3514 0.194304,0.888835 z m -0.851628,0.02067 q 0,-0.318327 -0.111622,-0.553971 -0.111621,-0.235645 -0.338997,-0.384473 -0.198438,-0.128158 -0.454753,-0.181901 -0.252181,-0.05788 -0.6407878,-0.05788 H 8.9916854 v 2.459799 h 0.6903974 q 0.4960942,0 0.8061522,-0.08682 0.310059,-0.09095 0.504363,-0.285254 0.194303,-0.198438 0.272851,-0.417546 0.08268,-0.219108 0.08268,-0.49196 z"
         id="path696" />
      <path
         d="m 18.371995,22.253155 h -1.062468 l -2.058789,-2.447396 h -1.153419 v 2.447396 h -0.818555 v -6.155699 h 1.723927 q 0.558105,0 0.930176,0.07441 0.37207,0.07028 0.669727,0.256316 0.334863,0.21084 0.520898,0.533301 0.19017,0.318327 0.19017,0.810286 0,0.665593 -0.334864,1.116212 -0.334863,0.446484 -0.921908,0.673861 z m -1.914096,-4.423504 q 0,-0.264583 -0.09508,-0.467155 -0.09095,-0.206706 -0.305925,-0.347266 -0.177767,-0.119889 -0.42168,-0.165364 -0.243913,-0.04961 -0.574642,-0.04961 h -0.963249 v 2.323373 h 0.826823 q 0.388607,0 0.677995,-0.06615 0.289389,-0.07028 0.49196,-0.256316 0.186035,-0.173632 0.272852,-0.396875 0.09095,-0.227376 0.09095,-0.574642 z"
         id="path698" />
      <path
         d="m 23.308131,16.825061 h -2.19935 v 5.428094 h -0.818555 v -5.428094 h -2.19935 v -0.727605 h 5.217255 z"
         id="path700" />
    </g>
  </g>
</svg>
